%TF.GenerationSoftware,KiCad,Pcbnew,5.1.5*%
%TF.CreationDate,2020-05-12T22:46:27+02:00*%
%TF.ProjectId,atmega-dcf77-clock,61746d65-6761-42d6-9463-6637372d636c,rev?*%
%TF.SameCoordinates,Original*%
%TF.FileFunction,Copper,L1,Top*%
%TF.FilePolarity,Positive*%
%FSLAX46Y46*%
G04 Gerber Fmt 4.6, Leading zero omitted, Abs format (unit mm)*
G04 Created by KiCad (PCBNEW 5.1.5) date 2020-05-12 22:46:27*
%MOMM*%
%LPD*%
G04 APERTURE LIST*
%ADD10C,0.010000*%
%ADD11O,1.700000X1.700000*%
%ADD12R,1.700000X1.700000*%
%ADD13R,1.600000X1.600000*%
%ADD14O,1.600000X1.600000*%
%ADD15C,1.600000*%
%ADD16C,2.000000*%
%ADD17C,0.100000*%
%ADD18R,3.500000X3.500000*%
%ADD19C,1.800000*%
%ADD20R,1.800000X1.800000*%
%ADD21C,1.000000*%
%ADD22C,0.250000*%
G04 APERTURE END LIST*
D10*
G36*
X65675494Y-116707045D02*
G01*
X65794481Y-116765855D01*
X65969753Y-116858341D01*
X66192937Y-116979928D01*
X66455657Y-117126037D01*
X66749541Y-117292092D01*
X67066212Y-117473515D01*
X67155750Y-117525244D01*
X68605667Y-118364427D01*
X68605667Y-121777906D01*
X67162163Y-122612340D01*
X66841830Y-122796926D01*
X66542666Y-122968189D01*
X66272981Y-123121456D01*
X66041088Y-123252053D01*
X65855297Y-123355305D01*
X65723920Y-123426537D01*
X65655268Y-123461076D01*
X65648746Y-123463463D01*
X65597887Y-123446515D01*
X65482217Y-123391123D01*
X65309929Y-123301724D01*
X65089217Y-123182755D01*
X64828274Y-123038654D01*
X64535292Y-122873858D01*
X64218467Y-122692805D01*
X64107750Y-122628898D01*
X62636667Y-121777645D01*
X62636667Y-118589500D01*
X63062506Y-118589500D01*
X63062601Y-120071167D01*
X63062696Y-121552833D01*
X64320765Y-122280878D01*
X64618349Y-122452050D01*
X64893664Y-122608420D01*
X65137935Y-122745157D01*
X65342383Y-122857430D01*
X65498232Y-122940407D01*
X65596705Y-122989256D01*
X65628140Y-123000545D01*
X65675342Y-122978124D01*
X65786989Y-122918252D01*
X65954240Y-122825873D01*
X66168256Y-122705937D01*
X66420194Y-122563390D01*
X66701217Y-122403179D01*
X66929067Y-122272500D01*
X68180688Y-121552833D01*
X68180688Y-118589500D01*
X66927461Y-117869833D01*
X66629863Y-117699817D01*
X66354383Y-117544121D01*
X66109892Y-117407629D01*
X65905259Y-117295223D01*
X65749354Y-117211787D01*
X65651047Y-117162204D01*
X65620256Y-117150167D01*
X65571949Y-117170603D01*
X65459288Y-117228652D01*
X65291145Y-117319426D01*
X65076389Y-117438034D01*
X64823894Y-117579589D01*
X64542530Y-117739200D01*
X64314392Y-117869833D01*
X63062506Y-118589500D01*
X62636667Y-118589500D01*
X62636667Y-118364912D01*
X64086583Y-117525915D01*
X64408050Y-117341093D01*
X64709018Y-117170346D01*
X64981111Y-117018256D01*
X65215953Y-116889405D01*
X65405169Y-116788374D01*
X65540383Y-116719745D01*
X65613219Y-116688100D01*
X65621167Y-116686490D01*
X65675494Y-116707045D01*
G37*
X65675494Y-116707045D02*
X65794481Y-116765855D01*
X65969753Y-116858341D01*
X66192937Y-116979928D01*
X66455657Y-117126037D01*
X66749541Y-117292092D01*
X67066212Y-117473515D01*
X67155750Y-117525244D01*
X68605667Y-118364427D01*
X68605667Y-121777906D01*
X67162163Y-122612340D01*
X66841830Y-122796926D01*
X66542666Y-122968189D01*
X66272981Y-123121456D01*
X66041088Y-123252053D01*
X65855297Y-123355305D01*
X65723920Y-123426537D01*
X65655268Y-123461076D01*
X65648746Y-123463463D01*
X65597887Y-123446515D01*
X65482217Y-123391123D01*
X65309929Y-123301724D01*
X65089217Y-123182755D01*
X64828274Y-123038654D01*
X64535292Y-122873858D01*
X64218467Y-122692805D01*
X64107750Y-122628898D01*
X62636667Y-121777645D01*
X62636667Y-118589500D01*
X63062506Y-118589500D01*
X63062601Y-120071167D01*
X63062696Y-121552833D01*
X64320765Y-122280878D01*
X64618349Y-122452050D01*
X64893664Y-122608420D01*
X65137935Y-122745157D01*
X65342383Y-122857430D01*
X65498232Y-122940407D01*
X65596705Y-122989256D01*
X65628140Y-123000545D01*
X65675342Y-122978124D01*
X65786989Y-122918252D01*
X65954240Y-122825873D01*
X66168256Y-122705937D01*
X66420194Y-122563390D01*
X66701217Y-122403179D01*
X66929067Y-122272500D01*
X68180688Y-121552833D01*
X68180688Y-118589500D01*
X66927461Y-117869833D01*
X66629863Y-117699817D01*
X66354383Y-117544121D01*
X66109892Y-117407629D01*
X65905259Y-117295223D01*
X65749354Y-117211787D01*
X65651047Y-117162204D01*
X65620256Y-117150167D01*
X65571949Y-117170603D01*
X65459288Y-117228652D01*
X65291145Y-117319426D01*
X65076389Y-117438034D01*
X64823894Y-117579589D01*
X64542530Y-117739200D01*
X64314392Y-117869833D01*
X63062506Y-118589500D01*
X62636667Y-118589500D01*
X62636667Y-118364912D01*
X64086583Y-117525915D01*
X64408050Y-117341093D01*
X64709018Y-117170346D01*
X64981111Y-117018256D01*
X65215953Y-116889405D01*
X65405169Y-116788374D01*
X65540383Y-116719745D01*
X65613219Y-116688100D01*
X65621167Y-116686490D01*
X65675494Y-116707045D01*
G36*
X66608226Y-118400947D02*
G01*
X67589667Y-118958916D01*
X67589667Y-121183417D01*
X66613228Y-121738542D01*
X66352743Y-121886254D01*
X66117067Y-122019175D01*
X65915993Y-122131839D01*
X65759310Y-122218783D01*
X65656813Y-122274542D01*
X65618395Y-122293667D01*
X65613432Y-122253177D01*
X65608874Y-122139083D01*
X65604915Y-121962447D01*
X65601754Y-121734330D01*
X65599586Y-121465795D01*
X65598626Y-121182417D01*
X65597252Y-120071167D01*
X64659179Y-119538826D01*
X64403865Y-119392723D01*
X64174039Y-119258874D01*
X63979686Y-119143285D01*
X63830789Y-119051960D01*
X63737331Y-118990904D01*
X63708950Y-118967326D01*
X63740562Y-118936006D01*
X63835836Y-118870467D01*
X63984231Y-118777260D01*
X64175204Y-118662936D01*
X64398215Y-118534044D01*
X64487286Y-118483667D01*
X64733601Y-118345163D01*
X64965751Y-118214628D01*
X65169685Y-118099960D01*
X65331354Y-118009060D01*
X65436705Y-117949829D01*
X65452282Y-117941073D01*
X65626786Y-117842979D01*
X66608226Y-118400947D01*
G37*
X66608226Y-118400947D02*
X67589667Y-118958916D01*
X67589667Y-121183417D01*
X66613228Y-121738542D01*
X66352743Y-121886254D01*
X66117067Y-122019175D01*
X65915993Y-122131839D01*
X65759310Y-122218783D01*
X65656813Y-122274542D01*
X65618395Y-122293667D01*
X65613432Y-122253177D01*
X65608874Y-122139083D01*
X65604915Y-121962447D01*
X65601754Y-121734330D01*
X65599586Y-121465795D01*
X65598626Y-121182417D01*
X65597252Y-120071167D01*
X64659179Y-119538826D01*
X64403865Y-119392723D01*
X64174039Y-119258874D01*
X63979686Y-119143285D01*
X63830789Y-119051960D01*
X63737331Y-118990904D01*
X63708950Y-118967326D01*
X63740562Y-118936006D01*
X63835836Y-118870467D01*
X63984231Y-118777260D01*
X64175204Y-118662936D01*
X64398215Y-118534044D01*
X64487286Y-118483667D01*
X64733601Y-118345163D01*
X64965751Y-118214628D01*
X65169685Y-118099960D01*
X65331354Y-118009060D01*
X65436705Y-117949829D01*
X65452282Y-117941073D01*
X65626786Y-117842979D01*
X66608226Y-118400947D01*
D11*
X76660000Y-82960000D03*
X76660000Y-85500000D03*
X74120000Y-82960000D03*
X74120000Y-85500000D03*
X71580000Y-82960000D03*
X71580000Y-85500000D03*
X69040000Y-82960000D03*
X69040000Y-85500000D03*
X66500000Y-82960000D03*
D12*
X66500000Y-85500000D03*
D13*
X103550000Y-98600000D03*
D14*
X55290000Y-113840000D03*
X101010000Y-98600000D03*
X57830000Y-113840000D03*
X98470000Y-98600000D03*
X60370000Y-113840000D03*
X95930000Y-98600000D03*
X62910000Y-113840000D03*
X93390000Y-98600000D03*
X65450000Y-113840000D03*
X90850000Y-98600000D03*
X67990000Y-113840000D03*
X88310000Y-98600000D03*
X70530000Y-113840000D03*
X85770000Y-98600000D03*
X73070000Y-113840000D03*
X83230000Y-98600000D03*
X75610000Y-113840000D03*
X80690000Y-98600000D03*
X78150000Y-113840000D03*
X78150000Y-98600000D03*
X80690000Y-113840000D03*
X75610000Y-98600000D03*
X83230000Y-113840000D03*
X73070000Y-98600000D03*
X85770000Y-113840000D03*
X70530000Y-98600000D03*
X88310000Y-113840000D03*
X67990000Y-98600000D03*
X90850000Y-113840000D03*
X65450000Y-98600000D03*
X93390000Y-113840000D03*
X62910000Y-98600000D03*
X95930000Y-113840000D03*
X60370000Y-98600000D03*
X98470000Y-113840000D03*
X57830000Y-98600000D03*
X101010000Y-113840000D03*
X55290000Y-98600000D03*
X103550000Y-113840000D03*
D15*
X76350000Y-90200000D03*
D13*
X76350000Y-92200000D03*
D11*
X104900000Y-90200000D03*
X107440000Y-90200000D03*
X104900000Y-92740000D03*
X107440000Y-92740000D03*
X104900000Y-95280000D03*
D12*
X107440000Y-95280000D03*
D15*
X78200000Y-95250000D03*
X80700000Y-95250000D03*
X80700000Y-117000000D03*
X78200000Y-117000000D03*
X69750000Y-89900000D03*
D13*
X69750000Y-92400000D03*
D11*
X50450000Y-109120000D03*
X50450000Y-106580000D03*
X50450000Y-104040000D03*
D12*
X50450000Y-101500000D03*
D14*
X55300000Y-88480000D03*
X62920000Y-96100000D03*
X57840000Y-88480000D03*
X60380000Y-96100000D03*
X60380000Y-88480000D03*
X57840000Y-96100000D03*
X62920000Y-88480000D03*
D13*
X55300000Y-96100000D03*
D16*
X84950000Y-86550000D03*
X84950000Y-82050000D03*
X91450000Y-86550000D03*
X91450000Y-82050000D03*
X101300000Y-82050000D03*
X101300000Y-86550000D03*
X94800000Y-82050000D03*
X94800000Y-86550000D03*
D15*
X45950000Y-111750000D03*
D14*
X45950000Y-101590000D03*
X42800000Y-111760000D03*
D15*
X42800000Y-101600000D03*
D14*
X94610000Y-90000000D03*
D15*
X84450000Y-90000000D03*
D14*
X94560000Y-93250000D03*
D15*
X84400000Y-93250000D03*
%TA.AperFunction,ComponentPad*%
D17*
G36*
X48160765Y-95254213D02*
G01*
X48245704Y-95266813D01*
X48328999Y-95287677D01*
X48409848Y-95316605D01*
X48487472Y-95353319D01*
X48561124Y-95397464D01*
X48630094Y-95448616D01*
X48693718Y-95506282D01*
X48751384Y-95569906D01*
X48802536Y-95638876D01*
X48846681Y-95712528D01*
X48883395Y-95790152D01*
X48912323Y-95871001D01*
X48933187Y-95954296D01*
X48945787Y-96039235D01*
X48950000Y-96125000D01*
X48950000Y-97875000D01*
X48945787Y-97960765D01*
X48933187Y-98045704D01*
X48912323Y-98128999D01*
X48883395Y-98209848D01*
X48846681Y-98287472D01*
X48802536Y-98361124D01*
X48751384Y-98430094D01*
X48693718Y-98493718D01*
X48630094Y-98551384D01*
X48561124Y-98602536D01*
X48487472Y-98646681D01*
X48409848Y-98683395D01*
X48328999Y-98712323D01*
X48245704Y-98733187D01*
X48160765Y-98745787D01*
X48075000Y-98750000D01*
X46325000Y-98750000D01*
X46239235Y-98745787D01*
X46154296Y-98733187D01*
X46071001Y-98712323D01*
X45990152Y-98683395D01*
X45912528Y-98646681D01*
X45838876Y-98602536D01*
X45769906Y-98551384D01*
X45706282Y-98493718D01*
X45648616Y-98430094D01*
X45597464Y-98361124D01*
X45553319Y-98287472D01*
X45516605Y-98209848D01*
X45487677Y-98128999D01*
X45466813Y-98045704D01*
X45454213Y-97960765D01*
X45450000Y-97875000D01*
X45450000Y-96125000D01*
X45454213Y-96039235D01*
X45466813Y-95954296D01*
X45487677Y-95871001D01*
X45516605Y-95790152D01*
X45553319Y-95712528D01*
X45597464Y-95638876D01*
X45648616Y-95569906D01*
X45706282Y-95506282D01*
X45769906Y-95448616D01*
X45838876Y-95397464D01*
X45912528Y-95353319D01*
X45990152Y-95316605D01*
X46071001Y-95287677D01*
X46154296Y-95266813D01*
X46239235Y-95254213D01*
X46325000Y-95250000D01*
X48075000Y-95250000D01*
X48160765Y-95254213D01*
G37*
%TD.AperFunction*%
%TA.AperFunction,ComponentPad*%
G36*
X45023513Y-90553611D02*
G01*
X45096318Y-90564411D01*
X45167714Y-90582295D01*
X45237013Y-90607090D01*
X45303548Y-90638559D01*
X45366678Y-90676398D01*
X45425795Y-90720242D01*
X45480330Y-90769670D01*
X45529758Y-90824205D01*
X45573602Y-90883322D01*
X45611441Y-90946452D01*
X45642910Y-91012987D01*
X45667705Y-91082286D01*
X45685589Y-91153682D01*
X45696389Y-91226487D01*
X45700000Y-91300000D01*
X45700000Y-93300000D01*
X45696389Y-93373513D01*
X45685589Y-93446318D01*
X45667705Y-93517714D01*
X45642910Y-93587013D01*
X45611441Y-93653548D01*
X45573602Y-93716678D01*
X45529758Y-93775795D01*
X45480330Y-93830330D01*
X45425795Y-93879758D01*
X45366678Y-93923602D01*
X45303548Y-93961441D01*
X45237013Y-93992910D01*
X45167714Y-94017705D01*
X45096318Y-94035589D01*
X45023513Y-94046389D01*
X44950000Y-94050000D01*
X43450000Y-94050000D01*
X43376487Y-94046389D01*
X43303682Y-94035589D01*
X43232286Y-94017705D01*
X43162987Y-93992910D01*
X43096452Y-93961441D01*
X43033322Y-93923602D01*
X42974205Y-93879758D01*
X42919670Y-93830330D01*
X42870242Y-93775795D01*
X42826398Y-93716678D01*
X42788559Y-93653548D01*
X42757090Y-93587013D01*
X42732295Y-93517714D01*
X42714411Y-93446318D01*
X42703611Y-93373513D01*
X42700000Y-93300000D01*
X42700000Y-91300000D01*
X42703611Y-91226487D01*
X42714411Y-91153682D01*
X42732295Y-91082286D01*
X42757090Y-91012987D01*
X42788559Y-90946452D01*
X42826398Y-90883322D01*
X42870242Y-90824205D01*
X42919670Y-90769670D01*
X42974205Y-90720242D01*
X43033322Y-90676398D01*
X43096452Y-90638559D01*
X43162987Y-90607090D01*
X43232286Y-90582295D01*
X43303682Y-90564411D01*
X43376487Y-90553611D01*
X43450000Y-90550000D01*
X44950000Y-90550000D01*
X45023513Y-90553611D01*
G37*
%TD.AperFunction*%
D18*
X50200000Y-92300000D03*
D19*
X57740000Y-83800000D03*
D20*
X55200000Y-83800000D03*
D19*
X51140000Y-83800000D03*
D20*
X48600000Y-83800000D03*
D21*
X76050000Y-89900000D02*
X76350000Y-90200000D01*
X69750000Y-89900000D02*
X76050000Y-89900000D01*
X78200000Y-98550000D02*
X78150000Y-98600000D01*
X78200000Y-95250000D02*
X78200000Y-98550000D01*
X80690000Y-116990000D02*
X80700000Y-117000000D01*
X80690000Y-113840000D02*
X80690000Y-116990000D01*
X76150000Y-92400000D02*
X76350000Y-92200000D01*
X69750000Y-92400000D02*
X76150000Y-92400000D01*
X66500000Y-89150000D02*
X69750000Y-92400000D01*
X66500000Y-85500000D02*
X66500000Y-89150000D01*
X61540000Y-92400000D02*
X69750000Y-92400000D01*
X57840000Y-96100000D02*
X61540000Y-92400000D01*
X50450000Y-101500000D02*
X50450000Y-97400000D01*
X55450000Y-92400000D02*
X69750000Y-92400000D01*
X50450000Y-97400000D02*
X55450000Y-92400000D01*
X86430000Y-95280000D02*
X84400000Y-93250000D01*
X104900000Y-95280000D02*
X86430000Y-95280000D01*
X84450000Y-93200000D02*
X84400000Y-93250000D01*
X84450000Y-90000000D02*
X84450000Y-93200000D01*
X86400000Y-95250000D02*
X86430000Y-95280000D01*
X80700000Y-95250000D02*
X86400000Y-95250000D01*
X77650000Y-92200000D02*
X80700000Y-95250000D01*
X76350000Y-92200000D02*
X77650000Y-92200000D01*
X80700000Y-98590000D02*
X80690000Y-98600000D01*
X80700000Y-95250000D02*
X80700000Y-98590000D01*
X78150000Y-116950000D02*
X78200000Y-117000000D01*
X78150000Y-113840000D02*
X78150000Y-116950000D01*
D22*
X48440000Y-86500000D02*
X51140000Y-83800000D01*
X41450000Y-88800000D02*
X43750000Y-86500000D01*
X42800000Y-101600000D02*
X41450000Y-100250000D01*
X43750000Y-86500000D02*
X48440000Y-86500000D01*
X41450000Y-100250000D02*
X41450000Y-88800000D01*
X44423600Y-100063600D02*
X45950000Y-101590000D01*
X57740000Y-85072792D02*
X55862792Y-86950000D01*
X43936410Y-86950000D02*
X41900010Y-88986400D01*
X57740000Y-83800000D02*
X57740000Y-85072792D01*
X55862792Y-86950000D02*
X43936410Y-86950000D01*
X42563600Y-100063600D02*
X41900010Y-99400010D01*
X44423600Y-100063600D02*
X42563600Y-100063600D01*
X41900010Y-99400010D02*
X41900010Y-88986400D01*
D21*
X55300000Y-89600000D02*
X55300000Y-88480000D01*
X50200000Y-92300000D02*
X52600000Y-92300000D01*
X52600000Y-92300000D02*
X55300000Y-89600000D01*
D22*
X42800000Y-111760000D02*
X45940000Y-114900000D01*
X45940000Y-114900000D02*
X51850000Y-114900000D01*
X51850000Y-114900000D02*
X63150000Y-103600000D01*
X63150000Y-103600000D02*
X102500000Y-103600000D01*
X103550000Y-102550000D02*
X103550000Y-98600000D01*
X102500000Y-103600000D02*
X103550000Y-102550000D01*
X45950000Y-111750000D02*
X48649990Y-114449990D01*
X48649990Y-114449990D02*
X51663600Y-114449990D01*
X51663600Y-114449990D02*
X62963600Y-103149990D01*
X62963600Y-103149990D02*
X100200010Y-103149990D01*
X101010000Y-102340000D02*
X101010000Y-98600000D01*
X100200010Y-103149990D02*
X101010000Y-102340000D01*
X54490001Y-99399999D02*
X54490001Y-108359999D01*
X55290000Y-98600000D02*
X54490001Y-99399999D01*
X53730000Y-109120000D02*
X50450000Y-109120000D01*
X54490001Y-108359999D02*
X53730000Y-109120000D01*
X107440000Y-90200000D02*
X105790000Y-88550000D01*
X96060000Y-88550000D02*
X94610000Y-90000000D01*
X105790000Y-88550000D02*
X96060000Y-88550000D01*
X91450000Y-83464213D02*
X93100000Y-85114213D01*
X91450000Y-82050000D02*
X91450000Y-83464213D01*
X93100000Y-88490000D02*
X94610000Y-90000000D01*
X93100000Y-85114213D02*
X93100000Y-88490000D01*
X92969977Y-97355021D02*
X107994979Y-97355021D01*
X90850000Y-98600000D02*
X91724998Y-98600000D01*
X91724998Y-98600000D02*
X92969977Y-97355021D01*
X107994979Y-97355021D02*
X109050000Y-96300000D01*
X105749999Y-91890001D02*
X104900000Y-92740000D01*
X106075001Y-91564999D02*
X105749999Y-91890001D01*
X108004001Y-91564999D02*
X106075001Y-91564999D01*
X109050000Y-92610998D02*
X108004001Y-91564999D01*
X109050000Y-96300000D02*
X109050000Y-92610998D01*
X85770000Y-97123380D02*
X86438379Y-96455001D01*
X106200000Y-93980000D02*
X107440000Y-92740000D01*
X86438379Y-96455001D02*
X105464001Y-96455001D01*
X105464001Y-96455001D02*
X106200000Y-95719002D01*
X106200000Y-95719002D02*
X106200000Y-93980000D01*
X85770000Y-98600000D02*
X85770000Y-97123380D01*
X88310000Y-97468630D02*
X88873619Y-96905011D01*
X107440000Y-96380000D02*
X107440000Y-95280000D01*
X106914989Y-96905011D02*
X107440000Y-96380000D01*
X88873619Y-96905011D02*
X106914989Y-96905011D01*
X88310000Y-98600000D02*
X88310000Y-97468630D01*
M02*
