%TF.GenerationSoftware,KiCad,Pcbnew,5.1.5*%
%TF.CreationDate,2020-05-04T11:32:26+02:00*%
%TF.ProjectId,atmega-dcf77-clock,61746d65-6761-42d6-9463-6637372d636c,rev?*%
%TF.SameCoordinates,Original*%
%TF.FileFunction,Legend,Top*%
%TF.FilePolarity,Positive*%
%FSLAX46Y46*%
G04 Gerber Fmt 4.6, Leading zero omitted, Abs format (unit mm)*
G04 Created by KiCad (PCBNEW 5.1.5) date 2020-05-04 11:32:26*
%MOMM*%
%LPD*%
G04 APERTURE LIST*
%ADD10C,0.150000*%
%ADD11C,0.010000*%
%ADD12C,0.120000*%
%ADD13O,1.802000X1.802000*%
%ADD14R,1.802000X1.802000*%
%ADD15R,1.702000X1.702000*%
%ADD16O,1.702000X1.702000*%
%ADD17C,1.702000*%
%ADD18C,2.802000*%
%ADD19C,2.102000*%
%ADD20C,0.100000*%
%ADD21R,3.602000X3.602000*%
%ADD22C,1.902000*%
%ADD23R,1.902000X1.902000*%
G04 APERTURE END LIST*
D10*
X108652380Y-114385714D02*
X107652380Y-114385714D01*
X107652380Y-114147619D01*
X107700000Y-114004761D01*
X107795238Y-113909523D01*
X107890476Y-113861904D01*
X108080952Y-113814285D01*
X108223809Y-113814285D01*
X108414285Y-113861904D01*
X108509523Y-113909523D01*
X108604761Y-114004761D01*
X108652380Y-114147619D01*
X108652380Y-114385714D01*
X108557142Y-112814285D02*
X108604761Y-112861904D01*
X108652380Y-113004761D01*
X108652380Y-113100000D01*
X108604761Y-113242857D01*
X108509523Y-113338095D01*
X108414285Y-113385714D01*
X108223809Y-113433333D01*
X108080952Y-113433333D01*
X107890476Y-113385714D01*
X107795238Y-113338095D01*
X107700000Y-113242857D01*
X107652380Y-113100000D01*
X107652380Y-113004761D01*
X107700000Y-112861904D01*
X107747619Y-112814285D01*
X108128571Y-112052380D02*
X108128571Y-112385714D01*
X108652380Y-112385714D02*
X107652380Y-112385714D01*
X107652380Y-111909523D01*
X107652380Y-111623809D02*
X107652380Y-110957142D01*
X108652380Y-111385714D01*
X107652380Y-110671428D02*
X107652380Y-110004761D01*
X108652380Y-110433333D01*
X108557142Y-108290476D02*
X108604761Y-108338095D01*
X108652380Y-108480952D01*
X108652380Y-108576190D01*
X108604761Y-108719047D01*
X108509523Y-108814285D01*
X108414285Y-108861904D01*
X108223809Y-108909523D01*
X108080952Y-108909523D01*
X107890476Y-108861904D01*
X107795238Y-108814285D01*
X107700000Y-108719047D01*
X107652380Y-108576190D01*
X107652380Y-108480952D01*
X107700000Y-108338095D01*
X107747619Y-108290476D01*
X108652380Y-107385714D02*
X108652380Y-107861904D01*
X107652380Y-107861904D01*
X108652380Y-106909523D02*
X108604761Y-107004761D01*
X108557142Y-107052380D01*
X108461904Y-107100000D01*
X108176190Y-107100000D01*
X108080952Y-107052380D01*
X108033333Y-107004761D01*
X107985714Y-106909523D01*
X107985714Y-106766666D01*
X108033333Y-106671428D01*
X108080952Y-106623809D01*
X108176190Y-106576190D01*
X108461904Y-106576190D01*
X108557142Y-106623809D01*
X108604761Y-106671428D01*
X108652380Y-106766666D01*
X108652380Y-106909523D01*
X108604761Y-105719047D02*
X108652380Y-105814285D01*
X108652380Y-106004761D01*
X108604761Y-106100000D01*
X108557142Y-106147619D01*
X108461904Y-106195238D01*
X108176190Y-106195238D01*
X108080952Y-106147619D01*
X108033333Y-106100000D01*
X107985714Y-106004761D01*
X107985714Y-105814285D01*
X108033333Y-105719047D01*
X108652380Y-105290476D02*
X107652380Y-105290476D01*
X108271428Y-105195238D02*
X108652380Y-104909523D01*
X107985714Y-104909523D02*
X108366666Y-105290476D01*
X108652380Y-103719047D02*
X107985714Y-103719047D01*
X108176190Y-103719047D02*
X108080952Y-103671428D01*
X108033333Y-103623809D01*
X107985714Y-103528571D01*
X107985714Y-103433333D01*
X108604761Y-102719047D02*
X108652380Y-102814285D01*
X108652380Y-103004761D01*
X108604761Y-103100000D01*
X108509523Y-103147619D01*
X108128571Y-103147619D01*
X108033333Y-103100000D01*
X107985714Y-103004761D01*
X107985714Y-102814285D01*
X108033333Y-102719047D01*
X108128571Y-102671428D01*
X108223809Y-102671428D01*
X108319047Y-103147619D01*
X107985714Y-102338095D02*
X108652380Y-102100000D01*
X107985714Y-101861904D01*
X108652380Y-100195238D02*
X108652380Y-100766666D01*
X108652380Y-100480952D02*
X107652380Y-100480952D01*
X107795238Y-100576190D01*
X107890476Y-100671428D01*
X107938095Y-100766666D01*
X108557142Y-99766666D02*
X108604761Y-99719047D01*
X108652380Y-99766666D01*
X108604761Y-99814285D01*
X108557142Y-99766666D01*
X108652380Y-99766666D01*
X107652380Y-99100000D02*
X107652380Y-99004761D01*
X107700000Y-98909523D01*
X107747619Y-98861904D01*
X107842857Y-98814285D01*
X108033333Y-98766666D01*
X108271428Y-98766666D01*
X108461904Y-98814285D01*
X108557142Y-98861904D01*
X108604761Y-98909523D01*
X108652380Y-99004761D01*
X108652380Y-99100000D01*
X108604761Y-99195238D01*
X108557142Y-99242857D01*
X108461904Y-99290476D01*
X108271428Y-99338095D01*
X108033333Y-99338095D01*
X107842857Y-99290476D01*
X107747619Y-99242857D01*
X107700000Y-99195238D01*
X107652380Y-99100000D01*
D11*
G36*
X65701332Y-116275430D02*
G01*
X65756082Y-116305410D01*
X65875983Y-116373256D01*
X66052962Y-116474332D01*
X66278946Y-116604002D01*
X66545860Y-116757628D01*
X66845633Y-116930574D01*
X67170189Y-117118202D01*
X67356833Y-117226264D01*
X68923167Y-118133620D01*
X68923167Y-122008307D01*
X67314500Y-122939411D01*
X66976490Y-123134562D01*
X66659753Y-123316487D01*
X66372072Y-123480786D01*
X66121228Y-123623056D01*
X65915002Y-123738898D01*
X65761177Y-123823909D01*
X65667534Y-123873689D01*
X65642333Y-123885141D01*
X65593570Y-123867512D01*
X65479517Y-123811207D01*
X65307868Y-123720461D01*
X65086318Y-123599511D01*
X64822564Y-123452591D01*
X64524300Y-123283939D01*
X64199222Y-123097790D01*
X63949000Y-122953050D01*
X62319167Y-122006334D01*
X62319167Y-118377833D01*
X62681598Y-118377833D01*
X62681622Y-120071167D01*
X62681646Y-121764500D01*
X64130239Y-122599569D01*
X64449748Y-122783237D01*
X64746764Y-122952978D01*
X65013214Y-123104251D01*
X65241021Y-123232517D01*
X65422112Y-123333236D01*
X65548412Y-123401867D01*
X65611847Y-123433871D01*
X65617294Y-123435653D01*
X65661283Y-123415421D01*
X65770476Y-123357280D01*
X65936807Y-123265745D01*
X66152211Y-123145333D01*
X66408621Y-123000560D01*
X66697972Y-122835943D01*
X67012198Y-122655999D01*
X67108580Y-122600583D01*
X68561406Y-121764500D01*
X68561406Y-118377833D01*
X67108580Y-117541750D01*
X66788723Y-117358156D01*
X66491543Y-117188503D01*
X66225079Y-117037310D01*
X65997366Y-116909095D01*
X65816442Y-116808379D01*
X65690345Y-116739679D01*
X65627110Y-116707516D01*
X65621623Y-116705666D01*
X65578601Y-116726111D01*
X65470328Y-116784430D01*
X65304840Y-116876107D01*
X65090175Y-116996622D01*
X64834370Y-117141456D01*
X64545461Y-117306092D01*
X64231486Y-117486010D01*
X64134545Y-117541750D01*
X62681598Y-118377833D01*
X62319167Y-118377833D01*
X62319167Y-118135982D01*
X63965666Y-117183967D01*
X64363104Y-116954653D01*
X64693971Y-116765035D01*
X64964616Y-116611790D01*
X65181391Y-116491594D01*
X65350646Y-116401122D01*
X65478731Y-116337051D01*
X65571996Y-116296056D01*
X65636792Y-116274813D01*
X65679470Y-116269997D01*
X65701332Y-116275430D01*
G37*
X65701332Y-116275430D02*
X65756082Y-116305410D01*
X65875983Y-116373256D01*
X66052962Y-116474332D01*
X66278946Y-116604002D01*
X66545860Y-116757628D01*
X66845633Y-116930574D01*
X67170189Y-117118202D01*
X67356833Y-117226264D01*
X68923167Y-118133620D01*
X68923167Y-122008307D01*
X67314500Y-122939411D01*
X66976490Y-123134562D01*
X66659753Y-123316487D01*
X66372072Y-123480786D01*
X66121228Y-123623056D01*
X65915002Y-123738898D01*
X65761177Y-123823909D01*
X65667534Y-123873689D01*
X65642333Y-123885141D01*
X65593570Y-123867512D01*
X65479517Y-123811207D01*
X65307868Y-123720461D01*
X65086318Y-123599511D01*
X64822564Y-123452591D01*
X64524300Y-123283939D01*
X64199222Y-123097790D01*
X63949000Y-122953050D01*
X62319167Y-122006334D01*
X62319167Y-118377833D01*
X62681598Y-118377833D01*
X62681622Y-120071167D01*
X62681646Y-121764500D01*
X64130239Y-122599569D01*
X64449748Y-122783237D01*
X64746764Y-122952978D01*
X65013214Y-123104251D01*
X65241021Y-123232517D01*
X65422112Y-123333236D01*
X65548412Y-123401867D01*
X65611847Y-123433871D01*
X65617294Y-123435653D01*
X65661283Y-123415421D01*
X65770476Y-123357280D01*
X65936807Y-123265745D01*
X66152211Y-123145333D01*
X66408621Y-123000560D01*
X66697972Y-122835943D01*
X67012198Y-122655999D01*
X67108580Y-122600583D01*
X68561406Y-121764500D01*
X68561406Y-118377833D01*
X67108580Y-117541750D01*
X66788723Y-117358156D01*
X66491543Y-117188503D01*
X66225079Y-117037310D01*
X65997366Y-116909095D01*
X65816442Y-116808379D01*
X65690345Y-116739679D01*
X65627110Y-116707516D01*
X65621623Y-116705666D01*
X65578601Y-116726111D01*
X65470328Y-116784430D01*
X65304840Y-116876107D01*
X65090175Y-116996622D01*
X64834370Y-117141456D01*
X64545461Y-117306092D01*
X64231486Y-117486010D01*
X64134545Y-117541750D01*
X62681598Y-118377833D01*
X62319167Y-118377833D01*
X62319167Y-118135982D01*
X63965666Y-117183967D01*
X64363104Y-116954653D01*
X64693971Y-116765035D01*
X64964616Y-116611790D01*
X65181391Y-116491594D01*
X65350646Y-116401122D01*
X65478731Y-116337051D01*
X65571996Y-116296056D01*
X65636792Y-116274813D01*
X65679470Y-116269997D01*
X65701332Y-116275430D01*
G36*
X65662408Y-117107109D02*
G01*
X65768499Y-117165232D01*
X65930860Y-117256233D01*
X66141007Y-117375307D01*
X66390460Y-117517651D01*
X66670734Y-117678460D01*
X66935654Y-117831154D01*
X68224667Y-118575641D01*
X68224667Y-121566692D01*
X66935654Y-122311179D01*
X66634944Y-122484254D01*
X66357207Y-122642948D01*
X66110991Y-122782465D01*
X65904843Y-122898009D01*
X65747313Y-122984788D01*
X65646947Y-123038004D01*
X65612737Y-123053267D01*
X65569433Y-123032178D01*
X65461554Y-122973303D01*
X65297669Y-122881499D01*
X65086347Y-122761625D01*
X64836157Y-122618537D01*
X64555668Y-122457093D01*
X64298250Y-122308145D01*
X63017667Y-121565422D01*
X63017667Y-120071278D01*
X63017667Y-118984032D01*
X63794717Y-118984032D01*
X63804008Y-119006329D01*
X63810370Y-119011182D01*
X63867443Y-119045604D01*
X63986980Y-119115098D01*
X64157674Y-119213184D01*
X64368222Y-119333380D01*
X64607319Y-119469205D01*
X64763917Y-119557846D01*
X65642333Y-120054391D01*
X65642333Y-122245943D01*
X67526167Y-121168319D01*
X67526167Y-118974014D01*
X66573667Y-118429043D01*
X66256197Y-118249213D01*
X66005173Y-118111286D01*
X65815098Y-118012523D01*
X65680478Y-117950182D01*
X65595818Y-117921523D01*
X65557667Y-117922341D01*
X65504108Y-117953410D01*
X65388012Y-118019983D01*
X65220451Y-118115738D01*
X65012500Y-118234349D01*
X64775233Y-118369494D01*
X64614703Y-118460836D01*
X64336288Y-118620051D01*
X64124572Y-118743618D01*
X63972057Y-118836668D01*
X63871242Y-118904333D01*
X63814629Y-118951744D01*
X63794717Y-118984032D01*
X63017667Y-118984032D01*
X63017666Y-118577134D01*
X64306583Y-117831900D01*
X64606883Y-117658677D01*
X64883819Y-117499710D01*
X65128914Y-117359807D01*
X65333686Y-117243774D01*
X65489657Y-117156421D01*
X65588346Y-117102553D01*
X65621070Y-117086667D01*
X65662408Y-117107109D01*
G37*
X65662408Y-117107109D02*
X65768499Y-117165232D01*
X65930860Y-117256233D01*
X66141007Y-117375307D01*
X66390460Y-117517651D01*
X66670734Y-117678460D01*
X66935654Y-117831154D01*
X68224667Y-118575641D01*
X68224667Y-121566692D01*
X66935654Y-122311179D01*
X66634944Y-122484254D01*
X66357207Y-122642948D01*
X66110991Y-122782465D01*
X65904843Y-122898009D01*
X65747313Y-122984788D01*
X65646947Y-123038004D01*
X65612737Y-123053267D01*
X65569433Y-123032178D01*
X65461554Y-122973303D01*
X65297669Y-122881499D01*
X65086347Y-122761625D01*
X64836157Y-122618537D01*
X64555668Y-122457093D01*
X64298250Y-122308145D01*
X63017667Y-121565422D01*
X63017667Y-120071278D01*
X63017667Y-118984032D01*
X63794717Y-118984032D01*
X63804008Y-119006329D01*
X63810370Y-119011182D01*
X63867443Y-119045604D01*
X63986980Y-119115098D01*
X64157674Y-119213184D01*
X64368222Y-119333380D01*
X64607319Y-119469205D01*
X64763917Y-119557846D01*
X65642333Y-120054391D01*
X65642333Y-122245943D01*
X67526167Y-121168319D01*
X67526167Y-118974014D01*
X66573667Y-118429043D01*
X66256197Y-118249213D01*
X66005173Y-118111286D01*
X65815098Y-118012523D01*
X65680478Y-117950182D01*
X65595818Y-117921523D01*
X65557667Y-117922341D01*
X65504108Y-117953410D01*
X65388012Y-118019983D01*
X65220451Y-118115738D01*
X65012500Y-118234349D01*
X64775233Y-118369494D01*
X64614703Y-118460836D01*
X64336288Y-118620051D01*
X64124572Y-118743618D01*
X63972057Y-118836668D01*
X63871242Y-118904333D01*
X63814629Y-118951744D01*
X63794717Y-118984032D01*
X63017667Y-118984032D01*
X63017666Y-118577134D01*
X64306583Y-117831900D01*
X64606883Y-117658677D01*
X64883819Y-117499710D01*
X65128914Y-117359807D01*
X65333686Y-117243774D01*
X65489657Y-117156421D01*
X65588346Y-117102553D01*
X65621070Y-117086667D01*
X65662408Y-117107109D01*
D12*
X65170000Y-85500000D02*
X65170000Y-86830000D01*
X65170000Y-86830000D02*
X66500000Y-86830000D01*
X65170000Y-84230000D02*
X67770000Y-84230000D01*
X67770000Y-84230000D02*
X67770000Y-86830000D01*
X67770000Y-86830000D02*
X77990000Y-86830000D01*
X77990000Y-81630000D02*
X77990000Y-86830000D01*
X65170000Y-81630000D02*
X77990000Y-81630000D01*
X65170000Y-81630000D02*
X65170000Y-84230000D01*
X104880000Y-107220000D02*
G75*
G02X104880000Y-105220000I0J1000000D01*
G01*
X104880000Y-105220000D02*
X104880000Y-99760000D01*
X104880000Y-99760000D02*
X53960000Y-99760000D01*
X53960000Y-99760000D02*
X53960000Y-112680000D01*
X53960000Y-112680000D02*
X104880000Y-112680000D01*
X104880000Y-112680000D02*
X104880000Y-107220000D01*
X74625000Y-93754775D02*
X75125000Y-93754775D01*
X74875000Y-94004775D02*
X74875000Y-93504775D01*
X76066000Y-88599000D02*
X76634000Y-88599000D01*
X75832000Y-88639000D02*
X76868000Y-88639000D01*
X75673000Y-88679000D02*
X77027000Y-88679000D01*
X75545000Y-88719000D02*
X77155000Y-88719000D01*
X75435000Y-88759000D02*
X77265000Y-88759000D01*
X75339000Y-88799000D02*
X77361000Y-88799000D01*
X75252000Y-88839000D02*
X77448000Y-88839000D01*
X75172000Y-88879000D02*
X77528000Y-88879000D01*
X75099000Y-88919000D02*
X77601000Y-88919000D01*
X75031000Y-88959000D02*
X77669000Y-88959000D01*
X74967000Y-88999000D02*
X77733000Y-88999000D01*
X74907000Y-89039000D02*
X77793000Y-89039000D01*
X74850000Y-89079000D02*
X77850000Y-89079000D01*
X74796000Y-89119000D02*
X77904000Y-89119000D01*
X74745000Y-89159000D02*
X77955000Y-89159000D01*
X77390000Y-89199000D02*
X78003000Y-89199000D01*
X74697000Y-89199000D02*
X75310000Y-89199000D01*
X77390000Y-89239000D02*
X78049000Y-89239000D01*
X74651000Y-89239000D02*
X75310000Y-89239000D01*
X77390000Y-89279000D02*
X78093000Y-89279000D01*
X74607000Y-89279000D02*
X75310000Y-89279000D01*
X77390000Y-89319000D02*
X78135000Y-89319000D01*
X74565000Y-89319000D02*
X75310000Y-89319000D01*
X77390000Y-89359000D02*
X78176000Y-89359000D01*
X74524000Y-89359000D02*
X75310000Y-89359000D01*
X77390000Y-89399000D02*
X78214000Y-89399000D01*
X74486000Y-89399000D02*
X75310000Y-89399000D01*
X77390000Y-89439000D02*
X78251000Y-89439000D01*
X74449000Y-89439000D02*
X75310000Y-89439000D01*
X77390000Y-89479000D02*
X78287000Y-89479000D01*
X74413000Y-89479000D02*
X75310000Y-89479000D01*
X77390000Y-89519000D02*
X78321000Y-89519000D01*
X74379000Y-89519000D02*
X75310000Y-89519000D01*
X77390000Y-89559000D02*
X78354000Y-89559000D01*
X74346000Y-89559000D02*
X75310000Y-89559000D01*
X77390000Y-89599000D02*
X78385000Y-89599000D01*
X74315000Y-89599000D02*
X75310000Y-89599000D01*
X77390000Y-89639000D02*
X78415000Y-89639000D01*
X74285000Y-89639000D02*
X75310000Y-89639000D01*
X77390000Y-89679000D02*
X78445000Y-89679000D01*
X74255000Y-89679000D02*
X75310000Y-89679000D01*
X77390000Y-89719000D02*
X78472000Y-89719000D01*
X74228000Y-89719000D02*
X75310000Y-89719000D01*
X77390000Y-89759000D02*
X78499000Y-89759000D01*
X74201000Y-89759000D02*
X75310000Y-89759000D01*
X77390000Y-89799000D02*
X78525000Y-89799000D01*
X74175000Y-89799000D02*
X75310000Y-89799000D01*
X77390000Y-89839000D02*
X78550000Y-89839000D01*
X74150000Y-89839000D02*
X75310000Y-89839000D01*
X77390000Y-89879000D02*
X78574000Y-89879000D01*
X74126000Y-89879000D02*
X75310000Y-89879000D01*
X77390000Y-89919000D02*
X78597000Y-89919000D01*
X74103000Y-89919000D02*
X75310000Y-89919000D01*
X77390000Y-89959000D02*
X78618000Y-89959000D01*
X74082000Y-89959000D02*
X75310000Y-89959000D01*
X77390000Y-89999000D02*
X78640000Y-89999000D01*
X74060000Y-89999000D02*
X75310000Y-89999000D01*
X77390000Y-90039000D02*
X78660000Y-90039000D01*
X74040000Y-90039000D02*
X75310000Y-90039000D01*
X77390000Y-90079000D02*
X78679000Y-90079000D01*
X74021000Y-90079000D02*
X75310000Y-90079000D01*
X77390000Y-90119000D02*
X78698000Y-90119000D01*
X74002000Y-90119000D02*
X75310000Y-90119000D01*
X77390000Y-90159000D02*
X78715000Y-90159000D01*
X73985000Y-90159000D02*
X75310000Y-90159000D01*
X77390000Y-90199000D02*
X78732000Y-90199000D01*
X73968000Y-90199000D02*
X75310000Y-90199000D01*
X77390000Y-90239000D02*
X78748000Y-90239000D01*
X73952000Y-90239000D02*
X75310000Y-90239000D01*
X77390000Y-90279000D02*
X78764000Y-90279000D01*
X73936000Y-90279000D02*
X75310000Y-90279000D01*
X77390000Y-90319000D02*
X78778000Y-90319000D01*
X73922000Y-90319000D02*
X75310000Y-90319000D01*
X77390000Y-90359000D02*
X78792000Y-90359000D01*
X73908000Y-90359000D02*
X75310000Y-90359000D01*
X77390000Y-90399000D02*
X78805000Y-90399000D01*
X73895000Y-90399000D02*
X75310000Y-90399000D01*
X77390000Y-90439000D02*
X78818000Y-90439000D01*
X73882000Y-90439000D02*
X75310000Y-90439000D01*
X77390000Y-90479000D02*
X78830000Y-90479000D01*
X73870000Y-90479000D02*
X75310000Y-90479000D01*
X77390000Y-90520000D02*
X78841000Y-90520000D01*
X73859000Y-90520000D02*
X75310000Y-90520000D01*
X77390000Y-90560000D02*
X78851000Y-90560000D01*
X73849000Y-90560000D02*
X75310000Y-90560000D01*
X77390000Y-90600000D02*
X78861000Y-90600000D01*
X73839000Y-90600000D02*
X75310000Y-90600000D01*
X77390000Y-90640000D02*
X78870000Y-90640000D01*
X73830000Y-90640000D02*
X75310000Y-90640000D01*
X77390000Y-90680000D02*
X78878000Y-90680000D01*
X73822000Y-90680000D02*
X75310000Y-90680000D01*
X77390000Y-90720000D02*
X78886000Y-90720000D01*
X73814000Y-90720000D02*
X75310000Y-90720000D01*
X77390000Y-90760000D02*
X78893000Y-90760000D01*
X73807000Y-90760000D02*
X75310000Y-90760000D01*
X77390000Y-90800000D02*
X78900000Y-90800000D01*
X73800000Y-90800000D02*
X75310000Y-90800000D01*
X77390000Y-90840000D02*
X78906000Y-90840000D01*
X73794000Y-90840000D02*
X75310000Y-90840000D01*
X77390000Y-90880000D02*
X78911000Y-90880000D01*
X73789000Y-90880000D02*
X75310000Y-90880000D01*
X77390000Y-90920000D02*
X78915000Y-90920000D01*
X73785000Y-90920000D02*
X75310000Y-90920000D01*
X77390000Y-90960000D02*
X78919000Y-90960000D01*
X73781000Y-90960000D02*
X75310000Y-90960000D01*
X77390000Y-91000000D02*
X78923000Y-91000000D01*
X73777000Y-91000000D02*
X75310000Y-91000000D01*
X77390000Y-91040000D02*
X78926000Y-91040000D01*
X73774000Y-91040000D02*
X75310000Y-91040000D01*
X77390000Y-91080000D02*
X78928000Y-91080000D01*
X73772000Y-91080000D02*
X75310000Y-91080000D01*
X77390000Y-91120000D02*
X78929000Y-91120000D01*
X73771000Y-91120000D02*
X75310000Y-91120000D01*
X73770000Y-91160000D02*
X75310000Y-91160000D01*
X77390000Y-91160000D02*
X78930000Y-91160000D01*
X73770000Y-91200000D02*
X75310000Y-91200000D01*
X77390000Y-91200000D02*
X78930000Y-91200000D01*
X78970000Y-91200000D02*
G75*
G03X78970000Y-91200000I-2620000J0D01*
G01*
X108770000Y-96610000D02*
X107440000Y-96610000D01*
X108770000Y-95280000D02*
X108770000Y-96610000D01*
X106170000Y-96610000D02*
X103570000Y-96610000D01*
X106170000Y-94010000D02*
X106170000Y-96610000D01*
X108770000Y-94010000D02*
X106170000Y-94010000D01*
X103570000Y-96610000D02*
X103570000Y-88870000D01*
X108770000Y-94010000D02*
X108770000Y-88870000D01*
X108770000Y-88870000D02*
X103570000Y-88870000D01*
X77830000Y-94195000D02*
X77830000Y-94130000D01*
X77830000Y-96370000D02*
X77830000Y-96305000D01*
X81070000Y-94195000D02*
X81070000Y-94130000D01*
X81070000Y-96370000D02*
X81070000Y-96305000D01*
X81070000Y-94130000D02*
X77830000Y-94130000D01*
X81070000Y-96370000D02*
X77830000Y-96370000D01*
X81070000Y-118055000D02*
X81070000Y-118120000D01*
X81070000Y-115880000D02*
X81070000Y-115945000D01*
X77830000Y-118055000D02*
X77830000Y-118120000D01*
X77830000Y-115880000D02*
X77830000Y-115945000D01*
X77830000Y-118120000D02*
X81070000Y-118120000D01*
X77830000Y-115880000D02*
X81070000Y-115880000D01*
X67596000Y-94335241D02*
X68226000Y-94335241D01*
X67911000Y-94650241D02*
X67911000Y-94020241D01*
X69348000Y-87909000D02*
X70152000Y-87909000D01*
X69117000Y-87949000D02*
X70383000Y-87949000D01*
X68948000Y-87989000D02*
X70552000Y-87989000D01*
X68810000Y-88029000D02*
X70690000Y-88029000D01*
X68691000Y-88069000D02*
X70809000Y-88069000D01*
X68585000Y-88109000D02*
X70915000Y-88109000D01*
X68488000Y-88149000D02*
X71012000Y-88149000D01*
X68400000Y-88189000D02*
X71100000Y-88189000D01*
X68318000Y-88229000D02*
X71182000Y-88229000D01*
X68241000Y-88269000D02*
X71259000Y-88269000D01*
X68169000Y-88309000D02*
X71331000Y-88309000D01*
X68100000Y-88349000D02*
X71400000Y-88349000D01*
X68036000Y-88389000D02*
X71464000Y-88389000D01*
X67974000Y-88429000D02*
X71526000Y-88429000D01*
X67916000Y-88469000D02*
X71584000Y-88469000D01*
X67860000Y-88509000D02*
X71640000Y-88509000D01*
X67806000Y-88549000D02*
X71694000Y-88549000D01*
X67755000Y-88589000D02*
X71745000Y-88589000D01*
X67706000Y-88629000D02*
X71794000Y-88629000D01*
X67658000Y-88669000D02*
X71842000Y-88669000D01*
X67613000Y-88709000D02*
X71887000Y-88709000D01*
X67568000Y-88749000D02*
X71932000Y-88749000D01*
X67526000Y-88789000D02*
X71974000Y-88789000D01*
X67485000Y-88829000D02*
X72015000Y-88829000D01*
X70790000Y-88869000D02*
X72055000Y-88869000D01*
X67445000Y-88869000D02*
X68710000Y-88869000D01*
X70790000Y-88909000D02*
X72093000Y-88909000D01*
X67407000Y-88909000D02*
X68710000Y-88909000D01*
X70790000Y-88949000D02*
X72130000Y-88949000D01*
X67370000Y-88949000D02*
X68710000Y-88949000D01*
X70790000Y-88989000D02*
X72166000Y-88989000D01*
X67334000Y-88989000D02*
X68710000Y-88989000D01*
X70790000Y-89029000D02*
X72200000Y-89029000D01*
X67300000Y-89029000D02*
X68710000Y-89029000D01*
X70790000Y-89069000D02*
X72234000Y-89069000D01*
X67266000Y-89069000D02*
X68710000Y-89069000D01*
X70790000Y-89109000D02*
X72266000Y-89109000D01*
X67234000Y-89109000D02*
X68710000Y-89109000D01*
X70790000Y-89149000D02*
X72298000Y-89149000D01*
X67202000Y-89149000D02*
X68710000Y-89149000D01*
X70790000Y-89189000D02*
X72328000Y-89189000D01*
X67172000Y-89189000D02*
X68710000Y-89189000D01*
X70790000Y-89229000D02*
X72357000Y-89229000D01*
X67143000Y-89229000D02*
X68710000Y-89229000D01*
X70790000Y-89269000D02*
X72386000Y-89269000D01*
X67114000Y-89269000D02*
X68710000Y-89269000D01*
X70790000Y-89309000D02*
X72414000Y-89309000D01*
X67086000Y-89309000D02*
X68710000Y-89309000D01*
X70790000Y-89349000D02*
X72440000Y-89349000D01*
X67060000Y-89349000D02*
X68710000Y-89349000D01*
X70790000Y-89389000D02*
X72466000Y-89389000D01*
X67034000Y-89389000D02*
X68710000Y-89389000D01*
X70790000Y-89429000D02*
X72492000Y-89429000D01*
X67008000Y-89429000D02*
X68710000Y-89429000D01*
X70790000Y-89469000D02*
X72516000Y-89469000D01*
X66984000Y-89469000D02*
X68710000Y-89469000D01*
X70790000Y-89509000D02*
X72540000Y-89509000D01*
X66960000Y-89509000D02*
X68710000Y-89509000D01*
X70790000Y-89549000D02*
X72562000Y-89549000D01*
X66938000Y-89549000D02*
X68710000Y-89549000D01*
X70790000Y-89589000D02*
X72584000Y-89589000D01*
X66916000Y-89589000D02*
X68710000Y-89589000D01*
X70790000Y-89629000D02*
X72606000Y-89629000D01*
X66894000Y-89629000D02*
X68710000Y-89629000D01*
X70790000Y-89669000D02*
X72626000Y-89669000D01*
X66874000Y-89669000D02*
X68710000Y-89669000D01*
X70790000Y-89709000D02*
X72646000Y-89709000D01*
X66854000Y-89709000D02*
X68710000Y-89709000D01*
X70790000Y-89749000D02*
X72666000Y-89749000D01*
X66834000Y-89749000D02*
X68710000Y-89749000D01*
X70790000Y-89789000D02*
X72684000Y-89789000D01*
X66816000Y-89789000D02*
X68710000Y-89789000D01*
X70790000Y-89829000D02*
X72702000Y-89829000D01*
X66798000Y-89829000D02*
X68710000Y-89829000D01*
X70790000Y-89869000D02*
X72720000Y-89869000D01*
X66780000Y-89869000D02*
X68710000Y-89869000D01*
X70790000Y-89909000D02*
X72736000Y-89909000D01*
X66764000Y-89909000D02*
X68710000Y-89909000D01*
X70790000Y-89949000D02*
X72752000Y-89949000D01*
X66748000Y-89949000D02*
X68710000Y-89949000D01*
X70790000Y-89989000D02*
X72768000Y-89989000D01*
X66732000Y-89989000D02*
X68710000Y-89989000D01*
X70790000Y-90029000D02*
X72783000Y-90029000D01*
X66717000Y-90029000D02*
X68710000Y-90029000D01*
X70790000Y-90069000D02*
X72797000Y-90069000D01*
X66703000Y-90069000D02*
X68710000Y-90069000D01*
X70790000Y-90109000D02*
X72811000Y-90109000D01*
X66689000Y-90109000D02*
X68710000Y-90109000D01*
X70790000Y-90149000D02*
X72824000Y-90149000D01*
X66676000Y-90149000D02*
X68710000Y-90149000D01*
X70790000Y-90189000D02*
X72836000Y-90189000D01*
X66664000Y-90189000D02*
X68710000Y-90189000D01*
X70790000Y-90229000D02*
X72848000Y-90229000D01*
X66652000Y-90229000D02*
X68710000Y-90229000D01*
X70790000Y-90269000D02*
X72860000Y-90269000D01*
X66640000Y-90269000D02*
X68710000Y-90269000D01*
X70790000Y-90309000D02*
X72871000Y-90309000D01*
X66629000Y-90309000D02*
X68710000Y-90309000D01*
X70790000Y-90349000D02*
X72881000Y-90349000D01*
X66619000Y-90349000D02*
X68710000Y-90349000D01*
X70790000Y-90389000D02*
X72891000Y-90389000D01*
X66609000Y-90389000D02*
X68710000Y-90389000D01*
X70790000Y-90429000D02*
X72900000Y-90429000D01*
X66600000Y-90429000D02*
X68710000Y-90429000D01*
X70790000Y-90470000D02*
X72909000Y-90470000D01*
X66591000Y-90470000D02*
X68710000Y-90470000D01*
X70790000Y-90510000D02*
X72917000Y-90510000D01*
X66583000Y-90510000D02*
X68710000Y-90510000D01*
X70790000Y-90550000D02*
X72925000Y-90550000D01*
X66575000Y-90550000D02*
X68710000Y-90550000D01*
X70790000Y-90590000D02*
X72932000Y-90590000D01*
X66568000Y-90590000D02*
X68710000Y-90590000D01*
X70790000Y-90630000D02*
X72939000Y-90630000D01*
X66561000Y-90630000D02*
X68710000Y-90630000D01*
X70790000Y-90670000D02*
X72945000Y-90670000D01*
X66555000Y-90670000D02*
X68710000Y-90670000D01*
X70790000Y-90710000D02*
X72951000Y-90710000D01*
X66549000Y-90710000D02*
X68710000Y-90710000D01*
X70790000Y-90750000D02*
X72956000Y-90750000D01*
X66544000Y-90750000D02*
X68710000Y-90750000D01*
X70790000Y-90790000D02*
X72961000Y-90790000D01*
X66539000Y-90790000D02*
X68710000Y-90790000D01*
X70790000Y-90830000D02*
X72965000Y-90830000D01*
X66535000Y-90830000D02*
X68710000Y-90830000D01*
X70790000Y-90870000D02*
X72968000Y-90870000D01*
X66532000Y-90870000D02*
X68710000Y-90870000D01*
X70790000Y-90910000D02*
X72972000Y-90910000D01*
X66528000Y-90910000D02*
X68710000Y-90910000D01*
X66526000Y-90950000D02*
X72974000Y-90950000D01*
X66523000Y-90990000D02*
X72977000Y-90990000D01*
X66522000Y-91030000D02*
X72978000Y-91030000D01*
X66520000Y-91070000D02*
X72980000Y-91070000D01*
X66520000Y-91110000D02*
X72980000Y-91110000D01*
X66520000Y-91150000D02*
X72980000Y-91150000D01*
X73020000Y-91150000D02*
G75*
G03X73020000Y-91150000I-3270000J0D01*
G01*
X50450000Y-100170000D02*
X51780000Y-100170000D01*
X51780000Y-100170000D02*
X51780000Y-101500000D01*
X51780000Y-102770000D02*
X51780000Y-110450000D01*
X49120000Y-110450000D02*
X51780000Y-110450000D01*
X49120000Y-102770000D02*
X49120000Y-110450000D01*
X49120000Y-102770000D02*
X51780000Y-102770000D01*
X53970000Y-89640000D02*
X53970000Y-91290000D01*
X64250000Y-89640000D02*
X53970000Y-89640000D01*
X64250000Y-94940000D02*
X64250000Y-89640000D01*
X53970000Y-94940000D02*
X64250000Y-94940000D01*
X53970000Y-93290000D02*
X53970000Y-94940000D01*
X53970000Y-91290000D02*
G75*
G02X53970000Y-93290000I0J-1000000D01*
G01*
X84700000Y-83550000D02*
X84700000Y-85050000D01*
X85950000Y-87550000D02*
X90450000Y-87550000D01*
X91700000Y-85050000D02*
X91700000Y-83550000D01*
X90450000Y-81050000D02*
X85950000Y-81050000D01*
X101550000Y-85050000D02*
X101550000Y-83550000D01*
X100300000Y-81050000D02*
X95800000Y-81050000D01*
X94550000Y-83550000D02*
X94550000Y-85050000D01*
X95800000Y-87550000D02*
X100300000Y-87550000D01*
X44580000Y-109940000D02*
X47320000Y-109940000D01*
X47320000Y-109940000D02*
X47320000Y-103400000D01*
X47320000Y-103400000D02*
X44580000Y-103400000D01*
X44580000Y-103400000D02*
X44580000Y-109940000D01*
X45950000Y-110710000D02*
X45950000Y-109940000D01*
X45950000Y-102630000D02*
X45950000Y-103400000D01*
X42800000Y-110720000D02*
X42800000Y-109950000D01*
X42800000Y-102640000D02*
X42800000Y-103410000D01*
X44170000Y-109950000D02*
X44170000Y-103410000D01*
X41430000Y-109950000D02*
X44170000Y-109950000D01*
X41430000Y-103410000D02*
X41430000Y-109950000D01*
X44170000Y-103410000D02*
X41430000Y-103410000D01*
X93570000Y-90000000D02*
X92800000Y-90000000D01*
X85490000Y-90000000D02*
X86260000Y-90000000D01*
X92800000Y-88630000D02*
X86260000Y-88630000D01*
X92800000Y-91370000D02*
X92800000Y-88630000D01*
X86260000Y-91370000D02*
X92800000Y-91370000D01*
X86260000Y-88630000D02*
X86260000Y-91370000D01*
X93520000Y-93250000D02*
X92750000Y-93250000D01*
X85440000Y-93250000D02*
X86210000Y-93250000D01*
X92750000Y-91880000D02*
X86210000Y-91880000D01*
X92750000Y-94620000D02*
X92750000Y-91880000D01*
X86210000Y-94620000D02*
X92750000Y-94620000D01*
X86210000Y-91880000D02*
X86210000Y-94620000D01*
X51100000Y-87700000D02*
X51100000Y-90300000D01*
X36400000Y-87700000D02*
X51100000Y-87700000D01*
X51100000Y-96900000D02*
X49200000Y-96900000D01*
X51100000Y-94200000D02*
X51100000Y-96900000D01*
X36400000Y-96900000D02*
X36400000Y-87700000D01*
X45200000Y-96900000D02*
X36400000Y-96900000D01*
X50250000Y-87500000D02*
X51300000Y-87500000D01*
X51300000Y-88550000D02*
X51300000Y-87500000D01*
X53910000Y-82255000D02*
X53910000Y-85345000D01*
X58970000Y-83800000D02*
G75*
G03X58970000Y-83800000I-2500000J0D01*
G01*
X59460000Y-83799538D02*
G75*
G02X53910000Y-85344830I-2990000J-462D01*
G01*
X59460000Y-83800462D02*
G75*
G03X53910000Y-82255170I-2990000J462D01*
G01*
X47310000Y-82255000D02*
X47310000Y-85345000D01*
X52370000Y-83800000D02*
G75*
G03X52370000Y-83800000I-2500000J0D01*
G01*
X52860000Y-83799538D02*
G75*
G02X47310000Y-85344830I-2990000J-462D01*
G01*
X52860000Y-83800462D02*
G75*
G03X47310000Y-82255170I-2990000J462D01*
G01*
D10*
X70128095Y-122012380D02*
X70128095Y-121012380D01*
X70128095Y-121393333D02*
X70223333Y-121345714D01*
X70413809Y-121345714D01*
X70509047Y-121393333D01*
X70556666Y-121440952D01*
X70604285Y-121536190D01*
X70604285Y-121821904D01*
X70556666Y-121917142D01*
X70509047Y-121964761D01*
X70413809Y-122012380D01*
X70223333Y-122012380D01*
X70128095Y-121964761D01*
X71175714Y-122012380D02*
X71080476Y-121964761D01*
X71032857Y-121869523D01*
X71032857Y-121012380D01*
X71699523Y-122012380D02*
X71604285Y-121964761D01*
X71556666Y-121917142D01*
X71509047Y-121821904D01*
X71509047Y-121536190D01*
X71556666Y-121440952D01*
X71604285Y-121393333D01*
X71699523Y-121345714D01*
X71842380Y-121345714D01*
X71937619Y-121393333D01*
X71985238Y-121440952D01*
X72032857Y-121536190D01*
X72032857Y-121821904D01*
X71985238Y-121917142D01*
X71937619Y-121964761D01*
X71842380Y-122012380D01*
X71699523Y-122012380D01*
X72890000Y-121345714D02*
X72890000Y-122155238D01*
X72842380Y-122250476D01*
X72794761Y-122298095D01*
X72699523Y-122345714D01*
X72556666Y-122345714D01*
X72461428Y-122298095D01*
X72890000Y-121964761D02*
X72794761Y-122012380D01*
X72604285Y-122012380D01*
X72509047Y-121964761D01*
X72461428Y-121917142D01*
X72413809Y-121821904D01*
X72413809Y-121536190D01*
X72461428Y-121440952D01*
X72509047Y-121393333D01*
X72604285Y-121345714D01*
X72794761Y-121345714D01*
X72890000Y-121393333D01*
X73366190Y-121917142D02*
X73413809Y-121964761D01*
X73366190Y-122012380D01*
X73318571Y-121964761D01*
X73366190Y-121917142D01*
X73366190Y-122012380D01*
X73842380Y-122012380D02*
X73842380Y-121012380D01*
X73842380Y-121393333D02*
X73937619Y-121345714D01*
X74128095Y-121345714D01*
X74223333Y-121393333D01*
X74270952Y-121440952D01*
X74318571Y-121536190D01*
X74318571Y-121821904D01*
X74270952Y-121917142D01*
X74223333Y-121964761D01*
X74128095Y-122012380D01*
X73937619Y-122012380D01*
X73842380Y-121964761D01*
X75175714Y-122012380D02*
X75175714Y-121488571D01*
X75128095Y-121393333D01*
X75032857Y-121345714D01*
X74842380Y-121345714D01*
X74747142Y-121393333D01*
X75175714Y-121964761D02*
X75080476Y-122012380D01*
X74842380Y-122012380D01*
X74747142Y-121964761D01*
X74699523Y-121869523D01*
X74699523Y-121774285D01*
X74747142Y-121679047D01*
X74842380Y-121631428D01*
X75080476Y-121631428D01*
X75175714Y-121583809D01*
X75651904Y-121345714D02*
X75651904Y-122012380D01*
X75651904Y-121440952D02*
X75699523Y-121393333D01*
X75794761Y-121345714D01*
X75937619Y-121345714D01*
X76032857Y-121393333D01*
X76080476Y-121488571D01*
X76080476Y-122012380D01*
X76937619Y-121964761D02*
X76842380Y-122012380D01*
X76651904Y-122012380D01*
X76556666Y-121964761D01*
X76509047Y-121869523D01*
X76509047Y-121488571D01*
X76556666Y-121393333D01*
X76651904Y-121345714D01*
X76842380Y-121345714D01*
X76937619Y-121393333D01*
X76985238Y-121488571D01*
X76985238Y-121583809D01*
X76509047Y-121679047D01*
X77842380Y-121345714D02*
X77842380Y-122012380D01*
X77413809Y-121345714D02*
X77413809Y-121869523D01*
X77461428Y-121964761D01*
X77556666Y-122012380D01*
X77699523Y-122012380D01*
X77794761Y-121964761D01*
X77842380Y-121917142D01*
X78318571Y-121917142D02*
X78366190Y-121964761D01*
X78318571Y-122012380D01*
X78270952Y-121964761D01*
X78318571Y-121917142D01*
X78318571Y-122012380D01*
X78794761Y-121345714D02*
X78794761Y-122012380D01*
X78794761Y-121440952D02*
X78842380Y-121393333D01*
X78937619Y-121345714D01*
X79080476Y-121345714D01*
X79175714Y-121393333D01*
X79223333Y-121488571D01*
X79223333Y-122012380D01*
X80080476Y-121964761D02*
X79985238Y-122012380D01*
X79794761Y-122012380D01*
X79699523Y-121964761D01*
X79651904Y-121869523D01*
X79651904Y-121488571D01*
X79699523Y-121393333D01*
X79794761Y-121345714D01*
X79985238Y-121345714D01*
X80080476Y-121393333D01*
X80128095Y-121488571D01*
X80128095Y-121583809D01*
X79651904Y-121679047D01*
X80413809Y-121345714D02*
X80794761Y-121345714D01*
X80556666Y-121012380D02*
X80556666Y-121869523D01*
X80604285Y-121964761D01*
X80699523Y-122012380D01*
X80794761Y-122012380D01*
X70601428Y-119022857D02*
X70815714Y-119094285D01*
X70887142Y-119165714D01*
X70958571Y-119308571D01*
X70958571Y-119522857D01*
X70887142Y-119665714D01*
X70815714Y-119737142D01*
X70672857Y-119808571D01*
X70101428Y-119808571D01*
X70101428Y-118308571D01*
X70601428Y-118308571D01*
X70744285Y-118380000D01*
X70815714Y-118451428D01*
X70887142Y-118594285D01*
X70887142Y-118737142D01*
X70815714Y-118880000D01*
X70744285Y-118951428D01*
X70601428Y-119022857D01*
X70101428Y-119022857D01*
X71601428Y-119808571D02*
X71601428Y-118308571D01*
X72101428Y-119380000D01*
X72601428Y-118308571D01*
X72601428Y-119808571D01*
X73315714Y-119808571D02*
X73315714Y-118308571D01*
X73672857Y-118308571D01*
X73887142Y-118380000D01*
X74030000Y-118522857D01*
X74101428Y-118665714D01*
X74172857Y-118951428D01*
X74172857Y-119165714D01*
X74101428Y-119451428D01*
X74030000Y-119594285D01*
X73887142Y-119737142D01*
X73672857Y-119808571D01*
X73315714Y-119808571D01*
X75958571Y-119808571D02*
X75958571Y-118308571D01*
X76315714Y-118308571D01*
X76530000Y-118380000D01*
X76672857Y-118522857D01*
X76744285Y-118665714D01*
X76815714Y-118951428D01*
X76815714Y-119165714D01*
X76744285Y-119451428D01*
X76672857Y-119594285D01*
X76530000Y-119737142D01*
X76315714Y-119808571D01*
X75958571Y-119808571D01*
X78030000Y-119737142D02*
X77887142Y-119808571D01*
X77601428Y-119808571D01*
X77458571Y-119737142D01*
X77387142Y-119594285D01*
X77387142Y-119022857D01*
X77458571Y-118880000D01*
X77601428Y-118808571D01*
X77887142Y-118808571D01*
X78030000Y-118880000D01*
X78101428Y-119022857D01*
X78101428Y-119165714D01*
X77387142Y-119308571D01*
X78601428Y-118808571D02*
X78958571Y-119808571D01*
X79315714Y-118808571D01*
X80458571Y-119737142D02*
X80315714Y-119808571D01*
X80030000Y-119808571D01*
X79887142Y-119737142D01*
X79815714Y-119594285D01*
X79815714Y-119022857D01*
X79887142Y-118880000D01*
X80030000Y-118808571D01*
X80315714Y-118808571D01*
X80458571Y-118880000D01*
X80530000Y-119022857D01*
X80530000Y-119165714D01*
X79815714Y-119308571D01*
X81387142Y-119808571D02*
X81244285Y-119737142D01*
X81172857Y-119594285D01*
X81172857Y-118308571D01*
X82172857Y-119808571D02*
X82030000Y-119737142D01*
X81958571Y-119665714D01*
X81887142Y-119522857D01*
X81887142Y-119094285D01*
X81958571Y-118951428D01*
X82030000Y-118880000D01*
X82172857Y-118808571D01*
X82387142Y-118808571D01*
X82530000Y-118880000D01*
X82601428Y-118951428D01*
X82672857Y-119094285D01*
X82672857Y-119522857D01*
X82601428Y-119665714D01*
X82530000Y-119737142D01*
X82387142Y-119808571D01*
X82172857Y-119808571D01*
X83315714Y-118808571D02*
X83315714Y-120308571D01*
X83315714Y-118880000D02*
X83458571Y-118808571D01*
X83744285Y-118808571D01*
X83887142Y-118880000D01*
X83958571Y-118951428D01*
X84030000Y-119094285D01*
X84030000Y-119522857D01*
X83958571Y-119665714D01*
X83887142Y-119737142D01*
X83744285Y-119808571D01*
X83458571Y-119808571D01*
X83315714Y-119737142D01*
X84672857Y-119808571D02*
X84672857Y-118808571D01*
X84672857Y-118951428D02*
X84744285Y-118880000D01*
X84887142Y-118808571D01*
X85101428Y-118808571D01*
X85244285Y-118880000D01*
X85315714Y-119022857D01*
X85315714Y-119808571D01*
X85315714Y-119022857D02*
X85387142Y-118880000D01*
X85530000Y-118808571D01*
X85744285Y-118808571D01*
X85887142Y-118880000D01*
X85958571Y-119022857D01*
X85958571Y-119808571D01*
X87244285Y-119737142D02*
X87101428Y-119808571D01*
X86815714Y-119808571D01*
X86672857Y-119737142D01*
X86601428Y-119594285D01*
X86601428Y-119022857D01*
X86672857Y-118880000D01*
X86815714Y-118808571D01*
X87101428Y-118808571D01*
X87244285Y-118880000D01*
X87315714Y-119022857D01*
X87315714Y-119165714D01*
X86601428Y-119308571D01*
X87958571Y-118808571D02*
X87958571Y-119808571D01*
X87958571Y-118951428D02*
X88030000Y-118880000D01*
X88172857Y-118808571D01*
X88387142Y-118808571D01*
X88530000Y-118880000D01*
X88601428Y-119022857D01*
X88601428Y-119808571D01*
X89101428Y-118808571D02*
X89672857Y-118808571D01*
X89315714Y-118308571D02*
X89315714Y-119594285D01*
X89387142Y-119737142D01*
X89530000Y-119808571D01*
X89672857Y-119808571D01*
X63502380Y-84433333D02*
X64216666Y-84433333D01*
X64359523Y-84480952D01*
X64454761Y-84576190D01*
X64502380Y-84719047D01*
X64502380Y-84814285D01*
X63597619Y-84004761D02*
X63550000Y-83957142D01*
X63502380Y-83861904D01*
X63502380Y-83623809D01*
X63550000Y-83528571D01*
X63597619Y-83480952D01*
X63692857Y-83433333D01*
X63788095Y-83433333D01*
X63930952Y-83480952D01*
X64502380Y-84052380D01*
X64502380Y-83433333D01*
X105802380Y-106911904D02*
X106611904Y-106911904D01*
X106707142Y-106864285D01*
X106754761Y-106816666D01*
X106802380Y-106721428D01*
X106802380Y-106530952D01*
X106754761Y-106435714D01*
X106707142Y-106388095D01*
X106611904Y-106340476D01*
X105802380Y-106340476D01*
X105897619Y-105911904D02*
X105850000Y-105864285D01*
X105802380Y-105769047D01*
X105802380Y-105530952D01*
X105850000Y-105435714D01*
X105897619Y-105388095D01*
X105992857Y-105340476D01*
X106088095Y-105340476D01*
X106230952Y-105388095D01*
X106802380Y-105959523D01*
X106802380Y-105340476D01*
X78883333Y-88807142D02*
X78835714Y-88854761D01*
X78692857Y-88902380D01*
X78597619Y-88902380D01*
X78454761Y-88854761D01*
X78359523Y-88759523D01*
X78311904Y-88664285D01*
X78264285Y-88473809D01*
X78264285Y-88330952D01*
X78311904Y-88140476D01*
X78359523Y-88045238D01*
X78454761Y-87950000D01*
X78597619Y-87902380D01*
X78692857Y-87902380D01*
X78835714Y-87950000D01*
X78883333Y-87997619D01*
X79740476Y-88235714D02*
X79740476Y-88902380D01*
X79502380Y-87854761D02*
X79264285Y-88569047D01*
X79883333Y-88569047D01*
X105836666Y-97062380D02*
X105836666Y-97776666D01*
X105789047Y-97919523D01*
X105693809Y-98014761D01*
X105550952Y-98062380D01*
X105455714Y-98062380D01*
X106741428Y-97395714D02*
X106741428Y-98062380D01*
X106503333Y-97014761D02*
X106265238Y-97729047D01*
X106884285Y-97729047D01*
X75783333Y-95707142D02*
X75735714Y-95754761D01*
X75592857Y-95802380D01*
X75497619Y-95802380D01*
X75354761Y-95754761D01*
X75259523Y-95659523D01*
X75211904Y-95564285D01*
X75164285Y-95373809D01*
X75164285Y-95230952D01*
X75211904Y-95040476D01*
X75259523Y-94945238D01*
X75354761Y-94850000D01*
X75497619Y-94802380D01*
X75592857Y-94802380D01*
X75735714Y-94850000D01*
X75783333Y-94897619D01*
X76116666Y-94802380D02*
X76735714Y-94802380D01*
X76402380Y-95183333D01*
X76545238Y-95183333D01*
X76640476Y-95230952D01*
X76688095Y-95278571D01*
X76735714Y-95373809D01*
X76735714Y-95611904D01*
X76688095Y-95707142D01*
X76640476Y-95754761D01*
X76545238Y-95802380D01*
X76259523Y-95802380D01*
X76164285Y-95754761D01*
X76116666Y-95707142D01*
X82733333Y-117307142D02*
X82685714Y-117354761D01*
X82542857Y-117402380D01*
X82447619Y-117402380D01*
X82304761Y-117354761D01*
X82209523Y-117259523D01*
X82161904Y-117164285D01*
X82114285Y-116973809D01*
X82114285Y-116830952D01*
X82161904Y-116640476D01*
X82209523Y-116545238D01*
X82304761Y-116450000D01*
X82447619Y-116402380D01*
X82542857Y-116402380D01*
X82685714Y-116450000D01*
X82733333Y-116497619D01*
X83685714Y-117402380D02*
X83114285Y-117402380D01*
X83400000Y-117402380D02*
X83400000Y-116402380D01*
X83304761Y-116545238D01*
X83209523Y-116640476D01*
X83114285Y-116688095D01*
X65833333Y-88857142D02*
X65785714Y-88904761D01*
X65642857Y-88952380D01*
X65547619Y-88952380D01*
X65404761Y-88904761D01*
X65309523Y-88809523D01*
X65261904Y-88714285D01*
X65214285Y-88523809D01*
X65214285Y-88380952D01*
X65261904Y-88190476D01*
X65309523Y-88095238D01*
X65404761Y-88000000D01*
X65547619Y-87952380D01*
X65642857Y-87952380D01*
X65785714Y-88000000D01*
X65833333Y-88047619D01*
X66214285Y-88047619D02*
X66261904Y-88000000D01*
X66357142Y-87952380D01*
X66595238Y-87952380D01*
X66690476Y-88000000D01*
X66738095Y-88047619D01*
X66785714Y-88142857D01*
X66785714Y-88238095D01*
X66738095Y-88380952D01*
X66166666Y-88952380D01*
X66785714Y-88952380D01*
X50116666Y-98182380D02*
X50116666Y-98896666D01*
X50069047Y-99039523D01*
X49973809Y-99134761D01*
X49830952Y-99182380D01*
X49735714Y-99182380D01*
X50497619Y-98182380D02*
X51116666Y-98182380D01*
X50783333Y-98563333D01*
X50926190Y-98563333D01*
X51021428Y-98610952D01*
X51069047Y-98658571D01*
X51116666Y-98753809D01*
X51116666Y-98991904D01*
X51069047Y-99087142D01*
X51021428Y-99134761D01*
X50926190Y-99182380D01*
X50640476Y-99182380D01*
X50545238Y-99134761D01*
X50497619Y-99087142D01*
X52602380Y-92911904D02*
X53411904Y-92911904D01*
X53507142Y-92864285D01*
X53554761Y-92816666D01*
X53602380Y-92721428D01*
X53602380Y-92530952D01*
X53554761Y-92435714D01*
X53507142Y-92388095D01*
X53411904Y-92340476D01*
X52602380Y-92340476D01*
X53602380Y-91340476D02*
X53602380Y-91911904D01*
X53602380Y-91626190D02*
X52602380Y-91626190D01*
X52745238Y-91721428D01*
X52840476Y-91816666D01*
X52888095Y-91911904D01*
X81316666Y-84604761D02*
X81459523Y-84652380D01*
X81697619Y-84652380D01*
X81792857Y-84604761D01*
X81840476Y-84557142D01*
X81888095Y-84461904D01*
X81888095Y-84366666D01*
X81840476Y-84271428D01*
X81792857Y-84223809D01*
X81697619Y-84176190D01*
X81507142Y-84128571D01*
X81411904Y-84080952D01*
X81364285Y-84033333D01*
X81316666Y-83938095D01*
X81316666Y-83842857D01*
X81364285Y-83747619D01*
X81411904Y-83700000D01*
X81507142Y-83652380D01*
X81745238Y-83652380D01*
X81888095Y-83700000D01*
X82221428Y-83652380D02*
X82459523Y-84652380D01*
X82650000Y-83938095D01*
X82840476Y-84652380D01*
X83078571Y-83652380D01*
X83411904Y-83747619D02*
X83459523Y-83700000D01*
X83554761Y-83652380D01*
X83792857Y-83652380D01*
X83888095Y-83700000D01*
X83935714Y-83747619D01*
X83983333Y-83842857D01*
X83983333Y-83938095D01*
X83935714Y-84080952D01*
X83364285Y-84652380D01*
X83983333Y-84652380D01*
X102466666Y-84654761D02*
X102609523Y-84702380D01*
X102847619Y-84702380D01*
X102942857Y-84654761D01*
X102990476Y-84607142D01*
X103038095Y-84511904D01*
X103038095Y-84416666D01*
X102990476Y-84321428D01*
X102942857Y-84273809D01*
X102847619Y-84226190D01*
X102657142Y-84178571D01*
X102561904Y-84130952D01*
X102514285Y-84083333D01*
X102466666Y-83988095D01*
X102466666Y-83892857D01*
X102514285Y-83797619D01*
X102561904Y-83750000D01*
X102657142Y-83702380D01*
X102895238Y-83702380D01*
X103038095Y-83750000D01*
X103371428Y-83702380D02*
X103609523Y-84702380D01*
X103800000Y-83988095D01*
X103990476Y-84702380D01*
X104228571Y-83702380D01*
X105133333Y-84702380D02*
X104561904Y-84702380D01*
X104847619Y-84702380D02*
X104847619Y-83702380D01*
X104752380Y-83845238D01*
X104657142Y-83940476D01*
X104561904Y-83988095D01*
X46402380Y-114166666D02*
X45926190Y-114500000D01*
X46402380Y-114738095D02*
X45402380Y-114738095D01*
X45402380Y-114357142D01*
X45450000Y-114261904D01*
X45497619Y-114214285D01*
X45592857Y-114166666D01*
X45735714Y-114166666D01*
X45830952Y-114214285D01*
X45878571Y-114261904D01*
X45926190Y-114357142D01*
X45926190Y-114738095D01*
X45735714Y-113309523D02*
X46402380Y-113309523D01*
X45354761Y-113547619D02*
X46069047Y-113785714D01*
X46069047Y-113166666D01*
X43302380Y-114366666D02*
X42826190Y-114700000D01*
X43302380Y-114938095D02*
X42302380Y-114938095D01*
X42302380Y-114557142D01*
X42350000Y-114461904D01*
X42397619Y-114414285D01*
X42492857Y-114366666D01*
X42635714Y-114366666D01*
X42730952Y-114414285D01*
X42778571Y-114461904D01*
X42826190Y-114557142D01*
X42826190Y-114938095D01*
X42302380Y-114033333D02*
X42302380Y-113414285D01*
X42683333Y-113747619D01*
X42683333Y-113604761D01*
X42730952Y-113509523D01*
X42778571Y-113461904D01*
X42873809Y-113414285D01*
X43111904Y-113414285D01*
X43207142Y-113461904D01*
X43254761Y-113509523D01*
X43302380Y-113604761D01*
X43302380Y-113890476D01*
X43254761Y-113985714D01*
X43207142Y-114033333D01*
X96833333Y-90352380D02*
X96500000Y-89876190D01*
X96261904Y-90352380D02*
X96261904Y-89352380D01*
X96642857Y-89352380D01*
X96738095Y-89400000D01*
X96785714Y-89447619D01*
X96833333Y-89542857D01*
X96833333Y-89685714D01*
X96785714Y-89780952D01*
X96738095Y-89828571D01*
X96642857Y-89876190D01*
X96261904Y-89876190D01*
X97214285Y-89447619D02*
X97261904Y-89400000D01*
X97357142Y-89352380D01*
X97595238Y-89352380D01*
X97690476Y-89400000D01*
X97738095Y-89447619D01*
X97785714Y-89542857D01*
X97785714Y-89638095D01*
X97738095Y-89780952D01*
X97166666Y-90352380D01*
X97785714Y-90352380D01*
X96883333Y-93602380D02*
X96550000Y-93126190D01*
X96311904Y-93602380D02*
X96311904Y-92602380D01*
X96692857Y-92602380D01*
X96788095Y-92650000D01*
X96835714Y-92697619D01*
X96883333Y-92792857D01*
X96883333Y-92935714D01*
X96835714Y-93030952D01*
X96788095Y-93078571D01*
X96692857Y-93126190D01*
X96311904Y-93126190D01*
X97835714Y-93602380D02*
X97264285Y-93602380D01*
X97550000Y-93602380D02*
X97550000Y-92602380D01*
X97454761Y-92745238D01*
X97359523Y-92840476D01*
X97264285Y-92888095D01*
X40866666Y-86252380D02*
X40866666Y-86966666D01*
X40819047Y-87109523D01*
X40723809Y-87204761D01*
X40580952Y-87252380D01*
X40485714Y-87252380D01*
X41866666Y-87252380D02*
X41295238Y-87252380D01*
X41580952Y-87252380D02*
X41580952Y-86252380D01*
X41485714Y-86395238D01*
X41390476Y-86490476D01*
X41295238Y-86538095D01*
X58911904Y-81502380D02*
X58911904Y-80502380D01*
X59150000Y-80502380D01*
X59292857Y-80550000D01*
X59388095Y-80645238D01*
X59435714Y-80740476D01*
X59483333Y-80930952D01*
X59483333Y-81073809D01*
X59435714Y-81264285D01*
X59388095Y-81359523D01*
X59292857Y-81454761D01*
X59150000Y-81502380D01*
X58911904Y-81502380D01*
X59864285Y-80597619D02*
X59911904Y-80550000D01*
X60007142Y-80502380D01*
X60245238Y-80502380D01*
X60340476Y-80550000D01*
X60388095Y-80597619D01*
X60435714Y-80692857D01*
X60435714Y-80788095D01*
X60388095Y-80930952D01*
X59816666Y-81502380D01*
X60435714Y-81502380D01*
X45961904Y-81502380D02*
X45961904Y-80502380D01*
X46200000Y-80502380D01*
X46342857Y-80550000D01*
X46438095Y-80645238D01*
X46485714Y-80740476D01*
X46533333Y-80930952D01*
X46533333Y-81073809D01*
X46485714Y-81264285D01*
X46438095Y-81359523D01*
X46342857Y-81454761D01*
X46200000Y-81502380D01*
X45961904Y-81502380D01*
X47485714Y-81502380D02*
X46914285Y-81502380D01*
X47200000Y-81502380D02*
X47200000Y-80502380D01*
X47104761Y-80645238D01*
X47009523Y-80740476D01*
X46914285Y-80788095D01*
%LPC*%
D11*
G36*
X65664896Y-116683804D02*
G01*
X65772424Y-116742228D01*
X65937331Y-116834118D01*
X66151676Y-116954989D01*
X66407516Y-117100356D01*
X66696909Y-117265732D01*
X67011914Y-117446633D01*
X67129562Y-117514409D01*
X68605667Y-118365485D01*
X68605667Y-121774790D01*
X67130291Y-122626895D01*
X66807899Y-122812526D01*
X66507956Y-122984140D01*
X66238448Y-123137250D01*
X66007360Y-123267368D01*
X65822678Y-123370005D01*
X65692389Y-123440674D01*
X65624477Y-123474887D01*
X65616874Y-123477417D01*
X65573075Y-123456520D01*
X65464095Y-123397551D01*
X65297928Y-123305030D01*
X65082567Y-123183476D01*
X64826006Y-123037410D01*
X64536238Y-122871350D01*
X64221256Y-122689817D01*
X64107750Y-122624164D01*
X62636667Y-121772493D01*
X62636666Y-120071124D01*
X62636666Y-118589500D01*
X63060993Y-118589500D01*
X63061131Y-120071167D01*
X63061269Y-121552833D01*
X64320051Y-122280976D01*
X64617238Y-122452353D01*
X64891504Y-122609493D01*
X65134173Y-122747504D01*
X65336569Y-122861493D01*
X65490015Y-122946569D01*
X65585835Y-122997840D01*
X65615110Y-123011226D01*
X65659057Y-122991268D01*
X65767545Y-122933603D01*
X65931919Y-122843073D01*
X66143524Y-122724521D01*
X66393703Y-122582792D01*
X66673801Y-122422727D01*
X66916453Y-122283083D01*
X68181519Y-121552833D01*
X68181519Y-118589500D01*
X66908165Y-117854459D01*
X66548796Y-117648070D01*
X66255776Y-117482334D01*
X66023000Y-117354093D01*
X65844366Y-117260191D01*
X65713772Y-117197468D01*
X65625115Y-117162768D01*
X65572292Y-117152933D01*
X65558196Y-117155959D01*
X65504033Y-117185370D01*
X65385856Y-117251885D01*
X65212937Y-117350209D01*
X64994546Y-117475047D01*
X64739956Y-117621103D01*
X64458436Y-117783082D01*
X64271287Y-117891000D01*
X63060993Y-118589500D01*
X62636666Y-118589500D01*
X62636666Y-118369754D01*
X64114293Y-117516544D01*
X64436658Y-117330831D01*
X64736271Y-117159046D01*
X65005199Y-117005678D01*
X65235510Y-116875212D01*
X65419269Y-116772136D01*
X65548544Y-116700939D01*
X65615402Y-116666107D01*
X65622688Y-116663333D01*
X65664896Y-116683804D01*
G37*
X65664896Y-116683804D02*
X65772424Y-116742228D01*
X65937331Y-116834118D01*
X66151676Y-116954989D01*
X66407516Y-117100356D01*
X66696909Y-117265732D01*
X67011914Y-117446633D01*
X67129562Y-117514409D01*
X68605667Y-118365485D01*
X68605667Y-121774790D01*
X67130291Y-122626895D01*
X66807899Y-122812526D01*
X66507956Y-122984140D01*
X66238448Y-123137250D01*
X66007360Y-123267368D01*
X65822678Y-123370005D01*
X65692389Y-123440674D01*
X65624477Y-123474887D01*
X65616874Y-123477417D01*
X65573075Y-123456520D01*
X65464095Y-123397551D01*
X65297928Y-123305030D01*
X65082567Y-123183476D01*
X64826006Y-123037410D01*
X64536238Y-122871350D01*
X64221256Y-122689817D01*
X64107750Y-122624164D01*
X62636667Y-121772493D01*
X62636666Y-120071124D01*
X62636666Y-118589500D01*
X63060993Y-118589500D01*
X63061131Y-120071167D01*
X63061269Y-121552833D01*
X64320051Y-122280976D01*
X64617238Y-122452353D01*
X64891504Y-122609493D01*
X65134173Y-122747504D01*
X65336569Y-122861493D01*
X65490015Y-122946569D01*
X65585835Y-122997840D01*
X65615110Y-123011226D01*
X65659057Y-122991268D01*
X65767545Y-122933603D01*
X65931919Y-122843073D01*
X66143524Y-122724521D01*
X66393703Y-122582792D01*
X66673801Y-122422727D01*
X66916453Y-122283083D01*
X68181519Y-121552833D01*
X68181519Y-118589500D01*
X66908165Y-117854459D01*
X66548796Y-117648070D01*
X66255776Y-117482334D01*
X66023000Y-117354093D01*
X65844366Y-117260191D01*
X65713772Y-117197468D01*
X65625115Y-117162768D01*
X65572292Y-117152933D01*
X65558196Y-117155959D01*
X65504033Y-117185370D01*
X65385856Y-117251885D01*
X65212937Y-117350209D01*
X64994546Y-117475047D01*
X64739956Y-117621103D01*
X64458436Y-117783082D01*
X64271287Y-117891000D01*
X63060993Y-118589500D01*
X62636666Y-118589500D01*
X62636666Y-118369754D01*
X64114293Y-117516544D01*
X64436658Y-117330831D01*
X64736271Y-117159046D01*
X65005199Y-117005678D01*
X65235510Y-116875212D01*
X65419269Y-116772136D01*
X65548544Y-116700939D01*
X65615402Y-116666107D01*
X65622688Y-116663333D01*
X65664896Y-116683804D01*
G36*
X65669387Y-117890029D02*
G01*
X65779689Y-117946915D01*
X65943010Y-118034941D01*
X66149172Y-118148559D01*
X66387996Y-118282217D01*
X66627701Y-118418048D01*
X67589667Y-118966263D01*
X67589667Y-121176070D01*
X66630443Y-121724285D01*
X66371317Y-121872150D01*
X66136007Y-122005986D01*
X65934618Y-122120080D01*
X65777254Y-122208720D01*
X65674021Y-122266195D01*
X65635610Y-122286611D01*
X65626111Y-122249988D01*
X65617534Y-122139558D01*
X65610234Y-121966181D01*
X65604567Y-121740715D01*
X65600888Y-121474018D01*
X65599556Y-121185944D01*
X65599112Y-120071167D01*
X64646565Y-119528168D01*
X64391380Y-119380976D01*
X64163637Y-119246297D01*
X63972788Y-119129994D01*
X63828287Y-119037928D01*
X63739588Y-118975964D01*
X63715360Y-118950639D01*
X63757672Y-118919640D01*
X63861904Y-118854817D01*
X64015837Y-118763094D01*
X64207251Y-118651398D01*
X64423926Y-118526654D01*
X64653643Y-118395789D01*
X64884181Y-118265727D01*
X65103323Y-118143396D01*
X65298846Y-118035720D01*
X65458533Y-117949626D01*
X65570163Y-117892040D01*
X65621517Y-117869886D01*
X65622284Y-117869833D01*
X65669387Y-117890029D01*
G37*
X65669387Y-117890029D02*
X65779689Y-117946915D01*
X65943010Y-118034941D01*
X66149172Y-118148559D01*
X66387996Y-118282217D01*
X66627701Y-118418048D01*
X67589667Y-118966263D01*
X67589667Y-121176070D01*
X66630443Y-121724285D01*
X66371317Y-121872150D01*
X66136007Y-122005986D01*
X65934618Y-122120080D01*
X65777254Y-122208720D01*
X65674021Y-122266195D01*
X65635610Y-122286611D01*
X65626111Y-122249988D01*
X65617534Y-122139558D01*
X65610234Y-121966181D01*
X65604567Y-121740715D01*
X65600888Y-121474018D01*
X65599556Y-121185944D01*
X65599112Y-120071167D01*
X64646565Y-119528168D01*
X64391380Y-119380976D01*
X64163637Y-119246297D01*
X63972788Y-119129994D01*
X63828287Y-119037928D01*
X63739588Y-118975964D01*
X63715360Y-118950639D01*
X63757672Y-118919640D01*
X63861904Y-118854817D01*
X64015837Y-118763094D01*
X64207251Y-118651398D01*
X64423926Y-118526654D01*
X64653643Y-118395789D01*
X64884181Y-118265727D01*
X65103323Y-118143396D01*
X65298846Y-118035720D01*
X65458533Y-117949626D01*
X65570163Y-117892040D01*
X65621517Y-117869886D01*
X65622284Y-117869833D01*
X65669387Y-117890029D01*
D13*
X76660000Y-82960000D03*
X76660000Y-85500000D03*
X74120000Y-82960000D03*
X74120000Y-85500000D03*
X71580000Y-82960000D03*
X71580000Y-85500000D03*
X69040000Y-82960000D03*
X69040000Y-85500000D03*
X66500000Y-82960000D03*
D14*
X66500000Y-85500000D03*
D15*
X103550000Y-98600000D03*
D16*
X55290000Y-113840000D03*
X101010000Y-98600000D03*
X57830000Y-113840000D03*
X98470000Y-98600000D03*
X60370000Y-113840000D03*
X95930000Y-98600000D03*
X62910000Y-113840000D03*
X93390000Y-98600000D03*
X65450000Y-113840000D03*
X90850000Y-98600000D03*
X67990000Y-113840000D03*
X88310000Y-98600000D03*
X70530000Y-113840000D03*
X85770000Y-98600000D03*
X73070000Y-113840000D03*
X83230000Y-98600000D03*
X75610000Y-113840000D03*
X80690000Y-98600000D03*
X78150000Y-113840000D03*
X78150000Y-98600000D03*
X80690000Y-113840000D03*
X75610000Y-98600000D03*
X83230000Y-113840000D03*
X73070000Y-98600000D03*
X85770000Y-113840000D03*
X70530000Y-98600000D03*
X88310000Y-113840000D03*
X67990000Y-98600000D03*
X90850000Y-113840000D03*
X65450000Y-98600000D03*
X93390000Y-113840000D03*
X62910000Y-98600000D03*
X95930000Y-113840000D03*
X60370000Y-98600000D03*
X98470000Y-113840000D03*
X57830000Y-98600000D03*
X101010000Y-113840000D03*
X55290000Y-98600000D03*
X103550000Y-113840000D03*
D17*
X76350000Y-90200000D03*
D15*
X76350000Y-92200000D03*
D13*
X104900000Y-90200000D03*
X107440000Y-90200000D03*
X104900000Y-92740000D03*
X107440000Y-92740000D03*
X104900000Y-95280000D03*
D14*
X107440000Y-95280000D03*
D17*
X78200000Y-95250000D03*
X80700000Y-95250000D03*
X80700000Y-117000000D03*
X78200000Y-117000000D03*
D18*
X52550000Y-119950000D03*
X97500000Y-119950000D03*
X106500000Y-122500000D03*
X43500000Y-82500000D03*
X43500000Y-122500000D03*
X106500000Y-82500000D03*
D17*
X69750000Y-89900000D03*
D15*
X69750000Y-92400000D03*
D13*
X50450000Y-109120000D03*
X50450000Y-106580000D03*
X50450000Y-104040000D03*
D14*
X50450000Y-101500000D03*
D16*
X55300000Y-88480000D03*
X62920000Y-96100000D03*
X57840000Y-88480000D03*
X60380000Y-96100000D03*
X60380000Y-88480000D03*
X57840000Y-96100000D03*
X62920000Y-88480000D03*
D15*
X55300000Y-96100000D03*
D19*
X84950000Y-86550000D03*
X84950000Y-82050000D03*
X91450000Y-86550000D03*
X91450000Y-82050000D03*
X101300000Y-82050000D03*
X101300000Y-86550000D03*
X94800000Y-82050000D03*
X94800000Y-86550000D03*
D17*
X45950000Y-111750000D03*
D16*
X45950000Y-101590000D03*
X42800000Y-111760000D03*
D17*
X42800000Y-101600000D03*
D16*
X94610000Y-90000000D03*
D17*
X84450000Y-90000000D03*
D16*
X94560000Y-93250000D03*
D17*
X84400000Y-93250000D03*
D20*
G36*
X48188764Y-95203336D02*
G01*
X48276179Y-95216303D01*
X48361901Y-95237775D01*
X48445106Y-95267546D01*
X48524993Y-95305330D01*
X48600791Y-95350762D01*
X48671771Y-95403404D01*
X48737250Y-95462750D01*
X48796596Y-95528229D01*
X48849238Y-95599209D01*
X48894670Y-95675007D01*
X48932454Y-95754894D01*
X48962225Y-95838099D01*
X48983697Y-95923821D01*
X48996664Y-96011236D01*
X49001000Y-96099500D01*
X49001000Y-97900500D01*
X48996664Y-97988764D01*
X48983697Y-98076179D01*
X48962225Y-98161901D01*
X48932454Y-98245106D01*
X48894670Y-98324993D01*
X48849238Y-98400791D01*
X48796596Y-98471771D01*
X48737250Y-98537250D01*
X48671771Y-98596596D01*
X48600791Y-98649238D01*
X48524993Y-98694670D01*
X48445106Y-98732454D01*
X48361901Y-98762225D01*
X48276179Y-98783697D01*
X48188764Y-98796664D01*
X48100500Y-98801000D01*
X46299500Y-98801000D01*
X46211236Y-98796664D01*
X46123821Y-98783697D01*
X46038099Y-98762225D01*
X45954894Y-98732454D01*
X45875007Y-98694670D01*
X45799209Y-98649238D01*
X45728229Y-98596596D01*
X45662750Y-98537250D01*
X45603404Y-98471771D01*
X45550762Y-98400791D01*
X45505330Y-98324993D01*
X45467546Y-98245106D01*
X45437775Y-98161901D01*
X45416303Y-98076179D01*
X45403336Y-97988764D01*
X45399000Y-97900500D01*
X45399000Y-96099500D01*
X45403336Y-96011236D01*
X45416303Y-95923821D01*
X45437775Y-95838099D01*
X45467546Y-95754894D01*
X45505330Y-95675007D01*
X45550762Y-95599209D01*
X45603404Y-95528229D01*
X45662750Y-95462750D01*
X45728229Y-95403404D01*
X45799209Y-95350762D01*
X45875007Y-95305330D01*
X45954894Y-95267546D01*
X46038099Y-95237775D01*
X46123821Y-95216303D01*
X46211236Y-95203336D01*
X46299500Y-95199000D01*
X48100500Y-95199000D01*
X48188764Y-95203336D01*
G37*
G36*
X45051512Y-90502734D02*
G01*
X45126793Y-90513901D01*
X45200616Y-90532393D01*
X45272271Y-90558031D01*
X45341068Y-90590570D01*
X45406345Y-90629695D01*
X45467472Y-90675030D01*
X45523861Y-90726139D01*
X45574970Y-90782528D01*
X45620305Y-90843655D01*
X45659430Y-90908932D01*
X45691969Y-90977729D01*
X45717607Y-91049384D01*
X45736099Y-91123207D01*
X45747266Y-91198488D01*
X45751000Y-91274500D01*
X45751000Y-93325500D01*
X45747266Y-93401512D01*
X45736099Y-93476793D01*
X45717607Y-93550616D01*
X45691969Y-93622271D01*
X45659430Y-93691068D01*
X45620305Y-93756345D01*
X45574970Y-93817472D01*
X45523861Y-93873861D01*
X45467472Y-93924970D01*
X45406345Y-93970305D01*
X45341068Y-94009430D01*
X45272271Y-94041969D01*
X45200616Y-94067607D01*
X45126793Y-94086099D01*
X45051512Y-94097266D01*
X44975500Y-94101000D01*
X43424500Y-94101000D01*
X43348488Y-94097266D01*
X43273207Y-94086099D01*
X43199384Y-94067607D01*
X43127729Y-94041969D01*
X43058932Y-94009430D01*
X42993655Y-93970305D01*
X42932528Y-93924970D01*
X42876139Y-93873861D01*
X42825030Y-93817472D01*
X42779695Y-93756345D01*
X42740570Y-93691068D01*
X42708031Y-93622271D01*
X42682393Y-93550616D01*
X42663901Y-93476793D01*
X42652734Y-93401512D01*
X42649000Y-93325500D01*
X42649000Y-91274500D01*
X42652734Y-91198488D01*
X42663901Y-91123207D01*
X42682393Y-91049384D01*
X42708031Y-90977729D01*
X42740570Y-90908932D01*
X42779695Y-90843655D01*
X42825030Y-90782528D01*
X42876139Y-90726139D01*
X42932528Y-90675030D01*
X42993655Y-90629695D01*
X43058932Y-90590570D01*
X43127729Y-90558031D01*
X43199384Y-90532393D01*
X43273207Y-90513901D01*
X43348488Y-90502734D01*
X43424500Y-90499000D01*
X44975500Y-90499000D01*
X45051512Y-90502734D01*
G37*
D21*
X50200000Y-92300000D03*
D22*
X57740000Y-83800000D03*
D23*
X55200000Y-83800000D03*
D22*
X51140000Y-83800000D03*
D23*
X48600000Y-83800000D03*
M02*
