M48
; DRILL file {KiCad 5.1.5} date Tue 12 May 2020 10:46:24 PM CEST
; FORMAT={-:-/ absolute / metric / decimal}
; #@! TF.CreationDate,2020-05-12T22:46:24+02:00
; #@! TF.GenerationSoftware,Kicad,Pcbnew,5.1.5
; #@! TF.FileFunction,Plated,1,2,PTH
FMAT,2
METRIC
T1C0.800
T2C0.900
T3C1.000
T4C1.100
%
G90
G05
T1
X45.95Y-101.59
X45.95Y-111.75
X69.75Y-89.9
X69.75Y-92.4
X76.35Y-90.2
X76.35Y-92.2
X42.8Y-101.6
X42.8Y-111.76
X55.3Y-88.48
X55.3Y-96.1
X57.84Y-88.48
X57.84Y-96.1
X60.38Y-88.48
X60.38Y-96.1
X62.92Y-88.48
X62.92Y-96.1
X55.29Y-98.6
X55.29Y-113.84
X57.83Y-98.6
X57.83Y-113.84
X60.37Y-98.6
X60.37Y-113.84
X62.91Y-98.6
X62.91Y-113.84
X65.45Y-98.6
X65.45Y-113.84
X67.99Y-98.6
X67.99Y-113.84
X70.53Y-98.6
X70.53Y-113.84
X73.07Y-98.6
X73.07Y-113.84
X75.61Y-98.6
X75.61Y-113.84
X78.15Y-98.6
X78.15Y-113.84
X80.69Y-98.6
X80.69Y-113.84
X83.23Y-98.6
X83.23Y-113.84
X85.77Y-98.6
X85.77Y-113.84
X88.31Y-98.6
X88.31Y-113.84
X90.85Y-98.6
X90.85Y-113.84
X93.39Y-98.6
X93.39Y-113.84
X95.93Y-98.6
X95.93Y-113.84
X98.47Y-98.6
X98.47Y-113.84
X101.01Y-98.6
X101.01Y-113.84
X103.55Y-98.6
X103.55Y-113.84
X78.2Y-117.0
X80.7Y-117.0
X78.2Y-95.25
X80.7Y-95.25
X84.45Y-90.0
X94.61Y-90.0
X84.4Y-93.25
X94.56Y-93.25
T2
X48.6Y-83.8
X51.14Y-83.8
X55.2Y-83.8
X57.74Y-83.8
T3
X104.9Y-90.2
X104.9Y-92.74
X104.9Y-95.28
X107.44Y-90.2
X107.44Y-92.74
X107.44Y-95.28
X50.45Y-101.5
X50.45Y-104.04
X50.45Y-106.58
X50.45Y-109.12
X66.5Y-82.96
X66.5Y-85.5
X69.04Y-82.96
X69.04Y-85.5
X71.58Y-82.96
X71.58Y-85.5
X74.12Y-82.96
X74.12Y-85.5
X76.66Y-82.96
X76.66Y-85.5
T4
X94.8Y-82.05
X94.8Y-86.55
X101.3Y-82.05
X101.3Y-86.55
X84.95Y-82.05
X84.95Y-86.55
X91.45Y-82.05
X91.45Y-86.55
T3
G00X44.2Y-91.3
M15
G01X44.2Y-93.3
M16
G05
G00X46.2Y-97.0
M15
G01X48.2Y-97.0
M16
G05
G00X50.2Y-91.3
M15
G01X50.2Y-93.3
M16
G05
T0
M30
