%TF.GenerationSoftware,KiCad,Pcbnew,5.1.5*%
%TF.CreationDate,2020-05-12T22:46:27+02:00*%
%TF.ProjectId,atmega-dcf77-clock,61746d65-6761-42d6-9463-6637372d636c,rev?*%
%TF.SameCoordinates,Original*%
%TF.FileFunction,Soldermask,Bot*%
%TF.FilePolarity,Negative*%
%FSLAX46Y46*%
G04 Gerber Fmt 4.6, Leading zero omitted, Abs format (unit mm)*
G04 Created by KiCad (PCBNEW 5.1.5) date 2020-05-12 22:46:27*
%MOMM*%
%LPD*%
G04 APERTURE LIST*
%ADD10C,0.100000*%
G04 APERTURE END LIST*
D10*
G36*
X106818433Y-121134893D02*
G01*
X106908657Y-121152839D01*
X107002113Y-121191550D01*
X107163621Y-121258449D01*
X107239763Y-121309325D01*
X107393086Y-121411772D01*
X107588228Y-121606914D01*
X107690675Y-121760237D01*
X107741551Y-121836379D01*
X107847161Y-122091344D01*
X107901000Y-122362012D01*
X107901000Y-122637988D01*
X107847161Y-122908656D01*
X107741551Y-123163621D01*
X107741550Y-123163622D01*
X107588228Y-123393086D01*
X107393086Y-123588228D01*
X107239763Y-123690675D01*
X107163621Y-123741551D01*
X107014267Y-123803415D01*
X106908657Y-123847161D01*
X106818433Y-123865107D01*
X106637988Y-123901000D01*
X106362012Y-123901000D01*
X106181567Y-123865107D01*
X106091343Y-123847161D01*
X105985733Y-123803415D01*
X105836379Y-123741551D01*
X105760237Y-123690675D01*
X105606914Y-123588228D01*
X105411772Y-123393086D01*
X105258450Y-123163622D01*
X105258449Y-123163621D01*
X105152839Y-122908656D01*
X105099000Y-122637988D01*
X105099000Y-122362012D01*
X105152839Y-122091344D01*
X105258449Y-121836379D01*
X105309325Y-121760237D01*
X105411772Y-121606914D01*
X105606914Y-121411772D01*
X105760237Y-121309325D01*
X105836379Y-121258449D01*
X105997887Y-121191550D01*
X106091343Y-121152839D01*
X106181567Y-121134893D01*
X106362012Y-121099000D01*
X106637988Y-121099000D01*
X106818433Y-121134893D01*
G37*
G36*
X43818433Y-121134893D02*
G01*
X43908657Y-121152839D01*
X44002113Y-121191550D01*
X44163621Y-121258449D01*
X44239763Y-121309325D01*
X44393086Y-121411772D01*
X44588228Y-121606914D01*
X44690675Y-121760237D01*
X44741551Y-121836379D01*
X44847161Y-122091344D01*
X44901000Y-122362012D01*
X44901000Y-122637988D01*
X44847161Y-122908656D01*
X44741551Y-123163621D01*
X44741550Y-123163622D01*
X44588228Y-123393086D01*
X44393086Y-123588228D01*
X44239763Y-123690675D01*
X44163621Y-123741551D01*
X44014267Y-123803415D01*
X43908657Y-123847161D01*
X43818433Y-123865107D01*
X43637988Y-123901000D01*
X43362012Y-123901000D01*
X43181567Y-123865107D01*
X43091343Y-123847161D01*
X42985733Y-123803415D01*
X42836379Y-123741551D01*
X42760237Y-123690675D01*
X42606914Y-123588228D01*
X42411772Y-123393086D01*
X42258450Y-123163622D01*
X42258449Y-123163621D01*
X42152839Y-122908656D01*
X42099000Y-122637988D01*
X42099000Y-122362012D01*
X42152839Y-122091344D01*
X42258449Y-121836379D01*
X42309325Y-121760237D01*
X42411772Y-121606914D01*
X42606914Y-121411772D01*
X42760237Y-121309325D01*
X42836379Y-121258449D01*
X42997887Y-121191550D01*
X43091343Y-121152839D01*
X43181567Y-121134893D01*
X43362012Y-121099000D01*
X43637988Y-121099000D01*
X43818433Y-121134893D01*
G37*
G36*
X97818433Y-118584893D02*
G01*
X97908657Y-118602839D01*
X98014267Y-118646585D01*
X98163621Y-118708449D01*
X98163622Y-118708450D01*
X98393086Y-118861772D01*
X98588228Y-119056914D01*
X98690675Y-119210237D01*
X98741551Y-119286379D01*
X98847161Y-119541344D01*
X98901000Y-119812012D01*
X98901000Y-120087988D01*
X98847161Y-120358656D01*
X98741551Y-120613621D01*
X98741550Y-120613622D01*
X98588228Y-120843086D01*
X98393086Y-121038228D01*
X98239763Y-121140675D01*
X98163621Y-121191551D01*
X98014267Y-121253415D01*
X97908657Y-121297161D01*
X97818433Y-121315107D01*
X97637988Y-121351000D01*
X97362012Y-121351000D01*
X97181567Y-121315107D01*
X97091343Y-121297161D01*
X96985733Y-121253415D01*
X96836379Y-121191551D01*
X96760237Y-121140675D01*
X96606914Y-121038228D01*
X96411772Y-120843086D01*
X96258450Y-120613622D01*
X96258449Y-120613621D01*
X96152839Y-120358656D01*
X96099000Y-120087988D01*
X96099000Y-119812012D01*
X96152839Y-119541344D01*
X96258449Y-119286379D01*
X96309325Y-119210237D01*
X96411772Y-119056914D01*
X96606914Y-118861772D01*
X96836378Y-118708450D01*
X96836379Y-118708449D01*
X96985733Y-118646585D01*
X97091343Y-118602839D01*
X97181567Y-118584893D01*
X97362012Y-118549000D01*
X97637988Y-118549000D01*
X97818433Y-118584893D01*
G37*
G36*
X52868433Y-118584893D02*
G01*
X52958657Y-118602839D01*
X53064267Y-118646585D01*
X53213621Y-118708449D01*
X53213622Y-118708450D01*
X53443086Y-118861772D01*
X53638228Y-119056914D01*
X53740675Y-119210237D01*
X53791551Y-119286379D01*
X53897161Y-119541344D01*
X53951000Y-119812012D01*
X53951000Y-120087988D01*
X53897161Y-120358656D01*
X53791551Y-120613621D01*
X53791550Y-120613622D01*
X53638228Y-120843086D01*
X53443086Y-121038228D01*
X53289763Y-121140675D01*
X53213621Y-121191551D01*
X53064267Y-121253415D01*
X52958657Y-121297161D01*
X52868433Y-121315107D01*
X52687988Y-121351000D01*
X52412012Y-121351000D01*
X52231567Y-121315107D01*
X52141343Y-121297161D01*
X52035733Y-121253415D01*
X51886379Y-121191551D01*
X51810237Y-121140675D01*
X51656914Y-121038228D01*
X51461772Y-120843086D01*
X51308450Y-120613622D01*
X51308449Y-120613621D01*
X51202839Y-120358656D01*
X51149000Y-120087988D01*
X51149000Y-119812012D01*
X51202839Y-119541344D01*
X51308449Y-119286379D01*
X51359325Y-119210237D01*
X51461772Y-119056914D01*
X51656914Y-118861772D01*
X51886378Y-118708450D01*
X51886379Y-118708449D01*
X52035733Y-118646585D01*
X52141343Y-118602839D01*
X52231567Y-118584893D01*
X52412012Y-118549000D01*
X52687988Y-118549000D01*
X52868433Y-118584893D01*
G37*
G36*
X78448228Y-116181703D02*
G01*
X78603100Y-116245853D01*
X78742481Y-116338985D01*
X78861015Y-116457519D01*
X78954147Y-116596900D01*
X79018297Y-116751772D01*
X79051000Y-116916184D01*
X79051000Y-117083816D01*
X79018297Y-117248228D01*
X78954147Y-117403100D01*
X78861015Y-117542481D01*
X78742481Y-117661015D01*
X78603100Y-117754147D01*
X78448228Y-117818297D01*
X78283816Y-117851000D01*
X78116184Y-117851000D01*
X77951772Y-117818297D01*
X77796900Y-117754147D01*
X77657519Y-117661015D01*
X77538985Y-117542481D01*
X77445853Y-117403100D01*
X77381703Y-117248228D01*
X77349000Y-117083816D01*
X77349000Y-116916184D01*
X77381703Y-116751772D01*
X77445853Y-116596900D01*
X77538985Y-116457519D01*
X77657519Y-116338985D01*
X77796900Y-116245853D01*
X77951772Y-116181703D01*
X78116184Y-116149000D01*
X78283816Y-116149000D01*
X78448228Y-116181703D01*
G37*
G36*
X80948228Y-116181703D02*
G01*
X81103100Y-116245853D01*
X81242481Y-116338985D01*
X81361015Y-116457519D01*
X81454147Y-116596900D01*
X81518297Y-116751772D01*
X81551000Y-116916184D01*
X81551000Y-117083816D01*
X81518297Y-117248228D01*
X81454147Y-117403100D01*
X81361015Y-117542481D01*
X81242481Y-117661015D01*
X81103100Y-117754147D01*
X80948228Y-117818297D01*
X80783816Y-117851000D01*
X80616184Y-117851000D01*
X80451772Y-117818297D01*
X80296900Y-117754147D01*
X80157519Y-117661015D01*
X80038985Y-117542481D01*
X79945853Y-117403100D01*
X79881703Y-117248228D01*
X79849000Y-117083816D01*
X79849000Y-116916184D01*
X79881703Y-116751772D01*
X79945853Y-116596900D01*
X80038985Y-116457519D01*
X80157519Y-116338985D01*
X80296900Y-116245853D01*
X80451772Y-116181703D01*
X80616184Y-116149000D01*
X80783816Y-116149000D01*
X80948228Y-116181703D01*
G37*
G36*
X73318228Y-113021703D02*
G01*
X73473100Y-113085853D01*
X73612481Y-113178985D01*
X73731015Y-113297519D01*
X73824147Y-113436900D01*
X73888297Y-113591772D01*
X73921000Y-113756184D01*
X73921000Y-113923816D01*
X73888297Y-114088228D01*
X73824147Y-114243100D01*
X73731015Y-114382481D01*
X73612481Y-114501015D01*
X73473100Y-114594147D01*
X73318228Y-114658297D01*
X73153816Y-114691000D01*
X72986184Y-114691000D01*
X72821772Y-114658297D01*
X72666900Y-114594147D01*
X72527519Y-114501015D01*
X72408985Y-114382481D01*
X72315853Y-114243100D01*
X72251703Y-114088228D01*
X72219000Y-113923816D01*
X72219000Y-113756184D01*
X72251703Y-113591772D01*
X72315853Y-113436900D01*
X72408985Y-113297519D01*
X72527519Y-113178985D01*
X72666900Y-113085853D01*
X72821772Y-113021703D01*
X72986184Y-112989000D01*
X73153816Y-112989000D01*
X73318228Y-113021703D01*
G37*
G36*
X55538228Y-113021703D02*
G01*
X55693100Y-113085853D01*
X55832481Y-113178985D01*
X55951015Y-113297519D01*
X56044147Y-113436900D01*
X56108297Y-113591772D01*
X56141000Y-113756184D01*
X56141000Y-113923816D01*
X56108297Y-114088228D01*
X56044147Y-114243100D01*
X55951015Y-114382481D01*
X55832481Y-114501015D01*
X55693100Y-114594147D01*
X55538228Y-114658297D01*
X55373816Y-114691000D01*
X55206184Y-114691000D01*
X55041772Y-114658297D01*
X54886900Y-114594147D01*
X54747519Y-114501015D01*
X54628985Y-114382481D01*
X54535853Y-114243100D01*
X54471703Y-114088228D01*
X54439000Y-113923816D01*
X54439000Y-113756184D01*
X54471703Y-113591772D01*
X54535853Y-113436900D01*
X54628985Y-113297519D01*
X54747519Y-113178985D01*
X54886900Y-113085853D01*
X55041772Y-113021703D01*
X55206184Y-112989000D01*
X55373816Y-112989000D01*
X55538228Y-113021703D01*
G37*
G36*
X75858228Y-113021703D02*
G01*
X76013100Y-113085853D01*
X76152481Y-113178985D01*
X76271015Y-113297519D01*
X76364147Y-113436900D01*
X76428297Y-113591772D01*
X76461000Y-113756184D01*
X76461000Y-113923816D01*
X76428297Y-114088228D01*
X76364147Y-114243100D01*
X76271015Y-114382481D01*
X76152481Y-114501015D01*
X76013100Y-114594147D01*
X75858228Y-114658297D01*
X75693816Y-114691000D01*
X75526184Y-114691000D01*
X75361772Y-114658297D01*
X75206900Y-114594147D01*
X75067519Y-114501015D01*
X74948985Y-114382481D01*
X74855853Y-114243100D01*
X74791703Y-114088228D01*
X74759000Y-113923816D01*
X74759000Y-113756184D01*
X74791703Y-113591772D01*
X74855853Y-113436900D01*
X74948985Y-113297519D01*
X75067519Y-113178985D01*
X75206900Y-113085853D01*
X75361772Y-113021703D01*
X75526184Y-112989000D01*
X75693816Y-112989000D01*
X75858228Y-113021703D01*
G37*
G36*
X78398228Y-113021703D02*
G01*
X78553100Y-113085853D01*
X78692481Y-113178985D01*
X78811015Y-113297519D01*
X78904147Y-113436900D01*
X78968297Y-113591772D01*
X79001000Y-113756184D01*
X79001000Y-113923816D01*
X78968297Y-114088228D01*
X78904147Y-114243100D01*
X78811015Y-114382481D01*
X78692481Y-114501015D01*
X78553100Y-114594147D01*
X78398228Y-114658297D01*
X78233816Y-114691000D01*
X78066184Y-114691000D01*
X77901772Y-114658297D01*
X77746900Y-114594147D01*
X77607519Y-114501015D01*
X77488985Y-114382481D01*
X77395853Y-114243100D01*
X77331703Y-114088228D01*
X77299000Y-113923816D01*
X77299000Y-113756184D01*
X77331703Y-113591772D01*
X77395853Y-113436900D01*
X77488985Y-113297519D01*
X77607519Y-113178985D01*
X77746900Y-113085853D01*
X77901772Y-113021703D01*
X78066184Y-112989000D01*
X78233816Y-112989000D01*
X78398228Y-113021703D01*
G37*
G36*
X80938228Y-113021703D02*
G01*
X81093100Y-113085853D01*
X81232481Y-113178985D01*
X81351015Y-113297519D01*
X81444147Y-113436900D01*
X81508297Y-113591772D01*
X81541000Y-113756184D01*
X81541000Y-113923816D01*
X81508297Y-114088228D01*
X81444147Y-114243100D01*
X81351015Y-114382481D01*
X81232481Y-114501015D01*
X81093100Y-114594147D01*
X80938228Y-114658297D01*
X80773816Y-114691000D01*
X80606184Y-114691000D01*
X80441772Y-114658297D01*
X80286900Y-114594147D01*
X80147519Y-114501015D01*
X80028985Y-114382481D01*
X79935853Y-114243100D01*
X79871703Y-114088228D01*
X79839000Y-113923816D01*
X79839000Y-113756184D01*
X79871703Y-113591772D01*
X79935853Y-113436900D01*
X80028985Y-113297519D01*
X80147519Y-113178985D01*
X80286900Y-113085853D01*
X80441772Y-113021703D01*
X80606184Y-112989000D01*
X80773816Y-112989000D01*
X80938228Y-113021703D01*
G37*
G36*
X83478228Y-113021703D02*
G01*
X83633100Y-113085853D01*
X83772481Y-113178985D01*
X83891015Y-113297519D01*
X83984147Y-113436900D01*
X84048297Y-113591772D01*
X84081000Y-113756184D01*
X84081000Y-113923816D01*
X84048297Y-114088228D01*
X83984147Y-114243100D01*
X83891015Y-114382481D01*
X83772481Y-114501015D01*
X83633100Y-114594147D01*
X83478228Y-114658297D01*
X83313816Y-114691000D01*
X83146184Y-114691000D01*
X82981772Y-114658297D01*
X82826900Y-114594147D01*
X82687519Y-114501015D01*
X82568985Y-114382481D01*
X82475853Y-114243100D01*
X82411703Y-114088228D01*
X82379000Y-113923816D01*
X82379000Y-113756184D01*
X82411703Y-113591772D01*
X82475853Y-113436900D01*
X82568985Y-113297519D01*
X82687519Y-113178985D01*
X82826900Y-113085853D01*
X82981772Y-113021703D01*
X83146184Y-112989000D01*
X83313816Y-112989000D01*
X83478228Y-113021703D01*
G37*
G36*
X86018228Y-113021703D02*
G01*
X86173100Y-113085853D01*
X86312481Y-113178985D01*
X86431015Y-113297519D01*
X86524147Y-113436900D01*
X86588297Y-113591772D01*
X86621000Y-113756184D01*
X86621000Y-113923816D01*
X86588297Y-114088228D01*
X86524147Y-114243100D01*
X86431015Y-114382481D01*
X86312481Y-114501015D01*
X86173100Y-114594147D01*
X86018228Y-114658297D01*
X85853816Y-114691000D01*
X85686184Y-114691000D01*
X85521772Y-114658297D01*
X85366900Y-114594147D01*
X85227519Y-114501015D01*
X85108985Y-114382481D01*
X85015853Y-114243100D01*
X84951703Y-114088228D01*
X84919000Y-113923816D01*
X84919000Y-113756184D01*
X84951703Y-113591772D01*
X85015853Y-113436900D01*
X85108985Y-113297519D01*
X85227519Y-113178985D01*
X85366900Y-113085853D01*
X85521772Y-113021703D01*
X85686184Y-112989000D01*
X85853816Y-112989000D01*
X86018228Y-113021703D01*
G37*
G36*
X88558228Y-113021703D02*
G01*
X88713100Y-113085853D01*
X88852481Y-113178985D01*
X88971015Y-113297519D01*
X89064147Y-113436900D01*
X89128297Y-113591772D01*
X89161000Y-113756184D01*
X89161000Y-113923816D01*
X89128297Y-114088228D01*
X89064147Y-114243100D01*
X88971015Y-114382481D01*
X88852481Y-114501015D01*
X88713100Y-114594147D01*
X88558228Y-114658297D01*
X88393816Y-114691000D01*
X88226184Y-114691000D01*
X88061772Y-114658297D01*
X87906900Y-114594147D01*
X87767519Y-114501015D01*
X87648985Y-114382481D01*
X87555853Y-114243100D01*
X87491703Y-114088228D01*
X87459000Y-113923816D01*
X87459000Y-113756184D01*
X87491703Y-113591772D01*
X87555853Y-113436900D01*
X87648985Y-113297519D01*
X87767519Y-113178985D01*
X87906900Y-113085853D01*
X88061772Y-113021703D01*
X88226184Y-112989000D01*
X88393816Y-112989000D01*
X88558228Y-113021703D01*
G37*
G36*
X93638228Y-113021703D02*
G01*
X93793100Y-113085853D01*
X93932481Y-113178985D01*
X94051015Y-113297519D01*
X94144147Y-113436900D01*
X94208297Y-113591772D01*
X94241000Y-113756184D01*
X94241000Y-113923816D01*
X94208297Y-114088228D01*
X94144147Y-114243100D01*
X94051015Y-114382481D01*
X93932481Y-114501015D01*
X93793100Y-114594147D01*
X93638228Y-114658297D01*
X93473816Y-114691000D01*
X93306184Y-114691000D01*
X93141772Y-114658297D01*
X92986900Y-114594147D01*
X92847519Y-114501015D01*
X92728985Y-114382481D01*
X92635853Y-114243100D01*
X92571703Y-114088228D01*
X92539000Y-113923816D01*
X92539000Y-113756184D01*
X92571703Y-113591772D01*
X92635853Y-113436900D01*
X92728985Y-113297519D01*
X92847519Y-113178985D01*
X92986900Y-113085853D01*
X93141772Y-113021703D01*
X93306184Y-112989000D01*
X93473816Y-112989000D01*
X93638228Y-113021703D01*
G37*
G36*
X70778228Y-113021703D02*
G01*
X70933100Y-113085853D01*
X71072481Y-113178985D01*
X71191015Y-113297519D01*
X71284147Y-113436900D01*
X71348297Y-113591772D01*
X71381000Y-113756184D01*
X71381000Y-113923816D01*
X71348297Y-114088228D01*
X71284147Y-114243100D01*
X71191015Y-114382481D01*
X71072481Y-114501015D01*
X70933100Y-114594147D01*
X70778228Y-114658297D01*
X70613816Y-114691000D01*
X70446184Y-114691000D01*
X70281772Y-114658297D01*
X70126900Y-114594147D01*
X69987519Y-114501015D01*
X69868985Y-114382481D01*
X69775853Y-114243100D01*
X69711703Y-114088228D01*
X69679000Y-113923816D01*
X69679000Y-113756184D01*
X69711703Y-113591772D01*
X69775853Y-113436900D01*
X69868985Y-113297519D01*
X69987519Y-113178985D01*
X70126900Y-113085853D01*
X70281772Y-113021703D01*
X70446184Y-112989000D01*
X70613816Y-112989000D01*
X70778228Y-113021703D01*
G37*
G36*
X103798228Y-113021703D02*
G01*
X103953100Y-113085853D01*
X104092481Y-113178985D01*
X104211015Y-113297519D01*
X104304147Y-113436900D01*
X104368297Y-113591772D01*
X104401000Y-113756184D01*
X104401000Y-113923816D01*
X104368297Y-114088228D01*
X104304147Y-114243100D01*
X104211015Y-114382481D01*
X104092481Y-114501015D01*
X103953100Y-114594147D01*
X103798228Y-114658297D01*
X103633816Y-114691000D01*
X103466184Y-114691000D01*
X103301772Y-114658297D01*
X103146900Y-114594147D01*
X103007519Y-114501015D01*
X102888985Y-114382481D01*
X102795853Y-114243100D01*
X102731703Y-114088228D01*
X102699000Y-113923816D01*
X102699000Y-113756184D01*
X102731703Y-113591772D01*
X102795853Y-113436900D01*
X102888985Y-113297519D01*
X103007519Y-113178985D01*
X103146900Y-113085853D01*
X103301772Y-113021703D01*
X103466184Y-112989000D01*
X103633816Y-112989000D01*
X103798228Y-113021703D01*
G37*
G36*
X101258228Y-113021703D02*
G01*
X101413100Y-113085853D01*
X101552481Y-113178985D01*
X101671015Y-113297519D01*
X101764147Y-113436900D01*
X101828297Y-113591772D01*
X101861000Y-113756184D01*
X101861000Y-113923816D01*
X101828297Y-114088228D01*
X101764147Y-114243100D01*
X101671015Y-114382481D01*
X101552481Y-114501015D01*
X101413100Y-114594147D01*
X101258228Y-114658297D01*
X101093816Y-114691000D01*
X100926184Y-114691000D01*
X100761772Y-114658297D01*
X100606900Y-114594147D01*
X100467519Y-114501015D01*
X100348985Y-114382481D01*
X100255853Y-114243100D01*
X100191703Y-114088228D01*
X100159000Y-113923816D01*
X100159000Y-113756184D01*
X100191703Y-113591772D01*
X100255853Y-113436900D01*
X100348985Y-113297519D01*
X100467519Y-113178985D01*
X100606900Y-113085853D01*
X100761772Y-113021703D01*
X100926184Y-112989000D01*
X101093816Y-112989000D01*
X101258228Y-113021703D01*
G37*
G36*
X98718228Y-113021703D02*
G01*
X98873100Y-113085853D01*
X99012481Y-113178985D01*
X99131015Y-113297519D01*
X99224147Y-113436900D01*
X99288297Y-113591772D01*
X99321000Y-113756184D01*
X99321000Y-113923816D01*
X99288297Y-114088228D01*
X99224147Y-114243100D01*
X99131015Y-114382481D01*
X99012481Y-114501015D01*
X98873100Y-114594147D01*
X98718228Y-114658297D01*
X98553816Y-114691000D01*
X98386184Y-114691000D01*
X98221772Y-114658297D01*
X98066900Y-114594147D01*
X97927519Y-114501015D01*
X97808985Y-114382481D01*
X97715853Y-114243100D01*
X97651703Y-114088228D01*
X97619000Y-113923816D01*
X97619000Y-113756184D01*
X97651703Y-113591772D01*
X97715853Y-113436900D01*
X97808985Y-113297519D01*
X97927519Y-113178985D01*
X98066900Y-113085853D01*
X98221772Y-113021703D01*
X98386184Y-112989000D01*
X98553816Y-112989000D01*
X98718228Y-113021703D01*
G37*
G36*
X65698228Y-113021703D02*
G01*
X65853100Y-113085853D01*
X65992481Y-113178985D01*
X66111015Y-113297519D01*
X66204147Y-113436900D01*
X66268297Y-113591772D01*
X66301000Y-113756184D01*
X66301000Y-113923816D01*
X66268297Y-114088228D01*
X66204147Y-114243100D01*
X66111015Y-114382481D01*
X65992481Y-114501015D01*
X65853100Y-114594147D01*
X65698228Y-114658297D01*
X65533816Y-114691000D01*
X65366184Y-114691000D01*
X65201772Y-114658297D01*
X65046900Y-114594147D01*
X64907519Y-114501015D01*
X64788985Y-114382481D01*
X64695853Y-114243100D01*
X64631703Y-114088228D01*
X64599000Y-113923816D01*
X64599000Y-113756184D01*
X64631703Y-113591772D01*
X64695853Y-113436900D01*
X64788985Y-113297519D01*
X64907519Y-113178985D01*
X65046900Y-113085853D01*
X65201772Y-113021703D01*
X65366184Y-112989000D01*
X65533816Y-112989000D01*
X65698228Y-113021703D01*
G37*
G36*
X63158228Y-113021703D02*
G01*
X63313100Y-113085853D01*
X63452481Y-113178985D01*
X63571015Y-113297519D01*
X63664147Y-113436900D01*
X63728297Y-113591772D01*
X63761000Y-113756184D01*
X63761000Y-113923816D01*
X63728297Y-114088228D01*
X63664147Y-114243100D01*
X63571015Y-114382481D01*
X63452481Y-114501015D01*
X63313100Y-114594147D01*
X63158228Y-114658297D01*
X62993816Y-114691000D01*
X62826184Y-114691000D01*
X62661772Y-114658297D01*
X62506900Y-114594147D01*
X62367519Y-114501015D01*
X62248985Y-114382481D01*
X62155853Y-114243100D01*
X62091703Y-114088228D01*
X62059000Y-113923816D01*
X62059000Y-113756184D01*
X62091703Y-113591772D01*
X62155853Y-113436900D01*
X62248985Y-113297519D01*
X62367519Y-113178985D01*
X62506900Y-113085853D01*
X62661772Y-113021703D01*
X62826184Y-112989000D01*
X62993816Y-112989000D01*
X63158228Y-113021703D01*
G37*
G36*
X68238228Y-113021703D02*
G01*
X68393100Y-113085853D01*
X68532481Y-113178985D01*
X68651015Y-113297519D01*
X68744147Y-113436900D01*
X68808297Y-113591772D01*
X68841000Y-113756184D01*
X68841000Y-113923816D01*
X68808297Y-114088228D01*
X68744147Y-114243100D01*
X68651015Y-114382481D01*
X68532481Y-114501015D01*
X68393100Y-114594147D01*
X68238228Y-114658297D01*
X68073816Y-114691000D01*
X67906184Y-114691000D01*
X67741772Y-114658297D01*
X67586900Y-114594147D01*
X67447519Y-114501015D01*
X67328985Y-114382481D01*
X67235853Y-114243100D01*
X67171703Y-114088228D01*
X67139000Y-113923816D01*
X67139000Y-113756184D01*
X67171703Y-113591772D01*
X67235853Y-113436900D01*
X67328985Y-113297519D01*
X67447519Y-113178985D01*
X67586900Y-113085853D01*
X67741772Y-113021703D01*
X67906184Y-112989000D01*
X68073816Y-112989000D01*
X68238228Y-113021703D01*
G37*
G36*
X60618228Y-113021703D02*
G01*
X60773100Y-113085853D01*
X60912481Y-113178985D01*
X61031015Y-113297519D01*
X61124147Y-113436900D01*
X61188297Y-113591772D01*
X61221000Y-113756184D01*
X61221000Y-113923816D01*
X61188297Y-114088228D01*
X61124147Y-114243100D01*
X61031015Y-114382481D01*
X60912481Y-114501015D01*
X60773100Y-114594147D01*
X60618228Y-114658297D01*
X60453816Y-114691000D01*
X60286184Y-114691000D01*
X60121772Y-114658297D01*
X59966900Y-114594147D01*
X59827519Y-114501015D01*
X59708985Y-114382481D01*
X59615853Y-114243100D01*
X59551703Y-114088228D01*
X59519000Y-113923816D01*
X59519000Y-113756184D01*
X59551703Y-113591772D01*
X59615853Y-113436900D01*
X59708985Y-113297519D01*
X59827519Y-113178985D01*
X59966900Y-113085853D01*
X60121772Y-113021703D01*
X60286184Y-112989000D01*
X60453816Y-112989000D01*
X60618228Y-113021703D01*
G37*
G36*
X96178228Y-113021703D02*
G01*
X96333100Y-113085853D01*
X96472481Y-113178985D01*
X96591015Y-113297519D01*
X96684147Y-113436900D01*
X96748297Y-113591772D01*
X96781000Y-113756184D01*
X96781000Y-113923816D01*
X96748297Y-114088228D01*
X96684147Y-114243100D01*
X96591015Y-114382481D01*
X96472481Y-114501015D01*
X96333100Y-114594147D01*
X96178228Y-114658297D01*
X96013816Y-114691000D01*
X95846184Y-114691000D01*
X95681772Y-114658297D01*
X95526900Y-114594147D01*
X95387519Y-114501015D01*
X95268985Y-114382481D01*
X95175853Y-114243100D01*
X95111703Y-114088228D01*
X95079000Y-113923816D01*
X95079000Y-113756184D01*
X95111703Y-113591772D01*
X95175853Y-113436900D01*
X95268985Y-113297519D01*
X95387519Y-113178985D01*
X95526900Y-113085853D01*
X95681772Y-113021703D01*
X95846184Y-112989000D01*
X96013816Y-112989000D01*
X96178228Y-113021703D01*
G37*
G36*
X58078228Y-113021703D02*
G01*
X58233100Y-113085853D01*
X58372481Y-113178985D01*
X58491015Y-113297519D01*
X58584147Y-113436900D01*
X58648297Y-113591772D01*
X58681000Y-113756184D01*
X58681000Y-113923816D01*
X58648297Y-114088228D01*
X58584147Y-114243100D01*
X58491015Y-114382481D01*
X58372481Y-114501015D01*
X58233100Y-114594147D01*
X58078228Y-114658297D01*
X57913816Y-114691000D01*
X57746184Y-114691000D01*
X57581772Y-114658297D01*
X57426900Y-114594147D01*
X57287519Y-114501015D01*
X57168985Y-114382481D01*
X57075853Y-114243100D01*
X57011703Y-114088228D01*
X56979000Y-113923816D01*
X56979000Y-113756184D01*
X57011703Y-113591772D01*
X57075853Y-113436900D01*
X57168985Y-113297519D01*
X57287519Y-113178985D01*
X57426900Y-113085853D01*
X57581772Y-113021703D01*
X57746184Y-112989000D01*
X57913816Y-112989000D01*
X58078228Y-113021703D01*
G37*
G36*
X91098228Y-113021703D02*
G01*
X91253100Y-113085853D01*
X91392481Y-113178985D01*
X91511015Y-113297519D01*
X91604147Y-113436900D01*
X91668297Y-113591772D01*
X91701000Y-113756184D01*
X91701000Y-113923816D01*
X91668297Y-114088228D01*
X91604147Y-114243100D01*
X91511015Y-114382481D01*
X91392481Y-114501015D01*
X91253100Y-114594147D01*
X91098228Y-114658297D01*
X90933816Y-114691000D01*
X90766184Y-114691000D01*
X90601772Y-114658297D01*
X90446900Y-114594147D01*
X90307519Y-114501015D01*
X90188985Y-114382481D01*
X90095853Y-114243100D01*
X90031703Y-114088228D01*
X89999000Y-113923816D01*
X89999000Y-113756184D01*
X90031703Y-113591772D01*
X90095853Y-113436900D01*
X90188985Y-113297519D01*
X90307519Y-113178985D01*
X90446900Y-113085853D01*
X90601772Y-113021703D01*
X90766184Y-112989000D01*
X90933816Y-112989000D01*
X91098228Y-113021703D01*
G37*
G36*
X43048228Y-110941703D02*
G01*
X43203100Y-111005853D01*
X43342481Y-111098985D01*
X43461015Y-111217519D01*
X43554147Y-111356900D01*
X43618297Y-111511772D01*
X43651000Y-111676184D01*
X43651000Y-111843816D01*
X43618297Y-112008228D01*
X43554147Y-112163100D01*
X43461015Y-112302481D01*
X43342481Y-112421015D01*
X43203100Y-112514147D01*
X43048228Y-112578297D01*
X42883816Y-112611000D01*
X42716184Y-112611000D01*
X42551772Y-112578297D01*
X42396900Y-112514147D01*
X42257519Y-112421015D01*
X42138985Y-112302481D01*
X42045853Y-112163100D01*
X41981703Y-112008228D01*
X41949000Y-111843816D01*
X41949000Y-111676184D01*
X41981703Y-111511772D01*
X42045853Y-111356900D01*
X42138985Y-111217519D01*
X42257519Y-111098985D01*
X42396900Y-111005853D01*
X42551772Y-110941703D01*
X42716184Y-110909000D01*
X42883816Y-110909000D01*
X43048228Y-110941703D01*
G37*
G36*
X46198228Y-110931703D02*
G01*
X46353100Y-110995853D01*
X46492481Y-111088985D01*
X46611015Y-111207519D01*
X46704147Y-111346900D01*
X46768297Y-111501772D01*
X46801000Y-111666184D01*
X46801000Y-111833816D01*
X46768297Y-111998228D01*
X46704147Y-112153100D01*
X46611015Y-112292481D01*
X46492481Y-112411015D01*
X46353100Y-112504147D01*
X46198228Y-112568297D01*
X46033816Y-112601000D01*
X45866184Y-112601000D01*
X45701772Y-112568297D01*
X45546900Y-112504147D01*
X45407519Y-112411015D01*
X45288985Y-112292481D01*
X45195853Y-112153100D01*
X45131703Y-111998228D01*
X45099000Y-111833816D01*
X45099000Y-111666184D01*
X45131703Y-111501772D01*
X45195853Y-111346900D01*
X45288985Y-111207519D01*
X45407519Y-111088985D01*
X45546900Y-110995853D01*
X45701772Y-110931703D01*
X45866184Y-110899000D01*
X46033816Y-110899000D01*
X46198228Y-110931703D01*
G37*
G36*
X50563512Y-108223927D02*
G01*
X50712812Y-108253624D01*
X50876784Y-108321544D01*
X51024354Y-108420147D01*
X51149853Y-108545646D01*
X51248456Y-108693216D01*
X51316376Y-108857188D01*
X51351000Y-109031259D01*
X51351000Y-109208741D01*
X51316376Y-109382812D01*
X51248456Y-109546784D01*
X51149853Y-109694354D01*
X51024354Y-109819853D01*
X50876784Y-109918456D01*
X50712812Y-109986376D01*
X50563512Y-110016073D01*
X50538742Y-110021000D01*
X50361258Y-110021000D01*
X50336488Y-110016073D01*
X50187188Y-109986376D01*
X50023216Y-109918456D01*
X49875646Y-109819853D01*
X49750147Y-109694354D01*
X49651544Y-109546784D01*
X49583624Y-109382812D01*
X49549000Y-109208741D01*
X49549000Y-109031259D01*
X49583624Y-108857188D01*
X49651544Y-108693216D01*
X49750147Y-108545646D01*
X49875646Y-108420147D01*
X50023216Y-108321544D01*
X50187188Y-108253624D01*
X50336488Y-108223927D01*
X50361258Y-108219000D01*
X50538742Y-108219000D01*
X50563512Y-108223927D01*
G37*
G36*
X50563512Y-105683927D02*
G01*
X50712812Y-105713624D01*
X50876784Y-105781544D01*
X51024354Y-105880147D01*
X51149853Y-106005646D01*
X51248456Y-106153216D01*
X51316376Y-106317188D01*
X51351000Y-106491259D01*
X51351000Y-106668741D01*
X51316376Y-106842812D01*
X51248456Y-107006784D01*
X51149853Y-107154354D01*
X51024354Y-107279853D01*
X50876784Y-107378456D01*
X50712812Y-107446376D01*
X50563512Y-107476073D01*
X50538742Y-107481000D01*
X50361258Y-107481000D01*
X50336488Y-107476073D01*
X50187188Y-107446376D01*
X50023216Y-107378456D01*
X49875646Y-107279853D01*
X49750147Y-107154354D01*
X49651544Y-107006784D01*
X49583624Y-106842812D01*
X49549000Y-106668741D01*
X49549000Y-106491259D01*
X49583624Y-106317188D01*
X49651544Y-106153216D01*
X49750147Y-106005646D01*
X49875646Y-105880147D01*
X50023216Y-105781544D01*
X50187188Y-105713624D01*
X50336488Y-105683927D01*
X50361258Y-105679000D01*
X50538742Y-105679000D01*
X50563512Y-105683927D01*
G37*
G36*
X50563512Y-103143927D02*
G01*
X50712812Y-103173624D01*
X50876784Y-103241544D01*
X51024354Y-103340147D01*
X51149853Y-103465646D01*
X51248456Y-103613216D01*
X51316376Y-103777188D01*
X51351000Y-103951259D01*
X51351000Y-104128741D01*
X51316376Y-104302812D01*
X51248456Y-104466784D01*
X51149853Y-104614354D01*
X51024354Y-104739853D01*
X50876784Y-104838456D01*
X50712812Y-104906376D01*
X50563512Y-104936073D01*
X50538742Y-104941000D01*
X50361258Y-104941000D01*
X50336488Y-104936073D01*
X50187188Y-104906376D01*
X50023216Y-104838456D01*
X49875646Y-104739853D01*
X49750147Y-104614354D01*
X49651544Y-104466784D01*
X49583624Y-104302812D01*
X49549000Y-104128741D01*
X49549000Y-103951259D01*
X49583624Y-103777188D01*
X49651544Y-103613216D01*
X49750147Y-103465646D01*
X49875646Y-103340147D01*
X50023216Y-103241544D01*
X50187188Y-103173624D01*
X50336488Y-103143927D01*
X50361258Y-103139000D01*
X50538742Y-103139000D01*
X50563512Y-103143927D01*
G37*
G36*
X43048228Y-100781703D02*
G01*
X43203100Y-100845853D01*
X43342481Y-100938985D01*
X43461015Y-101057519D01*
X43554147Y-101196900D01*
X43618297Y-101351772D01*
X43651000Y-101516184D01*
X43651000Y-101683816D01*
X43618297Y-101848228D01*
X43554147Y-102003100D01*
X43461015Y-102142481D01*
X43342481Y-102261015D01*
X43203100Y-102354147D01*
X43048228Y-102418297D01*
X42883816Y-102451000D01*
X42716184Y-102451000D01*
X42551772Y-102418297D01*
X42396900Y-102354147D01*
X42257519Y-102261015D01*
X42138985Y-102142481D01*
X42045853Y-102003100D01*
X41981703Y-101848228D01*
X41949000Y-101683816D01*
X41949000Y-101516184D01*
X41981703Y-101351772D01*
X42045853Y-101196900D01*
X42138985Y-101057519D01*
X42257519Y-100938985D01*
X42396900Y-100845853D01*
X42551772Y-100781703D01*
X42716184Y-100749000D01*
X42883816Y-100749000D01*
X43048228Y-100781703D01*
G37*
G36*
X46198228Y-100771703D02*
G01*
X46353100Y-100835853D01*
X46492481Y-100928985D01*
X46611015Y-101047519D01*
X46704147Y-101186900D01*
X46768297Y-101341772D01*
X46801000Y-101506184D01*
X46801000Y-101673816D01*
X46768297Y-101838228D01*
X46704147Y-101993100D01*
X46611015Y-102132481D01*
X46492481Y-102251015D01*
X46353100Y-102344147D01*
X46198228Y-102408297D01*
X46033816Y-102441000D01*
X45866184Y-102441000D01*
X45701772Y-102408297D01*
X45546900Y-102344147D01*
X45407519Y-102251015D01*
X45288985Y-102132481D01*
X45195853Y-101993100D01*
X45131703Y-101838228D01*
X45099000Y-101673816D01*
X45099000Y-101506184D01*
X45131703Y-101341772D01*
X45195853Y-101186900D01*
X45288985Y-101047519D01*
X45407519Y-100928985D01*
X45546900Y-100835853D01*
X45701772Y-100771703D01*
X45866184Y-100739000D01*
X46033816Y-100739000D01*
X46198228Y-100771703D01*
G37*
G36*
X51351000Y-102401000D02*
G01*
X49549000Y-102401000D01*
X49549000Y-100599000D01*
X51351000Y-100599000D01*
X51351000Y-102401000D01*
G37*
G36*
X58078228Y-97781703D02*
G01*
X58233100Y-97845853D01*
X58372481Y-97938985D01*
X58491015Y-98057519D01*
X58584147Y-98196900D01*
X58648297Y-98351772D01*
X58681000Y-98516184D01*
X58681000Y-98683816D01*
X58648297Y-98848228D01*
X58584147Y-99003100D01*
X58491015Y-99142481D01*
X58372481Y-99261015D01*
X58233100Y-99354147D01*
X58078228Y-99418297D01*
X57913816Y-99451000D01*
X57746184Y-99451000D01*
X57581772Y-99418297D01*
X57426900Y-99354147D01*
X57287519Y-99261015D01*
X57168985Y-99142481D01*
X57075853Y-99003100D01*
X57011703Y-98848228D01*
X56979000Y-98683816D01*
X56979000Y-98516184D01*
X57011703Y-98351772D01*
X57075853Y-98196900D01*
X57168985Y-98057519D01*
X57287519Y-97938985D01*
X57426900Y-97845853D01*
X57581772Y-97781703D01*
X57746184Y-97749000D01*
X57913816Y-97749000D01*
X58078228Y-97781703D01*
G37*
G36*
X60618228Y-97781703D02*
G01*
X60773100Y-97845853D01*
X60912481Y-97938985D01*
X61031015Y-98057519D01*
X61124147Y-98196900D01*
X61188297Y-98351772D01*
X61221000Y-98516184D01*
X61221000Y-98683816D01*
X61188297Y-98848228D01*
X61124147Y-99003100D01*
X61031015Y-99142481D01*
X60912481Y-99261015D01*
X60773100Y-99354147D01*
X60618228Y-99418297D01*
X60453816Y-99451000D01*
X60286184Y-99451000D01*
X60121772Y-99418297D01*
X59966900Y-99354147D01*
X59827519Y-99261015D01*
X59708985Y-99142481D01*
X59615853Y-99003100D01*
X59551703Y-98848228D01*
X59519000Y-98683816D01*
X59519000Y-98516184D01*
X59551703Y-98351772D01*
X59615853Y-98196900D01*
X59708985Y-98057519D01*
X59827519Y-97938985D01*
X59966900Y-97845853D01*
X60121772Y-97781703D01*
X60286184Y-97749000D01*
X60453816Y-97749000D01*
X60618228Y-97781703D01*
G37*
G36*
X65698228Y-97781703D02*
G01*
X65853100Y-97845853D01*
X65992481Y-97938985D01*
X66111015Y-98057519D01*
X66204147Y-98196900D01*
X66268297Y-98351772D01*
X66301000Y-98516184D01*
X66301000Y-98683816D01*
X66268297Y-98848228D01*
X66204147Y-99003100D01*
X66111015Y-99142481D01*
X65992481Y-99261015D01*
X65853100Y-99354147D01*
X65698228Y-99418297D01*
X65533816Y-99451000D01*
X65366184Y-99451000D01*
X65201772Y-99418297D01*
X65046900Y-99354147D01*
X64907519Y-99261015D01*
X64788985Y-99142481D01*
X64695853Y-99003100D01*
X64631703Y-98848228D01*
X64599000Y-98683816D01*
X64599000Y-98516184D01*
X64631703Y-98351772D01*
X64695853Y-98196900D01*
X64788985Y-98057519D01*
X64907519Y-97938985D01*
X65046900Y-97845853D01*
X65201772Y-97781703D01*
X65366184Y-97749000D01*
X65533816Y-97749000D01*
X65698228Y-97781703D01*
G37*
G36*
X63158228Y-97781703D02*
G01*
X63313100Y-97845853D01*
X63452481Y-97938985D01*
X63571015Y-98057519D01*
X63664147Y-98196900D01*
X63728297Y-98351772D01*
X63761000Y-98516184D01*
X63761000Y-98683816D01*
X63728297Y-98848228D01*
X63664147Y-99003100D01*
X63571015Y-99142481D01*
X63452481Y-99261015D01*
X63313100Y-99354147D01*
X63158228Y-99418297D01*
X62993816Y-99451000D01*
X62826184Y-99451000D01*
X62661772Y-99418297D01*
X62506900Y-99354147D01*
X62367519Y-99261015D01*
X62248985Y-99142481D01*
X62155853Y-99003100D01*
X62091703Y-98848228D01*
X62059000Y-98683816D01*
X62059000Y-98516184D01*
X62091703Y-98351772D01*
X62155853Y-98196900D01*
X62248985Y-98057519D01*
X62367519Y-97938985D01*
X62506900Y-97845853D01*
X62661772Y-97781703D01*
X62826184Y-97749000D01*
X62993816Y-97749000D01*
X63158228Y-97781703D01*
G37*
G36*
X68238228Y-97781703D02*
G01*
X68393100Y-97845853D01*
X68532481Y-97938985D01*
X68651015Y-98057519D01*
X68744147Y-98196900D01*
X68808297Y-98351772D01*
X68841000Y-98516184D01*
X68841000Y-98683816D01*
X68808297Y-98848228D01*
X68744147Y-99003100D01*
X68651015Y-99142481D01*
X68532481Y-99261015D01*
X68393100Y-99354147D01*
X68238228Y-99418297D01*
X68073816Y-99451000D01*
X67906184Y-99451000D01*
X67741772Y-99418297D01*
X67586900Y-99354147D01*
X67447519Y-99261015D01*
X67328985Y-99142481D01*
X67235853Y-99003100D01*
X67171703Y-98848228D01*
X67139000Y-98683816D01*
X67139000Y-98516184D01*
X67171703Y-98351772D01*
X67235853Y-98196900D01*
X67328985Y-98057519D01*
X67447519Y-97938985D01*
X67586900Y-97845853D01*
X67741772Y-97781703D01*
X67906184Y-97749000D01*
X68073816Y-97749000D01*
X68238228Y-97781703D01*
G37*
G36*
X70778228Y-97781703D02*
G01*
X70933100Y-97845853D01*
X71072481Y-97938985D01*
X71191015Y-98057519D01*
X71284147Y-98196900D01*
X71348297Y-98351772D01*
X71381000Y-98516184D01*
X71381000Y-98683816D01*
X71348297Y-98848228D01*
X71284147Y-99003100D01*
X71191015Y-99142481D01*
X71072481Y-99261015D01*
X70933100Y-99354147D01*
X70778228Y-99418297D01*
X70613816Y-99451000D01*
X70446184Y-99451000D01*
X70281772Y-99418297D01*
X70126900Y-99354147D01*
X69987519Y-99261015D01*
X69868985Y-99142481D01*
X69775853Y-99003100D01*
X69711703Y-98848228D01*
X69679000Y-98683816D01*
X69679000Y-98516184D01*
X69711703Y-98351772D01*
X69775853Y-98196900D01*
X69868985Y-98057519D01*
X69987519Y-97938985D01*
X70126900Y-97845853D01*
X70281772Y-97781703D01*
X70446184Y-97749000D01*
X70613816Y-97749000D01*
X70778228Y-97781703D01*
G37*
G36*
X73318228Y-97781703D02*
G01*
X73473100Y-97845853D01*
X73612481Y-97938985D01*
X73731015Y-98057519D01*
X73824147Y-98196900D01*
X73888297Y-98351772D01*
X73921000Y-98516184D01*
X73921000Y-98683816D01*
X73888297Y-98848228D01*
X73824147Y-99003100D01*
X73731015Y-99142481D01*
X73612481Y-99261015D01*
X73473100Y-99354147D01*
X73318228Y-99418297D01*
X73153816Y-99451000D01*
X72986184Y-99451000D01*
X72821772Y-99418297D01*
X72666900Y-99354147D01*
X72527519Y-99261015D01*
X72408985Y-99142481D01*
X72315853Y-99003100D01*
X72251703Y-98848228D01*
X72219000Y-98683816D01*
X72219000Y-98516184D01*
X72251703Y-98351772D01*
X72315853Y-98196900D01*
X72408985Y-98057519D01*
X72527519Y-97938985D01*
X72666900Y-97845853D01*
X72821772Y-97781703D01*
X72986184Y-97749000D01*
X73153816Y-97749000D01*
X73318228Y-97781703D01*
G37*
G36*
X75858228Y-97781703D02*
G01*
X76013100Y-97845853D01*
X76152481Y-97938985D01*
X76271015Y-98057519D01*
X76364147Y-98196900D01*
X76428297Y-98351772D01*
X76461000Y-98516184D01*
X76461000Y-98683816D01*
X76428297Y-98848228D01*
X76364147Y-99003100D01*
X76271015Y-99142481D01*
X76152481Y-99261015D01*
X76013100Y-99354147D01*
X75858228Y-99418297D01*
X75693816Y-99451000D01*
X75526184Y-99451000D01*
X75361772Y-99418297D01*
X75206900Y-99354147D01*
X75067519Y-99261015D01*
X74948985Y-99142481D01*
X74855853Y-99003100D01*
X74791703Y-98848228D01*
X74759000Y-98683816D01*
X74759000Y-98516184D01*
X74791703Y-98351772D01*
X74855853Y-98196900D01*
X74948985Y-98057519D01*
X75067519Y-97938985D01*
X75206900Y-97845853D01*
X75361772Y-97781703D01*
X75526184Y-97749000D01*
X75693816Y-97749000D01*
X75858228Y-97781703D01*
G37*
G36*
X80938228Y-97781703D02*
G01*
X81093100Y-97845853D01*
X81232481Y-97938985D01*
X81351015Y-98057519D01*
X81444147Y-98196900D01*
X81508297Y-98351772D01*
X81541000Y-98516184D01*
X81541000Y-98683816D01*
X81508297Y-98848228D01*
X81444147Y-99003100D01*
X81351015Y-99142481D01*
X81232481Y-99261015D01*
X81093100Y-99354147D01*
X80938228Y-99418297D01*
X80773816Y-99451000D01*
X80606184Y-99451000D01*
X80441772Y-99418297D01*
X80286900Y-99354147D01*
X80147519Y-99261015D01*
X80028985Y-99142481D01*
X79935853Y-99003100D01*
X79871703Y-98848228D01*
X79839000Y-98683816D01*
X79839000Y-98516184D01*
X79871703Y-98351772D01*
X79935853Y-98196900D01*
X80028985Y-98057519D01*
X80147519Y-97938985D01*
X80286900Y-97845853D01*
X80441772Y-97781703D01*
X80606184Y-97749000D01*
X80773816Y-97749000D01*
X80938228Y-97781703D01*
G37*
G36*
X78398228Y-97781703D02*
G01*
X78553100Y-97845853D01*
X78692481Y-97938985D01*
X78811015Y-98057519D01*
X78904147Y-98196900D01*
X78968297Y-98351772D01*
X79001000Y-98516184D01*
X79001000Y-98683816D01*
X78968297Y-98848228D01*
X78904147Y-99003100D01*
X78811015Y-99142481D01*
X78692481Y-99261015D01*
X78553100Y-99354147D01*
X78398228Y-99418297D01*
X78233816Y-99451000D01*
X78066184Y-99451000D01*
X77901772Y-99418297D01*
X77746900Y-99354147D01*
X77607519Y-99261015D01*
X77488985Y-99142481D01*
X77395853Y-99003100D01*
X77331703Y-98848228D01*
X77299000Y-98683816D01*
X77299000Y-98516184D01*
X77331703Y-98351772D01*
X77395853Y-98196900D01*
X77488985Y-98057519D01*
X77607519Y-97938985D01*
X77746900Y-97845853D01*
X77901772Y-97781703D01*
X78066184Y-97749000D01*
X78233816Y-97749000D01*
X78398228Y-97781703D01*
G37*
G36*
X104401000Y-99451000D02*
G01*
X102699000Y-99451000D01*
X102699000Y-97749000D01*
X104401000Y-97749000D01*
X104401000Y-99451000D01*
G37*
G36*
X83478228Y-97781703D02*
G01*
X83633100Y-97845853D01*
X83772481Y-97938985D01*
X83891015Y-98057519D01*
X83984147Y-98196900D01*
X84048297Y-98351772D01*
X84081000Y-98516184D01*
X84081000Y-98683816D01*
X84048297Y-98848228D01*
X83984147Y-99003100D01*
X83891015Y-99142481D01*
X83772481Y-99261015D01*
X83633100Y-99354147D01*
X83478228Y-99418297D01*
X83313816Y-99451000D01*
X83146184Y-99451000D01*
X82981772Y-99418297D01*
X82826900Y-99354147D01*
X82687519Y-99261015D01*
X82568985Y-99142481D01*
X82475853Y-99003100D01*
X82411703Y-98848228D01*
X82379000Y-98683816D01*
X82379000Y-98516184D01*
X82411703Y-98351772D01*
X82475853Y-98196900D01*
X82568985Y-98057519D01*
X82687519Y-97938985D01*
X82826900Y-97845853D01*
X82981772Y-97781703D01*
X83146184Y-97749000D01*
X83313816Y-97749000D01*
X83478228Y-97781703D01*
G37*
G36*
X96178228Y-97781703D02*
G01*
X96333100Y-97845853D01*
X96472481Y-97938985D01*
X96591015Y-98057519D01*
X96684147Y-98196900D01*
X96748297Y-98351772D01*
X96781000Y-98516184D01*
X96781000Y-98683816D01*
X96748297Y-98848228D01*
X96684147Y-99003100D01*
X96591015Y-99142481D01*
X96472481Y-99261015D01*
X96333100Y-99354147D01*
X96178228Y-99418297D01*
X96013816Y-99451000D01*
X95846184Y-99451000D01*
X95681772Y-99418297D01*
X95526900Y-99354147D01*
X95387519Y-99261015D01*
X95268985Y-99142481D01*
X95175853Y-99003100D01*
X95111703Y-98848228D01*
X95079000Y-98683816D01*
X95079000Y-98516184D01*
X95111703Y-98351772D01*
X95175853Y-98196900D01*
X95268985Y-98057519D01*
X95387519Y-97938985D01*
X95526900Y-97845853D01*
X95681772Y-97781703D01*
X95846184Y-97749000D01*
X96013816Y-97749000D01*
X96178228Y-97781703D01*
G37*
G36*
X98718228Y-97781703D02*
G01*
X98873100Y-97845853D01*
X99012481Y-97938985D01*
X99131015Y-98057519D01*
X99224147Y-98196900D01*
X99288297Y-98351772D01*
X99321000Y-98516184D01*
X99321000Y-98683816D01*
X99288297Y-98848228D01*
X99224147Y-99003100D01*
X99131015Y-99142481D01*
X99012481Y-99261015D01*
X98873100Y-99354147D01*
X98718228Y-99418297D01*
X98553816Y-99451000D01*
X98386184Y-99451000D01*
X98221772Y-99418297D01*
X98066900Y-99354147D01*
X97927519Y-99261015D01*
X97808985Y-99142481D01*
X97715853Y-99003100D01*
X97651703Y-98848228D01*
X97619000Y-98683816D01*
X97619000Y-98516184D01*
X97651703Y-98351772D01*
X97715853Y-98196900D01*
X97808985Y-98057519D01*
X97927519Y-97938985D01*
X98066900Y-97845853D01*
X98221772Y-97781703D01*
X98386184Y-97749000D01*
X98553816Y-97749000D01*
X98718228Y-97781703D01*
G37*
G36*
X101258228Y-97781703D02*
G01*
X101413100Y-97845853D01*
X101552481Y-97938985D01*
X101671015Y-98057519D01*
X101764147Y-98196900D01*
X101828297Y-98351772D01*
X101861000Y-98516184D01*
X101861000Y-98683816D01*
X101828297Y-98848228D01*
X101764147Y-99003100D01*
X101671015Y-99142481D01*
X101552481Y-99261015D01*
X101413100Y-99354147D01*
X101258228Y-99418297D01*
X101093816Y-99451000D01*
X100926184Y-99451000D01*
X100761772Y-99418297D01*
X100606900Y-99354147D01*
X100467519Y-99261015D01*
X100348985Y-99142481D01*
X100255853Y-99003100D01*
X100191703Y-98848228D01*
X100159000Y-98683816D01*
X100159000Y-98516184D01*
X100191703Y-98351772D01*
X100255853Y-98196900D01*
X100348985Y-98057519D01*
X100467519Y-97938985D01*
X100606900Y-97845853D01*
X100761772Y-97781703D01*
X100926184Y-97749000D01*
X101093816Y-97749000D01*
X101258228Y-97781703D01*
G37*
G36*
X88558228Y-97781703D02*
G01*
X88713100Y-97845853D01*
X88852481Y-97938985D01*
X88971015Y-98057519D01*
X89064147Y-98196900D01*
X89128297Y-98351772D01*
X89161000Y-98516184D01*
X89161000Y-98683816D01*
X89128297Y-98848228D01*
X89064147Y-99003100D01*
X88971015Y-99142481D01*
X88852481Y-99261015D01*
X88713100Y-99354147D01*
X88558228Y-99418297D01*
X88393816Y-99451000D01*
X88226184Y-99451000D01*
X88061772Y-99418297D01*
X87906900Y-99354147D01*
X87767519Y-99261015D01*
X87648985Y-99142481D01*
X87555853Y-99003100D01*
X87491703Y-98848228D01*
X87459000Y-98683816D01*
X87459000Y-98516184D01*
X87491703Y-98351772D01*
X87555853Y-98196900D01*
X87648985Y-98057519D01*
X87767519Y-97938985D01*
X87906900Y-97845853D01*
X88061772Y-97781703D01*
X88226184Y-97749000D01*
X88393816Y-97749000D01*
X88558228Y-97781703D01*
G37*
G36*
X86018228Y-97781703D02*
G01*
X86173100Y-97845853D01*
X86312481Y-97938985D01*
X86431015Y-98057519D01*
X86524147Y-98196900D01*
X86588297Y-98351772D01*
X86621000Y-98516184D01*
X86621000Y-98683816D01*
X86588297Y-98848228D01*
X86524147Y-99003100D01*
X86431015Y-99142481D01*
X86312481Y-99261015D01*
X86173100Y-99354147D01*
X86018228Y-99418297D01*
X85853816Y-99451000D01*
X85686184Y-99451000D01*
X85521772Y-99418297D01*
X85366900Y-99354147D01*
X85227519Y-99261015D01*
X85108985Y-99142481D01*
X85015853Y-99003100D01*
X84951703Y-98848228D01*
X84919000Y-98683816D01*
X84919000Y-98516184D01*
X84951703Y-98351772D01*
X85015853Y-98196900D01*
X85108985Y-98057519D01*
X85227519Y-97938985D01*
X85366900Y-97845853D01*
X85521772Y-97781703D01*
X85686184Y-97749000D01*
X85853816Y-97749000D01*
X86018228Y-97781703D01*
G37*
G36*
X91098228Y-97781703D02*
G01*
X91253100Y-97845853D01*
X91392481Y-97938985D01*
X91511015Y-98057519D01*
X91604147Y-98196900D01*
X91668297Y-98351772D01*
X91701000Y-98516184D01*
X91701000Y-98683816D01*
X91668297Y-98848228D01*
X91604147Y-99003100D01*
X91511015Y-99142481D01*
X91392481Y-99261015D01*
X91253100Y-99354147D01*
X91098228Y-99418297D01*
X90933816Y-99451000D01*
X90766184Y-99451000D01*
X90601772Y-99418297D01*
X90446900Y-99354147D01*
X90307519Y-99261015D01*
X90188985Y-99142481D01*
X90095853Y-99003100D01*
X90031703Y-98848228D01*
X89999000Y-98683816D01*
X89999000Y-98516184D01*
X90031703Y-98351772D01*
X90095853Y-98196900D01*
X90188985Y-98057519D01*
X90307519Y-97938985D01*
X90446900Y-97845853D01*
X90601772Y-97781703D01*
X90766184Y-97749000D01*
X90933816Y-97749000D01*
X91098228Y-97781703D01*
G37*
G36*
X55538228Y-97781703D02*
G01*
X55693100Y-97845853D01*
X55832481Y-97938985D01*
X55951015Y-98057519D01*
X56044147Y-98196900D01*
X56108297Y-98351772D01*
X56141000Y-98516184D01*
X56141000Y-98683816D01*
X56108297Y-98848228D01*
X56044147Y-99003100D01*
X55951015Y-99142481D01*
X55832481Y-99261015D01*
X55693100Y-99354147D01*
X55538228Y-99418297D01*
X55373816Y-99451000D01*
X55206184Y-99451000D01*
X55041772Y-99418297D01*
X54886900Y-99354147D01*
X54747519Y-99261015D01*
X54628985Y-99142481D01*
X54535853Y-99003100D01*
X54471703Y-98848228D01*
X54439000Y-98683816D01*
X54439000Y-98516184D01*
X54471703Y-98351772D01*
X54535853Y-98196900D01*
X54628985Y-98057519D01*
X54747519Y-97938985D01*
X54886900Y-97845853D01*
X55041772Y-97781703D01*
X55206184Y-97749000D01*
X55373816Y-97749000D01*
X55538228Y-97781703D01*
G37*
G36*
X93638228Y-97781703D02*
G01*
X93793100Y-97845853D01*
X93932481Y-97938985D01*
X94051015Y-98057519D01*
X94144147Y-98196900D01*
X94208297Y-98351772D01*
X94241000Y-98516184D01*
X94241000Y-98683816D01*
X94208297Y-98848228D01*
X94144147Y-99003100D01*
X94051015Y-99142481D01*
X93932481Y-99261015D01*
X93793100Y-99354147D01*
X93638228Y-99418297D01*
X93473816Y-99451000D01*
X93306184Y-99451000D01*
X93141772Y-99418297D01*
X92986900Y-99354147D01*
X92847519Y-99261015D01*
X92728985Y-99142481D01*
X92635853Y-99003100D01*
X92571703Y-98848228D01*
X92539000Y-98683816D01*
X92539000Y-98516184D01*
X92571703Y-98351772D01*
X92635853Y-98196900D01*
X92728985Y-98057519D01*
X92847519Y-97938985D01*
X92986900Y-97845853D01*
X93141772Y-97781703D01*
X93306184Y-97749000D01*
X93473816Y-97749000D01*
X93638228Y-97781703D01*
G37*
G36*
X48326366Y-95215695D02*
G01*
X48483460Y-95263349D01*
X48628231Y-95340731D01*
X48755128Y-95444872D01*
X48859269Y-95571769D01*
X48936651Y-95716540D01*
X48984305Y-95873634D01*
X49001000Y-96043140D01*
X49001000Y-97956860D01*
X48984305Y-98126366D01*
X48936651Y-98283460D01*
X48859269Y-98428231D01*
X48755128Y-98555128D01*
X48628231Y-98659269D01*
X48483460Y-98736651D01*
X48326366Y-98784305D01*
X48156860Y-98801000D01*
X46243140Y-98801000D01*
X46073634Y-98784305D01*
X45916540Y-98736651D01*
X45771769Y-98659269D01*
X45644872Y-98555128D01*
X45540731Y-98428231D01*
X45463349Y-98283460D01*
X45415695Y-98126366D01*
X45399000Y-97956860D01*
X45399000Y-96043140D01*
X45415695Y-95873634D01*
X45463349Y-95716540D01*
X45540731Y-95571769D01*
X45644872Y-95444872D01*
X45771769Y-95340731D01*
X45916540Y-95263349D01*
X46073634Y-95215695D01*
X46243140Y-95199000D01*
X48156860Y-95199000D01*
X48326366Y-95215695D01*
G37*
G36*
X63168228Y-95281703D02*
G01*
X63323100Y-95345853D01*
X63462481Y-95438985D01*
X63581015Y-95557519D01*
X63674147Y-95696900D01*
X63738297Y-95851772D01*
X63771000Y-96016184D01*
X63771000Y-96183816D01*
X63738297Y-96348228D01*
X63674147Y-96503100D01*
X63581015Y-96642481D01*
X63462481Y-96761015D01*
X63323100Y-96854147D01*
X63168228Y-96918297D01*
X63003816Y-96951000D01*
X62836184Y-96951000D01*
X62671772Y-96918297D01*
X62516900Y-96854147D01*
X62377519Y-96761015D01*
X62258985Y-96642481D01*
X62165853Y-96503100D01*
X62101703Y-96348228D01*
X62069000Y-96183816D01*
X62069000Y-96016184D01*
X62101703Y-95851772D01*
X62165853Y-95696900D01*
X62258985Y-95557519D01*
X62377519Y-95438985D01*
X62516900Y-95345853D01*
X62671772Y-95281703D01*
X62836184Y-95249000D01*
X63003816Y-95249000D01*
X63168228Y-95281703D01*
G37*
G36*
X56151000Y-96951000D02*
G01*
X54449000Y-96951000D01*
X54449000Y-95249000D01*
X56151000Y-95249000D01*
X56151000Y-96951000D01*
G37*
G36*
X60628228Y-95281703D02*
G01*
X60783100Y-95345853D01*
X60922481Y-95438985D01*
X61041015Y-95557519D01*
X61134147Y-95696900D01*
X61198297Y-95851772D01*
X61231000Y-96016184D01*
X61231000Y-96183816D01*
X61198297Y-96348228D01*
X61134147Y-96503100D01*
X61041015Y-96642481D01*
X60922481Y-96761015D01*
X60783100Y-96854147D01*
X60628228Y-96918297D01*
X60463816Y-96951000D01*
X60296184Y-96951000D01*
X60131772Y-96918297D01*
X59976900Y-96854147D01*
X59837519Y-96761015D01*
X59718985Y-96642481D01*
X59625853Y-96503100D01*
X59561703Y-96348228D01*
X59529000Y-96183816D01*
X59529000Y-96016184D01*
X59561703Y-95851772D01*
X59625853Y-95696900D01*
X59718985Y-95557519D01*
X59837519Y-95438985D01*
X59976900Y-95345853D01*
X60131772Y-95281703D01*
X60296184Y-95249000D01*
X60463816Y-95249000D01*
X60628228Y-95281703D01*
G37*
G36*
X58088228Y-95281703D02*
G01*
X58243100Y-95345853D01*
X58382481Y-95438985D01*
X58501015Y-95557519D01*
X58594147Y-95696900D01*
X58658297Y-95851772D01*
X58691000Y-96016184D01*
X58691000Y-96183816D01*
X58658297Y-96348228D01*
X58594147Y-96503100D01*
X58501015Y-96642481D01*
X58382481Y-96761015D01*
X58243100Y-96854147D01*
X58088228Y-96918297D01*
X57923816Y-96951000D01*
X57756184Y-96951000D01*
X57591772Y-96918297D01*
X57436900Y-96854147D01*
X57297519Y-96761015D01*
X57178985Y-96642481D01*
X57085853Y-96503100D01*
X57021703Y-96348228D01*
X56989000Y-96183816D01*
X56989000Y-96016184D01*
X57021703Y-95851772D01*
X57085853Y-95696900D01*
X57178985Y-95557519D01*
X57297519Y-95438985D01*
X57436900Y-95345853D01*
X57591772Y-95281703D01*
X57756184Y-95249000D01*
X57923816Y-95249000D01*
X58088228Y-95281703D01*
G37*
G36*
X105013512Y-94383927D02*
G01*
X105162812Y-94413624D01*
X105326784Y-94481544D01*
X105474354Y-94580147D01*
X105599853Y-94705646D01*
X105698456Y-94853216D01*
X105766376Y-95017188D01*
X105801000Y-95191259D01*
X105801000Y-95368741D01*
X105766376Y-95542812D01*
X105698456Y-95706784D01*
X105599853Y-95854354D01*
X105474354Y-95979853D01*
X105326784Y-96078456D01*
X105162812Y-96146376D01*
X105013512Y-96176073D01*
X104988742Y-96181000D01*
X104811258Y-96181000D01*
X104786488Y-96176073D01*
X104637188Y-96146376D01*
X104473216Y-96078456D01*
X104325646Y-95979853D01*
X104200147Y-95854354D01*
X104101544Y-95706784D01*
X104033624Y-95542812D01*
X103999000Y-95368741D01*
X103999000Y-95191259D01*
X104033624Y-95017188D01*
X104101544Y-94853216D01*
X104200147Y-94705646D01*
X104325646Y-94580147D01*
X104473216Y-94481544D01*
X104637188Y-94413624D01*
X104786488Y-94383927D01*
X104811258Y-94379000D01*
X104988742Y-94379000D01*
X105013512Y-94383927D01*
G37*
G36*
X108341000Y-96181000D02*
G01*
X106539000Y-96181000D01*
X106539000Y-94379000D01*
X108341000Y-94379000D01*
X108341000Y-96181000D01*
G37*
G36*
X80948228Y-94431703D02*
G01*
X81103100Y-94495853D01*
X81242481Y-94588985D01*
X81361015Y-94707519D01*
X81454147Y-94846900D01*
X81518297Y-95001772D01*
X81551000Y-95166184D01*
X81551000Y-95333816D01*
X81518297Y-95498228D01*
X81454147Y-95653100D01*
X81361015Y-95792481D01*
X81242481Y-95911015D01*
X81103100Y-96004147D01*
X80948228Y-96068297D01*
X80783816Y-96101000D01*
X80616184Y-96101000D01*
X80451772Y-96068297D01*
X80296900Y-96004147D01*
X80157519Y-95911015D01*
X80038985Y-95792481D01*
X79945853Y-95653100D01*
X79881703Y-95498228D01*
X79849000Y-95333816D01*
X79849000Y-95166184D01*
X79881703Y-95001772D01*
X79945853Y-94846900D01*
X80038985Y-94707519D01*
X80157519Y-94588985D01*
X80296900Y-94495853D01*
X80451772Y-94431703D01*
X80616184Y-94399000D01*
X80783816Y-94399000D01*
X80948228Y-94431703D01*
G37*
G36*
X78448228Y-94431703D02*
G01*
X78603100Y-94495853D01*
X78742481Y-94588985D01*
X78861015Y-94707519D01*
X78954147Y-94846900D01*
X79018297Y-95001772D01*
X79051000Y-95166184D01*
X79051000Y-95333816D01*
X79018297Y-95498228D01*
X78954147Y-95653100D01*
X78861015Y-95792481D01*
X78742481Y-95911015D01*
X78603100Y-96004147D01*
X78448228Y-96068297D01*
X78283816Y-96101000D01*
X78116184Y-96101000D01*
X77951772Y-96068297D01*
X77796900Y-96004147D01*
X77657519Y-95911015D01*
X77538985Y-95792481D01*
X77445853Y-95653100D01*
X77381703Y-95498228D01*
X77349000Y-95333816D01*
X77349000Y-95166184D01*
X77381703Y-95001772D01*
X77445853Y-94846900D01*
X77538985Y-94707519D01*
X77657519Y-94588985D01*
X77796900Y-94495853D01*
X77951772Y-94431703D01*
X78116184Y-94399000D01*
X78283816Y-94399000D01*
X78448228Y-94431703D01*
G37*
G36*
X52001000Y-94101000D02*
G01*
X48399000Y-94101000D01*
X48399000Y-90499000D01*
X52001000Y-90499000D01*
X52001000Y-94101000D01*
G37*
G36*
X94808228Y-92431703D02*
G01*
X94963100Y-92495853D01*
X95102481Y-92588985D01*
X95221015Y-92707519D01*
X95314147Y-92846900D01*
X95378297Y-93001772D01*
X95411000Y-93166184D01*
X95411000Y-93333816D01*
X95378297Y-93498228D01*
X95314147Y-93653100D01*
X95221015Y-93792481D01*
X95102481Y-93911015D01*
X94963100Y-94004147D01*
X94808228Y-94068297D01*
X94643816Y-94101000D01*
X94476184Y-94101000D01*
X94311772Y-94068297D01*
X94156900Y-94004147D01*
X94017519Y-93911015D01*
X93898985Y-93792481D01*
X93805853Y-93653100D01*
X93741703Y-93498228D01*
X93709000Y-93333816D01*
X93709000Y-93166184D01*
X93741703Y-93001772D01*
X93805853Y-92846900D01*
X93898985Y-92707519D01*
X94017519Y-92588985D01*
X94156900Y-92495853D01*
X94311772Y-92431703D01*
X94476184Y-92399000D01*
X94643816Y-92399000D01*
X94808228Y-92431703D01*
G37*
G36*
X84648228Y-92431703D02*
G01*
X84803100Y-92495853D01*
X84942481Y-92588985D01*
X85061015Y-92707519D01*
X85154147Y-92846900D01*
X85218297Y-93001772D01*
X85251000Y-93166184D01*
X85251000Y-93333816D01*
X85218297Y-93498228D01*
X85154147Y-93653100D01*
X85061015Y-93792481D01*
X84942481Y-93911015D01*
X84803100Y-94004147D01*
X84648228Y-94068297D01*
X84483816Y-94101000D01*
X84316184Y-94101000D01*
X84151772Y-94068297D01*
X83996900Y-94004147D01*
X83857519Y-93911015D01*
X83738985Y-93792481D01*
X83645853Y-93653100D01*
X83581703Y-93498228D01*
X83549000Y-93333816D01*
X83549000Y-93166184D01*
X83581703Y-93001772D01*
X83645853Y-92846900D01*
X83738985Y-92707519D01*
X83857519Y-92588985D01*
X83996900Y-92495853D01*
X84151772Y-92431703D01*
X84316184Y-92399000D01*
X84483816Y-92399000D01*
X84648228Y-92431703D01*
G37*
G36*
X45176979Y-90513293D02*
G01*
X45310625Y-90553834D01*
X45433784Y-90619664D01*
X45541740Y-90708260D01*
X45630336Y-90816216D01*
X45696166Y-90939375D01*
X45736707Y-91073021D01*
X45751000Y-91218140D01*
X45751000Y-93381860D01*
X45736707Y-93526979D01*
X45696166Y-93660625D01*
X45630336Y-93783784D01*
X45541740Y-93891740D01*
X45433784Y-93980336D01*
X45310625Y-94046166D01*
X45176979Y-94086707D01*
X45031860Y-94101000D01*
X43368140Y-94101000D01*
X43223021Y-94086707D01*
X43089375Y-94046166D01*
X42966216Y-93980336D01*
X42858260Y-93891740D01*
X42769664Y-93783784D01*
X42703834Y-93660625D01*
X42663293Y-93526979D01*
X42649000Y-93381860D01*
X42649000Y-91218140D01*
X42663293Y-91073021D01*
X42703834Y-90939375D01*
X42769664Y-90816216D01*
X42858260Y-90708260D01*
X42966216Y-90619664D01*
X43089375Y-90553834D01*
X43223021Y-90513293D01*
X43368140Y-90499000D01*
X45031860Y-90499000D01*
X45176979Y-90513293D01*
G37*
G36*
X107553512Y-91843927D02*
G01*
X107702812Y-91873624D01*
X107866784Y-91941544D01*
X108014354Y-92040147D01*
X108139853Y-92165646D01*
X108238456Y-92313216D01*
X108306376Y-92477188D01*
X108341000Y-92651259D01*
X108341000Y-92828741D01*
X108306376Y-93002812D01*
X108238456Y-93166784D01*
X108139853Y-93314354D01*
X108014354Y-93439853D01*
X107866784Y-93538456D01*
X107702812Y-93606376D01*
X107553512Y-93636073D01*
X107528742Y-93641000D01*
X107351258Y-93641000D01*
X107326488Y-93636073D01*
X107177188Y-93606376D01*
X107013216Y-93538456D01*
X106865646Y-93439853D01*
X106740147Y-93314354D01*
X106641544Y-93166784D01*
X106573624Y-93002812D01*
X106539000Y-92828741D01*
X106539000Y-92651259D01*
X106573624Y-92477188D01*
X106641544Y-92313216D01*
X106740147Y-92165646D01*
X106865646Y-92040147D01*
X107013216Y-91941544D01*
X107177188Y-91873624D01*
X107326488Y-91843927D01*
X107351258Y-91839000D01*
X107528742Y-91839000D01*
X107553512Y-91843927D01*
G37*
G36*
X105013512Y-91843927D02*
G01*
X105162812Y-91873624D01*
X105326784Y-91941544D01*
X105474354Y-92040147D01*
X105599853Y-92165646D01*
X105698456Y-92313216D01*
X105766376Y-92477188D01*
X105801000Y-92651259D01*
X105801000Y-92828741D01*
X105766376Y-93002812D01*
X105698456Y-93166784D01*
X105599853Y-93314354D01*
X105474354Y-93439853D01*
X105326784Y-93538456D01*
X105162812Y-93606376D01*
X105013512Y-93636073D01*
X104988742Y-93641000D01*
X104811258Y-93641000D01*
X104786488Y-93636073D01*
X104637188Y-93606376D01*
X104473216Y-93538456D01*
X104325646Y-93439853D01*
X104200147Y-93314354D01*
X104101544Y-93166784D01*
X104033624Y-93002812D01*
X103999000Y-92828741D01*
X103999000Y-92651259D01*
X104033624Y-92477188D01*
X104101544Y-92313216D01*
X104200147Y-92165646D01*
X104325646Y-92040147D01*
X104473216Y-91941544D01*
X104637188Y-91873624D01*
X104786488Y-91843927D01*
X104811258Y-91839000D01*
X104988742Y-91839000D01*
X105013512Y-91843927D01*
G37*
G36*
X70601000Y-93251000D02*
G01*
X68899000Y-93251000D01*
X68899000Y-91549000D01*
X70601000Y-91549000D01*
X70601000Y-93251000D01*
G37*
G36*
X77201000Y-93051000D02*
G01*
X75499000Y-93051000D01*
X75499000Y-91349000D01*
X77201000Y-91349000D01*
X77201000Y-93051000D01*
G37*
G36*
X105013512Y-89303927D02*
G01*
X105162812Y-89333624D01*
X105326784Y-89401544D01*
X105474354Y-89500147D01*
X105599853Y-89625646D01*
X105698456Y-89773216D01*
X105766376Y-89937188D01*
X105795541Y-90083815D01*
X105801000Y-90111258D01*
X105801000Y-90288742D01*
X105798144Y-90303100D01*
X105766376Y-90462812D01*
X105698456Y-90626784D01*
X105599853Y-90774354D01*
X105474354Y-90899853D01*
X105326784Y-90998456D01*
X105162812Y-91066376D01*
X105013512Y-91096073D01*
X104988742Y-91101000D01*
X104811258Y-91101000D01*
X104786488Y-91096073D01*
X104637188Y-91066376D01*
X104473216Y-90998456D01*
X104325646Y-90899853D01*
X104200147Y-90774354D01*
X104101544Y-90626784D01*
X104033624Y-90462812D01*
X104001856Y-90303100D01*
X103999000Y-90288742D01*
X103999000Y-90111258D01*
X104004459Y-90083815D01*
X104033624Y-89937188D01*
X104101544Y-89773216D01*
X104200147Y-89625646D01*
X104325646Y-89500147D01*
X104473216Y-89401544D01*
X104637188Y-89333624D01*
X104786488Y-89303927D01*
X104811258Y-89299000D01*
X104988742Y-89299000D01*
X105013512Y-89303927D01*
G37*
G36*
X107553512Y-89303927D02*
G01*
X107702812Y-89333624D01*
X107866784Y-89401544D01*
X108014354Y-89500147D01*
X108139853Y-89625646D01*
X108238456Y-89773216D01*
X108306376Y-89937188D01*
X108335541Y-90083815D01*
X108341000Y-90111258D01*
X108341000Y-90288742D01*
X108338144Y-90303100D01*
X108306376Y-90462812D01*
X108238456Y-90626784D01*
X108139853Y-90774354D01*
X108014354Y-90899853D01*
X107866784Y-90998456D01*
X107702812Y-91066376D01*
X107553512Y-91096073D01*
X107528742Y-91101000D01*
X107351258Y-91101000D01*
X107326488Y-91096073D01*
X107177188Y-91066376D01*
X107013216Y-90998456D01*
X106865646Y-90899853D01*
X106740147Y-90774354D01*
X106641544Y-90626784D01*
X106573624Y-90462812D01*
X106541856Y-90303100D01*
X106539000Y-90288742D01*
X106539000Y-90111258D01*
X106544459Y-90083815D01*
X106573624Y-89937188D01*
X106641544Y-89773216D01*
X106740147Y-89625646D01*
X106865646Y-89500147D01*
X107013216Y-89401544D01*
X107177188Y-89333624D01*
X107326488Y-89303927D01*
X107351258Y-89299000D01*
X107528742Y-89299000D01*
X107553512Y-89303927D01*
G37*
G36*
X76598228Y-89381703D02*
G01*
X76753100Y-89445853D01*
X76892481Y-89538985D01*
X77011015Y-89657519D01*
X77104147Y-89796900D01*
X77168297Y-89951772D01*
X77201000Y-90116184D01*
X77201000Y-90283816D01*
X77168297Y-90448228D01*
X77104147Y-90603100D01*
X77011015Y-90742481D01*
X76892481Y-90861015D01*
X76753100Y-90954147D01*
X76598228Y-91018297D01*
X76433816Y-91051000D01*
X76266184Y-91051000D01*
X76101772Y-91018297D01*
X75946900Y-90954147D01*
X75807519Y-90861015D01*
X75688985Y-90742481D01*
X75595853Y-90603100D01*
X75531703Y-90448228D01*
X75499000Y-90283816D01*
X75499000Y-90116184D01*
X75531703Y-89951772D01*
X75595853Y-89796900D01*
X75688985Y-89657519D01*
X75807519Y-89538985D01*
X75946900Y-89445853D01*
X76101772Y-89381703D01*
X76266184Y-89349000D01*
X76433816Y-89349000D01*
X76598228Y-89381703D01*
G37*
G36*
X94858228Y-89181703D02*
G01*
X95013100Y-89245853D01*
X95152481Y-89338985D01*
X95271015Y-89457519D01*
X95364147Y-89596900D01*
X95428297Y-89751772D01*
X95461000Y-89916184D01*
X95461000Y-90083816D01*
X95428297Y-90248228D01*
X95364147Y-90403100D01*
X95271015Y-90542481D01*
X95152481Y-90661015D01*
X95013100Y-90754147D01*
X94858228Y-90818297D01*
X94693816Y-90851000D01*
X94526184Y-90851000D01*
X94361772Y-90818297D01*
X94206900Y-90754147D01*
X94067519Y-90661015D01*
X93948985Y-90542481D01*
X93855853Y-90403100D01*
X93791703Y-90248228D01*
X93759000Y-90083816D01*
X93759000Y-89916184D01*
X93791703Y-89751772D01*
X93855853Y-89596900D01*
X93948985Y-89457519D01*
X94067519Y-89338985D01*
X94206900Y-89245853D01*
X94361772Y-89181703D01*
X94526184Y-89149000D01*
X94693816Y-89149000D01*
X94858228Y-89181703D01*
G37*
G36*
X84698228Y-89181703D02*
G01*
X84853100Y-89245853D01*
X84992481Y-89338985D01*
X85111015Y-89457519D01*
X85204147Y-89596900D01*
X85268297Y-89751772D01*
X85301000Y-89916184D01*
X85301000Y-90083816D01*
X85268297Y-90248228D01*
X85204147Y-90403100D01*
X85111015Y-90542481D01*
X84992481Y-90661015D01*
X84853100Y-90754147D01*
X84698228Y-90818297D01*
X84533816Y-90851000D01*
X84366184Y-90851000D01*
X84201772Y-90818297D01*
X84046900Y-90754147D01*
X83907519Y-90661015D01*
X83788985Y-90542481D01*
X83695853Y-90403100D01*
X83631703Y-90248228D01*
X83599000Y-90083816D01*
X83599000Y-89916184D01*
X83631703Y-89751772D01*
X83695853Y-89596900D01*
X83788985Y-89457519D01*
X83907519Y-89338985D01*
X84046900Y-89245853D01*
X84201772Y-89181703D01*
X84366184Y-89149000D01*
X84533816Y-89149000D01*
X84698228Y-89181703D01*
G37*
G36*
X69998228Y-89081703D02*
G01*
X70153100Y-89145853D01*
X70292481Y-89238985D01*
X70411015Y-89357519D01*
X70504147Y-89496900D01*
X70568297Y-89651772D01*
X70601000Y-89816184D01*
X70601000Y-89983816D01*
X70568297Y-90148228D01*
X70504147Y-90303100D01*
X70411015Y-90442481D01*
X70292481Y-90561015D01*
X70153100Y-90654147D01*
X69998228Y-90718297D01*
X69833816Y-90751000D01*
X69666184Y-90751000D01*
X69501772Y-90718297D01*
X69346900Y-90654147D01*
X69207519Y-90561015D01*
X69088985Y-90442481D01*
X68995853Y-90303100D01*
X68931703Y-90148228D01*
X68899000Y-89983816D01*
X68899000Y-89816184D01*
X68931703Y-89651772D01*
X68995853Y-89496900D01*
X69088985Y-89357519D01*
X69207519Y-89238985D01*
X69346900Y-89145853D01*
X69501772Y-89081703D01*
X69666184Y-89049000D01*
X69833816Y-89049000D01*
X69998228Y-89081703D01*
G37*
G36*
X58088228Y-87661703D02*
G01*
X58243100Y-87725853D01*
X58382481Y-87818985D01*
X58501015Y-87937519D01*
X58594147Y-88076900D01*
X58658297Y-88231772D01*
X58691000Y-88396184D01*
X58691000Y-88563816D01*
X58658297Y-88728228D01*
X58594147Y-88883100D01*
X58501015Y-89022481D01*
X58382481Y-89141015D01*
X58243100Y-89234147D01*
X58088228Y-89298297D01*
X57923816Y-89331000D01*
X57756184Y-89331000D01*
X57591772Y-89298297D01*
X57436900Y-89234147D01*
X57297519Y-89141015D01*
X57178985Y-89022481D01*
X57085853Y-88883100D01*
X57021703Y-88728228D01*
X56989000Y-88563816D01*
X56989000Y-88396184D01*
X57021703Y-88231772D01*
X57085853Y-88076900D01*
X57178985Y-87937519D01*
X57297519Y-87818985D01*
X57436900Y-87725853D01*
X57591772Y-87661703D01*
X57756184Y-87629000D01*
X57923816Y-87629000D01*
X58088228Y-87661703D01*
G37*
G36*
X60628228Y-87661703D02*
G01*
X60783100Y-87725853D01*
X60922481Y-87818985D01*
X61041015Y-87937519D01*
X61134147Y-88076900D01*
X61198297Y-88231772D01*
X61231000Y-88396184D01*
X61231000Y-88563816D01*
X61198297Y-88728228D01*
X61134147Y-88883100D01*
X61041015Y-89022481D01*
X60922481Y-89141015D01*
X60783100Y-89234147D01*
X60628228Y-89298297D01*
X60463816Y-89331000D01*
X60296184Y-89331000D01*
X60131772Y-89298297D01*
X59976900Y-89234147D01*
X59837519Y-89141015D01*
X59718985Y-89022481D01*
X59625853Y-88883100D01*
X59561703Y-88728228D01*
X59529000Y-88563816D01*
X59529000Y-88396184D01*
X59561703Y-88231772D01*
X59625853Y-88076900D01*
X59718985Y-87937519D01*
X59837519Y-87818985D01*
X59976900Y-87725853D01*
X60131772Y-87661703D01*
X60296184Y-87629000D01*
X60463816Y-87629000D01*
X60628228Y-87661703D01*
G37*
G36*
X55548228Y-87661703D02*
G01*
X55703100Y-87725853D01*
X55842481Y-87818985D01*
X55961015Y-87937519D01*
X56054147Y-88076900D01*
X56118297Y-88231772D01*
X56151000Y-88396184D01*
X56151000Y-88563816D01*
X56118297Y-88728228D01*
X56054147Y-88883100D01*
X55961015Y-89022481D01*
X55842481Y-89141015D01*
X55703100Y-89234147D01*
X55548228Y-89298297D01*
X55383816Y-89331000D01*
X55216184Y-89331000D01*
X55051772Y-89298297D01*
X54896900Y-89234147D01*
X54757519Y-89141015D01*
X54638985Y-89022481D01*
X54545853Y-88883100D01*
X54481703Y-88728228D01*
X54449000Y-88563816D01*
X54449000Y-88396184D01*
X54481703Y-88231772D01*
X54545853Y-88076900D01*
X54638985Y-87937519D01*
X54757519Y-87818985D01*
X54896900Y-87725853D01*
X55051772Y-87661703D01*
X55216184Y-87629000D01*
X55383816Y-87629000D01*
X55548228Y-87661703D01*
G37*
G36*
X63168228Y-87661703D02*
G01*
X63323100Y-87725853D01*
X63462481Y-87818985D01*
X63581015Y-87937519D01*
X63674147Y-88076900D01*
X63738297Y-88231772D01*
X63771000Y-88396184D01*
X63771000Y-88563816D01*
X63738297Y-88728228D01*
X63674147Y-88883100D01*
X63581015Y-89022481D01*
X63462481Y-89141015D01*
X63323100Y-89234147D01*
X63168228Y-89298297D01*
X63003816Y-89331000D01*
X62836184Y-89331000D01*
X62671772Y-89298297D01*
X62516900Y-89234147D01*
X62377519Y-89141015D01*
X62258985Y-89022481D01*
X62165853Y-88883100D01*
X62101703Y-88728228D01*
X62069000Y-88563816D01*
X62069000Y-88396184D01*
X62101703Y-88231772D01*
X62165853Y-88076900D01*
X62258985Y-87937519D01*
X62377519Y-87818985D01*
X62516900Y-87725853D01*
X62671772Y-87661703D01*
X62836184Y-87629000D01*
X63003816Y-87629000D01*
X63168228Y-87661703D01*
G37*
G36*
X101606564Y-85539389D02*
G01*
X101797833Y-85618615D01*
X101797835Y-85618616D01*
X101969973Y-85733635D01*
X102116365Y-85880027D01*
X102231385Y-86052167D01*
X102310611Y-86243436D01*
X102351000Y-86446484D01*
X102351000Y-86653516D01*
X102310611Y-86856564D01*
X102231385Y-87047833D01*
X102231384Y-87047835D01*
X102116365Y-87219973D01*
X101969973Y-87366365D01*
X101797835Y-87481384D01*
X101797834Y-87481385D01*
X101797833Y-87481385D01*
X101606564Y-87560611D01*
X101403516Y-87601000D01*
X101196484Y-87601000D01*
X100993436Y-87560611D01*
X100802167Y-87481385D01*
X100802166Y-87481385D01*
X100802165Y-87481384D01*
X100630027Y-87366365D01*
X100483635Y-87219973D01*
X100368616Y-87047835D01*
X100368615Y-87047833D01*
X100289389Y-86856564D01*
X100249000Y-86653516D01*
X100249000Y-86446484D01*
X100289389Y-86243436D01*
X100368615Y-86052167D01*
X100483635Y-85880027D01*
X100630027Y-85733635D01*
X100802165Y-85618616D01*
X100802167Y-85618615D01*
X100993436Y-85539389D01*
X101196484Y-85499000D01*
X101403516Y-85499000D01*
X101606564Y-85539389D01*
G37*
G36*
X95106564Y-85539389D02*
G01*
X95297833Y-85618615D01*
X95297835Y-85618616D01*
X95469973Y-85733635D01*
X95616365Y-85880027D01*
X95731385Y-86052167D01*
X95810611Y-86243436D01*
X95851000Y-86446484D01*
X95851000Y-86653516D01*
X95810611Y-86856564D01*
X95731385Y-87047833D01*
X95731384Y-87047835D01*
X95616365Y-87219973D01*
X95469973Y-87366365D01*
X95297835Y-87481384D01*
X95297834Y-87481385D01*
X95297833Y-87481385D01*
X95106564Y-87560611D01*
X94903516Y-87601000D01*
X94696484Y-87601000D01*
X94493436Y-87560611D01*
X94302167Y-87481385D01*
X94302166Y-87481385D01*
X94302165Y-87481384D01*
X94130027Y-87366365D01*
X93983635Y-87219973D01*
X93868616Y-87047835D01*
X93868615Y-87047833D01*
X93789389Y-86856564D01*
X93749000Y-86653516D01*
X93749000Y-86446484D01*
X93789389Y-86243436D01*
X93868615Y-86052167D01*
X93983635Y-85880027D01*
X94130027Y-85733635D01*
X94302165Y-85618616D01*
X94302167Y-85618615D01*
X94493436Y-85539389D01*
X94696484Y-85499000D01*
X94903516Y-85499000D01*
X95106564Y-85539389D01*
G37*
G36*
X91756564Y-85539389D02*
G01*
X91947833Y-85618615D01*
X91947835Y-85618616D01*
X92119973Y-85733635D01*
X92266365Y-85880027D01*
X92381385Y-86052167D01*
X92460611Y-86243436D01*
X92501000Y-86446484D01*
X92501000Y-86653516D01*
X92460611Y-86856564D01*
X92381385Y-87047833D01*
X92381384Y-87047835D01*
X92266365Y-87219973D01*
X92119973Y-87366365D01*
X91947835Y-87481384D01*
X91947834Y-87481385D01*
X91947833Y-87481385D01*
X91756564Y-87560611D01*
X91553516Y-87601000D01*
X91346484Y-87601000D01*
X91143436Y-87560611D01*
X90952167Y-87481385D01*
X90952166Y-87481385D01*
X90952165Y-87481384D01*
X90780027Y-87366365D01*
X90633635Y-87219973D01*
X90518616Y-87047835D01*
X90518615Y-87047833D01*
X90439389Y-86856564D01*
X90399000Y-86653516D01*
X90399000Y-86446484D01*
X90439389Y-86243436D01*
X90518615Y-86052167D01*
X90633635Y-85880027D01*
X90780027Y-85733635D01*
X90952165Y-85618616D01*
X90952167Y-85618615D01*
X91143436Y-85539389D01*
X91346484Y-85499000D01*
X91553516Y-85499000D01*
X91756564Y-85539389D01*
G37*
G36*
X85256564Y-85539389D02*
G01*
X85447833Y-85618615D01*
X85447835Y-85618616D01*
X85619973Y-85733635D01*
X85766365Y-85880027D01*
X85881385Y-86052167D01*
X85960611Y-86243436D01*
X86001000Y-86446484D01*
X86001000Y-86653516D01*
X85960611Y-86856564D01*
X85881385Y-87047833D01*
X85881384Y-87047835D01*
X85766365Y-87219973D01*
X85619973Y-87366365D01*
X85447835Y-87481384D01*
X85447834Y-87481385D01*
X85447833Y-87481385D01*
X85256564Y-87560611D01*
X85053516Y-87601000D01*
X84846484Y-87601000D01*
X84643436Y-87560611D01*
X84452167Y-87481385D01*
X84452166Y-87481385D01*
X84452165Y-87481384D01*
X84280027Y-87366365D01*
X84133635Y-87219973D01*
X84018616Y-87047835D01*
X84018615Y-87047833D01*
X83939389Y-86856564D01*
X83899000Y-86653516D01*
X83899000Y-86446484D01*
X83939389Y-86243436D01*
X84018615Y-86052167D01*
X84133635Y-85880027D01*
X84280027Y-85733635D01*
X84452165Y-85618616D01*
X84452167Y-85618615D01*
X84643436Y-85539389D01*
X84846484Y-85499000D01*
X85053516Y-85499000D01*
X85256564Y-85539389D01*
G37*
G36*
X69153512Y-84603927D02*
G01*
X69302812Y-84633624D01*
X69466784Y-84701544D01*
X69614354Y-84800147D01*
X69739853Y-84925646D01*
X69838456Y-85073216D01*
X69906376Y-85237188D01*
X69941000Y-85411259D01*
X69941000Y-85588741D01*
X69906376Y-85762812D01*
X69838456Y-85926784D01*
X69739853Y-86074354D01*
X69614354Y-86199853D01*
X69466784Y-86298456D01*
X69302812Y-86366376D01*
X69153512Y-86396073D01*
X69128742Y-86401000D01*
X68951258Y-86401000D01*
X68926488Y-86396073D01*
X68777188Y-86366376D01*
X68613216Y-86298456D01*
X68465646Y-86199853D01*
X68340147Y-86074354D01*
X68241544Y-85926784D01*
X68173624Y-85762812D01*
X68139000Y-85588741D01*
X68139000Y-85411259D01*
X68173624Y-85237188D01*
X68241544Y-85073216D01*
X68340147Y-84925646D01*
X68465646Y-84800147D01*
X68613216Y-84701544D01*
X68777188Y-84633624D01*
X68926488Y-84603927D01*
X68951258Y-84599000D01*
X69128742Y-84599000D01*
X69153512Y-84603927D01*
G37*
G36*
X76773512Y-84603927D02*
G01*
X76922812Y-84633624D01*
X77086784Y-84701544D01*
X77234354Y-84800147D01*
X77359853Y-84925646D01*
X77458456Y-85073216D01*
X77526376Y-85237188D01*
X77561000Y-85411259D01*
X77561000Y-85588741D01*
X77526376Y-85762812D01*
X77458456Y-85926784D01*
X77359853Y-86074354D01*
X77234354Y-86199853D01*
X77086784Y-86298456D01*
X76922812Y-86366376D01*
X76773512Y-86396073D01*
X76748742Y-86401000D01*
X76571258Y-86401000D01*
X76546488Y-86396073D01*
X76397188Y-86366376D01*
X76233216Y-86298456D01*
X76085646Y-86199853D01*
X75960147Y-86074354D01*
X75861544Y-85926784D01*
X75793624Y-85762812D01*
X75759000Y-85588741D01*
X75759000Y-85411259D01*
X75793624Y-85237188D01*
X75861544Y-85073216D01*
X75960147Y-84925646D01*
X76085646Y-84800147D01*
X76233216Y-84701544D01*
X76397188Y-84633624D01*
X76546488Y-84603927D01*
X76571258Y-84599000D01*
X76748742Y-84599000D01*
X76773512Y-84603927D01*
G37*
G36*
X74233512Y-84603927D02*
G01*
X74382812Y-84633624D01*
X74546784Y-84701544D01*
X74694354Y-84800147D01*
X74819853Y-84925646D01*
X74918456Y-85073216D01*
X74986376Y-85237188D01*
X75021000Y-85411259D01*
X75021000Y-85588741D01*
X74986376Y-85762812D01*
X74918456Y-85926784D01*
X74819853Y-86074354D01*
X74694354Y-86199853D01*
X74546784Y-86298456D01*
X74382812Y-86366376D01*
X74233512Y-86396073D01*
X74208742Y-86401000D01*
X74031258Y-86401000D01*
X74006488Y-86396073D01*
X73857188Y-86366376D01*
X73693216Y-86298456D01*
X73545646Y-86199853D01*
X73420147Y-86074354D01*
X73321544Y-85926784D01*
X73253624Y-85762812D01*
X73219000Y-85588741D01*
X73219000Y-85411259D01*
X73253624Y-85237188D01*
X73321544Y-85073216D01*
X73420147Y-84925646D01*
X73545646Y-84800147D01*
X73693216Y-84701544D01*
X73857188Y-84633624D01*
X74006488Y-84603927D01*
X74031258Y-84599000D01*
X74208742Y-84599000D01*
X74233512Y-84603927D01*
G37*
G36*
X71693512Y-84603927D02*
G01*
X71842812Y-84633624D01*
X72006784Y-84701544D01*
X72154354Y-84800147D01*
X72279853Y-84925646D01*
X72378456Y-85073216D01*
X72446376Y-85237188D01*
X72481000Y-85411259D01*
X72481000Y-85588741D01*
X72446376Y-85762812D01*
X72378456Y-85926784D01*
X72279853Y-86074354D01*
X72154354Y-86199853D01*
X72006784Y-86298456D01*
X71842812Y-86366376D01*
X71693512Y-86396073D01*
X71668742Y-86401000D01*
X71491258Y-86401000D01*
X71466488Y-86396073D01*
X71317188Y-86366376D01*
X71153216Y-86298456D01*
X71005646Y-86199853D01*
X70880147Y-86074354D01*
X70781544Y-85926784D01*
X70713624Y-85762812D01*
X70679000Y-85588741D01*
X70679000Y-85411259D01*
X70713624Y-85237188D01*
X70781544Y-85073216D01*
X70880147Y-84925646D01*
X71005646Y-84800147D01*
X71153216Y-84701544D01*
X71317188Y-84633624D01*
X71466488Y-84603927D01*
X71491258Y-84599000D01*
X71668742Y-84599000D01*
X71693512Y-84603927D01*
G37*
G36*
X67401000Y-86401000D02*
G01*
X65599000Y-86401000D01*
X65599000Y-84599000D01*
X67401000Y-84599000D01*
X67401000Y-86401000D01*
G37*
G36*
X51417395Y-82885546D02*
G01*
X51590466Y-82957234D01*
X51590467Y-82957235D01*
X51746227Y-83061310D01*
X51878690Y-83193773D01*
X51878691Y-83193775D01*
X51982766Y-83349534D01*
X52054454Y-83522605D01*
X52091000Y-83706333D01*
X52091000Y-83893667D01*
X52054454Y-84077395D01*
X51982766Y-84250466D01*
X51982765Y-84250467D01*
X51878690Y-84406227D01*
X51746227Y-84538690D01*
X51667818Y-84591081D01*
X51590466Y-84642766D01*
X51417395Y-84714454D01*
X51233667Y-84751000D01*
X51046333Y-84751000D01*
X50862605Y-84714454D01*
X50689534Y-84642766D01*
X50612182Y-84591081D01*
X50533773Y-84538690D01*
X50401310Y-84406227D01*
X50297235Y-84250467D01*
X50297234Y-84250466D01*
X50225546Y-84077395D01*
X50189000Y-83893667D01*
X50189000Y-83706333D01*
X50225546Y-83522605D01*
X50297234Y-83349534D01*
X50401309Y-83193775D01*
X50401310Y-83193773D01*
X50533773Y-83061310D01*
X50689533Y-82957235D01*
X50689534Y-82957234D01*
X50862605Y-82885546D01*
X51046333Y-82849000D01*
X51233667Y-82849000D01*
X51417395Y-82885546D01*
G37*
G36*
X49551000Y-84751000D02*
G01*
X47649000Y-84751000D01*
X47649000Y-82849000D01*
X49551000Y-82849000D01*
X49551000Y-84751000D01*
G37*
G36*
X58017395Y-82885546D02*
G01*
X58190466Y-82957234D01*
X58190467Y-82957235D01*
X58346227Y-83061310D01*
X58478690Y-83193773D01*
X58478691Y-83193775D01*
X58582766Y-83349534D01*
X58654454Y-83522605D01*
X58691000Y-83706333D01*
X58691000Y-83893667D01*
X58654454Y-84077395D01*
X58582766Y-84250466D01*
X58582765Y-84250467D01*
X58478690Y-84406227D01*
X58346227Y-84538690D01*
X58267818Y-84591081D01*
X58190466Y-84642766D01*
X58017395Y-84714454D01*
X57833667Y-84751000D01*
X57646333Y-84751000D01*
X57462605Y-84714454D01*
X57289534Y-84642766D01*
X57212182Y-84591081D01*
X57133773Y-84538690D01*
X57001310Y-84406227D01*
X56897235Y-84250467D01*
X56897234Y-84250466D01*
X56825546Y-84077395D01*
X56789000Y-83893667D01*
X56789000Y-83706333D01*
X56825546Y-83522605D01*
X56897234Y-83349534D01*
X57001309Y-83193775D01*
X57001310Y-83193773D01*
X57133773Y-83061310D01*
X57289533Y-82957235D01*
X57289534Y-82957234D01*
X57462605Y-82885546D01*
X57646333Y-82849000D01*
X57833667Y-82849000D01*
X58017395Y-82885546D01*
G37*
G36*
X56151000Y-84751000D02*
G01*
X54249000Y-84751000D01*
X54249000Y-82849000D01*
X56151000Y-82849000D01*
X56151000Y-84751000D01*
G37*
G36*
X43818433Y-81134893D02*
G01*
X43908657Y-81152839D01*
X44014267Y-81196585D01*
X44163621Y-81258449D01*
X44163622Y-81258450D01*
X44393086Y-81411772D01*
X44588228Y-81606914D01*
X44690675Y-81760237D01*
X44741551Y-81836379D01*
X44847161Y-82091344D01*
X44899917Y-82356565D01*
X44901000Y-82362014D01*
X44901000Y-82637986D01*
X44847161Y-82908657D01*
X44827039Y-82957235D01*
X44741551Y-83163621D01*
X44741550Y-83163622D01*
X44588228Y-83393086D01*
X44393086Y-83588228D01*
X44285892Y-83659852D01*
X44163621Y-83741551D01*
X44014267Y-83803415D01*
X43908657Y-83847161D01*
X43818433Y-83865107D01*
X43637988Y-83901000D01*
X43362012Y-83901000D01*
X43181567Y-83865107D01*
X43091343Y-83847161D01*
X42985733Y-83803415D01*
X42836379Y-83741551D01*
X42714108Y-83659852D01*
X42606914Y-83588228D01*
X42411772Y-83393086D01*
X42258450Y-83163622D01*
X42258449Y-83163621D01*
X42172961Y-82957235D01*
X42152839Y-82908657D01*
X42099000Y-82637986D01*
X42099000Y-82362014D01*
X42100084Y-82356565D01*
X42152839Y-82091344D01*
X42258449Y-81836379D01*
X42309325Y-81760237D01*
X42411772Y-81606914D01*
X42606914Y-81411772D01*
X42836378Y-81258450D01*
X42836379Y-81258449D01*
X42985733Y-81196585D01*
X43091343Y-81152839D01*
X43181567Y-81134893D01*
X43362012Y-81099000D01*
X43637988Y-81099000D01*
X43818433Y-81134893D01*
G37*
G36*
X106818433Y-81134893D02*
G01*
X106908657Y-81152839D01*
X107014267Y-81196585D01*
X107163621Y-81258449D01*
X107163622Y-81258450D01*
X107393086Y-81411772D01*
X107588228Y-81606914D01*
X107690675Y-81760237D01*
X107741551Y-81836379D01*
X107847161Y-82091344D01*
X107899917Y-82356565D01*
X107901000Y-82362014D01*
X107901000Y-82637986D01*
X107847161Y-82908657D01*
X107827039Y-82957235D01*
X107741551Y-83163621D01*
X107741550Y-83163622D01*
X107588228Y-83393086D01*
X107393086Y-83588228D01*
X107285892Y-83659852D01*
X107163621Y-83741551D01*
X107014267Y-83803415D01*
X106908657Y-83847161D01*
X106818433Y-83865107D01*
X106637988Y-83901000D01*
X106362012Y-83901000D01*
X106181567Y-83865107D01*
X106091343Y-83847161D01*
X105985733Y-83803415D01*
X105836379Y-83741551D01*
X105714108Y-83659852D01*
X105606914Y-83588228D01*
X105411772Y-83393086D01*
X105258450Y-83163622D01*
X105258449Y-83163621D01*
X105172961Y-82957235D01*
X105152839Y-82908657D01*
X105099000Y-82637986D01*
X105099000Y-82362014D01*
X105100084Y-82356565D01*
X105152839Y-82091344D01*
X105258449Y-81836379D01*
X105309325Y-81760237D01*
X105411772Y-81606914D01*
X105606914Y-81411772D01*
X105836378Y-81258450D01*
X105836379Y-81258449D01*
X105985733Y-81196585D01*
X106091343Y-81152839D01*
X106181567Y-81134893D01*
X106362012Y-81099000D01*
X106637988Y-81099000D01*
X106818433Y-81134893D01*
G37*
G36*
X69153512Y-82063927D02*
G01*
X69302812Y-82093624D01*
X69466784Y-82161544D01*
X69614354Y-82260147D01*
X69739853Y-82385646D01*
X69838456Y-82533216D01*
X69906376Y-82697188D01*
X69941000Y-82871259D01*
X69941000Y-83048741D01*
X69906376Y-83222812D01*
X69838456Y-83386784D01*
X69739853Y-83534354D01*
X69614354Y-83659853D01*
X69466784Y-83758456D01*
X69302812Y-83826376D01*
X69153512Y-83856073D01*
X69128742Y-83861000D01*
X68951258Y-83861000D01*
X68926488Y-83856073D01*
X68777188Y-83826376D01*
X68613216Y-83758456D01*
X68465646Y-83659853D01*
X68340147Y-83534354D01*
X68241544Y-83386784D01*
X68173624Y-83222812D01*
X68139000Y-83048741D01*
X68139000Y-82871259D01*
X68173624Y-82697188D01*
X68241544Y-82533216D01*
X68340147Y-82385646D01*
X68465646Y-82260147D01*
X68613216Y-82161544D01*
X68777188Y-82093624D01*
X68926488Y-82063927D01*
X68951258Y-82059000D01*
X69128742Y-82059000D01*
X69153512Y-82063927D01*
G37*
G36*
X66613512Y-82063927D02*
G01*
X66762812Y-82093624D01*
X66926784Y-82161544D01*
X67074354Y-82260147D01*
X67199853Y-82385646D01*
X67298456Y-82533216D01*
X67366376Y-82697188D01*
X67401000Y-82871259D01*
X67401000Y-83048741D01*
X67366376Y-83222812D01*
X67298456Y-83386784D01*
X67199853Y-83534354D01*
X67074354Y-83659853D01*
X66926784Y-83758456D01*
X66762812Y-83826376D01*
X66613512Y-83856073D01*
X66588742Y-83861000D01*
X66411258Y-83861000D01*
X66386488Y-83856073D01*
X66237188Y-83826376D01*
X66073216Y-83758456D01*
X65925646Y-83659853D01*
X65800147Y-83534354D01*
X65701544Y-83386784D01*
X65633624Y-83222812D01*
X65599000Y-83048741D01*
X65599000Y-82871259D01*
X65633624Y-82697188D01*
X65701544Y-82533216D01*
X65800147Y-82385646D01*
X65925646Y-82260147D01*
X66073216Y-82161544D01*
X66237188Y-82093624D01*
X66386488Y-82063927D01*
X66411258Y-82059000D01*
X66588742Y-82059000D01*
X66613512Y-82063927D01*
G37*
G36*
X71693512Y-82063927D02*
G01*
X71842812Y-82093624D01*
X72006784Y-82161544D01*
X72154354Y-82260147D01*
X72279853Y-82385646D01*
X72378456Y-82533216D01*
X72446376Y-82697188D01*
X72481000Y-82871259D01*
X72481000Y-83048741D01*
X72446376Y-83222812D01*
X72378456Y-83386784D01*
X72279853Y-83534354D01*
X72154354Y-83659853D01*
X72006784Y-83758456D01*
X71842812Y-83826376D01*
X71693512Y-83856073D01*
X71668742Y-83861000D01*
X71491258Y-83861000D01*
X71466488Y-83856073D01*
X71317188Y-83826376D01*
X71153216Y-83758456D01*
X71005646Y-83659853D01*
X70880147Y-83534354D01*
X70781544Y-83386784D01*
X70713624Y-83222812D01*
X70679000Y-83048741D01*
X70679000Y-82871259D01*
X70713624Y-82697188D01*
X70781544Y-82533216D01*
X70880147Y-82385646D01*
X71005646Y-82260147D01*
X71153216Y-82161544D01*
X71317188Y-82093624D01*
X71466488Y-82063927D01*
X71491258Y-82059000D01*
X71668742Y-82059000D01*
X71693512Y-82063927D01*
G37*
G36*
X76773512Y-82063927D02*
G01*
X76922812Y-82093624D01*
X77086784Y-82161544D01*
X77234354Y-82260147D01*
X77359853Y-82385646D01*
X77458456Y-82533216D01*
X77526376Y-82697188D01*
X77561000Y-82871259D01*
X77561000Y-83048741D01*
X77526376Y-83222812D01*
X77458456Y-83386784D01*
X77359853Y-83534354D01*
X77234354Y-83659853D01*
X77086784Y-83758456D01*
X76922812Y-83826376D01*
X76773512Y-83856073D01*
X76748742Y-83861000D01*
X76571258Y-83861000D01*
X76546488Y-83856073D01*
X76397188Y-83826376D01*
X76233216Y-83758456D01*
X76085646Y-83659853D01*
X75960147Y-83534354D01*
X75861544Y-83386784D01*
X75793624Y-83222812D01*
X75759000Y-83048741D01*
X75759000Y-82871259D01*
X75793624Y-82697188D01*
X75861544Y-82533216D01*
X75960147Y-82385646D01*
X76085646Y-82260147D01*
X76233216Y-82161544D01*
X76397188Y-82093624D01*
X76546488Y-82063927D01*
X76571258Y-82059000D01*
X76748742Y-82059000D01*
X76773512Y-82063927D01*
G37*
G36*
X74233512Y-82063927D02*
G01*
X74382812Y-82093624D01*
X74546784Y-82161544D01*
X74694354Y-82260147D01*
X74819853Y-82385646D01*
X74918456Y-82533216D01*
X74986376Y-82697188D01*
X75021000Y-82871259D01*
X75021000Y-83048741D01*
X74986376Y-83222812D01*
X74918456Y-83386784D01*
X74819853Y-83534354D01*
X74694354Y-83659853D01*
X74546784Y-83758456D01*
X74382812Y-83826376D01*
X74233512Y-83856073D01*
X74208742Y-83861000D01*
X74031258Y-83861000D01*
X74006488Y-83856073D01*
X73857188Y-83826376D01*
X73693216Y-83758456D01*
X73545646Y-83659853D01*
X73420147Y-83534354D01*
X73321544Y-83386784D01*
X73253624Y-83222812D01*
X73219000Y-83048741D01*
X73219000Y-82871259D01*
X73253624Y-82697188D01*
X73321544Y-82533216D01*
X73420147Y-82385646D01*
X73545646Y-82260147D01*
X73693216Y-82161544D01*
X73857188Y-82093624D01*
X74006488Y-82063927D01*
X74031258Y-82059000D01*
X74208742Y-82059000D01*
X74233512Y-82063927D01*
G37*
G36*
X101606564Y-81039389D02*
G01*
X101797833Y-81118615D01*
X101797835Y-81118616D01*
X101849053Y-81152839D01*
X101969973Y-81233635D01*
X102116365Y-81380027D01*
X102231385Y-81552167D01*
X102310611Y-81743436D01*
X102351000Y-81946484D01*
X102351000Y-82153516D01*
X102310611Y-82356564D01*
X102237439Y-82533218D01*
X102231384Y-82547835D01*
X102116365Y-82719973D01*
X101969973Y-82866365D01*
X101797835Y-82981384D01*
X101797834Y-82981385D01*
X101797833Y-82981385D01*
X101606564Y-83060611D01*
X101403516Y-83101000D01*
X101196484Y-83101000D01*
X100993436Y-83060611D01*
X100802167Y-82981385D01*
X100802166Y-82981385D01*
X100802165Y-82981384D01*
X100630027Y-82866365D01*
X100483635Y-82719973D01*
X100368616Y-82547835D01*
X100362561Y-82533218D01*
X100289389Y-82356564D01*
X100249000Y-82153516D01*
X100249000Y-81946484D01*
X100289389Y-81743436D01*
X100368615Y-81552167D01*
X100483635Y-81380027D01*
X100630027Y-81233635D01*
X100750947Y-81152839D01*
X100802165Y-81118616D01*
X100802167Y-81118615D01*
X100993436Y-81039389D01*
X101196484Y-80999000D01*
X101403516Y-80999000D01*
X101606564Y-81039389D01*
G37*
G36*
X95106564Y-81039389D02*
G01*
X95297833Y-81118615D01*
X95297835Y-81118616D01*
X95349053Y-81152839D01*
X95469973Y-81233635D01*
X95616365Y-81380027D01*
X95731385Y-81552167D01*
X95810611Y-81743436D01*
X95851000Y-81946484D01*
X95851000Y-82153516D01*
X95810611Y-82356564D01*
X95737439Y-82533218D01*
X95731384Y-82547835D01*
X95616365Y-82719973D01*
X95469973Y-82866365D01*
X95297835Y-82981384D01*
X95297834Y-82981385D01*
X95297833Y-82981385D01*
X95106564Y-83060611D01*
X94903516Y-83101000D01*
X94696484Y-83101000D01*
X94493436Y-83060611D01*
X94302167Y-82981385D01*
X94302166Y-82981385D01*
X94302165Y-82981384D01*
X94130027Y-82866365D01*
X93983635Y-82719973D01*
X93868616Y-82547835D01*
X93862561Y-82533218D01*
X93789389Y-82356564D01*
X93749000Y-82153516D01*
X93749000Y-81946484D01*
X93789389Y-81743436D01*
X93868615Y-81552167D01*
X93983635Y-81380027D01*
X94130027Y-81233635D01*
X94250947Y-81152839D01*
X94302165Y-81118616D01*
X94302167Y-81118615D01*
X94493436Y-81039389D01*
X94696484Y-80999000D01*
X94903516Y-80999000D01*
X95106564Y-81039389D01*
G37*
G36*
X91756564Y-81039389D02*
G01*
X91947833Y-81118615D01*
X91947835Y-81118616D01*
X91999053Y-81152839D01*
X92119973Y-81233635D01*
X92266365Y-81380027D01*
X92381385Y-81552167D01*
X92460611Y-81743436D01*
X92501000Y-81946484D01*
X92501000Y-82153516D01*
X92460611Y-82356564D01*
X92387439Y-82533218D01*
X92381384Y-82547835D01*
X92266365Y-82719973D01*
X92119973Y-82866365D01*
X91947835Y-82981384D01*
X91947834Y-82981385D01*
X91947833Y-82981385D01*
X91756564Y-83060611D01*
X91553516Y-83101000D01*
X91346484Y-83101000D01*
X91143436Y-83060611D01*
X90952167Y-82981385D01*
X90952166Y-82981385D01*
X90952165Y-82981384D01*
X90780027Y-82866365D01*
X90633635Y-82719973D01*
X90518616Y-82547835D01*
X90512561Y-82533218D01*
X90439389Y-82356564D01*
X90399000Y-82153516D01*
X90399000Y-81946484D01*
X90439389Y-81743436D01*
X90518615Y-81552167D01*
X90633635Y-81380027D01*
X90780027Y-81233635D01*
X90900947Y-81152839D01*
X90952165Y-81118616D01*
X90952167Y-81118615D01*
X91143436Y-81039389D01*
X91346484Y-80999000D01*
X91553516Y-80999000D01*
X91756564Y-81039389D01*
G37*
G36*
X85256564Y-81039389D02*
G01*
X85447833Y-81118615D01*
X85447835Y-81118616D01*
X85499053Y-81152839D01*
X85619973Y-81233635D01*
X85766365Y-81380027D01*
X85881385Y-81552167D01*
X85960611Y-81743436D01*
X86001000Y-81946484D01*
X86001000Y-82153516D01*
X85960611Y-82356564D01*
X85887439Y-82533218D01*
X85881384Y-82547835D01*
X85766365Y-82719973D01*
X85619973Y-82866365D01*
X85447835Y-82981384D01*
X85447834Y-82981385D01*
X85447833Y-82981385D01*
X85256564Y-83060611D01*
X85053516Y-83101000D01*
X84846484Y-83101000D01*
X84643436Y-83060611D01*
X84452167Y-82981385D01*
X84452166Y-82981385D01*
X84452165Y-82981384D01*
X84280027Y-82866365D01*
X84133635Y-82719973D01*
X84018616Y-82547835D01*
X84012561Y-82533218D01*
X83939389Y-82356564D01*
X83899000Y-82153516D01*
X83899000Y-81946484D01*
X83939389Y-81743436D01*
X84018615Y-81552167D01*
X84133635Y-81380027D01*
X84280027Y-81233635D01*
X84400947Y-81152839D01*
X84452165Y-81118616D01*
X84452167Y-81118615D01*
X84643436Y-81039389D01*
X84846484Y-80999000D01*
X85053516Y-80999000D01*
X85256564Y-81039389D01*
G37*
M02*
