%TF.GenerationSoftware,KiCad,Pcbnew,5.1.5*%
%TF.CreationDate,2020-05-04T11:32:26+02:00*%
%TF.ProjectId,atmega-dcf77-clock,61746d65-6761-42d6-9463-6637372d636c,rev?*%
%TF.SameCoordinates,Original*%
%TF.FileFunction,Copper,L2,Bot*%
%TF.FilePolarity,Positive*%
%FSLAX46Y46*%
G04 Gerber Fmt 4.6, Leading zero omitted, Abs format (unit mm)*
G04 Created by KiCad (PCBNEW 5.1.5) date 2020-05-04 11:32:26*
%MOMM*%
%LPD*%
G04 APERTURE LIST*
%ADD10O,1.700000X1.700000*%
%ADD11R,1.700000X1.700000*%
%ADD12R,1.600000X1.600000*%
%ADD13O,1.600000X1.600000*%
%ADD14C,1.600000*%
%ADD15C,2.000000*%
%ADD16C,0.100000*%
%ADD17R,3.500000X3.500000*%
%ADD18C,1.800000*%
%ADD19R,1.800000X1.800000*%
%ADD20C,1.000000*%
%ADD21C,0.250000*%
%ADD22C,0.254000*%
G04 APERTURE END LIST*
D10*
X76660000Y-82960000D03*
X76660000Y-85500000D03*
X74120000Y-82960000D03*
X74120000Y-85500000D03*
X71580000Y-82960000D03*
X71580000Y-85500000D03*
X69040000Y-82960000D03*
X69040000Y-85500000D03*
X66500000Y-82960000D03*
D11*
X66500000Y-85500000D03*
D12*
X103550000Y-98600000D03*
D13*
X55290000Y-113840000D03*
X101010000Y-98600000D03*
X57830000Y-113840000D03*
X98470000Y-98600000D03*
X60370000Y-113840000D03*
X95930000Y-98600000D03*
X62910000Y-113840000D03*
X93390000Y-98600000D03*
X65450000Y-113840000D03*
X90850000Y-98600000D03*
X67990000Y-113840000D03*
X88310000Y-98600000D03*
X70530000Y-113840000D03*
X85770000Y-98600000D03*
X73070000Y-113840000D03*
X83230000Y-98600000D03*
X75610000Y-113840000D03*
X80690000Y-98600000D03*
X78150000Y-113840000D03*
X78150000Y-98600000D03*
X80690000Y-113840000D03*
X75610000Y-98600000D03*
X83230000Y-113840000D03*
X73070000Y-98600000D03*
X85770000Y-113840000D03*
X70530000Y-98600000D03*
X88310000Y-113840000D03*
X67990000Y-98600000D03*
X90850000Y-113840000D03*
X65450000Y-98600000D03*
X93390000Y-113840000D03*
X62910000Y-98600000D03*
X95930000Y-113840000D03*
X60370000Y-98600000D03*
X98470000Y-113840000D03*
X57830000Y-98600000D03*
X101010000Y-113840000D03*
X55290000Y-98600000D03*
X103550000Y-113840000D03*
D14*
X76350000Y-90200000D03*
D12*
X76350000Y-92200000D03*
D10*
X104900000Y-90200000D03*
X107440000Y-90200000D03*
X104900000Y-92740000D03*
X107440000Y-92740000D03*
X104900000Y-95280000D03*
D11*
X107440000Y-95280000D03*
D14*
X78200000Y-95250000D03*
X80700000Y-95250000D03*
X80700000Y-117000000D03*
X78200000Y-117000000D03*
X69750000Y-89900000D03*
D12*
X69750000Y-92400000D03*
D10*
X50450000Y-109120000D03*
X50450000Y-106580000D03*
X50450000Y-104040000D03*
D11*
X50450000Y-101500000D03*
D13*
X55300000Y-88480000D03*
X62920000Y-96100000D03*
X57840000Y-88480000D03*
X60380000Y-96100000D03*
X60380000Y-88480000D03*
X57840000Y-96100000D03*
X62920000Y-88480000D03*
D12*
X55300000Y-96100000D03*
D15*
X84950000Y-86550000D03*
X84950000Y-82050000D03*
X91450000Y-86550000D03*
X91450000Y-82050000D03*
X101300000Y-82050000D03*
X101300000Y-86550000D03*
X94800000Y-82050000D03*
X94800000Y-86550000D03*
D14*
X45950000Y-111750000D03*
D13*
X45950000Y-101590000D03*
X42800000Y-111760000D03*
D14*
X42800000Y-101600000D03*
D13*
X94610000Y-90000000D03*
D14*
X84450000Y-90000000D03*
D13*
X94560000Y-93250000D03*
D14*
X84400000Y-93250000D03*
%TA.AperFunction,ComponentPad*%
D16*
G36*
X48160765Y-95254213D02*
G01*
X48245704Y-95266813D01*
X48328999Y-95287677D01*
X48409848Y-95316605D01*
X48487472Y-95353319D01*
X48561124Y-95397464D01*
X48630094Y-95448616D01*
X48693718Y-95506282D01*
X48751384Y-95569906D01*
X48802536Y-95638876D01*
X48846681Y-95712528D01*
X48883395Y-95790152D01*
X48912323Y-95871001D01*
X48933187Y-95954296D01*
X48945787Y-96039235D01*
X48950000Y-96125000D01*
X48950000Y-97875000D01*
X48945787Y-97960765D01*
X48933187Y-98045704D01*
X48912323Y-98128999D01*
X48883395Y-98209848D01*
X48846681Y-98287472D01*
X48802536Y-98361124D01*
X48751384Y-98430094D01*
X48693718Y-98493718D01*
X48630094Y-98551384D01*
X48561124Y-98602536D01*
X48487472Y-98646681D01*
X48409848Y-98683395D01*
X48328999Y-98712323D01*
X48245704Y-98733187D01*
X48160765Y-98745787D01*
X48075000Y-98750000D01*
X46325000Y-98750000D01*
X46239235Y-98745787D01*
X46154296Y-98733187D01*
X46071001Y-98712323D01*
X45990152Y-98683395D01*
X45912528Y-98646681D01*
X45838876Y-98602536D01*
X45769906Y-98551384D01*
X45706282Y-98493718D01*
X45648616Y-98430094D01*
X45597464Y-98361124D01*
X45553319Y-98287472D01*
X45516605Y-98209848D01*
X45487677Y-98128999D01*
X45466813Y-98045704D01*
X45454213Y-97960765D01*
X45450000Y-97875000D01*
X45450000Y-96125000D01*
X45454213Y-96039235D01*
X45466813Y-95954296D01*
X45487677Y-95871001D01*
X45516605Y-95790152D01*
X45553319Y-95712528D01*
X45597464Y-95638876D01*
X45648616Y-95569906D01*
X45706282Y-95506282D01*
X45769906Y-95448616D01*
X45838876Y-95397464D01*
X45912528Y-95353319D01*
X45990152Y-95316605D01*
X46071001Y-95287677D01*
X46154296Y-95266813D01*
X46239235Y-95254213D01*
X46325000Y-95250000D01*
X48075000Y-95250000D01*
X48160765Y-95254213D01*
G37*
%TD.AperFunction*%
%TA.AperFunction,ComponentPad*%
G36*
X45023513Y-90553611D02*
G01*
X45096318Y-90564411D01*
X45167714Y-90582295D01*
X45237013Y-90607090D01*
X45303548Y-90638559D01*
X45366678Y-90676398D01*
X45425795Y-90720242D01*
X45480330Y-90769670D01*
X45529758Y-90824205D01*
X45573602Y-90883322D01*
X45611441Y-90946452D01*
X45642910Y-91012987D01*
X45667705Y-91082286D01*
X45685589Y-91153682D01*
X45696389Y-91226487D01*
X45700000Y-91300000D01*
X45700000Y-93300000D01*
X45696389Y-93373513D01*
X45685589Y-93446318D01*
X45667705Y-93517714D01*
X45642910Y-93587013D01*
X45611441Y-93653548D01*
X45573602Y-93716678D01*
X45529758Y-93775795D01*
X45480330Y-93830330D01*
X45425795Y-93879758D01*
X45366678Y-93923602D01*
X45303548Y-93961441D01*
X45237013Y-93992910D01*
X45167714Y-94017705D01*
X45096318Y-94035589D01*
X45023513Y-94046389D01*
X44950000Y-94050000D01*
X43450000Y-94050000D01*
X43376487Y-94046389D01*
X43303682Y-94035589D01*
X43232286Y-94017705D01*
X43162987Y-93992910D01*
X43096452Y-93961441D01*
X43033322Y-93923602D01*
X42974205Y-93879758D01*
X42919670Y-93830330D01*
X42870242Y-93775795D01*
X42826398Y-93716678D01*
X42788559Y-93653548D01*
X42757090Y-93587013D01*
X42732295Y-93517714D01*
X42714411Y-93446318D01*
X42703611Y-93373513D01*
X42700000Y-93300000D01*
X42700000Y-91300000D01*
X42703611Y-91226487D01*
X42714411Y-91153682D01*
X42732295Y-91082286D01*
X42757090Y-91012987D01*
X42788559Y-90946452D01*
X42826398Y-90883322D01*
X42870242Y-90824205D01*
X42919670Y-90769670D01*
X42974205Y-90720242D01*
X43033322Y-90676398D01*
X43096452Y-90638559D01*
X43162987Y-90607090D01*
X43232286Y-90582295D01*
X43303682Y-90564411D01*
X43376487Y-90553611D01*
X43450000Y-90550000D01*
X44950000Y-90550000D01*
X45023513Y-90553611D01*
G37*
%TD.AperFunction*%
D17*
X50200000Y-92300000D03*
D18*
X57740000Y-83800000D03*
D19*
X55200000Y-83800000D03*
D18*
X51140000Y-83800000D03*
D19*
X48600000Y-83800000D03*
D20*
X84950000Y-86550000D02*
X91450000Y-86550000D01*
X94800000Y-86550000D02*
X101300000Y-86550000D01*
X80700000Y-113850000D02*
X80690000Y-113840000D01*
X78200000Y-98550000D02*
X78150000Y-98600000D01*
X80690000Y-98600000D02*
X80690000Y-105110000D01*
X78150000Y-107650000D02*
X78150000Y-113840000D01*
X80690000Y-105110000D02*
X78150000Y-107650000D01*
X78200000Y-113890000D02*
X78150000Y-113840000D01*
X80700000Y-98590000D02*
X80690000Y-98600000D01*
D21*
X70530000Y-98600000D02*
X73600000Y-95530000D01*
X73600000Y-88560000D02*
X76660000Y-85500000D01*
X73600000Y-95530000D02*
X73600000Y-88560000D01*
X103695001Y-98399997D02*
X103695001Y-99190001D01*
D20*
X94800000Y-82050000D02*
X101300000Y-82050000D01*
D21*
X101300000Y-82050000D02*
X102900000Y-83650000D01*
X102900000Y-83650000D02*
X102900000Y-87750000D01*
X102900000Y-87750000D02*
X102150000Y-88500000D01*
X102150000Y-88500000D02*
X97450000Y-88500000D01*
X97450000Y-88500000D02*
X96200000Y-89750000D01*
X96200000Y-91610000D02*
X94560000Y-93250000D01*
X96200000Y-89750000D02*
X96200000Y-91610000D01*
X98470000Y-97160000D02*
X94560000Y-93250000D01*
X98470000Y-98600000D02*
X98470000Y-97160000D01*
D20*
X84950000Y-82050000D02*
X91450000Y-82050000D01*
D21*
X83230000Y-97468630D02*
X83848630Y-96850000D01*
X83230000Y-98600000D02*
X83230000Y-97468630D01*
X83848630Y-96850000D02*
X91600000Y-96850000D01*
X91600000Y-96850000D02*
X93050000Y-95400000D01*
X93050000Y-91560000D02*
X94610000Y-90000000D01*
X93050000Y-95400000D02*
X93050000Y-91560000D01*
D22*
G36*
X42559750Y-80740915D02*
G01*
X42234636Y-80958149D01*
X41958149Y-81234636D01*
X41740915Y-81559750D01*
X41591282Y-81920997D01*
X41515000Y-82304495D01*
X41515000Y-82695505D01*
X41591282Y-83079003D01*
X41740915Y-83440250D01*
X41958149Y-83765364D01*
X42234636Y-84041851D01*
X42559750Y-84259085D01*
X42920997Y-84408718D01*
X43304495Y-84485000D01*
X43695505Y-84485000D01*
X44079003Y-84408718D01*
X44440250Y-84259085D01*
X44765364Y-84041851D01*
X45041851Y-83765364D01*
X45259085Y-83440250D01*
X45408718Y-83079003D01*
X45444323Y-82900000D01*
X47061928Y-82900000D01*
X47065000Y-83514250D01*
X47223750Y-83673000D01*
X48473000Y-83673000D01*
X48473000Y-82423750D01*
X48727000Y-82423750D01*
X48727000Y-83673000D01*
X48747000Y-83673000D01*
X48747000Y-83927000D01*
X48727000Y-83927000D01*
X48727000Y-85176250D01*
X48885750Y-85335000D01*
X49500000Y-85338072D01*
X49624482Y-85325812D01*
X49744180Y-85289502D01*
X49854494Y-85230537D01*
X49951185Y-85151185D01*
X50030537Y-85054494D01*
X50089502Y-84944180D01*
X50095056Y-84925873D01*
X50161495Y-84992312D01*
X50412905Y-85160299D01*
X50692257Y-85276011D01*
X50988816Y-85335000D01*
X51291184Y-85335000D01*
X51587743Y-85276011D01*
X51867095Y-85160299D01*
X52118505Y-84992312D01*
X52332312Y-84778505D01*
X52384767Y-84700000D01*
X53661928Y-84700000D01*
X53674188Y-84824482D01*
X53710498Y-84944180D01*
X53769463Y-85054494D01*
X53848815Y-85151185D01*
X53945506Y-85230537D01*
X54055820Y-85289502D01*
X54175518Y-85325812D01*
X54300000Y-85338072D01*
X54914250Y-85335000D01*
X55073000Y-85176250D01*
X55073000Y-83927000D01*
X53823750Y-83927000D01*
X53665000Y-84085750D01*
X53661928Y-84700000D01*
X52384767Y-84700000D01*
X52500299Y-84527095D01*
X52616011Y-84247743D01*
X52675000Y-83951184D01*
X52675000Y-83648816D01*
X52616011Y-83352257D01*
X52500299Y-83072905D01*
X52384768Y-82900000D01*
X53661928Y-82900000D01*
X53665000Y-83514250D01*
X53823750Y-83673000D01*
X55073000Y-83673000D01*
X55073000Y-82423750D01*
X55327000Y-82423750D01*
X55327000Y-83673000D01*
X55347000Y-83673000D01*
X55347000Y-83927000D01*
X55327000Y-83927000D01*
X55327000Y-85176250D01*
X55485750Y-85335000D01*
X56100000Y-85338072D01*
X56224482Y-85325812D01*
X56344180Y-85289502D01*
X56454494Y-85230537D01*
X56551185Y-85151185D01*
X56630537Y-85054494D01*
X56689502Y-84944180D01*
X56695056Y-84925873D01*
X56761495Y-84992312D01*
X57012905Y-85160299D01*
X57292257Y-85276011D01*
X57588816Y-85335000D01*
X57891184Y-85335000D01*
X58187743Y-85276011D01*
X58467095Y-85160299D01*
X58718505Y-84992312D01*
X58932312Y-84778505D01*
X59100299Y-84527095D01*
X59216011Y-84247743D01*
X59275000Y-83951184D01*
X59275000Y-83648816D01*
X59216011Y-83352257D01*
X59100299Y-83072905D01*
X58932312Y-82821495D01*
X58718505Y-82607688D01*
X58467095Y-82439701D01*
X58187743Y-82323989D01*
X57891184Y-82265000D01*
X57588816Y-82265000D01*
X57292257Y-82323989D01*
X57012905Y-82439701D01*
X56761495Y-82607688D01*
X56695056Y-82674127D01*
X56689502Y-82655820D01*
X56630537Y-82545506D01*
X56551185Y-82448815D01*
X56454494Y-82369463D01*
X56344180Y-82310498D01*
X56224482Y-82274188D01*
X56100000Y-82261928D01*
X55485750Y-82265000D01*
X55327000Y-82423750D01*
X55073000Y-82423750D01*
X54914250Y-82265000D01*
X54300000Y-82261928D01*
X54175518Y-82274188D01*
X54055820Y-82310498D01*
X53945506Y-82369463D01*
X53848815Y-82448815D01*
X53769463Y-82545506D01*
X53710498Y-82655820D01*
X53674188Y-82775518D01*
X53661928Y-82900000D01*
X52384768Y-82900000D01*
X52332312Y-82821495D01*
X52118505Y-82607688D01*
X51867095Y-82439701D01*
X51587743Y-82323989D01*
X51291184Y-82265000D01*
X50988816Y-82265000D01*
X50692257Y-82323989D01*
X50412905Y-82439701D01*
X50161495Y-82607688D01*
X50095056Y-82674127D01*
X50089502Y-82655820D01*
X50030537Y-82545506D01*
X49951185Y-82448815D01*
X49854494Y-82369463D01*
X49744180Y-82310498D01*
X49624482Y-82274188D01*
X49500000Y-82261928D01*
X48885750Y-82265000D01*
X48727000Y-82423750D01*
X48473000Y-82423750D01*
X48314250Y-82265000D01*
X47700000Y-82261928D01*
X47575518Y-82274188D01*
X47455820Y-82310498D01*
X47345506Y-82369463D01*
X47248815Y-82448815D01*
X47169463Y-82545506D01*
X47110498Y-82655820D01*
X47074188Y-82775518D01*
X47061928Y-82900000D01*
X45444323Y-82900000D01*
X45485000Y-82695505D01*
X45485000Y-82304495D01*
X45408718Y-81920997D01*
X45259085Y-81559750D01*
X45041851Y-81234636D01*
X44765364Y-80958149D01*
X44440250Y-80740915D01*
X44244903Y-80660000D01*
X84087360Y-80660000D01*
X83907748Y-80780013D01*
X83680013Y-81007748D01*
X83501082Y-81275537D01*
X83377832Y-81573088D01*
X83315000Y-81888967D01*
X83315000Y-82211033D01*
X83377832Y-82526912D01*
X83501082Y-82824463D01*
X83680013Y-83092252D01*
X83907748Y-83319987D01*
X84175537Y-83498918D01*
X84473088Y-83622168D01*
X84788967Y-83685000D01*
X85111033Y-83685000D01*
X85426912Y-83622168D01*
X85724463Y-83498918D01*
X85992252Y-83319987D01*
X86127239Y-83185000D01*
X90272761Y-83185000D01*
X90407748Y-83319987D01*
X90675537Y-83498918D01*
X90973088Y-83622168D01*
X91288967Y-83685000D01*
X91611033Y-83685000D01*
X91926912Y-83622168D01*
X92224463Y-83498918D01*
X92492252Y-83319987D01*
X92719987Y-83092252D01*
X92898918Y-82824463D01*
X93022168Y-82526912D01*
X93085000Y-82211033D01*
X93085000Y-81888967D01*
X93022168Y-81573088D01*
X92898918Y-81275537D01*
X92719987Y-81007748D01*
X92492252Y-80780013D01*
X92312640Y-80660000D01*
X93937360Y-80660000D01*
X93757748Y-80780013D01*
X93530013Y-81007748D01*
X93351082Y-81275537D01*
X93227832Y-81573088D01*
X93165000Y-81888967D01*
X93165000Y-82211033D01*
X93227832Y-82526912D01*
X93351082Y-82824463D01*
X93530013Y-83092252D01*
X93757748Y-83319987D01*
X94025537Y-83498918D01*
X94323088Y-83622168D01*
X94638967Y-83685000D01*
X94961033Y-83685000D01*
X95276912Y-83622168D01*
X95574463Y-83498918D01*
X95842252Y-83319987D01*
X95977239Y-83185000D01*
X100122761Y-83185000D01*
X100257748Y-83319987D01*
X100525537Y-83498918D01*
X100823088Y-83622168D01*
X101138967Y-83685000D01*
X101461033Y-83685000D01*
X101776912Y-83622168D01*
X101791375Y-83616177D01*
X102140000Y-83964802D01*
X102140000Y-85140435D01*
X101870429Y-85009296D01*
X101558892Y-84927616D01*
X101237405Y-84908282D01*
X100918325Y-84952039D01*
X100613912Y-85057205D01*
X100439956Y-85150186D01*
X100344192Y-85414587D01*
X101300000Y-86370395D01*
X101314143Y-86356253D01*
X101493748Y-86535858D01*
X101479605Y-86550000D01*
X101493748Y-86564143D01*
X101314143Y-86743748D01*
X101300000Y-86729605D01*
X100344192Y-87685413D01*
X100363963Y-87740000D01*
X97487323Y-87740000D01*
X97450000Y-87736324D01*
X97412677Y-87740000D01*
X97412667Y-87740000D01*
X97301014Y-87750997D01*
X97157753Y-87794454D01*
X97025723Y-87865026D01*
X96984342Y-87898987D01*
X96909999Y-87959999D01*
X96886201Y-87988997D01*
X95750801Y-89124398D01*
X95724637Y-89085241D01*
X95524759Y-88885363D01*
X95289727Y-88728320D01*
X95028574Y-88620147D01*
X94751335Y-88565000D01*
X94468665Y-88565000D01*
X94191426Y-88620147D01*
X93930273Y-88728320D01*
X93695241Y-88885363D01*
X93495363Y-89085241D01*
X93338320Y-89320273D01*
X93230147Y-89581426D01*
X93175000Y-89858665D01*
X93175000Y-90141335D01*
X93211312Y-90323886D01*
X92538998Y-90996201D01*
X92510000Y-91019999D01*
X92486202Y-91048997D01*
X92486201Y-91048998D01*
X92415026Y-91135724D01*
X92344454Y-91267754D01*
X92318452Y-91353475D01*
X92310451Y-91379853D01*
X92300998Y-91411015D01*
X92286324Y-91560000D01*
X92290001Y-91597332D01*
X92290000Y-95085198D01*
X91285199Y-96090000D01*
X83885953Y-96090000D01*
X83848630Y-96086324D01*
X83811307Y-96090000D01*
X83811297Y-96090000D01*
X83699644Y-96100997D01*
X83556383Y-96144454D01*
X83424353Y-96215026D01*
X83346398Y-96279003D01*
X83308629Y-96309999D01*
X83284830Y-96338998D01*
X82718998Y-96904831D01*
X82690000Y-96928629D01*
X82666202Y-96957627D01*
X82666201Y-96957628D01*
X82595026Y-97044354D01*
X82524454Y-97176384D01*
X82502502Y-97248754D01*
X82480998Y-97319644D01*
X82476047Y-97369915D01*
X82475203Y-97378480D01*
X82315241Y-97485363D01*
X82115363Y-97685241D01*
X81960000Y-97917759D01*
X81804637Y-97685241D01*
X81604759Y-97485363D01*
X81369727Y-97328320D01*
X81108574Y-97220147D01*
X80831335Y-97165000D01*
X80548665Y-97165000D01*
X80271426Y-97220147D01*
X80010273Y-97328320D01*
X79775241Y-97485363D01*
X79575363Y-97685241D01*
X79418320Y-97920273D01*
X79413933Y-97930865D01*
X79302385Y-97744869D01*
X79113414Y-97536481D01*
X78887420Y-97368963D01*
X78633087Y-97248754D01*
X78499039Y-97208096D01*
X78277000Y-97330085D01*
X78277000Y-98473000D01*
X78297000Y-98473000D01*
X78297000Y-98727000D01*
X78277000Y-98727000D01*
X78277000Y-99869915D01*
X78499039Y-99991904D01*
X78633087Y-99951246D01*
X78887420Y-99831037D01*
X79113414Y-99663519D01*
X79302385Y-99455131D01*
X79413933Y-99269135D01*
X79418320Y-99279727D01*
X79555000Y-99484284D01*
X79555001Y-104639867D01*
X77386865Y-106808004D01*
X77343551Y-106843551D01*
X77201716Y-107016377D01*
X77096325Y-107213553D01*
X77096324Y-107213554D01*
X77031423Y-107427502D01*
X77009509Y-107650000D01*
X77015000Y-107705752D01*
X77015001Y-112955715D01*
X76880000Y-113157759D01*
X76724637Y-112925241D01*
X76524759Y-112725363D01*
X76289727Y-112568320D01*
X76028574Y-112460147D01*
X75751335Y-112405000D01*
X75468665Y-112405000D01*
X75191426Y-112460147D01*
X74930273Y-112568320D01*
X74695241Y-112725363D01*
X74495363Y-112925241D01*
X74340000Y-113157759D01*
X74184637Y-112925241D01*
X73984759Y-112725363D01*
X73749727Y-112568320D01*
X73488574Y-112460147D01*
X73211335Y-112405000D01*
X72928665Y-112405000D01*
X72651426Y-112460147D01*
X72390273Y-112568320D01*
X72155241Y-112725363D01*
X71955363Y-112925241D01*
X71800000Y-113157759D01*
X71644637Y-112925241D01*
X71444759Y-112725363D01*
X71209727Y-112568320D01*
X70948574Y-112460147D01*
X70671335Y-112405000D01*
X70388665Y-112405000D01*
X70111426Y-112460147D01*
X69850273Y-112568320D01*
X69615241Y-112725363D01*
X69415363Y-112925241D01*
X69260000Y-113157759D01*
X69104637Y-112925241D01*
X68904759Y-112725363D01*
X68669727Y-112568320D01*
X68408574Y-112460147D01*
X68131335Y-112405000D01*
X67848665Y-112405000D01*
X67571426Y-112460147D01*
X67310273Y-112568320D01*
X67075241Y-112725363D01*
X66875363Y-112925241D01*
X66720000Y-113157759D01*
X66564637Y-112925241D01*
X66364759Y-112725363D01*
X66129727Y-112568320D01*
X65868574Y-112460147D01*
X65591335Y-112405000D01*
X65308665Y-112405000D01*
X65031426Y-112460147D01*
X64770273Y-112568320D01*
X64535241Y-112725363D01*
X64335363Y-112925241D01*
X64180000Y-113157759D01*
X64024637Y-112925241D01*
X63824759Y-112725363D01*
X63589727Y-112568320D01*
X63328574Y-112460147D01*
X63051335Y-112405000D01*
X62768665Y-112405000D01*
X62491426Y-112460147D01*
X62230273Y-112568320D01*
X61995241Y-112725363D01*
X61795363Y-112925241D01*
X61640000Y-113157759D01*
X61484637Y-112925241D01*
X61284759Y-112725363D01*
X61049727Y-112568320D01*
X60788574Y-112460147D01*
X60511335Y-112405000D01*
X60228665Y-112405000D01*
X59951426Y-112460147D01*
X59690273Y-112568320D01*
X59455241Y-112725363D01*
X59255363Y-112925241D01*
X59100000Y-113157759D01*
X58944637Y-112925241D01*
X58744759Y-112725363D01*
X58509727Y-112568320D01*
X58248574Y-112460147D01*
X57971335Y-112405000D01*
X57688665Y-112405000D01*
X57411426Y-112460147D01*
X57150273Y-112568320D01*
X56915241Y-112725363D01*
X56715363Y-112925241D01*
X56560000Y-113157759D01*
X56404637Y-112925241D01*
X56204759Y-112725363D01*
X55969727Y-112568320D01*
X55708574Y-112460147D01*
X55431335Y-112405000D01*
X55148665Y-112405000D01*
X54871426Y-112460147D01*
X54610273Y-112568320D01*
X54375241Y-112725363D01*
X54175363Y-112925241D01*
X54018320Y-113160273D01*
X53910147Y-113421426D01*
X53855000Y-113698665D01*
X53855000Y-113981335D01*
X53910147Y-114258574D01*
X54018320Y-114519727D01*
X54175363Y-114754759D01*
X54375241Y-114954637D01*
X54610273Y-115111680D01*
X54871426Y-115219853D01*
X55148665Y-115275000D01*
X55431335Y-115275000D01*
X55708574Y-115219853D01*
X55969727Y-115111680D01*
X56204759Y-114954637D01*
X56404637Y-114754759D01*
X56560000Y-114522241D01*
X56715363Y-114754759D01*
X56915241Y-114954637D01*
X57150273Y-115111680D01*
X57411426Y-115219853D01*
X57688665Y-115275000D01*
X57971335Y-115275000D01*
X58248574Y-115219853D01*
X58509727Y-115111680D01*
X58744759Y-114954637D01*
X58944637Y-114754759D01*
X59100000Y-114522241D01*
X59255363Y-114754759D01*
X59455241Y-114954637D01*
X59690273Y-115111680D01*
X59951426Y-115219853D01*
X60228665Y-115275000D01*
X60511335Y-115275000D01*
X60788574Y-115219853D01*
X61049727Y-115111680D01*
X61284759Y-114954637D01*
X61484637Y-114754759D01*
X61640000Y-114522241D01*
X61795363Y-114754759D01*
X61995241Y-114954637D01*
X62230273Y-115111680D01*
X62491426Y-115219853D01*
X62768665Y-115275000D01*
X63051335Y-115275000D01*
X63328574Y-115219853D01*
X63589727Y-115111680D01*
X63824759Y-114954637D01*
X64024637Y-114754759D01*
X64180000Y-114522241D01*
X64335363Y-114754759D01*
X64535241Y-114954637D01*
X64770273Y-115111680D01*
X65031426Y-115219853D01*
X65308665Y-115275000D01*
X65591335Y-115275000D01*
X65868574Y-115219853D01*
X66129727Y-115111680D01*
X66364759Y-114954637D01*
X66564637Y-114754759D01*
X66720000Y-114522241D01*
X66875363Y-114754759D01*
X67075241Y-114954637D01*
X67310273Y-115111680D01*
X67571426Y-115219853D01*
X67848665Y-115275000D01*
X68131335Y-115275000D01*
X68408574Y-115219853D01*
X68669727Y-115111680D01*
X68904759Y-114954637D01*
X69104637Y-114754759D01*
X69260000Y-114522241D01*
X69415363Y-114754759D01*
X69615241Y-114954637D01*
X69850273Y-115111680D01*
X70111426Y-115219853D01*
X70388665Y-115275000D01*
X70671335Y-115275000D01*
X70948574Y-115219853D01*
X71209727Y-115111680D01*
X71444759Y-114954637D01*
X71644637Y-114754759D01*
X71800000Y-114522241D01*
X71955363Y-114754759D01*
X72155241Y-114954637D01*
X72390273Y-115111680D01*
X72651426Y-115219853D01*
X72928665Y-115275000D01*
X73211335Y-115275000D01*
X73488574Y-115219853D01*
X73749727Y-115111680D01*
X73984759Y-114954637D01*
X74184637Y-114754759D01*
X74340000Y-114522241D01*
X74495363Y-114754759D01*
X74695241Y-114954637D01*
X74930273Y-115111680D01*
X75191426Y-115219853D01*
X75468665Y-115275000D01*
X75751335Y-115275000D01*
X76028574Y-115219853D01*
X76289727Y-115111680D01*
X76524759Y-114954637D01*
X76724637Y-114754759D01*
X76880000Y-114522241D01*
X77035363Y-114754759D01*
X77235241Y-114954637D01*
X77470273Y-115111680D01*
X77731426Y-115219853D01*
X78008665Y-115275000D01*
X78291335Y-115275000D01*
X78568574Y-115219853D01*
X78829727Y-115111680D01*
X79064759Y-114954637D01*
X79264637Y-114754759D01*
X79421680Y-114519727D01*
X79426067Y-114509135D01*
X79537615Y-114695131D01*
X79726586Y-114903519D01*
X79952580Y-115071037D01*
X80206913Y-115191246D01*
X80340961Y-115231904D01*
X80563000Y-115109915D01*
X80563000Y-113967000D01*
X80543000Y-113967000D01*
X80543000Y-113713000D01*
X80563000Y-113713000D01*
X80563000Y-112570085D01*
X80817000Y-112570085D01*
X80817000Y-113713000D01*
X80837000Y-113713000D01*
X80837000Y-113967000D01*
X80817000Y-113967000D01*
X80817000Y-115109915D01*
X81039039Y-115231904D01*
X81173087Y-115191246D01*
X81427420Y-115071037D01*
X81653414Y-114903519D01*
X81842385Y-114695131D01*
X81953933Y-114509135D01*
X81958320Y-114519727D01*
X82115363Y-114754759D01*
X82315241Y-114954637D01*
X82550273Y-115111680D01*
X82811426Y-115219853D01*
X83088665Y-115275000D01*
X83371335Y-115275000D01*
X83648574Y-115219853D01*
X83909727Y-115111680D01*
X84144759Y-114954637D01*
X84344637Y-114754759D01*
X84500000Y-114522241D01*
X84655363Y-114754759D01*
X84855241Y-114954637D01*
X85090273Y-115111680D01*
X85351426Y-115219853D01*
X85628665Y-115275000D01*
X85911335Y-115275000D01*
X86188574Y-115219853D01*
X86449727Y-115111680D01*
X86684759Y-114954637D01*
X86884637Y-114754759D01*
X87040000Y-114522241D01*
X87195363Y-114754759D01*
X87395241Y-114954637D01*
X87630273Y-115111680D01*
X87891426Y-115219853D01*
X88168665Y-115275000D01*
X88451335Y-115275000D01*
X88728574Y-115219853D01*
X88989727Y-115111680D01*
X89224759Y-114954637D01*
X89424637Y-114754759D01*
X89580000Y-114522241D01*
X89735363Y-114754759D01*
X89935241Y-114954637D01*
X90170273Y-115111680D01*
X90431426Y-115219853D01*
X90708665Y-115275000D01*
X90991335Y-115275000D01*
X91268574Y-115219853D01*
X91529727Y-115111680D01*
X91764759Y-114954637D01*
X91964637Y-114754759D01*
X92120000Y-114522241D01*
X92275363Y-114754759D01*
X92475241Y-114954637D01*
X92710273Y-115111680D01*
X92971426Y-115219853D01*
X93248665Y-115275000D01*
X93531335Y-115275000D01*
X93808574Y-115219853D01*
X94069727Y-115111680D01*
X94304759Y-114954637D01*
X94504637Y-114754759D01*
X94660000Y-114522241D01*
X94815363Y-114754759D01*
X95015241Y-114954637D01*
X95250273Y-115111680D01*
X95511426Y-115219853D01*
X95788665Y-115275000D01*
X96071335Y-115275000D01*
X96348574Y-115219853D01*
X96609727Y-115111680D01*
X96844759Y-114954637D01*
X97044637Y-114754759D01*
X97200000Y-114522241D01*
X97355363Y-114754759D01*
X97555241Y-114954637D01*
X97790273Y-115111680D01*
X98051426Y-115219853D01*
X98328665Y-115275000D01*
X98611335Y-115275000D01*
X98888574Y-115219853D01*
X99149727Y-115111680D01*
X99384759Y-114954637D01*
X99584637Y-114754759D01*
X99740000Y-114522241D01*
X99895363Y-114754759D01*
X100095241Y-114954637D01*
X100330273Y-115111680D01*
X100591426Y-115219853D01*
X100868665Y-115275000D01*
X101151335Y-115275000D01*
X101428574Y-115219853D01*
X101689727Y-115111680D01*
X101924759Y-114954637D01*
X102124637Y-114754759D01*
X102280000Y-114522241D01*
X102435363Y-114754759D01*
X102635241Y-114954637D01*
X102870273Y-115111680D01*
X103131426Y-115219853D01*
X103408665Y-115275000D01*
X103691335Y-115275000D01*
X103968574Y-115219853D01*
X104229727Y-115111680D01*
X104464759Y-114954637D01*
X104664637Y-114754759D01*
X104821680Y-114519727D01*
X104929853Y-114258574D01*
X104985000Y-113981335D01*
X104985000Y-113698665D01*
X104929853Y-113421426D01*
X104821680Y-113160273D01*
X104664637Y-112925241D01*
X104464759Y-112725363D01*
X104229727Y-112568320D01*
X103968574Y-112460147D01*
X103691335Y-112405000D01*
X103408665Y-112405000D01*
X103131426Y-112460147D01*
X102870273Y-112568320D01*
X102635241Y-112725363D01*
X102435363Y-112925241D01*
X102280000Y-113157759D01*
X102124637Y-112925241D01*
X101924759Y-112725363D01*
X101689727Y-112568320D01*
X101428574Y-112460147D01*
X101151335Y-112405000D01*
X100868665Y-112405000D01*
X100591426Y-112460147D01*
X100330273Y-112568320D01*
X100095241Y-112725363D01*
X99895363Y-112925241D01*
X99740000Y-113157759D01*
X99584637Y-112925241D01*
X99384759Y-112725363D01*
X99149727Y-112568320D01*
X98888574Y-112460147D01*
X98611335Y-112405000D01*
X98328665Y-112405000D01*
X98051426Y-112460147D01*
X97790273Y-112568320D01*
X97555241Y-112725363D01*
X97355363Y-112925241D01*
X97200000Y-113157759D01*
X97044637Y-112925241D01*
X96844759Y-112725363D01*
X96609727Y-112568320D01*
X96348574Y-112460147D01*
X96071335Y-112405000D01*
X95788665Y-112405000D01*
X95511426Y-112460147D01*
X95250273Y-112568320D01*
X95015241Y-112725363D01*
X94815363Y-112925241D01*
X94660000Y-113157759D01*
X94504637Y-112925241D01*
X94304759Y-112725363D01*
X94069727Y-112568320D01*
X93808574Y-112460147D01*
X93531335Y-112405000D01*
X93248665Y-112405000D01*
X92971426Y-112460147D01*
X92710273Y-112568320D01*
X92475241Y-112725363D01*
X92275363Y-112925241D01*
X92120000Y-113157759D01*
X91964637Y-112925241D01*
X91764759Y-112725363D01*
X91529727Y-112568320D01*
X91268574Y-112460147D01*
X90991335Y-112405000D01*
X90708665Y-112405000D01*
X90431426Y-112460147D01*
X90170273Y-112568320D01*
X89935241Y-112725363D01*
X89735363Y-112925241D01*
X89580000Y-113157759D01*
X89424637Y-112925241D01*
X89224759Y-112725363D01*
X88989727Y-112568320D01*
X88728574Y-112460147D01*
X88451335Y-112405000D01*
X88168665Y-112405000D01*
X87891426Y-112460147D01*
X87630273Y-112568320D01*
X87395241Y-112725363D01*
X87195363Y-112925241D01*
X87040000Y-113157759D01*
X86884637Y-112925241D01*
X86684759Y-112725363D01*
X86449727Y-112568320D01*
X86188574Y-112460147D01*
X85911335Y-112405000D01*
X85628665Y-112405000D01*
X85351426Y-112460147D01*
X85090273Y-112568320D01*
X84855241Y-112725363D01*
X84655363Y-112925241D01*
X84500000Y-113157759D01*
X84344637Y-112925241D01*
X84144759Y-112725363D01*
X83909727Y-112568320D01*
X83648574Y-112460147D01*
X83371335Y-112405000D01*
X83088665Y-112405000D01*
X82811426Y-112460147D01*
X82550273Y-112568320D01*
X82315241Y-112725363D01*
X82115363Y-112925241D01*
X81958320Y-113160273D01*
X81953933Y-113170865D01*
X81842385Y-112984869D01*
X81653414Y-112776481D01*
X81427420Y-112608963D01*
X81173087Y-112488754D01*
X81039039Y-112448096D01*
X80817000Y-112570085D01*
X80563000Y-112570085D01*
X80340961Y-112448096D01*
X80206913Y-112488754D01*
X79952580Y-112608963D01*
X79726586Y-112776481D01*
X79537615Y-112984869D01*
X79426067Y-113170865D01*
X79421680Y-113160273D01*
X79285000Y-112955716D01*
X79285000Y-108120131D01*
X81453141Y-105951991D01*
X81496449Y-105916449D01*
X81638284Y-105743623D01*
X81743676Y-105546447D01*
X81808577Y-105332499D01*
X81825000Y-105165752D01*
X81825000Y-105165743D01*
X81830490Y-105110001D01*
X81825000Y-105054259D01*
X81825000Y-99484284D01*
X81960000Y-99282241D01*
X82115363Y-99514759D01*
X82315241Y-99714637D01*
X82550273Y-99871680D01*
X82811426Y-99979853D01*
X83088665Y-100035000D01*
X83371335Y-100035000D01*
X83648574Y-99979853D01*
X83909727Y-99871680D01*
X84144759Y-99714637D01*
X84344637Y-99514759D01*
X84500000Y-99282241D01*
X84655363Y-99514759D01*
X84855241Y-99714637D01*
X85090273Y-99871680D01*
X85351426Y-99979853D01*
X85628665Y-100035000D01*
X85911335Y-100035000D01*
X86188574Y-99979853D01*
X86449727Y-99871680D01*
X86684759Y-99714637D01*
X86884637Y-99514759D01*
X87040000Y-99282241D01*
X87195363Y-99514759D01*
X87395241Y-99714637D01*
X87630273Y-99871680D01*
X87891426Y-99979853D01*
X88168665Y-100035000D01*
X88451335Y-100035000D01*
X88728574Y-99979853D01*
X88989727Y-99871680D01*
X89224759Y-99714637D01*
X89424637Y-99514759D01*
X89580000Y-99282241D01*
X89735363Y-99514759D01*
X89935241Y-99714637D01*
X90170273Y-99871680D01*
X90431426Y-99979853D01*
X90708665Y-100035000D01*
X90991335Y-100035000D01*
X91268574Y-99979853D01*
X91529727Y-99871680D01*
X91764759Y-99714637D01*
X91964637Y-99514759D01*
X92120000Y-99282241D01*
X92275363Y-99514759D01*
X92475241Y-99714637D01*
X92710273Y-99871680D01*
X92971426Y-99979853D01*
X93248665Y-100035000D01*
X93531335Y-100035000D01*
X93808574Y-99979853D01*
X94069727Y-99871680D01*
X94304759Y-99714637D01*
X94504637Y-99514759D01*
X94660000Y-99282241D01*
X94815363Y-99514759D01*
X95015241Y-99714637D01*
X95250273Y-99871680D01*
X95511426Y-99979853D01*
X95788665Y-100035000D01*
X96071335Y-100035000D01*
X96348574Y-99979853D01*
X96609727Y-99871680D01*
X96844759Y-99714637D01*
X97044637Y-99514759D01*
X97200000Y-99282241D01*
X97355363Y-99514759D01*
X97555241Y-99714637D01*
X97790273Y-99871680D01*
X98051426Y-99979853D01*
X98328665Y-100035000D01*
X98611335Y-100035000D01*
X98888574Y-99979853D01*
X99149727Y-99871680D01*
X99384759Y-99714637D01*
X99584637Y-99514759D01*
X99740000Y-99282241D01*
X99895363Y-99514759D01*
X100095241Y-99714637D01*
X100330273Y-99871680D01*
X100591426Y-99979853D01*
X100868665Y-100035000D01*
X101151335Y-100035000D01*
X101428574Y-99979853D01*
X101689727Y-99871680D01*
X101924759Y-99714637D01*
X102123357Y-99516039D01*
X102124188Y-99524482D01*
X102160498Y-99644180D01*
X102219463Y-99754494D01*
X102298815Y-99851185D01*
X102395506Y-99930537D01*
X102505820Y-99989502D01*
X102625518Y-100025812D01*
X102750000Y-100038072D01*
X104350000Y-100038072D01*
X104474482Y-100025812D01*
X104594180Y-99989502D01*
X104704494Y-99930537D01*
X104801185Y-99851185D01*
X104880537Y-99754494D01*
X104939502Y-99644180D01*
X104975812Y-99524482D01*
X104988072Y-99400000D01*
X104988072Y-97800000D01*
X104975812Y-97675518D01*
X104939502Y-97555820D01*
X104880537Y-97445506D01*
X104801185Y-97348815D01*
X104704494Y-97269463D01*
X104594180Y-97210498D01*
X104474482Y-97174188D01*
X104350000Y-97161928D01*
X102750000Y-97161928D01*
X102625518Y-97174188D01*
X102505820Y-97210498D01*
X102395506Y-97269463D01*
X102298815Y-97348815D01*
X102219463Y-97445506D01*
X102160498Y-97555820D01*
X102124188Y-97675518D01*
X102123357Y-97683961D01*
X101924759Y-97485363D01*
X101689727Y-97328320D01*
X101428574Y-97220147D01*
X101151335Y-97165000D01*
X100868665Y-97165000D01*
X100591426Y-97220147D01*
X100330273Y-97328320D01*
X100095241Y-97485363D01*
X99895363Y-97685241D01*
X99740000Y-97917759D01*
X99584637Y-97685241D01*
X99384759Y-97485363D01*
X99230000Y-97381957D01*
X99230000Y-97197322D01*
X99233676Y-97159999D01*
X99230000Y-97122676D01*
X99230000Y-97122667D01*
X99219003Y-97011014D01*
X99175546Y-96867753D01*
X99157321Y-96833656D01*
X99104974Y-96735723D01*
X99033799Y-96648997D01*
X99010001Y-96619999D01*
X98981003Y-96596201D01*
X95958688Y-93573887D01*
X95995000Y-93391335D01*
X95995000Y-93108665D01*
X95958688Y-92926114D01*
X96291062Y-92593740D01*
X103415000Y-92593740D01*
X103415000Y-92886260D01*
X103472068Y-93173158D01*
X103584010Y-93443411D01*
X103746525Y-93686632D01*
X103953368Y-93893475D01*
X104127760Y-94010000D01*
X103953368Y-94126525D01*
X103746525Y-94333368D01*
X103584010Y-94576589D01*
X103472068Y-94846842D01*
X103415000Y-95133740D01*
X103415000Y-95426260D01*
X103472068Y-95713158D01*
X103584010Y-95983411D01*
X103746525Y-96226632D01*
X103953368Y-96433475D01*
X104196589Y-96595990D01*
X104466842Y-96707932D01*
X104753740Y-96765000D01*
X105046260Y-96765000D01*
X105333158Y-96707932D01*
X105603411Y-96595990D01*
X105846632Y-96433475D01*
X105978487Y-96301620D01*
X106000498Y-96374180D01*
X106059463Y-96484494D01*
X106138815Y-96581185D01*
X106235506Y-96660537D01*
X106345820Y-96719502D01*
X106465518Y-96755812D01*
X106590000Y-96768072D01*
X108290000Y-96768072D01*
X108414482Y-96755812D01*
X108534180Y-96719502D01*
X108644494Y-96660537D01*
X108741185Y-96581185D01*
X108820537Y-96484494D01*
X108879502Y-96374180D01*
X108915812Y-96254482D01*
X108928072Y-96130000D01*
X108928072Y-94430000D01*
X108915812Y-94305518D01*
X108879502Y-94185820D01*
X108820537Y-94075506D01*
X108741185Y-93978815D01*
X108644494Y-93899463D01*
X108534180Y-93840498D01*
X108461620Y-93818487D01*
X108593475Y-93686632D01*
X108755990Y-93443411D01*
X108867932Y-93173158D01*
X108925000Y-92886260D01*
X108925000Y-92593740D01*
X108867932Y-92306842D01*
X108755990Y-92036589D01*
X108593475Y-91793368D01*
X108386632Y-91586525D01*
X108212240Y-91470000D01*
X108386632Y-91353475D01*
X108593475Y-91146632D01*
X108755990Y-90903411D01*
X108867932Y-90633158D01*
X108925000Y-90346260D01*
X108925000Y-90053740D01*
X108867932Y-89766842D01*
X108755990Y-89496589D01*
X108593475Y-89253368D01*
X108386632Y-89046525D01*
X108143411Y-88884010D01*
X107873158Y-88772068D01*
X107586260Y-88715000D01*
X107293740Y-88715000D01*
X107006842Y-88772068D01*
X106736589Y-88884010D01*
X106493368Y-89046525D01*
X106286525Y-89253368D01*
X106168900Y-89429406D01*
X105997588Y-89199731D01*
X105781355Y-89004822D01*
X105531252Y-88855843D01*
X105256891Y-88758519D01*
X105027000Y-88879186D01*
X105027000Y-90073000D01*
X105047000Y-90073000D01*
X105047000Y-90327000D01*
X105027000Y-90327000D01*
X105027000Y-90347000D01*
X104773000Y-90347000D01*
X104773000Y-90327000D01*
X103579845Y-90327000D01*
X103458524Y-90556890D01*
X103503175Y-90704099D01*
X103628359Y-90966920D01*
X103802412Y-91200269D01*
X104018645Y-91395178D01*
X104135534Y-91464805D01*
X103953368Y-91586525D01*
X103746525Y-91793368D01*
X103584010Y-92036589D01*
X103472068Y-92306842D01*
X103415000Y-92593740D01*
X96291062Y-92593740D01*
X96711003Y-92173799D01*
X96740001Y-92150001D01*
X96834974Y-92034276D01*
X96905546Y-91902247D01*
X96949003Y-91758986D01*
X96960000Y-91647333D01*
X96960000Y-91647324D01*
X96963676Y-91610001D01*
X96960000Y-91572678D01*
X96960000Y-90064801D01*
X97181691Y-89843110D01*
X103458524Y-89843110D01*
X103579845Y-90073000D01*
X104773000Y-90073000D01*
X104773000Y-88879186D01*
X104543109Y-88758519D01*
X104268748Y-88855843D01*
X104018645Y-89004822D01*
X103802412Y-89199731D01*
X103628359Y-89433080D01*
X103503175Y-89695901D01*
X103458524Y-89843110D01*
X97181691Y-89843110D01*
X97764802Y-89260000D01*
X102112678Y-89260000D01*
X102150000Y-89263676D01*
X102187322Y-89260000D01*
X102187333Y-89260000D01*
X102298986Y-89249003D01*
X102442247Y-89205546D01*
X102574276Y-89134974D01*
X102690001Y-89040001D01*
X102713803Y-89010998D01*
X103411002Y-88313799D01*
X103440001Y-88290001D01*
X103534974Y-88174276D01*
X103605546Y-88042247D01*
X103649003Y-87898986D01*
X103660000Y-87787333D01*
X103660000Y-87787324D01*
X103663676Y-87750001D01*
X103660000Y-87712678D01*
X103660000Y-83687325D01*
X103663676Y-83650000D01*
X103660000Y-83612675D01*
X103660000Y-83612667D01*
X103649003Y-83501014D01*
X103605546Y-83357753D01*
X103534974Y-83225724D01*
X103440001Y-83109999D01*
X103411004Y-83086202D01*
X102866177Y-82541375D01*
X102872168Y-82526912D01*
X102935000Y-82211033D01*
X102935000Y-81888967D01*
X102872168Y-81573088D01*
X102748918Y-81275537D01*
X102569987Y-81007748D01*
X102342252Y-80780013D01*
X102162640Y-80660000D01*
X105755097Y-80660000D01*
X105559750Y-80740915D01*
X105234636Y-80958149D01*
X104958149Y-81234636D01*
X104740915Y-81559750D01*
X104591282Y-81920997D01*
X104515000Y-82304495D01*
X104515000Y-82695505D01*
X104591282Y-83079003D01*
X104740915Y-83440250D01*
X104958149Y-83765364D01*
X105234636Y-84041851D01*
X105559750Y-84259085D01*
X105920997Y-84408718D01*
X106304495Y-84485000D01*
X106695505Y-84485000D01*
X107079003Y-84408718D01*
X107440250Y-84259085D01*
X107765364Y-84041851D01*
X108041851Y-83765364D01*
X108259085Y-83440250D01*
X108408718Y-83079003D01*
X108485000Y-82695505D01*
X108485000Y-82304495D01*
X108408718Y-81920997D01*
X108259085Y-81559750D01*
X108041851Y-81234636D01*
X107765364Y-80958149D01*
X107440250Y-80740915D01*
X107244903Y-80660000D01*
X109340000Y-80660000D01*
X109340001Y-124340000D01*
X107244903Y-124340000D01*
X107440250Y-124259085D01*
X107765364Y-124041851D01*
X108041851Y-123765364D01*
X108259085Y-123440250D01*
X108408718Y-123079003D01*
X108485000Y-122695505D01*
X108485000Y-122304495D01*
X108408718Y-121920997D01*
X108259085Y-121559750D01*
X108041851Y-121234636D01*
X107765364Y-120958149D01*
X107440250Y-120740915D01*
X107079003Y-120591282D01*
X106695505Y-120515000D01*
X106304495Y-120515000D01*
X105920997Y-120591282D01*
X105559750Y-120740915D01*
X105234636Y-120958149D01*
X104958149Y-121234636D01*
X104740915Y-121559750D01*
X104591282Y-121920997D01*
X104515000Y-122304495D01*
X104515000Y-122695505D01*
X104591282Y-123079003D01*
X104740915Y-123440250D01*
X104958149Y-123765364D01*
X105234636Y-124041851D01*
X105559750Y-124259085D01*
X105755097Y-124340000D01*
X44244903Y-124340000D01*
X44440250Y-124259085D01*
X44765364Y-124041851D01*
X45041851Y-123765364D01*
X45259085Y-123440250D01*
X45408718Y-123079003D01*
X45485000Y-122695505D01*
X45485000Y-122304495D01*
X45408718Y-121920997D01*
X45259085Y-121559750D01*
X45041851Y-121234636D01*
X44765364Y-120958149D01*
X44440250Y-120740915D01*
X44079003Y-120591282D01*
X43695505Y-120515000D01*
X43304495Y-120515000D01*
X42920997Y-120591282D01*
X42559750Y-120740915D01*
X42234636Y-120958149D01*
X41958149Y-121234636D01*
X41740915Y-121559750D01*
X41591282Y-121920997D01*
X41515000Y-122304495D01*
X41515000Y-122695505D01*
X41591282Y-123079003D01*
X41740915Y-123440250D01*
X41958149Y-123765364D01*
X42234636Y-124041851D01*
X42559750Y-124259085D01*
X42755097Y-124340000D01*
X40660000Y-124340000D01*
X40660000Y-119754495D01*
X50565000Y-119754495D01*
X50565000Y-120145505D01*
X50641282Y-120529003D01*
X50790915Y-120890250D01*
X51008149Y-121215364D01*
X51284636Y-121491851D01*
X51609750Y-121709085D01*
X51970997Y-121858718D01*
X52354495Y-121935000D01*
X52745505Y-121935000D01*
X53129003Y-121858718D01*
X53490250Y-121709085D01*
X53815364Y-121491851D01*
X54091851Y-121215364D01*
X54309085Y-120890250D01*
X54458718Y-120529003D01*
X54535000Y-120145505D01*
X54535000Y-119754495D01*
X95515000Y-119754495D01*
X95515000Y-120145505D01*
X95591282Y-120529003D01*
X95740915Y-120890250D01*
X95958149Y-121215364D01*
X96234636Y-121491851D01*
X96559750Y-121709085D01*
X96920997Y-121858718D01*
X97304495Y-121935000D01*
X97695505Y-121935000D01*
X98079003Y-121858718D01*
X98440250Y-121709085D01*
X98765364Y-121491851D01*
X99041851Y-121215364D01*
X99259085Y-120890250D01*
X99408718Y-120529003D01*
X99485000Y-120145505D01*
X99485000Y-119754495D01*
X99408718Y-119370997D01*
X99259085Y-119009750D01*
X99041851Y-118684636D01*
X98765364Y-118408149D01*
X98440250Y-118190915D01*
X98079003Y-118041282D01*
X97695505Y-117965000D01*
X97304495Y-117965000D01*
X96920997Y-118041282D01*
X96559750Y-118190915D01*
X96234636Y-118408149D01*
X95958149Y-118684636D01*
X95740915Y-119009750D01*
X95591282Y-119370997D01*
X95515000Y-119754495D01*
X54535000Y-119754495D01*
X54458718Y-119370997D01*
X54309085Y-119009750D01*
X54091851Y-118684636D01*
X53815364Y-118408149D01*
X53490250Y-118190915D01*
X53129003Y-118041282D01*
X52745505Y-117965000D01*
X52354495Y-117965000D01*
X51970997Y-118041282D01*
X51609750Y-118190915D01*
X51284636Y-118408149D01*
X51008149Y-118684636D01*
X50790915Y-119009750D01*
X50641282Y-119370997D01*
X50565000Y-119754495D01*
X40660000Y-119754495D01*
X40660000Y-116858665D01*
X76765000Y-116858665D01*
X76765000Y-117141335D01*
X76820147Y-117418574D01*
X76928320Y-117679727D01*
X77085363Y-117914759D01*
X77285241Y-118114637D01*
X77520273Y-118271680D01*
X77781426Y-118379853D01*
X78058665Y-118435000D01*
X78341335Y-118435000D01*
X78618574Y-118379853D01*
X78879727Y-118271680D01*
X79114759Y-118114637D01*
X79236694Y-117992702D01*
X79886903Y-117992702D01*
X79958486Y-118236671D01*
X80213996Y-118357571D01*
X80488184Y-118426300D01*
X80770512Y-118440217D01*
X81050130Y-118398787D01*
X81316292Y-118303603D01*
X81441514Y-118236671D01*
X81513097Y-117992702D01*
X80700000Y-117179605D01*
X79886903Y-117992702D01*
X79236694Y-117992702D01*
X79314637Y-117914759D01*
X79448692Y-117714131D01*
X79463329Y-117741514D01*
X79707298Y-117813097D01*
X80520395Y-117000000D01*
X80879605Y-117000000D01*
X81692702Y-117813097D01*
X81936671Y-117741514D01*
X82057571Y-117486004D01*
X82126300Y-117211816D01*
X82140217Y-116929488D01*
X82098787Y-116649870D01*
X82003603Y-116383708D01*
X81936671Y-116258486D01*
X81692702Y-116186903D01*
X80879605Y-117000000D01*
X80520395Y-117000000D01*
X79707298Y-116186903D01*
X79463329Y-116258486D01*
X79449676Y-116287341D01*
X79314637Y-116085241D01*
X79236694Y-116007298D01*
X79886903Y-116007298D01*
X80700000Y-116820395D01*
X81513097Y-116007298D01*
X81441514Y-115763329D01*
X81186004Y-115642429D01*
X80911816Y-115573700D01*
X80629488Y-115559783D01*
X80349870Y-115601213D01*
X80083708Y-115696397D01*
X79958486Y-115763329D01*
X79886903Y-116007298D01*
X79236694Y-116007298D01*
X79114759Y-115885363D01*
X78879727Y-115728320D01*
X78618574Y-115620147D01*
X78341335Y-115565000D01*
X78058665Y-115565000D01*
X77781426Y-115620147D01*
X77520273Y-115728320D01*
X77285241Y-115885363D01*
X77085363Y-116085241D01*
X76928320Y-116320273D01*
X76820147Y-116581426D01*
X76765000Y-116858665D01*
X40660000Y-116858665D01*
X40660000Y-111618665D01*
X41365000Y-111618665D01*
X41365000Y-111901335D01*
X41420147Y-112178574D01*
X41528320Y-112439727D01*
X41685363Y-112674759D01*
X41885241Y-112874637D01*
X42120273Y-113031680D01*
X42381426Y-113139853D01*
X42658665Y-113195000D01*
X42941335Y-113195000D01*
X43218574Y-113139853D01*
X43479727Y-113031680D01*
X43714759Y-112874637D01*
X43914637Y-112674759D01*
X44071680Y-112439727D01*
X44179853Y-112178574D01*
X44235000Y-111901335D01*
X44235000Y-111618665D01*
X44233011Y-111608665D01*
X44515000Y-111608665D01*
X44515000Y-111891335D01*
X44570147Y-112168574D01*
X44678320Y-112429727D01*
X44835363Y-112664759D01*
X45035241Y-112864637D01*
X45270273Y-113021680D01*
X45531426Y-113129853D01*
X45808665Y-113185000D01*
X46091335Y-113185000D01*
X46368574Y-113129853D01*
X46629727Y-113021680D01*
X46864759Y-112864637D01*
X47064637Y-112664759D01*
X47221680Y-112429727D01*
X47329853Y-112168574D01*
X47385000Y-111891335D01*
X47385000Y-111608665D01*
X47329853Y-111331426D01*
X47221680Y-111070273D01*
X47064637Y-110835241D01*
X46864759Y-110635363D01*
X46629727Y-110478320D01*
X46368574Y-110370147D01*
X46091335Y-110315000D01*
X45808665Y-110315000D01*
X45531426Y-110370147D01*
X45270273Y-110478320D01*
X45035241Y-110635363D01*
X44835363Y-110835241D01*
X44678320Y-111070273D01*
X44570147Y-111331426D01*
X44515000Y-111608665D01*
X44233011Y-111608665D01*
X44179853Y-111341426D01*
X44071680Y-111080273D01*
X43914637Y-110845241D01*
X43714759Y-110645363D01*
X43479727Y-110488320D01*
X43218574Y-110380147D01*
X42941335Y-110325000D01*
X42658665Y-110325000D01*
X42381426Y-110380147D01*
X42120273Y-110488320D01*
X41885241Y-110645363D01*
X41685363Y-110845241D01*
X41528320Y-111080273D01*
X41420147Y-111341426D01*
X41365000Y-111618665D01*
X40660000Y-111618665D01*
X40660000Y-108973740D01*
X48965000Y-108973740D01*
X48965000Y-109266260D01*
X49022068Y-109553158D01*
X49134010Y-109823411D01*
X49296525Y-110066632D01*
X49503368Y-110273475D01*
X49746589Y-110435990D01*
X50016842Y-110547932D01*
X50303740Y-110605000D01*
X50596260Y-110605000D01*
X50883158Y-110547932D01*
X51153411Y-110435990D01*
X51396632Y-110273475D01*
X51603475Y-110066632D01*
X51765990Y-109823411D01*
X51877932Y-109553158D01*
X51935000Y-109266260D01*
X51935000Y-108973740D01*
X51877932Y-108686842D01*
X51765990Y-108416589D01*
X51603475Y-108173368D01*
X51396632Y-107966525D01*
X51214466Y-107844805D01*
X51331355Y-107775178D01*
X51547588Y-107580269D01*
X51721641Y-107346920D01*
X51846825Y-107084099D01*
X51891476Y-106936890D01*
X51770155Y-106707000D01*
X50577000Y-106707000D01*
X50577000Y-106727000D01*
X50323000Y-106727000D01*
X50323000Y-106707000D01*
X49129845Y-106707000D01*
X49008524Y-106936890D01*
X49053175Y-107084099D01*
X49178359Y-107346920D01*
X49352412Y-107580269D01*
X49568645Y-107775178D01*
X49685534Y-107844805D01*
X49503368Y-107966525D01*
X49296525Y-108173368D01*
X49134010Y-108416589D01*
X49022068Y-108686842D01*
X48965000Y-108973740D01*
X40660000Y-108973740D01*
X40660000Y-104396890D01*
X49008524Y-104396890D01*
X49053175Y-104544099D01*
X49178359Y-104806920D01*
X49352412Y-105040269D01*
X49568645Y-105235178D01*
X49694255Y-105310000D01*
X49568645Y-105384822D01*
X49352412Y-105579731D01*
X49178359Y-105813080D01*
X49053175Y-106075901D01*
X49008524Y-106223110D01*
X49129845Y-106453000D01*
X50323000Y-106453000D01*
X50323000Y-104167000D01*
X50577000Y-104167000D01*
X50577000Y-106453000D01*
X51770155Y-106453000D01*
X51891476Y-106223110D01*
X51846825Y-106075901D01*
X51721641Y-105813080D01*
X51547588Y-105579731D01*
X51331355Y-105384822D01*
X51205745Y-105310000D01*
X51331355Y-105235178D01*
X51547588Y-105040269D01*
X51721641Y-104806920D01*
X51846825Y-104544099D01*
X51891476Y-104396890D01*
X51770155Y-104167000D01*
X50577000Y-104167000D01*
X50323000Y-104167000D01*
X49129845Y-104167000D01*
X49008524Y-104396890D01*
X40660000Y-104396890D01*
X40660000Y-101458665D01*
X41365000Y-101458665D01*
X41365000Y-101741335D01*
X41420147Y-102018574D01*
X41528320Y-102279727D01*
X41685363Y-102514759D01*
X41885241Y-102714637D01*
X42120273Y-102871680D01*
X42381426Y-102979853D01*
X42658665Y-103035000D01*
X42941335Y-103035000D01*
X43218574Y-102979853D01*
X43479727Y-102871680D01*
X43714759Y-102714637D01*
X43914637Y-102514759D01*
X44071680Y-102279727D01*
X44179853Y-102018574D01*
X44235000Y-101741335D01*
X44235000Y-101458665D01*
X44233011Y-101448665D01*
X44515000Y-101448665D01*
X44515000Y-101731335D01*
X44570147Y-102008574D01*
X44678320Y-102269727D01*
X44835363Y-102504759D01*
X45035241Y-102704637D01*
X45270273Y-102861680D01*
X45531426Y-102969853D01*
X45808665Y-103025000D01*
X46091335Y-103025000D01*
X46368574Y-102969853D01*
X46629727Y-102861680D01*
X46864759Y-102704637D01*
X47064637Y-102504759D01*
X47221680Y-102269727D01*
X47329853Y-102008574D01*
X47385000Y-101731335D01*
X47385000Y-101448665D01*
X47329853Y-101171426D01*
X47221680Y-100910273D01*
X47064637Y-100675241D01*
X47039396Y-100650000D01*
X48961928Y-100650000D01*
X48961928Y-102350000D01*
X48974188Y-102474482D01*
X49010498Y-102594180D01*
X49069463Y-102704494D01*
X49148815Y-102801185D01*
X49245506Y-102880537D01*
X49355820Y-102939502D01*
X49436466Y-102963966D01*
X49352412Y-103039731D01*
X49178359Y-103273080D01*
X49053175Y-103535901D01*
X49008524Y-103683110D01*
X49129845Y-103913000D01*
X50323000Y-103913000D01*
X50323000Y-103893000D01*
X50577000Y-103893000D01*
X50577000Y-103913000D01*
X51770155Y-103913000D01*
X51891476Y-103683110D01*
X51846825Y-103535901D01*
X51721641Y-103273080D01*
X51547588Y-103039731D01*
X51463534Y-102963966D01*
X51544180Y-102939502D01*
X51654494Y-102880537D01*
X51751185Y-102801185D01*
X51830537Y-102704494D01*
X51889502Y-102594180D01*
X51925812Y-102474482D01*
X51938072Y-102350000D01*
X51938072Y-100650000D01*
X51925812Y-100525518D01*
X51889502Y-100405820D01*
X51830537Y-100295506D01*
X51751185Y-100198815D01*
X51654494Y-100119463D01*
X51544180Y-100060498D01*
X51424482Y-100024188D01*
X51300000Y-100011928D01*
X49600000Y-100011928D01*
X49475518Y-100024188D01*
X49355820Y-100060498D01*
X49245506Y-100119463D01*
X49148815Y-100198815D01*
X49069463Y-100295506D01*
X49010498Y-100405820D01*
X48974188Y-100525518D01*
X48961928Y-100650000D01*
X47039396Y-100650000D01*
X46864759Y-100475363D01*
X46629727Y-100318320D01*
X46368574Y-100210147D01*
X46091335Y-100155000D01*
X45808665Y-100155000D01*
X45531426Y-100210147D01*
X45270273Y-100318320D01*
X45035241Y-100475363D01*
X44835363Y-100675241D01*
X44678320Y-100910273D01*
X44570147Y-101171426D01*
X44515000Y-101448665D01*
X44233011Y-101448665D01*
X44179853Y-101181426D01*
X44071680Y-100920273D01*
X43914637Y-100685241D01*
X43714759Y-100485363D01*
X43479727Y-100328320D01*
X43218574Y-100220147D01*
X42941335Y-100165000D01*
X42658665Y-100165000D01*
X42381426Y-100220147D01*
X42120273Y-100328320D01*
X41885241Y-100485363D01*
X41685363Y-100685241D01*
X41528320Y-100920273D01*
X41420147Y-101181426D01*
X41365000Y-101458665D01*
X40660000Y-101458665D01*
X40660000Y-96125000D01*
X44811928Y-96125000D01*
X44811928Y-97875000D01*
X44841001Y-98170186D01*
X44927104Y-98454028D01*
X45066927Y-98715618D01*
X45255097Y-98944903D01*
X45484382Y-99133073D01*
X45745972Y-99272896D01*
X46029814Y-99358999D01*
X46325000Y-99388072D01*
X48075000Y-99388072D01*
X48370186Y-99358999D01*
X48654028Y-99272896D01*
X48915618Y-99133073D01*
X49144903Y-98944903D01*
X49333073Y-98715618D01*
X49470417Y-98458665D01*
X53855000Y-98458665D01*
X53855000Y-98741335D01*
X53910147Y-99018574D01*
X54018320Y-99279727D01*
X54175363Y-99514759D01*
X54375241Y-99714637D01*
X54610273Y-99871680D01*
X54871426Y-99979853D01*
X55148665Y-100035000D01*
X55431335Y-100035000D01*
X55708574Y-99979853D01*
X55969727Y-99871680D01*
X56204759Y-99714637D01*
X56404637Y-99514759D01*
X56560000Y-99282241D01*
X56715363Y-99514759D01*
X56915241Y-99714637D01*
X57150273Y-99871680D01*
X57411426Y-99979853D01*
X57688665Y-100035000D01*
X57971335Y-100035000D01*
X58248574Y-99979853D01*
X58509727Y-99871680D01*
X58744759Y-99714637D01*
X58944637Y-99514759D01*
X59100000Y-99282241D01*
X59255363Y-99514759D01*
X59455241Y-99714637D01*
X59690273Y-99871680D01*
X59951426Y-99979853D01*
X60228665Y-100035000D01*
X60511335Y-100035000D01*
X60788574Y-99979853D01*
X61049727Y-99871680D01*
X61284759Y-99714637D01*
X61484637Y-99514759D01*
X61640000Y-99282241D01*
X61795363Y-99514759D01*
X61995241Y-99714637D01*
X62230273Y-99871680D01*
X62491426Y-99979853D01*
X62768665Y-100035000D01*
X63051335Y-100035000D01*
X63328574Y-99979853D01*
X63589727Y-99871680D01*
X63824759Y-99714637D01*
X64024637Y-99514759D01*
X64180000Y-99282241D01*
X64335363Y-99514759D01*
X64535241Y-99714637D01*
X64770273Y-99871680D01*
X65031426Y-99979853D01*
X65308665Y-100035000D01*
X65591335Y-100035000D01*
X65868574Y-99979853D01*
X66129727Y-99871680D01*
X66364759Y-99714637D01*
X66564637Y-99514759D01*
X66720000Y-99282241D01*
X66875363Y-99514759D01*
X67075241Y-99714637D01*
X67310273Y-99871680D01*
X67571426Y-99979853D01*
X67848665Y-100035000D01*
X68131335Y-100035000D01*
X68408574Y-99979853D01*
X68669727Y-99871680D01*
X68904759Y-99714637D01*
X69104637Y-99514759D01*
X69260000Y-99282241D01*
X69415363Y-99514759D01*
X69615241Y-99714637D01*
X69850273Y-99871680D01*
X70111426Y-99979853D01*
X70388665Y-100035000D01*
X70671335Y-100035000D01*
X70948574Y-99979853D01*
X71209727Y-99871680D01*
X71444759Y-99714637D01*
X71644637Y-99514759D01*
X71800000Y-99282241D01*
X71955363Y-99514759D01*
X72155241Y-99714637D01*
X72390273Y-99871680D01*
X72651426Y-99979853D01*
X72928665Y-100035000D01*
X73211335Y-100035000D01*
X73488574Y-99979853D01*
X73749727Y-99871680D01*
X73984759Y-99714637D01*
X74184637Y-99514759D01*
X74340000Y-99282241D01*
X74495363Y-99514759D01*
X74695241Y-99714637D01*
X74930273Y-99871680D01*
X75191426Y-99979853D01*
X75468665Y-100035000D01*
X75751335Y-100035000D01*
X76028574Y-99979853D01*
X76289727Y-99871680D01*
X76524759Y-99714637D01*
X76724637Y-99514759D01*
X76881680Y-99279727D01*
X76886067Y-99269135D01*
X76997615Y-99455131D01*
X77186586Y-99663519D01*
X77412580Y-99831037D01*
X77666913Y-99951246D01*
X77800961Y-99991904D01*
X78023000Y-99869915D01*
X78023000Y-98727000D01*
X78003000Y-98727000D01*
X78003000Y-98473000D01*
X78023000Y-98473000D01*
X78023000Y-97330085D01*
X77800961Y-97208096D01*
X77666913Y-97248754D01*
X77412580Y-97368963D01*
X77186586Y-97536481D01*
X76997615Y-97744869D01*
X76886067Y-97930865D01*
X76881680Y-97920273D01*
X76724637Y-97685241D01*
X76524759Y-97485363D01*
X76289727Y-97328320D01*
X76028574Y-97220147D01*
X75751335Y-97165000D01*
X75468665Y-97165000D01*
X75191426Y-97220147D01*
X74930273Y-97328320D01*
X74695241Y-97485363D01*
X74495363Y-97685241D01*
X74340000Y-97917759D01*
X74184637Y-97685241D01*
X73984759Y-97485363D01*
X73749727Y-97328320D01*
X73488574Y-97220147D01*
X73211335Y-97165000D01*
X73039802Y-97165000D01*
X73962100Y-96242702D01*
X77386903Y-96242702D01*
X77458486Y-96486671D01*
X77713996Y-96607571D01*
X77988184Y-96676300D01*
X78270512Y-96690217D01*
X78550130Y-96648787D01*
X78816292Y-96553603D01*
X78941514Y-96486671D01*
X79013097Y-96242702D01*
X78200000Y-95429605D01*
X77386903Y-96242702D01*
X73962100Y-96242702D01*
X74111004Y-96093798D01*
X74140001Y-96070001D01*
X74234974Y-95954276D01*
X74305546Y-95822247D01*
X74349003Y-95678986D01*
X74360000Y-95567333D01*
X74360000Y-95567325D01*
X74363676Y-95530000D01*
X74360000Y-95492675D01*
X74360000Y-95320512D01*
X76759783Y-95320512D01*
X76801213Y-95600130D01*
X76896397Y-95866292D01*
X76963329Y-95991514D01*
X77207298Y-96063097D01*
X78020395Y-95250000D01*
X78379605Y-95250000D01*
X79192702Y-96063097D01*
X79436671Y-95991514D01*
X79450324Y-95962659D01*
X79585363Y-96164759D01*
X79785241Y-96364637D01*
X80020273Y-96521680D01*
X80281426Y-96629853D01*
X80558665Y-96685000D01*
X80841335Y-96685000D01*
X81118574Y-96629853D01*
X81379727Y-96521680D01*
X81614759Y-96364637D01*
X81814637Y-96164759D01*
X81971680Y-95929727D01*
X82079853Y-95668574D01*
X82135000Y-95391335D01*
X82135000Y-95108665D01*
X82079853Y-94831426D01*
X81971680Y-94570273D01*
X81814637Y-94335241D01*
X81614759Y-94135363D01*
X81379727Y-93978320D01*
X81118574Y-93870147D01*
X80841335Y-93815000D01*
X80558665Y-93815000D01*
X80281426Y-93870147D01*
X80020273Y-93978320D01*
X79785241Y-94135363D01*
X79585363Y-94335241D01*
X79451308Y-94535869D01*
X79436671Y-94508486D01*
X79192702Y-94436903D01*
X78379605Y-95250000D01*
X78020395Y-95250000D01*
X77207298Y-94436903D01*
X76963329Y-94508486D01*
X76842429Y-94763996D01*
X76773700Y-95038184D01*
X76759783Y-95320512D01*
X74360000Y-95320512D01*
X74360000Y-94257298D01*
X77386903Y-94257298D01*
X78200000Y-95070395D01*
X79013097Y-94257298D01*
X78941514Y-94013329D01*
X78686004Y-93892429D01*
X78411816Y-93823700D01*
X78129488Y-93809783D01*
X77849870Y-93851213D01*
X77583708Y-93946397D01*
X77458486Y-94013329D01*
X77386903Y-94257298D01*
X74360000Y-94257298D01*
X74360000Y-90270512D01*
X74909783Y-90270512D01*
X74951213Y-90550130D01*
X75046397Y-90816292D01*
X75111616Y-90938309D01*
X75098815Y-90948815D01*
X75019463Y-91045506D01*
X74960498Y-91155820D01*
X74924188Y-91275518D01*
X74911928Y-91400000D01*
X74911928Y-93000000D01*
X74924188Y-93124482D01*
X74960498Y-93244180D01*
X75019463Y-93354494D01*
X75098815Y-93451185D01*
X75195506Y-93530537D01*
X75305820Y-93589502D01*
X75425518Y-93625812D01*
X75550000Y-93638072D01*
X77150000Y-93638072D01*
X77274482Y-93625812D01*
X77394180Y-93589502D01*
X77504494Y-93530537D01*
X77601185Y-93451185D01*
X77680537Y-93354494D01*
X77739502Y-93244180D01*
X77775812Y-93124482D01*
X77777369Y-93108665D01*
X82965000Y-93108665D01*
X82965000Y-93391335D01*
X83020147Y-93668574D01*
X83128320Y-93929727D01*
X83285363Y-94164759D01*
X83485241Y-94364637D01*
X83720273Y-94521680D01*
X83981426Y-94629853D01*
X84258665Y-94685000D01*
X84541335Y-94685000D01*
X84818574Y-94629853D01*
X85079727Y-94521680D01*
X85314759Y-94364637D01*
X85514637Y-94164759D01*
X85671680Y-93929727D01*
X85779853Y-93668574D01*
X85835000Y-93391335D01*
X85835000Y-93108665D01*
X85779853Y-92831426D01*
X85671680Y-92570273D01*
X85514637Y-92335241D01*
X85314759Y-92135363D01*
X85079727Y-91978320D01*
X84818574Y-91870147D01*
X84541335Y-91815000D01*
X84258665Y-91815000D01*
X83981426Y-91870147D01*
X83720273Y-91978320D01*
X83485241Y-92135363D01*
X83285363Y-92335241D01*
X83128320Y-92570273D01*
X83020147Y-92831426D01*
X82965000Y-93108665D01*
X77777369Y-93108665D01*
X77788072Y-93000000D01*
X77788072Y-91400000D01*
X77775812Y-91275518D01*
X77739502Y-91155820D01*
X77680537Y-91045506D01*
X77601185Y-90948815D01*
X77588242Y-90938193D01*
X77707571Y-90686004D01*
X77776300Y-90411816D01*
X77790217Y-90129488D01*
X77750091Y-89858665D01*
X83015000Y-89858665D01*
X83015000Y-90141335D01*
X83070147Y-90418574D01*
X83178320Y-90679727D01*
X83335363Y-90914759D01*
X83535241Y-91114637D01*
X83770273Y-91271680D01*
X84031426Y-91379853D01*
X84308665Y-91435000D01*
X84591335Y-91435000D01*
X84868574Y-91379853D01*
X85129727Y-91271680D01*
X85364759Y-91114637D01*
X85564637Y-90914759D01*
X85721680Y-90679727D01*
X85829853Y-90418574D01*
X85885000Y-90141335D01*
X85885000Y-89858665D01*
X85829853Y-89581426D01*
X85721680Y-89320273D01*
X85564637Y-89085241D01*
X85364759Y-88885363D01*
X85129727Y-88728320D01*
X84868574Y-88620147D01*
X84591335Y-88565000D01*
X84308665Y-88565000D01*
X84031426Y-88620147D01*
X83770273Y-88728320D01*
X83535241Y-88885363D01*
X83335363Y-89085241D01*
X83178320Y-89320273D01*
X83070147Y-89581426D01*
X83015000Y-89858665D01*
X77750091Y-89858665D01*
X77748787Y-89849870D01*
X77653603Y-89583708D01*
X77586671Y-89458486D01*
X77342702Y-89386903D01*
X76529605Y-90200000D01*
X76543748Y-90214143D01*
X76364143Y-90393748D01*
X76350000Y-90379605D01*
X76335858Y-90393748D01*
X76156253Y-90214143D01*
X76170395Y-90200000D01*
X75357298Y-89386903D01*
X75113329Y-89458486D01*
X74992429Y-89713996D01*
X74923700Y-89988184D01*
X74909783Y-90270512D01*
X74360000Y-90270512D01*
X74360000Y-89207298D01*
X75536903Y-89207298D01*
X76350000Y-90020395D01*
X77163097Y-89207298D01*
X77091514Y-88963329D01*
X76836004Y-88842429D01*
X76561816Y-88773700D01*
X76279488Y-88759783D01*
X75999870Y-88801213D01*
X75733708Y-88896397D01*
X75608486Y-88963329D01*
X75536903Y-89207298D01*
X74360000Y-89207298D01*
X74360000Y-88874801D01*
X75549388Y-87685413D01*
X83994192Y-87685413D01*
X84089956Y-87949814D01*
X84379571Y-88090704D01*
X84691108Y-88172384D01*
X85012595Y-88191718D01*
X85331675Y-88147961D01*
X85636088Y-88042795D01*
X85810044Y-87949814D01*
X85905808Y-87685413D01*
X90494192Y-87685413D01*
X90589956Y-87949814D01*
X90879571Y-88090704D01*
X91191108Y-88172384D01*
X91512595Y-88191718D01*
X91831675Y-88147961D01*
X92136088Y-88042795D01*
X92310044Y-87949814D01*
X92405808Y-87685413D01*
X93844192Y-87685413D01*
X93939956Y-87949814D01*
X94229571Y-88090704D01*
X94541108Y-88172384D01*
X94862595Y-88191718D01*
X95181675Y-88147961D01*
X95486088Y-88042795D01*
X95660044Y-87949814D01*
X95755808Y-87685413D01*
X94800000Y-86729605D01*
X93844192Y-87685413D01*
X92405808Y-87685413D01*
X91450000Y-86729605D01*
X90494192Y-87685413D01*
X85905808Y-87685413D01*
X84950000Y-86729605D01*
X83994192Y-87685413D01*
X75549388Y-87685413D01*
X76293592Y-86941210D01*
X76513740Y-86985000D01*
X76806260Y-86985000D01*
X77093158Y-86927932D01*
X77363411Y-86815990D01*
X77606632Y-86653475D01*
X77647512Y-86612595D01*
X83308282Y-86612595D01*
X83352039Y-86931675D01*
X83457205Y-87236088D01*
X83550186Y-87410044D01*
X83814587Y-87505808D01*
X84770395Y-86550000D01*
X85129605Y-86550000D01*
X86085413Y-87505808D01*
X86349814Y-87410044D01*
X86490704Y-87120429D01*
X86572384Y-86808892D01*
X86584189Y-86612595D01*
X89808282Y-86612595D01*
X89852039Y-86931675D01*
X89957205Y-87236088D01*
X90050186Y-87410044D01*
X90314587Y-87505808D01*
X91270395Y-86550000D01*
X91629605Y-86550000D01*
X92585413Y-87505808D01*
X92849814Y-87410044D01*
X92990704Y-87120429D01*
X93072384Y-86808892D01*
X93084189Y-86612595D01*
X93158282Y-86612595D01*
X93202039Y-86931675D01*
X93307205Y-87236088D01*
X93400186Y-87410044D01*
X93664587Y-87505808D01*
X94620395Y-86550000D01*
X94979605Y-86550000D01*
X95935413Y-87505808D01*
X96199814Y-87410044D01*
X96340704Y-87120429D01*
X96422384Y-86808892D01*
X96434189Y-86612595D01*
X99658282Y-86612595D01*
X99702039Y-86931675D01*
X99807205Y-87236088D01*
X99900186Y-87410044D01*
X100164587Y-87505808D01*
X101120395Y-86550000D01*
X100164587Y-85594192D01*
X99900186Y-85689956D01*
X99759296Y-85979571D01*
X99677616Y-86291108D01*
X99658282Y-86612595D01*
X96434189Y-86612595D01*
X96441718Y-86487405D01*
X96397961Y-86168325D01*
X96292795Y-85863912D01*
X96199814Y-85689956D01*
X95935413Y-85594192D01*
X94979605Y-86550000D01*
X94620395Y-86550000D01*
X93664587Y-85594192D01*
X93400186Y-85689956D01*
X93259296Y-85979571D01*
X93177616Y-86291108D01*
X93158282Y-86612595D01*
X93084189Y-86612595D01*
X93091718Y-86487405D01*
X93047961Y-86168325D01*
X92942795Y-85863912D01*
X92849814Y-85689956D01*
X92585413Y-85594192D01*
X91629605Y-86550000D01*
X91270395Y-86550000D01*
X90314587Y-85594192D01*
X90050186Y-85689956D01*
X89909296Y-85979571D01*
X89827616Y-86291108D01*
X89808282Y-86612595D01*
X86584189Y-86612595D01*
X86591718Y-86487405D01*
X86547961Y-86168325D01*
X86442795Y-85863912D01*
X86349814Y-85689956D01*
X86085413Y-85594192D01*
X85129605Y-86550000D01*
X84770395Y-86550000D01*
X83814587Y-85594192D01*
X83550186Y-85689956D01*
X83409296Y-85979571D01*
X83327616Y-86291108D01*
X83308282Y-86612595D01*
X77647512Y-86612595D01*
X77813475Y-86446632D01*
X77975990Y-86203411D01*
X78087932Y-85933158D01*
X78145000Y-85646260D01*
X78145000Y-85414587D01*
X83994192Y-85414587D01*
X84950000Y-86370395D01*
X85905808Y-85414587D01*
X90494192Y-85414587D01*
X91450000Y-86370395D01*
X92405808Y-85414587D01*
X93844192Y-85414587D01*
X94800000Y-86370395D01*
X95755808Y-85414587D01*
X95660044Y-85150186D01*
X95370429Y-85009296D01*
X95058892Y-84927616D01*
X94737405Y-84908282D01*
X94418325Y-84952039D01*
X94113912Y-85057205D01*
X93939956Y-85150186D01*
X93844192Y-85414587D01*
X92405808Y-85414587D01*
X92310044Y-85150186D01*
X92020429Y-85009296D01*
X91708892Y-84927616D01*
X91387405Y-84908282D01*
X91068325Y-84952039D01*
X90763912Y-85057205D01*
X90589956Y-85150186D01*
X90494192Y-85414587D01*
X85905808Y-85414587D01*
X85810044Y-85150186D01*
X85520429Y-85009296D01*
X85208892Y-84927616D01*
X84887405Y-84908282D01*
X84568325Y-84952039D01*
X84263912Y-85057205D01*
X84089956Y-85150186D01*
X83994192Y-85414587D01*
X78145000Y-85414587D01*
X78145000Y-85353740D01*
X78087932Y-85066842D01*
X77975990Y-84796589D01*
X77813475Y-84553368D01*
X77606632Y-84346525D01*
X77430594Y-84228900D01*
X77660269Y-84057588D01*
X77855178Y-83841355D01*
X78004157Y-83591252D01*
X78101481Y-83316891D01*
X77980814Y-83087000D01*
X76787000Y-83087000D01*
X76787000Y-83107000D01*
X76533000Y-83107000D01*
X76533000Y-83087000D01*
X76513000Y-83087000D01*
X76513000Y-82833000D01*
X76533000Y-82833000D01*
X76533000Y-81639845D01*
X76787000Y-81639845D01*
X76787000Y-82833000D01*
X77980814Y-82833000D01*
X78101481Y-82603109D01*
X78004157Y-82328748D01*
X77855178Y-82078645D01*
X77660269Y-81862412D01*
X77426920Y-81688359D01*
X77164099Y-81563175D01*
X77016890Y-81518524D01*
X76787000Y-81639845D01*
X76533000Y-81639845D01*
X76303110Y-81518524D01*
X76155901Y-81563175D01*
X75893080Y-81688359D01*
X75659731Y-81862412D01*
X75464822Y-82078645D01*
X75395195Y-82195534D01*
X75273475Y-82013368D01*
X75066632Y-81806525D01*
X74823411Y-81644010D01*
X74553158Y-81532068D01*
X74266260Y-81475000D01*
X73973740Y-81475000D01*
X73686842Y-81532068D01*
X73416589Y-81644010D01*
X73173368Y-81806525D01*
X72966525Y-82013368D01*
X72850000Y-82187760D01*
X72733475Y-82013368D01*
X72526632Y-81806525D01*
X72283411Y-81644010D01*
X72013158Y-81532068D01*
X71726260Y-81475000D01*
X71433740Y-81475000D01*
X71146842Y-81532068D01*
X70876589Y-81644010D01*
X70633368Y-81806525D01*
X70426525Y-82013368D01*
X70310000Y-82187760D01*
X70193475Y-82013368D01*
X69986632Y-81806525D01*
X69743411Y-81644010D01*
X69473158Y-81532068D01*
X69186260Y-81475000D01*
X68893740Y-81475000D01*
X68606842Y-81532068D01*
X68336589Y-81644010D01*
X68093368Y-81806525D01*
X67886525Y-82013368D01*
X67770000Y-82187760D01*
X67653475Y-82013368D01*
X67446632Y-81806525D01*
X67203411Y-81644010D01*
X66933158Y-81532068D01*
X66646260Y-81475000D01*
X66353740Y-81475000D01*
X66066842Y-81532068D01*
X65796589Y-81644010D01*
X65553368Y-81806525D01*
X65346525Y-82013368D01*
X65184010Y-82256589D01*
X65072068Y-82526842D01*
X65015000Y-82813740D01*
X65015000Y-83106260D01*
X65072068Y-83393158D01*
X65184010Y-83663411D01*
X65346525Y-83906632D01*
X65478380Y-84038487D01*
X65405820Y-84060498D01*
X65295506Y-84119463D01*
X65198815Y-84198815D01*
X65119463Y-84295506D01*
X65060498Y-84405820D01*
X65024188Y-84525518D01*
X65011928Y-84650000D01*
X65011928Y-86350000D01*
X65024188Y-86474482D01*
X65060498Y-86594180D01*
X65119463Y-86704494D01*
X65198815Y-86801185D01*
X65295506Y-86880537D01*
X65405820Y-86939502D01*
X65525518Y-86975812D01*
X65650000Y-86988072D01*
X67350000Y-86988072D01*
X67474482Y-86975812D01*
X67594180Y-86939502D01*
X67704494Y-86880537D01*
X67801185Y-86801185D01*
X67880537Y-86704494D01*
X67939502Y-86594180D01*
X67961513Y-86521620D01*
X68093368Y-86653475D01*
X68336589Y-86815990D01*
X68606842Y-86927932D01*
X68893740Y-86985000D01*
X69186260Y-86985000D01*
X69473158Y-86927932D01*
X69743411Y-86815990D01*
X69986632Y-86653475D01*
X70193475Y-86446632D01*
X70310000Y-86272240D01*
X70426525Y-86446632D01*
X70633368Y-86653475D01*
X70876589Y-86815990D01*
X71146842Y-86927932D01*
X71433740Y-86985000D01*
X71726260Y-86985000D01*
X72013158Y-86927932D01*
X72283411Y-86815990D01*
X72526632Y-86653475D01*
X72733475Y-86446632D01*
X72850000Y-86272240D01*
X72966525Y-86446632D01*
X73173368Y-86653475D01*
X73416589Y-86815990D01*
X73686842Y-86927932D01*
X73973740Y-86985000D01*
X74100199Y-86985000D01*
X73088998Y-87996201D01*
X73060000Y-88019999D01*
X73036202Y-88048997D01*
X73036201Y-88048998D01*
X72965026Y-88135724D01*
X72894454Y-88267754D01*
X72850998Y-88411015D01*
X72836324Y-88560000D01*
X72840001Y-88597332D01*
X72840000Y-95215198D01*
X70853886Y-97201312D01*
X70671335Y-97165000D01*
X70388665Y-97165000D01*
X70111426Y-97220147D01*
X69850273Y-97328320D01*
X69615241Y-97485363D01*
X69415363Y-97685241D01*
X69260000Y-97917759D01*
X69104637Y-97685241D01*
X68904759Y-97485363D01*
X68669727Y-97328320D01*
X68408574Y-97220147D01*
X68131335Y-97165000D01*
X67848665Y-97165000D01*
X67571426Y-97220147D01*
X67310273Y-97328320D01*
X67075241Y-97485363D01*
X66875363Y-97685241D01*
X66720000Y-97917759D01*
X66564637Y-97685241D01*
X66364759Y-97485363D01*
X66129727Y-97328320D01*
X65868574Y-97220147D01*
X65591335Y-97165000D01*
X65308665Y-97165000D01*
X65031426Y-97220147D01*
X64770273Y-97328320D01*
X64535241Y-97485363D01*
X64335363Y-97685241D01*
X64180000Y-97917759D01*
X64024637Y-97685241D01*
X63824759Y-97485363D01*
X63620154Y-97348651D01*
X63657420Y-97331037D01*
X63883414Y-97163519D01*
X64072385Y-96955131D01*
X64217070Y-96713881D01*
X64311909Y-96449040D01*
X64190624Y-96227000D01*
X63047000Y-96227000D01*
X63047000Y-96247000D01*
X62793000Y-96247000D01*
X62793000Y-96227000D01*
X62773000Y-96227000D01*
X62773000Y-95973000D01*
X62793000Y-95973000D01*
X62793000Y-94830085D01*
X63047000Y-94830085D01*
X63047000Y-95973000D01*
X64190624Y-95973000D01*
X64311909Y-95750960D01*
X64217070Y-95486119D01*
X64072385Y-95244869D01*
X63883414Y-95036481D01*
X63657420Y-94868963D01*
X63403087Y-94748754D01*
X63269039Y-94708096D01*
X63047000Y-94830085D01*
X62793000Y-94830085D01*
X62570961Y-94708096D01*
X62436913Y-94748754D01*
X62182580Y-94868963D01*
X61956586Y-95036481D01*
X61767615Y-95244869D01*
X61656067Y-95430865D01*
X61651680Y-95420273D01*
X61494637Y-95185241D01*
X61294759Y-94985363D01*
X61059727Y-94828320D01*
X60798574Y-94720147D01*
X60521335Y-94665000D01*
X60238665Y-94665000D01*
X59961426Y-94720147D01*
X59700273Y-94828320D01*
X59465241Y-94985363D01*
X59265363Y-95185241D01*
X59110000Y-95417759D01*
X58954637Y-95185241D01*
X58754759Y-94985363D01*
X58519727Y-94828320D01*
X58258574Y-94720147D01*
X57981335Y-94665000D01*
X57698665Y-94665000D01*
X57421426Y-94720147D01*
X57160273Y-94828320D01*
X56925241Y-94985363D01*
X56726643Y-95183961D01*
X56725812Y-95175518D01*
X56689502Y-95055820D01*
X56630537Y-94945506D01*
X56551185Y-94848815D01*
X56454494Y-94769463D01*
X56344180Y-94710498D01*
X56224482Y-94674188D01*
X56100000Y-94661928D01*
X54500000Y-94661928D01*
X54375518Y-94674188D01*
X54255820Y-94710498D01*
X54145506Y-94769463D01*
X54048815Y-94848815D01*
X53969463Y-94945506D01*
X53910498Y-95055820D01*
X53874188Y-95175518D01*
X53861928Y-95300000D01*
X53861928Y-96900000D01*
X53874188Y-97024482D01*
X53910498Y-97144180D01*
X53969463Y-97254494D01*
X54048815Y-97351185D01*
X54145506Y-97430537D01*
X54255820Y-97489502D01*
X54344271Y-97516333D01*
X54175363Y-97685241D01*
X54018320Y-97920273D01*
X53910147Y-98181426D01*
X53855000Y-98458665D01*
X49470417Y-98458665D01*
X49472896Y-98454028D01*
X49558999Y-98170186D01*
X49588072Y-97875000D01*
X49588072Y-96125000D01*
X49558999Y-95829814D01*
X49472896Y-95545972D01*
X49333073Y-95284382D01*
X49144903Y-95055097D01*
X48915618Y-94866927D01*
X48654028Y-94727104D01*
X48525357Y-94688072D01*
X51950000Y-94688072D01*
X52074482Y-94675812D01*
X52194180Y-94639502D01*
X52304494Y-94580537D01*
X52401185Y-94501185D01*
X52480537Y-94404494D01*
X52539502Y-94294180D01*
X52575812Y-94174482D01*
X52588072Y-94050000D01*
X52588072Y-91600000D01*
X68311928Y-91600000D01*
X68311928Y-93200000D01*
X68324188Y-93324482D01*
X68360498Y-93444180D01*
X68419463Y-93554494D01*
X68498815Y-93651185D01*
X68595506Y-93730537D01*
X68705820Y-93789502D01*
X68825518Y-93825812D01*
X68950000Y-93838072D01*
X70550000Y-93838072D01*
X70674482Y-93825812D01*
X70794180Y-93789502D01*
X70904494Y-93730537D01*
X71001185Y-93651185D01*
X71080537Y-93554494D01*
X71139502Y-93444180D01*
X71175812Y-93324482D01*
X71188072Y-93200000D01*
X71188072Y-91600000D01*
X71175812Y-91475518D01*
X71139502Y-91355820D01*
X71080537Y-91245506D01*
X71001185Y-91148815D01*
X70904494Y-91069463D01*
X70794180Y-91010498D01*
X70674482Y-90974188D01*
X70550000Y-90961928D01*
X70542785Y-90961928D01*
X70563097Y-90892702D01*
X69750000Y-90079605D01*
X68936903Y-90892702D01*
X68957215Y-90961928D01*
X68950000Y-90961928D01*
X68825518Y-90974188D01*
X68705820Y-91010498D01*
X68595506Y-91069463D01*
X68498815Y-91148815D01*
X68419463Y-91245506D01*
X68360498Y-91355820D01*
X68324188Y-91475518D01*
X68311928Y-91600000D01*
X52588072Y-91600000D01*
X52588072Y-90550000D01*
X52575812Y-90425518D01*
X52539502Y-90305820D01*
X52480537Y-90195506D01*
X52401185Y-90098815D01*
X52304494Y-90019463D01*
X52212915Y-89970512D01*
X68309783Y-89970512D01*
X68351213Y-90250130D01*
X68446397Y-90516292D01*
X68513329Y-90641514D01*
X68757298Y-90713097D01*
X69570395Y-89900000D01*
X69929605Y-89900000D01*
X70742702Y-90713097D01*
X70986671Y-90641514D01*
X71107571Y-90386004D01*
X71176300Y-90111816D01*
X71190217Y-89829488D01*
X71148787Y-89549870D01*
X71053603Y-89283708D01*
X70986671Y-89158486D01*
X70742702Y-89086903D01*
X69929605Y-89900000D01*
X69570395Y-89900000D01*
X68757298Y-89086903D01*
X68513329Y-89158486D01*
X68392429Y-89413996D01*
X68323700Y-89688184D01*
X68309783Y-89970512D01*
X52212915Y-89970512D01*
X52194180Y-89960498D01*
X52074482Y-89924188D01*
X51950000Y-89911928D01*
X48450000Y-89911928D01*
X48325518Y-89924188D01*
X48205820Y-89960498D01*
X48095506Y-90019463D01*
X47998815Y-90098815D01*
X47919463Y-90195506D01*
X47860498Y-90305820D01*
X47824188Y-90425518D01*
X47811928Y-90550000D01*
X47811928Y-94050000D01*
X47824188Y-94174482D01*
X47860498Y-94294180D01*
X47919463Y-94404494D01*
X47998815Y-94501185D01*
X48095506Y-94580537D01*
X48172131Y-94621494D01*
X48075000Y-94611928D01*
X46325000Y-94611928D01*
X46029814Y-94641001D01*
X45745972Y-94727104D01*
X45484382Y-94866927D01*
X45255097Y-95055097D01*
X45066927Y-95284382D01*
X44927104Y-95545972D01*
X44841001Y-95829814D01*
X44811928Y-96125000D01*
X40660000Y-96125000D01*
X40660000Y-94050000D01*
X42061928Y-94050000D01*
X42074188Y-94174482D01*
X42110498Y-94294180D01*
X42169463Y-94404494D01*
X42248815Y-94501185D01*
X42345506Y-94580537D01*
X42455820Y-94639502D01*
X42575518Y-94675812D01*
X42700000Y-94688072D01*
X43914250Y-94685000D01*
X44073000Y-94526250D01*
X44073000Y-92427000D01*
X44327000Y-92427000D01*
X44327000Y-94526250D01*
X44485750Y-94685000D01*
X45700000Y-94688072D01*
X45824482Y-94675812D01*
X45944180Y-94639502D01*
X46054494Y-94580537D01*
X46151185Y-94501185D01*
X46230537Y-94404494D01*
X46289502Y-94294180D01*
X46325812Y-94174482D01*
X46338072Y-94050000D01*
X46335000Y-92585750D01*
X46176250Y-92427000D01*
X44327000Y-92427000D01*
X44073000Y-92427000D01*
X42223750Y-92427000D01*
X42065000Y-92585750D01*
X42061928Y-94050000D01*
X40660000Y-94050000D01*
X40660000Y-90550000D01*
X42061928Y-90550000D01*
X42065000Y-92014250D01*
X42223750Y-92173000D01*
X44073000Y-92173000D01*
X44073000Y-90073750D01*
X44327000Y-90073750D01*
X44327000Y-92173000D01*
X46176250Y-92173000D01*
X46335000Y-92014250D01*
X46338072Y-90550000D01*
X46325812Y-90425518D01*
X46289502Y-90305820D01*
X46230537Y-90195506D01*
X46151185Y-90098815D01*
X46054494Y-90019463D01*
X45944180Y-89960498D01*
X45824482Y-89924188D01*
X45700000Y-89911928D01*
X44485750Y-89915000D01*
X44327000Y-90073750D01*
X44073000Y-90073750D01*
X43914250Y-89915000D01*
X42700000Y-89911928D01*
X42575518Y-89924188D01*
X42455820Y-89960498D01*
X42345506Y-90019463D01*
X42248815Y-90098815D01*
X42169463Y-90195506D01*
X42110498Y-90305820D01*
X42074188Y-90425518D01*
X42061928Y-90550000D01*
X40660000Y-90550000D01*
X40660000Y-88338665D01*
X53865000Y-88338665D01*
X53865000Y-88621335D01*
X53920147Y-88898574D01*
X54028320Y-89159727D01*
X54185363Y-89394759D01*
X54385241Y-89594637D01*
X54620273Y-89751680D01*
X54881426Y-89859853D01*
X55158665Y-89915000D01*
X55441335Y-89915000D01*
X55718574Y-89859853D01*
X55979727Y-89751680D01*
X56214759Y-89594637D01*
X56414637Y-89394759D01*
X56570000Y-89162241D01*
X56725363Y-89394759D01*
X56925241Y-89594637D01*
X57160273Y-89751680D01*
X57421426Y-89859853D01*
X57698665Y-89915000D01*
X57981335Y-89915000D01*
X58258574Y-89859853D01*
X58519727Y-89751680D01*
X58754759Y-89594637D01*
X58954637Y-89394759D01*
X59111680Y-89159727D01*
X59116067Y-89149135D01*
X59227615Y-89335131D01*
X59416586Y-89543519D01*
X59642580Y-89711037D01*
X59896913Y-89831246D01*
X60030961Y-89871904D01*
X60253000Y-89749915D01*
X60253000Y-88607000D01*
X60507000Y-88607000D01*
X60507000Y-89749915D01*
X60729039Y-89871904D01*
X60863087Y-89831246D01*
X61117420Y-89711037D01*
X61343414Y-89543519D01*
X61532385Y-89335131D01*
X61650000Y-89139018D01*
X61767615Y-89335131D01*
X61956586Y-89543519D01*
X62182580Y-89711037D01*
X62436913Y-89831246D01*
X62570961Y-89871904D01*
X62793000Y-89749915D01*
X62793000Y-88607000D01*
X63047000Y-88607000D01*
X63047000Y-89749915D01*
X63269039Y-89871904D01*
X63403087Y-89831246D01*
X63657420Y-89711037D01*
X63883414Y-89543519D01*
X64072385Y-89335131D01*
X64217070Y-89093881D01*
X64283884Y-88907298D01*
X68936903Y-88907298D01*
X69750000Y-89720395D01*
X70563097Y-88907298D01*
X70491514Y-88663329D01*
X70236004Y-88542429D01*
X69961816Y-88473700D01*
X69679488Y-88459783D01*
X69399870Y-88501213D01*
X69133708Y-88596397D01*
X69008486Y-88663329D01*
X68936903Y-88907298D01*
X64283884Y-88907298D01*
X64311909Y-88829040D01*
X64190624Y-88607000D01*
X63047000Y-88607000D01*
X62793000Y-88607000D01*
X60507000Y-88607000D01*
X60253000Y-88607000D01*
X60233000Y-88607000D01*
X60233000Y-88353000D01*
X60253000Y-88353000D01*
X60253000Y-87210085D01*
X60507000Y-87210085D01*
X60507000Y-88353000D01*
X62793000Y-88353000D01*
X62793000Y-87210085D01*
X63047000Y-87210085D01*
X63047000Y-88353000D01*
X64190624Y-88353000D01*
X64311909Y-88130960D01*
X64217070Y-87866119D01*
X64072385Y-87624869D01*
X63883414Y-87416481D01*
X63657420Y-87248963D01*
X63403087Y-87128754D01*
X63269039Y-87088096D01*
X63047000Y-87210085D01*
X62793000Y-87210085D01*
X62570961Y-87088096D01*
X62436913Y-87128754D01*
X62182580Y-87248963D01*
X61956586Y-87416481D01*
X61767615Y-87624869D01*
X61650000Y-87820982D01*
X61532385Y-87624869D01*
X61343414Y-87416481D01*
X61117420Y-87248963D01*
X60863087Y-87128754D01*
X60729039Y-87088096D01*
X60507000Y-87210085D01*
X60253000Y-87210085D01*
X60030961Y-87088096D01*
X59896913Y-87128754D01*
X59642580Y-87248963D01*
X59416586Y-87416481D01*
X59227615Y-87624869D01*
X59116067Y-87810865D01*
X59111680Y-87800273D01*
X58954637Y-87565241D01*
X58754759Y-87365363D01*
X58519727Y-87208320D01*
X58258574Y-87100147D01*
X57981335Y-87045000D01*
X57698665Y-87045000D01*
X57421426Y-87100147D01*
X57160273Y-87208320D01*
X56925241Y-87365363D01*
X56725363Y-87565241D01*
X56570000Y-87797759D01*
X56414637Y-87565241D01*
X56214759Y-87365363D01*
X55979727Y-87208320D01*
X55718574Y-87100147D01*
X55441335Y-87045000D01*
X55158665Y-87045000D01*
X54881426Y-87100147D01*
X54620273Y-87208320D01*
X54385241Y-87365363D01*
X54185363Y-87565241D01*
X54028320Y-87800273D01*
X53920147Y-88061426D01*
X53865000Y-88338665D01*
X40660000Y-88338665D01*
X40660000Y-84700000D01*
X47061928Y-84700000D01*
X47074188Y-84824482D01*
X47110498Y-84944180D01*
X47169463Y-85054494D01*
X47248815Y-85151185D01*
X47345506Y-85230537D01*
X47455820Y-85289502D01*
X47575518Y-85325812D01*
X47700000Y-85338072D01*
X48314250Y-85335000D01*
X48473000Y-85176250D01*
X48473000Y-83927000D01*
X47223750Y-83927000D01*
X47065000Y-84085750D01*
X47061928Y-84700000D01*
X40660000Y-84700000D01*
X40660000Y-80660000D01*
X42755097Y-80660000D01*
X42559750Y-80740915D01*
G37*
X42559750Y-80740915D02*
X42234636Y-80958149D01*
X41958149Y-81234636D01*
X41740915Y-81559750D01*
X41591282Y-81920997D01*
X41515000Y-82304495D01*
X41515000Y-82695505D01*
X41591282Y-83079003D01*
X41740915Y-83440250D01*
X41958149Y-83765364D01*
X42234636Y-84041851D01*
X42559750Y-84259085D01*
X42920997Y-84408718D01*
X43304495Y-84485000D01*
X43695505Y-84485000D01*
X44079003Y-84408718D01*
X44440250Y-84259085D01*
X44765364Y-84041851D01*
X45041851Y-83765364D01*
X45259085Y-83440250D01*
X45408718Y-83079003D01*
X45444323Y-82900000D01*
X47061928Y-82900000D01*
X47065000Y-83514250D01*
X47223750Y-83673000D01*
X48473000Y-83673000D01*
X48473000Y-82423750D01*
X48727000Y-82423750D01*
X48727000Y-83673000D01*
X48747000Y-83673000D01*
X48747000Y-83927000D01*
X48727000Y-83927000D01*
X48727000Y-85176250D01*
X48885750Y-85335000D01*
X49500000Y-85338072D01*
X49624482Y-85325812D01*
X49744180Y-85289502D01*
X49854494Y-85230537D01*
X49951185Y-85151185D01*
X50030537Y-85054494D01*
X50089502Y-84944180D01*
X50095056Y-84925873D01*
X50161495Y-84992312D01*
X50412905Y-85160299D01*
X50692257Y-85276011D01*
X50988816Y-85335000D01*
X51291184Y-85335000D01*
X51587743Y-85276011D01*
X51867095Y-85160299D01*
X52118505Y-84992312D01*
X52332312Y-84778505D01*
X52384767Y-84700000D01*
X53661928Y-84700000D01*
X53674188Y-84824482D01*
X53710498Y-84944180D01*
X53769463Y-85054494D01*
X53848815Y-85151185D01*
X53945506Y-85230537D01*
X54055820Y-85289502D01*
X54175518Y-85325812D01*
X54300000Y-85338072D01*
X54914250Y-85335000D01*
X55073000Y-85176250D01*
X55073000Y-83927000D01*
X53823750Y-83927000D01*
X53665000Y-84085750D01*
X53661928Y-84700000D01*
X52384767Y-84700000D01*
X52500299Y-84527095D01*
X52616011Y-84247743D01*
X52675000Y-83951184D01*
X52675000Y-83648816D01*
X52616011Y-83352257D01*
X52500299Y-83072905D01*
X52384768Y-82900000D01*
X53661928Y-82900000D01*
X53665000Y-83514250D01*
X53823750Y-83673000D01*
X55073000Y-83673000D01*
X55073000Y-82423750D01*
X55327000Y-82423750D01*
X55327000Y-83673000D01*
X55347000Y-83673000D01*
X55347000Y-83927000D01*
X55327000Y-83927000D01*
X55327000Y-85176250D01*
X55485750Y-85335000D01*
X56100000Y-85338072D01*
X56224482Y-85325812D01*
X56344180Y-85289502D01*
X56454494Y-85230537D01*
X56551185Y-85151185D01*
X56630537Y-85054494D01*
X56689502Y-84944180D01*
X56695056Y-84925873D01*
X56761495Y-84992312D01*
X57012905Y-85160299D01*
X57292257Y-85276011D01*
X57588816Y-85335000D01*
X57891184Y-85335000D01*
X58187743Y-85276011D01*
X58467095Y-85160299D01*
X58718505Y-84992312D01*
X58932312Y-84778505D01*
X59100299Y-84527095D01*
X59216011Y-84247743D01*
X59275000Y-83951184D01*
X59275000Y-83648816D01*
X59216011Y-83352257D01*
X59100299Y-83072905D01*
X58932312Y-82821495D01*
X58718505Y-82607688D01*
X58467095Y-82439701D01*
X58187743Y-82323989D01*
X57891184Y-82265000D01*
X57588816Y-82265000D01*
X57292257Y-82323989D01*
X57012905Y-82439701D01*
X56761495Y-82607688D01*
X56695056Y-82674127D01*
X56689502Y-82655820D01*
X56630537Y-82545506D01*
X56551185Y-82448815D01*
X56454494Y-82369463D01*
X56344180Y-82310498D01*
X56224482Y-82274188D01*
X56100000Y-82261928D01*
X55485750Y-82265000D01*
X55327000Y-82423750D01*
X55073000Y-82423750D01*
X54914250Y-82265000D01*
X54300000Y-82261928D01*
X54175518Y-82274188D01*
X54055820Y-82310498D01*
X53945506Y-82369463D01*
X53848815Y-82448815D01*
X53769463Y-82545506D01*
X53710498Y-82655820D01*
X53674188Y-82775518D01*
X53661928Y-82900000D01*
X52384768Y-82900000D01*
X52332312Y-82821495D01*
X52118505Y-82607688D01*
X51867095Y-82439701D01*
X51587743Y-82323989D01*
X51291184Y-82265000D01*
X50988816Y-82265000D01*
X50692257Y-82323989D01*
X50412905Y-82439701D01*
X50161495Y-82607688D01*
X50095056Y-82674127D01*
X50089502Y-82655820D01*
X50030537Y-82545506D01*
X49951185Y-82448815D01*
X49854494Y-82369463D01*
X49744180Y-82310498D01*
X49624482Y-82274188D01*
X49500000Y-82261928D01*
X48885750Y-82265000D01*
X48727000Y-82423750D01*
X48473000Y-82423750D01*
X48314250Y-82265000D01*
X47700000Y-82261928D01*
X47575518Y-82274188D01*
X47455820Y-82310498D01*
X47345506Y-82369463D01*
X47248815Y-82448815D01*
X47169463Y-82545506D01*
X47110498Y-82655820D01*
X47074188Y-82775518D01*
X47061928Y-82900000D01*
X45444323Y-82900000D01*
X45485000Y-82695505D01*
X45485000Y-82304495D01*
X45408718Y-81920997D01*
X45259085Y-81559750D01*
X45041851Y-81234636D01*
X44765364Y-80958149D01*
X44440250Y-80740915D01*
X44244903Y-80660000D01*
X84087360Y-80660000D01*
X83907748Y-80780013D01*
X83680013Y-81007748D01*
X83501082Y-81275537D01*
X83377832Y-81573088D01*
X83315000Y-81888967D01*
X83315000Y-82211033D01*
X83377832Y-82526912D01*
X83501082Y-82824463D01*
X83680013Y-83092252D01*
X83907748Y-83319987D01*
X84175537Y-83498918D01*
X84473088Y-83622168D01*
X84788967Y-83685000D01*
X85111033Y-83685000D01*
X85426912Y-83622168D01*
X85724463Y-83498918D01*
X85992252Y-83319987D01*
X86127239Y-83185000D01*
X90272761Y-83185000D01*
X90407748Y-83319987D01*
X90675537Y-83498918D01*
X90973088Y-83622168D01*
X91288967Y-83685000D01*
X91611033Y-83685000D01*
X91926912Y-83622168D01*
X92224463Y-83498918D01*
X92492252Y-83319987D01*
X92719987Y-83092252D01*
X92898918Y-82824463D01*
X93022168Y-82526912D01*
X93085000Y-82211033D01*
X93085000Y-81888967D01*
X93022168Y-81573088D01*
X92898918Y-81275537D01*
X92719987Y-81007748D01*
X92492252Y-80780013D01*
X92312640Y-80660000D01*
X93937360Y-80660000D01*
X93757748Y-80780013D01*
X93530013Y-81007748D01*
X93351082Y-81275537D01*
X93227832Y-81573088D01*
X93165000Y-81888967D01*
X93165000Y-82211033D01*
X93227832Y-82526912D01*
X93351082Y-82824463D01*
X93530013Y-83092252D01*
X93757748Y-83319987D01*
X94025537Y-83498918D01*
X94323088Y-83622168D01*
X94638967Y-83685000D01*
X94961033Y-83685000D01*
X95276912Y-83622168D01*
X95574463Y-83498918D01*
X95842252Y-83319987D01*
X95977239Y-83185000D01*
X100122761Y-83185000D01*
X100257748Y-83319987D01*
X100525537Y-83498918D01*
X100823088Y-83622168D01*
X101138967Y-83685000D01*
X101461033Y-83685000D01*
X101776912Y-83622168D01*
X101791375Y-83616177D01*
X102140000Y-83964802D01*
X102140000Y-85140435D01*
X101870429Y-85009296D01*
X101558892Y-84927616D01*
X101237405Y-84908282D01*
X100918325Y-84952039D01*
X100613912Y-85057205D01*
X100439956Y-85150186D01*
X100344192Y-85414587D01*
X101300000Y-86370395D01*
X101314143Y-86356253D01*
X101493748Y-86535858D01*
X101479605Y-86550000D01*
X101493748Y-86564143D01*
X101314143Y-86743748D01*
X101300000Y-86729605D01*
X100344192Y-87685413D01*
X100363963Y-87740000D01*
X97487323Y-87740000D01*
X97450000Y-87736324D01*
X97412677Y-87740000D01*
X97412667Y-87740000D01*
X97301014Y-87750997D01*
X97157753Y-87794454D01*
X97025723Y-87865026D01*
X96984342Y-87898987D01*
X96909999Y-87959999D01*
X96886201Y-87988997D01*
X95750801Y-89124398D01*
X95724637Y-89085241D01*
X95524759Y-88885363D01*
X95289727Y-88728320D01*
X95028574Y-88620147D01*
X94751335Y-88565000D01*
X94468665Y-88565000D01*
X94191426Y-88620147D01*
X93930273Y-88728320D01*
X93695241Y-88885363D01*
X93495363Y-89085241D01*
X93338320Y-89320273D01*
X93230147Y-89581426D01*
X93175000Y-89858665D01*
X93175000Y-90141335D01*
X93211312Y-90323886D01*
X92538998Y-90996201D01*
X92510000Y-91019999D01*
X92486202Y-91048997D01*
X92486201Y-91048998D01*
X92415026Y-91135724D01*
X92344454Y-91267754D01*
X92318452Y-91353475D01*
X92310451Y-91379853D01*
X92300998Y-91411015D01*
X92286324Y-91560000D01*
X92290001Y-91597332D01*
X92290000Y-95085198D01*
X91285199Y-96090000D01*
X83885953Y-96090000D01*
X83848630Y-96086324D01*
X83811307Y-96090000D01*
X83811297Y-96090000D01*
X83699644Y-96100997D01*
X83556383Y-96144454D01*
X83424353Y-96215026D01*
X83346398Y-96279003D01*
X83308629Y-96309999D01*
X83284830Y-96338998D01*
X82718998Y-96904831D01*
X82690000Y-96928629D01*
X82666202Y-96957627D01*
X82666201Y-96957628D01*
X82595026Y-97044354D01*
X82524454Y-97176384D01*
X82502502Y-97248754D01*
X82480998Y-97319644D01*
X82476047Y-97369915D01*
X82475203Y-97378480D01*
X82315241Y-97485363D01*
X82115363Y-97685241D01*
X81960000Y-97917759D01*
X81804637Y-97685241D01*
X81604759Y-97485363D01*
X81369727Y-97328320D01*
X81108574Y-97220147D01*
X80831335Y-97165000D01*
X80548665Y-97165000D01*
X80271426Y-97220147D01*
X80010273Y-97328320D01*
X79775241Y-97485363D01*
X79575363Y-97685241D01*
X79418320Y-97920273D01*
X79413933Y-97930865D01*
X79302385Y-97744869D01*
X79113414Y-97536481D01*
X78887420Y-97368963D01*
X78633087Y-97248754D01*
X78499039Y-97208096D01*
X78277000Y-97330085D01*
X78277000Y-98473000D01*
X78297000Y-98473000D01*
X78297000Y-98727000D01*
X78277000Y-98727000D01*
X78277000Y-99869915D01*
X78499039Y-99991904D01*
X78633087Y-99951246D01*
X78887420Y-99831037D01*
X79113414Y-99663519D01*
X79302385Y-99455131D01*
X79413933Y-99269135D01*
X79418320Y-99279727D01*
X79555000Y-99484284D01*
X79555001Y-104639867D01*
X77386865Y-106808004D01*
X77343551Y-106843551D01*
X77201716Y-107016377D01*
X77096325Y-107213553D01*
X77096324Y-107213554D01*
X77031423Y-107427502D01*
X77009509Y-107650000D01*
X77015000Y-107705752D01*
X77015001Y-112955715D01*
X76880000Y-113157759D01*
X76724637Y-112925241D01*
X76524759Y-112725363D01*
X76289727Y-112568320D01*
X76028574Y-112460147D01*
X75751335Y-112405000D01*
X75468665Y-112405000D01*
X75191426Y-112460147D01*
X74930273Y-112568320D01*
X74695241Y-112725363D01*
X74495363Y-112925241D01*
X74340000Y-113157759D01*
X74184637Y-112925241D01*
X73984759Y-112725363D01*
X73749727Y-112568320D01*
X73488574Y-112460147D01*
X73211335Y-112405000D01*
X72928665Y-112405000D01*
X72651426Y-112460147D01*
X72390273Y-112568320D01*
X72155241Y-112725363D01*
X71955363Y-112925241D01*
X71800000Y-113157759D01*
X71644637Y-112925241D01*
X71444759Y-112725363D01*
X71209727Y-112568320D01*
X70948574Y-112460147D01*
X70671335Y-112405000D01*
X70388665Y-112405000D01*
X70111426Y-112460147D01*
X69850273Y-112568320D01*
X69615241Y-112725363D01*
X69415363Y-112925241D01*
X69260000Y-113157759D01*
X69104637Y-112925241D01*
X68904759Y-112725363D01*
X68669727Y-112568320D01*
X68408574Y-112460147D01*
X68131335Y-112405000D01*
X67848665Y-112405000D01*
X67571426Y-112460147D01*
X67310273Y-112568320D01*
X67075241Y-112725363D01*
X66875363Y-112925241D01*
X66720000Y-113157759D01*
X66564637Y-112925241D01*
X66364759Y-112725363D01*
X66129727Y-112568320D01*
X65868574Y-112460147D01*
X65591335Y-112405000D01*
X65308665Y-112405000D01*
X65031426Y-112460147D01*
X64770273Y-112568320D01*
X64535241Y-112725363D01*
X64335363Y-112925241D01*
X64180000Y-113157759D01*
X64024637Y-112925241D01*
X63824759Y-112725363D01*
X63589727Y-112568320D01*
X63328574Y-112460147D01*
X63051335Y-112405000D01*
X62768665Y-112405000D01*
X62491426Y-112460147D01*
X62230273Y-112568320D01*
X61995241Y-112725363D01*
X61795363Y-112925241D01*
X61640000Y-113157759D01*
X61484637Y-112925241D01*
X61284759Y-112725363D01*
X61049727Y-112568320D01*
X60788574Y-112460147D01*
X60511335Y-112405000D01*
X60228665Y-112405000D01*
X59951426Y-112460147D01*
X59690273Y-112568320D01*
X59455241Y-112725363D01*
X59255363Y-112925241D01*
X59100000Y-113157759D01*
X58944637Y-112925241D01*
X58744759Y-112725363D01*
X58509727Y-112568320D01*
X58248574Y-112460147D01*
X57971335Y-112405000D01*
X57688665Y-112405000D01*
X57411426Y-112460147D01*
X57150273Y-112568320D01*
X56915241Y-112725363D01*
X56715363Y-112925241D01*
X56560000Y-113157759D01*
X56404637Y-112925241D01*
X56204759Y-112725363D01*
X55969727Y-112568320D01*
X55708574Y-112460147D01*
X55431335Y-112405000D01*
X55148665Y-112405000D01*
X54871426Y-112460147D01*
X54610273Y-112568320D01*
X54375241Y-112725363D01*
X54175363Y-112925241D01*
X54018320Y-113160273D01*
X53910147Y-113421426D01*
X53855000Y-113698665D01*
X53855000Y-113981335D01*
X53910147Y-114258574D01*
X54018320Y-114519727D01*
X54175363Y-114754759D01*
X54375241Y-114954637D01*
X54610273Y-115111680D01*
X54871426Y-115219853D01*
X55148665Y-115275000D01*
X55431335Y-115275000D01*
X55708574Y-115219853D01*
X55969727Y-115111680D01*
X56204759Y-114954637D01*
X56404637Y-114754759D01*
X56560000Y-114522241D01*
X56715363Y-114754759D01*
X56915241Y-114954637D01*
X57150273Y-115111680D01*
X57411426Y-115219853D01*
X57688665Y-115275000D01*
X57971335Y-115275000D01*
X58248574Y-115219853D01*
X58509727Y-115111680D01*
X58744759Y-114954637D01*
X58944637Y-114754759D01*
X59100000Y-114522241D01*
X59255363Y-114754759D01*
X59455241Y-114954637D01*
X59690273Y-115111680D01*
X59951426Y-115219853D01*
X60228665Y-115275000D01*
X60511335Y-115275000D01*
X60788574Y-115219853D01*
X61049727Y-115111680D01*
X61284759Y-114954637D01*
X61484637Y-114754759D01*
X61640000Y-114522241D01*
X61795363Y-114754759D01*
X61995241Y-114954637D01*
X62230273Y-115111680D01*
X62491426Y-115219853D01*
X62768665Y-115275000D01*
X63051335Y-115275000D01*
X63328574Y-115219853D01*
X63589727Y-115111680D01*
X63824759Y-114954637D01*
X64024637Y-114754759D01*
X64180000Y-114522241D01*
X64335363Y-114754759D01*
X64535241Y-114954637D01*
X64770273Y-115111680D01*
X65031426Y-115219853D01*
X65308665Y-115275000D01*
X65591335Y-115275000D01*
X65868574Y-115219853D01*
X66129727Y-115111680D01*
X66364759Y-114954637D01*
X66564637Y-114754759D01*
X66720000Y-114522241D01*
X66875363Y-114754759D01*
X67075241Y-114954637D01*
X67310273Y-115111680D01*
X67571426Y-115219853D01*
X67848665Y-115275000D01*
X68131335Y-115275000D01*
X68408574Y-115219853D01*
X68669727Y-115111680D01*
X68904759Y-114954637D01*
X69104637Y-114754759D01*
X69260000Y-114522241D01*
X69415363Y-114754759D01*
X69615241Y-114954637D01*
X69850273Y-115111680D01*
X70111426Y-115219853D01*
X70388665Y-115275000D01*
X70671335Y-115275000D01*
X70948574Y-115219853D01*
X71209727Y-115111680D01*
X71444759Y-114954637D01*
X71644637Y-114754759D01*
X71800000Y-114522241D01*
X71955363Y-114754759D01*
X72155241Y-114954637D01*
X72390273Y-115111680D01*
X72651426Y-115219853D01*
X72928665Y-115275000D01*
X73211335Y-115275000D01*
X73488574Y-115219853D01*
X73749727Y-115111680D01*
X73984759Y-114954637D01*
X74184637Y-114754759D01*
X74340000Y-114522241D01*
X74495363Y-114754759D01*
X74695241Y-114954637D01*
X74930273Y-115111680D01*
X75191426Y-115219853D01*
X75468665Y-115275000D01*
X75751335Y-115275000D01*
X76028574Y-115219853D01*
X76289727Y-115111680D01*
X76524759Y-114954637D01*
X76724637Y-114754759D01*
X76880000Y-114522241D01*
X77035363Y-114754759D01*
X77235241Y-114954637D01*
X77470273Y-115111680D01*
X77731426Y-115219853D01*
X78008665Y-115275000D01*
X78291335Y-115275000D01*
X78568574Y-115219853D01*
X78829727Y-115111680D01*
X79064759Y-114954637D01*
X79264637Y-114754759D01*
X79421680Y-114519727D01*
X79426067Y-114509135D01*
X79537615Y-114695131D01*
X79726586Y-114903519D01*
X79952580Y-115071037D01*
X80206913Y-115191246D01*
X80340961Y-115231904D01*
X80563000Y-115109915D01*
X80563000Y-113967000D01*
X80543000Y-113967000D01*
X80543000Y-113713000D01*
X80563000Y-113713000D01*
X80563000Y-112570085D01*
X80817000Y-112570085D01*
X80817000Y-113713000D01*
X80837000Y-113713000D01*
X80837000Y-113967000D01*
X80817000Y-113967000D01*
X80817000Y-115109915D01*
X81039039Y-115231904D01*
X81173087Y-115191246D01*
X81427420Y-115071037D01*
X81653414Y-114903519D01*
X81842385Y-114695131D01*
X81953933Y-114509135D01*
X81958320Y-114519727D01*
X82115363Y-114754759D01*
X82315241Y-114954637D01*
X82550273Y-115111680D01*
X82811426Y-115219853D01*
X83088665Y-115275000D01*
X83371335Y-115275000D01*
X83648574Y-115219853D01*
X83909727Y-115111680D01*
X84144759Y-114954637D01*
X84344637Y-114754759D01*
X84500000Y-114522241D01*
X84655363Y-114754759D01*
X84855241Y-114954637D01*
X85090273Y-115111680D01*
X85351426Y-115219853D01*
X85628665Y-115275000D01*
X85911335Y-115275000D01*
X86188574Y-115219853D01*
X86449727Y-115111680D01*
X86684759Y-114954637D01*
X86884637Y-114754759D01*
X87040000Y-114522241D01*
X87195363Y-114754759D01*
X87395241Y-114954637D01*
X87630273Y-115111680D01*
X87891426Y-115219853D01*
X88168665Y-115275000D01*
X88451335Y-115275000D01*
X88728574Y-115219853D01*
X88989727Y-115111680D01*
X89224759Y-114954637D01*
X89424637Y-114754759D01*
X89580000Y-114522241D01*
X89735363Y-114754759D01*
X89935241Y-114954637D01*
X90170273Y-115111680D01*
X90431426Y-115219853D01*
X90708665Y-115275000D01*
X90991335Y-115275000D01*
X91268574Y-115219853D01*
X91529727Y-115111680D01*
X91764759Y-114954637D01*
X91964637Y-114754759D01*
X92120000Y-114522241D01*
X92275363Y-114754759D01*
X92475241Y-114954637D01*
X92710273Y-115111680D01*
X92971426Y-115219853D01*
X93248665Y-115275000D01*
X93531335Y-115275000D01*
X93808574Y-115219853D01*
X94069727Y-115111680D01*
X94304759Y-114954637D01*
X94504637Y-114754759D01*
X94660000Y-114522241D01*
X94815363Y-114754759D01*
X95015241Y-114954637D01*
X95250273Y-115111680D01*
X95511426Y-115219853D01*
X95788665Y-115275000D01*
X96071335Y-115275000D01*
X96348574Y-115219853D01*
X96609727Y-115111680D01*
X96844759Y-114954637D01*
X97044637Y-114754759D01*
X97200000Y-114522241D01*
X97355363Y-114754759D01*
X97555241Y-114954637D01*
X97790273Y-115111680D01*
X98051426Y-115219853D01*
X98328665Y-115275000D01*
X98611335Y-115275000D01*
X98888574Y-115219853D01*
X99149727Y-115111680D01*
X99384759Y-114954637D01*
X99584637Y-114754759D01*
X99740000Y-114522241D01*
X99895363Y-114754759D01*
X100095241Y-114954637D01*
X100330273Y-115111680D01*
X100591426Y-115219853D01*
X100868665Y-115275000D01*
X101151335Y-115275000D01*
X101428574Y-115219853D01*
X101689727Y-115111680D01*
X101924759Y-114954637D01*
X102124637Y-114754759D01*
X102280000Y-114522241D01*
X102435363Y-114754759D01*
X102635241Y-114954637D01*
X102870273Y-115111680D01*
X103131426Y-115219853D01*
X103408665Y-115275000D01*
X103691335Y-115275000D01*
X103968574Y-115219853D01*
X104229727Y-115111680D01*
X104464759Y-114954637D01*
X104664637Y-114754759D01*
X104821680Y-114519727D01*
X104929853Y-114258574D01*
X104985000Y-113981335D01*
X104985000Y-113698665D01*
X104929853Y-113421426D01*
X104821680Y-113160273D01*
X104664637Y-112925241D01*
X104464759Y-112725363D01*
X104229727Y-112568320D01*
X103968574Y-112460147D01*
X103691335Y-112405000D01*
X103408665Y-112405000D01*
X103131426Y-112460147D01*
X102870273Y-112568320D01*
X102635241Y-112725363D01*
X102435363Y-112925241D01*
X102280000Y-113157759D01*
X102124637Y-112925241D01*
X101924759Y-112725363D01*
X101689727Y-112568320D01*
X101428574Y-112460147D01*
X101151335Y-112405000D01*
X100868665Y-112405000D01*
X100591426Y-112460147D01*
X100330273Y-112568320D01*
X100095241Y-112725363D01*
X99895363Y-112925241D01*
X99740000Y-113157759D01*
X99584637Y-112925241D01*
X99384759Y-112725363D01*
X99149727Y-112568320D01*
X98888574Y-112460147D01*
X98611335Y-112405000D01*
X98328665Y-112405000D01*
X98051426Y-112460147D01*
X97790273Y-112568320D01*
X97555241Y-112725363D01*
X97355363Y-112925241D01*
X97200000Y-113157759D01*
X97044637Y-112925241D01*
X96844759Y-112725363D01*
X96609727Y-112568320D01*
X96348574Y-112460147D01*
X96071335Y-112405000D01*
X95788665Y-112405000D01*
X95511426Y-112460147D01*
X95250273Y-112568320D01*
X95015241Y-112725363D01*
X94815363Y-112925241D01*
X94660000Y-113157759D01*
X94504637Y-112925241D01*
X94304759Y-112725363D01*
X94069727Y-112568320D01*
X93808574Y-112460147D01*
X93531335Y-112405000D01*
X93248665Y-112405000D01*
X92971426Y-112460147D01*
X92710273Y-112568320D01*
X92475241Y-112725363D01*
X92275363Y-112925241D01*
X92120000Y-113157759D01*
X91964637Y-112925241D01*
X91764759Y-112725363D01*
X91529727Y-112568320D01*
X91268574Y-112460147D01*
X90991335Y-112405000D01*
X90708665Y-112405000D01*
X90431426Y-112460147D01*
X90170273Y-112568320D01*
X89935241Y-112725363D01*
X89735363Y-112925241D01*
X89580000Y-113157759D01*
X89424637Y-112925241D01*
X89224759Y-112725363D01*
X88989727Y-112568320D01*
X88728574Y-112460147D01*
X88451335Y-112405000D01*
X88168665Y-112405000D01*
X87891426Y-112460147D01*
X87630273Y-112568320D01*
X87395241Y-112725363D01*
X87195363Y-112925241D01*
X87040000Y-113157759D01*
X86884637Y-112925241D01*
X86684759Y-112725363D01*
X86449727Y-112568320D01*
X86188574Y-112460147D01*
X85911335Y-112405000D01*
X85628665Y-112405000D01*
X85351426Y-112460147D01*
X85090273Y-112568320D01*
X84855241Y-112725363D01*
X84655363Y-112925241D01*
X84500000Y-113157759D01*
X84344637Y-112925241D01*
X84144759Y-112725363D01*
X83909727Y-112568320D01*
X83648574Y-112460147D01*
X83371335Y-112405000D01*
X83088665Y-112405000D01*
X82811426Y-112460147D01*
X82550273Y-112568320D01*
X82315241Y-112725363D01*
X82115363Y-112925241D01*
X81958320Y-113160273D01*
X81953933Y-113170865D01*
X81842385Y-112984869D01*
X81653414Y-112776481D01*
X81427420Y-112608963D01*
X81173087Y-112488754D01*
X81039039Y-112448096D01*
X80817000Y-112570085D01*
X80563000Y-112570085D01*
X80340961Y-112448096D01*
X80206913Y-112488754D01*
X79952580Y-112608963D01*
X79726586Y-112776481D01*
X79537615Y-112984869D01*
X79426067Y-113170865D01*
X79421680Y-113160273D01*
X79285000Y-112955716D01*
X79285000Y-108120131D01*
X81453141Y-105951991D01*
X81496449Y-105916449D01*
X81638284Y-105743623D01*
X81743676Y-105546447D01*
X81808577Y-105332499D01*
X81825000Y-105165752D01*
X81825000Y-105165743D01*
X81830490Y-105110001D01*
X81825000Y-105054259D01*
X81825000Y-99484284D01*
X81960000Y-99282241D01*
X82115363Y-99514759D01*
X82315241Y-99714637D01*
X82550273Y-99871680D01*
X82811426Y-99979853D01*
X83088665Y-100035000D01*
X83371335Y-100035000D01*
X83648574Y-99979853D01*
X83909727Y-99871680D01*
X84144759Y-99714637D01*
X84344637Y-99514759D01*
X84500000Y-99282241D01*
X84655363Y-99514759D01*
X84855241Y-99714637D01*
X85090273Y-99871680D01*
X85351426Y-99979853D01*
X85628665Y-100035000D01*
X85911335Y-100035000D01*
X86188574Y-99979853D01*
X86449727Y-99871680D01*
X86684759Y-99714637D01*
X86884637Y-99514759D01*
X87040000Y-99282241D01*
X87195363Y-99514759D01*
X87395241Y-99714637D01*
X87630273Y-99871680D01*
X87891426Y-99979853D01*
X88168665Y-100035000D01*
X88451335Y-100035000D01*
X88728574Y-99979853D01*
X88989727Y-99871680D01*
X89224759Y-99714637D01*
X89424637Y-99514759D01*
X89580000Y-99282241D01*
X89735363Y-99514759D01*
X89935241Y-99714637D01*
X90170273Y-99871680D01*
X90431426Y-99979853D01*
X90708665Y-100035000D01*
X90991335Y-100035000D01*
X91268574Y-99979853D01*
X91529727Y-99871680D01*
X91764759Y-99714637D01*
X91964637Y-99514759D01*
X92120000Y-99282241D01*
X92275363Y-99514759D01*
X92475241Y-99714637D01*
X92710273Y-99871680D01*
X92971426Y-99979853D01*
X93248665Y-100035000D01*
X93531335Y-100035000D01*
X93808574Y-99979853D01*
X94069727Y-99871680D01*
X94304759Y-99714637D01*
X94504637Y-99514759D01*
X94660000Y-99282241D01*
X94815363Y-99514759D01*
X95015241Y-99714637D01*
X95250273Y-99871680D01*
X95511426Y-99979853D01*
X95788665Y-100035000D01*
X96071335Y-100035000D01*
X96348574Y-99979853D01*
X96609727Y-99871680D01*
X96844759Y-99714637D01*
X97044637Y-99514759D01*
X97200000Y-99282241D01*
X97355363Y-99514759D01*
X97555241Y-99714637D01*
X97790273Y-99871680D01*
X98051426Y-99979853D01*
X98328665Y-100035000D01*
X98611335Y-100035000D01*
X98888574Y-99979853D01*
X99149727Y-99871680D01*
X99384759Y-99714637D01*
X99584637Y-99514759D01*
X99740000Y-99282241D01*
X99895363Y-99514759D01*
X100095241Y-99714637D01*
X100330273Y-99871680D01*
X100591426Y-99979853D01*
X100868665Y-100035000D01*
X101151335Y-100035000D01*
X101428574Y-99979853D01*
X101689727Y-99871680D01*
X101924759Y-99714637D01*
X102123357Y-99516039D01*
X102124188Y-99524482D01*
X102160498Y-99644180D01*
X102219463Y-99754494D01*
X102298815Y-99851185D01*
X102395506Y-99930537D01*
X102505820Y-99989502D01*
X102625518Y-100025812D01*
X102750000Y-100038072D01*
X104350000Y-100038072D01*
X104474482Y-100025812D01*
X104594180Y-99989502D01*
X104704494Y-99930537D01*
X104801185Y-99851185D01*
X104880537Y-99754494D01*
X104939502Y-99644180D01*
X104975812Y-99524482D01*
X104988072Y-99400000D01*
X104988072Y-97800000D01*
X104975812Y-97675518D01*
X104939502Y-97555820D01*
X104880537Y-97445506D01*
X104801185Y-97348815D01*
X104704494Y-97269463D01*
X104594180Y-97210498D01*
X104474482Y-97174188D01*
X104350000Y-97161928D01*
X102750000Y-97161928D01*
X102625518Y-97174188D01*
X102505820Y-97210498D01*
X102395506Y-97269463D01*
X102298815Y-97348815D01*
X102219463Y-97445506D01*
X102160498Y-97555820D01*
X102124188Y-97675518D01*
X102123357Y-97683961D01*
X101924759Y-97485363D01*
X101689727Y-97328320D01*
X101428574Y-97220147D01*
X101151335Y-97165000D01*
X100868665Y-97165000D01*
X100591426Y-97220147D01*
X100330273Y-97328320D01*
X100095241Y-97485363D01*
X99895363Y-97685241D01*
X99740000Y-97917759D01*
X99584637Y-97685241D01*
X99384759Y-97485363D01*
X99230000Y-97381957D01*
X99230000Y-97197322D01*
X99233676Y-97159999D01*
X99230000Y-97122676D01*
X99230000Y-97122667D01*
X99219003Y-97011014D01*
X99175546Y-96867753D01*
X99157321Y-96833656D01*
X99104974Y-96735723D01*
X99033799Y-96648997D01*
X99010001Y-96619999D01*
X98981003Y-96596201D01*
X95958688Y-93573887D01*
X95995000Y-93391335D01*
X95995000Y-93108665D01*
X95958688Y-92926114D01*
X96291062Y-92593740D01*
X103415000Y-92593740D01*
X103415000Y-92886260D01*
X103472068Y-93173158D01*
X103584010Y-93443411D01*
X103746525Y-93686632D01*
X103953368Y-93893475D01*
X104127760Y-94010000D01*
X103953368Y-94126525D01*
X103746525Y-94333368D01*
X103584010Y-94576589D01*
X103472068Y-94846842D01*
X103415000Y-95133740D01*
X103415000Y-95426260D01*
X103472068Y-95713158D01*
X103584010Y-95983411D01*
X103746525Y-96226632D01*
X103953368Y-96433475D01*
X104196589Y-96595990D01*
X104466842Y-96707932D01*
X104753740Y-96765000D01*
X105046260Y-96765000D01*
X105333158Y-96707932D01*
X105603411Y-96595990D01*
X105846632Y-96433475D01*
X105978487Y-96301620D01*
X106000498Y-96374180D01*
X106059463Y-96484494D01*
X106138815Y-96581185D01*
X106235506Y-96660537D01*
X106345820Y-96719502D01*
X106465518Y-96755812D01*
X106590000Y-96768072D01*
X108290000Y-96768072D01*
X108414482Y-96755812D01*
X108534180Y-96719502D01*
X108644494Y-96660537D01*
X108741185Y-96581185D01*
X108820537Y-96484494D01*
X108879502Y-96374180D01*
X108915812Y-96254482D01*
X108928072Y-96130000D01*
X108928072Y-94430000D01*
X108915812Y-94305518D01*
X108879502Y-94185820D01*
X108820537Y-94075506D01*
X108741185Y-93978815D01*
X108644494Y-93899463D01*
X108534180Y-93840498D01*
X108461620Y-93818487D01*
X108593475Y-93686632D01*
X108755990Y-93443411D01*
X108867932Y-93173158D01*
X108925000Y-92886260D01*
X108925000Y-92593740D01*
X108867932Y-92306842D01*
X108755990Y-92036589D01*
X108593475Y-91793368D01*
X108386632Y-91586525D01*
X108212240Y-91470000D01*
X108386632Y-91353475D01*
X108593475Y-91146632D01*
X108755990Y-90903411D01*
X108867932Y-90633158D01*
X108925000Y-90346260D01*
X108925000Y-90053740D01*
X108867932Y-89766842D01*
X108755990Y-89496589D01*
X108593475Y-89253368D01*
X108386632Y-89046525D01*
X108143411Y-88884010D01*
X107873158Y-88772068D01*
X107586260Y-88715000D01*
X107293740Y-88715000D01*
X107006842Y-88772068D01*
X106736589Y-88884010D01*
X106493368Y-89046525D01*
X106286525Y-89253368D01*
X106168900Y-89429406D01*
X105997588Y-89199731D01*
X105781355Y-89004822D01*
X105531252Y-88855843D01*
X105256891Y-88758519D01*
X105027000Y-88879186D01*
X105027000Y-90073000D01*
X105047000Y-90073000D01*
X105047000Y-90327000D01*
X105027000Y-90327000D01*
X105027000Y-90347000D01*
X104773000Y-90347000D01*
X104773000Y-90327000D01*
X103579845Y-90327000D01*
X103458524Y-90556890D01*
X103503175Y-90704099D01*
X103628359Y-90966920D01*
X103802412Y-91200269D01*
X104018645Y-91395178D01*
X104135534Y-91464805D01*
X103953368Y-91586525D01*
X103746525Y-91793368D01*
X103584010Y-92036589D01*
X103472068Y-92306842D01*
X103415000Y-92593740D01*
X96291062Y-92593740D01*
X96711003Y-92173799D01*
X96740001Y-92150001D01*
X96834974Y-92034276D01*
X96905546Y-91902247D01*
X96949003Y-91758986D01*
X96960000Y-91647333D01*
X96960000Y-91647324D01*
X96963676Y-91610001D01*
X96960000Y-91572678D01*
X96960000Y-90064801D01*
X97181691Y-89843110D01*
X103458524Y-89843110D01*
X103579845Y-90073000D01*
X104773000Y-90073000D01*
X104773000Y-88879186D01*
X104543109Y-88758519D01*
X104268748Y-88855843D01*
X104018645Y-89004822D01*
X103802412Y-89199731D01*
X103628359Y-89433080D01*
X103503175Y-89695901D01*
X103458524Y-89843110D01*
X97181691Y-89843110D01*
X97764802Y-89260000D01*
X102112678Y-89260000D01*
X102150000Y-89263676D01*
X102187322Y-89260000D01*
X102187333Y-89260000D01*
X102298986Y-89249003D01*
X102442247Y-89205546D01*
X102574276Y-89134974D01*
X102690001Y-89040001D01*
X102713803Y-89010998D01*
X103411002Y-88313799D01*
X103440001Y-88290001D01*
X103534974Y-88174276D01*
X103605546Y-88042247D01*
X103649003Y-87898986D01*
X103660000Y-87787333D01*
X103660000Y-87787324D01*
X103663676Y-87750001D01*
X103660000Y-87712678D01*
X103660000Y-83687325D01*
X103663676Y-83650000D01*
X103660000Y-83612675D01*
X103660000Y-83612667D01*
X103649003Y-83501014D01*
X103605546Y-83357753D01*
X103534974Y-83225724D01*
X103440001Y-83109999D01*
X103411004Y-83086202D01*
X102866177Y-82541375D01*
X102872168Y-82526912D01*
X102935000Y-82211033D01*
X102935000Y-81888967D01*
X102872168Y-81573088D01*
X102748918Y-81275537D01*
X102569987Y-81007748D01*
X102342252Y-80780013D01*
X102162640Y-80660000D01*
X105755097Y-80660000D01*
X105559750Y-80740915D01*
X105234636Y-80958149D01*
X104958149Y-81234636D01*
X104740915Y-81559750D01*
X104591282Y-81920997D01*
X104515000Y-82304495D01*
X104515000Y-82695505D01*
X104591282Y-83079003D01*
X104740915Y-83440250D01*
X104958149Y-83765364D01*
X105234636Y-84041851D01*
X105559750Y-84259085D01*
X105920997Y-84408718D01*
X106304495Y-84485000D01*
X106695505Y-84485000D01*
X107079003Y-84408718D01*
X107440250Y-84259085D01*
X107765364Y-84041851D01*
X108041851Y-83765364D01*
X108259085Y-83440250D01*
X108408718Y-83079003D01*
X108485000Y-82695505D01*
X108485000Y-82304495D01*
X108408718Y-81920997D01*
X108259085Y-81559750D01*
X108041851Y-81234636D01*
X107765364Y-80958149D01*
X107440250Y-80740915D01*
X107244903Y-80660000D01*
X109340000Y-80660000D01*
X109340001Y-124340000D01*
X107244903Y-124340000D01*
X107440250Y-124259085D01*
X107765364Y-124041851D01*
X108041851Y-123765364D01*
X108259085Y-123440250D01*
X108408718Y-123079003D01*
X108485000Y-122695505D01*
X108485000Y-122304495D01*
X108408718Y-121920997D01*
X108259085Y-121559750D01*
X108041851Y-121234636D01*
X107765364Y-120958149D01*
X107440250Y-120740915D01*
X107079003Y-120591282D01*
X106695505Y-120515000D01*
X106304495Y-120515000D01*
X105920997Y-120591282D01*
X105559750Y-120740915D01*
X105234636Y-120958149D01*
X104958149Y-121234636D01*
X104740915Y-121559750D01*
X104591282Y-121920997D01*
X104515000Y-122304495D01*
X104515000Y-122695505D01*
X104591282Y-123079003D01*
X104740915Y-123440250D01*
X104958149Y-123765364D01*
X105234636Y-124041851D01*
X105559750Y-124259085D01*
X105755097Y-124340000D01*
X44244903Y-124340000D01*
X44440250Y-124259085D01*
X44765364Y-124041851D01*
X45041851Y-123765364D01*
X45259085Y-123440250D01*
X45408718Y-123079003D01*
X45485000Y-122695505D01*
X45485000Y-122304495D01*
X45408718Y-121920997D01*
X45259085Y-121559750D01*
X45041851Y-121234636D01*
X44765364Y-120958149D01*
X44440250Y-120740915D01*
X44079003Y-120591282D01*
X43695505Y-120515000D01*
X43304495Y-120515000D01*
X42920997Y-120591282D01*
X42559750Y-120740915D01*
X42234636Y-120958149D01*
X41958149Y-121234636D01*
X41740915Y-121559750D01*
X41591282Y-121920997D01*
X41515000Y-122304495D01*
X41515000Y-122695505D01*
X41591282Y-123079003D01*
X41740915Y-123440250D01*
X41958149Y-123765364D01*
X42234636Y-124041851D01*
X42559750Y-124259085D01*
X42755097Y-124340000D01*
X40660000Y-124340000D01*
X40660000Y-119754495D01*
X50565000Y-119754495D01*
X50565000Y-120145505D01*
X50641282Y-120529003D01*
X50790915Y-120890250D01*
X51008149Y-121215364D01*
X51284636Y-121491851D01*
X51609750Y-121709085D01*
X51970997Y-121858718D01*
X52354495Y-121935000D01*
X52745505Y-121935000D01*
X53129003Y-121858718D01*
X53490250Y-121709085D01*
X53815364Y-121491851D01*
X54091851Y-121215364D01*
X54309085Y-120890250D01*
X54458718Y-120529003D01*
X54535000Y-120145505D01*
X54535000Y-119754495D01*
X95515000Y-119754495D01*
X95515000Y-120145505D01*
X95591282Y-120529003D01*
X95740915Y-120890250D01*
X95958149Y-121215364D01*
X96234636Y-121491851D01*
X96559750Y-121709085D01*
X96920997Y-121858718D01*
X97304495Y-121935000D01*
X97695505Y-121935000D01*
X98079003Y-121858718D01*
X98440250Y-121709085D01*
X98765364Y-121491851D01*
X99041851Y-121215364D01*
X99259085Y-120890250D01*
X99408718Y-120529003D01*
X99485000Y-120145505D01*
X99485000Y-119754495D01*
X99408718Y-119370997D01*
X99259085Y-119009750D01*
X99041851Y-118684636D01*
X98765364Y-118408149D01*
X98440250Y-118190915D01*
X98079003Y-118041282D01*
X97695505Y-117965000D01*
X97304495Y-117965000D01*
X96920997Y-118041282D01*
X96559750Y-118190915D01*
X96234636Y-118408149D01*
X95958149Y-118684636D01*
X95740915Y-119009750D01*
X95591282Y-119370997D01*
X95515000Y-119754495D01*
X54535000Y-119754495D01*
X54458718Y-119370997D01*
X54309085Y-119009750D01*
X54091851Y-118684636D01*
X53815364Y-118408149D01*
X53490250Y-118190915D01*
X53129003Y-118041282D01*
X52745505Y-117965000D01*
X52354495Y-117965000D01*
X51970997Y-118041282D01*
X51609750Y-118190915D01*
X51284636Y-118408149D01*
X51008149Y-118684636D01*
X50790915Y-119009750D01*
X50641282Y-119370997D01*
X50565000Y-119754495D01*
X40660000Y-119754495D01*
X40660000Y-116858665D01*
X76765000Y-116858665D01*
X76765000Y-117141335D01*
X76820147Y-117418574D01*
X76928320Y-117679727D01*
X77085363Y-117914759D01*
X77285241Y-118114637D01*
X77520273Y-118271680D01*
X77781426Y-118379853D01*
X78058665Y-118435000D01*
X78341335Y-118435000D01*
X78618574Y-118379853D01*
X78879727Y-118271680D01*
X79114759Y-118114637D01*
X79236694Y-117992702D01*
X79886903Y-117992702D01*
X79958486Y-118236671D01*
X80213996Y-118357571D01*
X80488184Y-118426300D01*
X80770512Y-118440217D01*
X81050130Y-118398787D01*
X81316292Y-118303603D01*
X81441514Y-118236671D01*
X81513097Y-117992702D01*
X80700000Y-117179605D01*
X79886903Y-117992702D01*
X79236694Y-117992702D01*
X79314637Y-117914759D01*
X79448692Y-117714131D01*
X79463329Y-117741514D01*
X79707298Y-117813097D01*
X80520395Y-117000000D01*
X80879605Y-117000000D01*
X81692702Y-117813097D01*
X81936671Y-117741514D01*
X82057571Y-117486004D01*
X82126300Y-117211816D01*
X82140217Y-116929488D01*
X82098787Y-116649870D01*
X82003603Y-116383708D01*
X81936671Y-116258486D01*
X81692702Y-116186903D01*
X80879605Y-117000000D01*
X80520395Y-117000000D01*
X79707298Y-116186903D01*
X79463329Y-116258486D01*
X79449676Y-116287341D01*
X79314637Y-116085241D01*
X79236694Y-116007298D01*
X79886903Y-116007298D01*
X80700000Y-116820395D01*
X81513097Y-116007298D01*
X81441514Y-115763329D01*
X81186004Y-115642429D01*
X80911816Y-115573700D01*
X80629488Y-115559783D01*
X80349870Y-115601213D01*
X80083708Y-115696397D01*
X79958486Y-115763329D01*
X79886903Y-116007298D01*
X79236694Y-116007298D01*
X79114759Y-115885363D01*
X78879727Y-115728320D01*
X78618574Y-115620147D01*
X78341335Y-115565000D01*
X78058665Y-115565000D01*
X77781426Y-115620147D01*
X77520273Y-115728320D01*
X77285241Y-115885363D01*
X77085363Y-116085241D01*
X76928320Y-116320273D01*
X76820147Y-116581426D01*
X76765000Y-116858665D01*
X40660000Y-116858665D01*
X40660000Y-111618665D01*
X41365000Y-111618665D01*
X41365000Y-111901335D01*
X41420147Y-112178574D01*
X41528320Y-112439727D01*
X41685363Y-112674759D01*
X41885241Y-112874637D01*
X42120273Y-113031680D01*
X42381426Y-113139853D01*
X42658665Y-113195000D01*
X42941335Y-113195000D01*
X43218574Y-113139853D01*
X43479727Y-113031680D01*
X43714759Y-112874637D01*
X43914637Y-112674759D01*
X44071680Y-112439727D01*
X44179853Y-112178574D01*
X44235000Y-111901335D01*
X44235000Y-111618665D01*
X44233011Y-111608665D01*
X44515000Y-111608665D01*
X44515000Y-111891335D01*
X44570147Y-112168574D01*
X44678320Y-112429727D01*
X44835363Y-112664759D01*
X45035241Y-112864637D01*
X45270273Y-113021680D01*
X45531426Y-113129853D01*
X45808665Y-113185000D01*
X46091335Y-113185000D01*
X46368574Y-113129853D01*
X46629727Y-113021680D01*
X46864759Y-112864637D01*
X47064637Y-112664759D01*
X47221680Y-112429727D01*
X47329853Y-112168574D01*
X47385000Y-111891335D01*
X47385000Y-111608665D01*
X47329853Y-111331426D01*
X47221680Y-111070273D01*
X47064637Y-110835241D01*
X46864759Y-110635363D01*
X46629727Y-110478320D01*
X46368574Y-110370147D01*
X46091335Y-110315000D01*
X45808665Y-110315000D01*
X45531426Y-110370147D01*
X45270273Y-110478320D01*
X45035241Y-110635363D01*
X44835363Y-110835241D01*
X44678320Y-111070273D01*
X44570147Y-111331426D01*
X44515000Y-111608665D01*
X44233011Y-111608665D01*
X44179853Y-111341426D01*
X44071680Y-111080273D01*
X43914637Y-110845241D01*
X43714759Y-110645363D01*
X43479727Y-110488320D01*
X43218574Y-110380147D01*
X42941335Y-110325000D01*
X42658665Y-110325000D01*
X42381426Y-110380147D01*
X42120273Y-110488320D01*
X41885241Y-110645363D01*
X41685363Y-110845241D01*
X41528320Y-111080273D01*
X41420147Y-111341426D01*
X41365000Y-111618665D01*
X40660000Y-111618665D01*
X40660000Y-108973740D01*
X48965000Y-108973740D01*
X48965000Y-109266260D01*
X49022068Y-109553158D01*
X49134010Y-109823411D01*
X49296525Y-110066632D01*
X49503368Y-110273475D01*
X49746589Y-110435990D01*
X50016842Y-110547932D01*
X50303740Y-110605000D01*
X50596260Y-110605000D01*
X50883158Y-110547932D01*
X51153411Y-110435990D01*
X51396632Y-110273475D01*
X51603475Y-110066632D01*
X51765990Y-109823411D01*
X51877932Y-109553158D01*
X51935000Y-109266260D01*
X51935000Y-108973740D01*
X51877932Y-108686842D01*
X51765990Y-108416589D01*
X51603475Y-108173368D01*
X51396632Y-107966525D01*
X51214466Y-107844805D01*
X51331355Y-107775178D01*
X51547588Y-107580269D01*
X51721641Y-107346920D01*
X51846825Y-107084099D01*
X51891476Y-106936890D01*
X51770155Y-106707000D01*
X50577000Y-106707000D01*
X50577000Y-106727000D01*
X50323000Y-106727000D01*
X50323000Y-106707000D01*
X49129845Y-106707000D01*
X49008524Y-106936890D01*
X49053175Y-107084099D01*
X49178359Y-107346920D01*
X49352412Y-107580269D01*
X49568645Y-107775178D01*
X49685534Y-107844805D01*
X49503368Y-107966525D01*
X49296525Y-108173368D01*
X49134010Y-108416589D01*
X49022068Y-108686842D01*
X48965000Y-108973740D01*
X40660000Y-108973740D01*
X40660000Y-104396890D01*
X49008524Y-104396890D01*
X49053175Y-104544099D01*
X49178359Y-104806920D01*
X49352412Y-105040269D01*
X49568645Y-105235178D01*
X49694255Y-105310000D01*
X49568645Y-105384822D01*
X49352412Y-105579731D01*
X49178359Y-105813080D01*
X49053175Y-106075901D01*
X49008524Y-106223110D01*
X49129845Y-106453000D01*
X50323000Y-106453000D01*
X50323000Y-104167000D01*
X50577000Y-104167000D01*
X50577000Y-106453000D01*
X51770155Y-106453000D01*
X51891476Y-106223110D01*
X51846825Y-106075901D01*
X51721641Y-105813080D01*
X51547588Y-105579731D01*
X51331355Y-105384822D01*
X51205745Y-105310000D01*
X51331355Y-105235178D01*
X51547588Y-105040269D01*
X51721641Y-104806920D01*
X51846825Y-104544099D01*
X51891476Y-104396890D01*
X51770155Y-104167000D01*
X50577000Y-104167000D01*
X50323000Y-104167000D01*
X49129845Y-104167000D01*
X49008524Y-104396890D01*
X40660000Y-104396890D01*
X40660000Y-101458665D01*
X41365000Y-101458665D01*
X41365000Y-101741335D01*
X41420147Y-102018574D01*
X41528320Y-102279727D01*
X41685363Y-102514759D01*
X41885241Y-102714637D01*
X42120273Y-102871680D01*
X42381426Y-102979853D01*
X42658665Y-103035000D01*
X42941335Y-103035000D01*
X43218574Y-102979853D01*
X43479727Y-102871680D01*
X43714759Y-102714637D01*
X43914637Y-102514759D01*
X44071680Y-102279727D01*
X44179853Y-102018574D01*
X44235000Y-101741335D01*
X44235000Y-101458665D01*
X44233011Y-101448665D01*
X44515000Y-101448665D01*
X44515000Y-101731335D01*
X44570147Y-102008574D01*
X44678320Y-102269727D01*
X44835363Y-102504759D01*
X45035241Y-102704637D01*
X45270273Y-102861680D01*
X45531426Y-102969853D01*
X45808665Y-103025000D01*
X46091335Y-103025000D01*
X46368574Y-102969853D01*
X46629727Y-102861680D01*
X46864759Y-102704637D01*
X47064637Y-102504759D01*
X47221680Y-102269727D01*
X47329853Y-102008574D01*
X47385000Y-101731335D01*
X47385000Y-101448665D01*
X47329853Y-101171426D01*
X47221680Y-100910273D01*
X47064637Y-100675241D01*
X47039396Y-100650000D01*
X48961928Y-100650000D01*
X48961928Y-102350000D01*
X48974188Y-102474482D01*
X49010498Y-102594180D01*
X49069463Y-102704494D01*
X49148815Y-102801185D01*
X49245506Y-102880537D01*
X49355820Y-102939502D01*
X49436466Y-102963966D01*
X49352412Y-103039731D01*
X49178359Y-103273080D01*
X49053175Y-103535901D01*
X49008524Y-103683110D01*
X49129845Y-103913000D01*
X50323000Y-103913000D01*
X50323000Y-103893000D01*
X50577000Y-103893000D01*
X50577000Y-103913000D01*
X51770155Y-103913000D01*
X51891476Y-103683110D01*
X51846825Y-103535901D01*
X51721641Y-103273080D01*
X51547588Y-103039731D01*
X51463534Y-102963966D01*
X51544180Y-102939502D01*
X51654494Y-102880537D01*
X51751185Y-102801185D01*
X51830537Y-102704494D01*
X51889502Y-102594180D01*
X51925812Y-102474482D01*
X51938072Y-102350000D01*
X51938072Y-100650000D01*
X51925812Y-100525518D01*
X51889502Y-100405820D01*
X51830537Y-100295506D01*
X51751185Y-100198815D01*
X51654494Y-100119463D01*
X51544180Y-100060498D01*
X51424482Y-100024188D01*
X51300000Y-100011928D01*
X49600000Y-100011928D01*
X49475518Y-100024188D01*
X49355820Y-100060498D01*
X49245506Y-100119463D01*
X49148815Y-100198815D01*
X49069463Y-100295506D01*
X49010498Y-100405820D01*
X48974188Y-100525518D01*
X48961928Y-100650000D01*
X47039396Y-100650000D01*
X46864759Y-100475363D01*
X46629727Y-100318320D01*
X46368574Y-100210147D01*
X46091335Y-100155000D01*
X45808665Y-100155000D01*
X45531426Y-100210147D01*
X45270273Y-100318320D01*
X45035241Y-100475363D01*
X44835363Y-100675241D01*
X44678320Y-100910273D01*
X44570147Y-101171426D01*
X44515000Y-101448665D01*
X44233011Y-101448665D01*
X44179853Y-101181426D01*
X44071680Y-100920273D01*
X43914637Y-100685241D01*
X43714759Y-100485363D01*
X43479727Y-100328320D01*
X43218574Y-100220147D01*
X42941335Y-100165000D01*
X42658665Y-100165000D01*
X42381426Y-100220147D01*
X42120273Y-100328320D01*
X41885241Y-100485363D01*
X41685363Y-100685241D01*
X41528320Y-100920273D01*
X41420147Y-101181426D01*
X41365000Y-101458665D01*
X40660000Y-101458665D01*
X40660000Y-96125000D01*
X44811928Y-96125000D01*
X44811928Y-97875000D01*
X44841001Y-98170186D01*
X44927104Y-98454028D01*
X45066927Y-98715618D01*
X45255097Y-98944903D01*
X45484382Y-99133073D01*
X45745972Y-99272896D01*
X46029814Y-99358999D01*
X46325000Y-99388072D01*
X48075000Y-99388072D01*
X48370186Y-99358999D01*
X48654028Y-99272896D01*
X48915618Y-99133073D01*
X49144903Y-98944903D01*
X49333073Y-98715618D01*
X49470417Y-98458665D01*
X53855000Y-98458665D01*
X53855000Y-98741335D01*
X53910147Y-99018574D01*
X54018320Y-99279727D01*
X54175363Y-99514759D01*
X54375241Y-99714637D01*
X54610273Y-99871680D01*
X54871426Y-99979853D01*
X55148665Y-100035000D01*
X55431335Y-100035000D01*
X55708574Y-99979853D01*
X55969727Y-99871680D01*
X56204759Y-99714637D01*
X56404637Y-99514759D01*
X56560000Y-99282241D01*
X56715363Y-99514759D01*
X56915241Y-99714637D01*
X57150273Y-99871680D01*
X57411426Y-99979853D01*
X57688665Y-100035000D01*
X57971335Y-100035000D01*
X58248574Y-99979853D01*
X58509727Y-99871680D01*
X58744759Y-99714637D01*
X58944637Y-99514759D01*
X59100000Y-99282241D01*
X59255363Y-99514759D01*
X59455241Y-99714637D01*
X59690273Y-99871680D01*
X59951426Y-99979853D01*
X60228665Y-100035000D01*
X60511335Y-100035000D01*
X60788574Y-99979853D01*
X61049727Y-99871680D01*
X61284759Y-99714637D01*
X61484637Y-99514759D01*
X61640000Y-99282241D01*
X61795363Y-99514759D01*
X61995241Y-99714637D01*
X62230273Y-99871680D01*
X62491426Y-99979853D01*
X62768665Y-100035000D01*
X63051335Y-100035000D01*
X63328574Y-99979853D01*
X63589727Y-99871680D01*
X63824759Y-99714637D01*
X64024637Y-99514759D01*
X64180000Y-99282241D01*
X64335363Y-99514759D01*
X64535241Y-99714637D01*
X64770273Y-99871680D01*
X65031426Y-99979853D01*
X65308665Y-100035000D01*
X65591335Y-100035000D01*
X65868574Y-99979853D01*
X66129727Y-99871680D01*
X66364759Y-99714637D01*
X66564637Y-99514759D01*
X66720000Y-99282241D01*
X66875363Y-99514759D01*
X67075241Y-99714637D01*
X67310273Y-99871680D01*
X67571426Y-99979853D01*
X67848665Y-100035000D01*
X68131335Y-100035000D01*
X68408574Y-99979853D01*
X68669727Y-99871680D01*
X68904759Y-99714637D01*
X69104637Y-99514759D01*
X69260000Y-99282241D01*
X69415363Y-99514759D01*
X69615241Y-99714637D01*
X69850273Y-99871680D01*
X70111426Y-99979853D01*
X70388665Y-100035000D01*
X70671335Y-100035000D01*
X70948574Y-99979853D01*
X71209727Y-99871680D01*
X71444759Y-99714637D01*
X71644637Y-99514759D01*
X71800000Y-99282241D01*
X71955363Y-99514759D01*
X72155241Y-99714637D01*
X72390273Y-99871680D01*
X72651426Y-99979853D01*
X72928665Y-100035000D01*
X73211335Y-100035000D01*
X73488574Y-99979853D01*
X73749727Y-99871680D01*
X73984759Y-99714637D01*
X74184637Y-99514759D01*
X74340000Y-99282241D01*
X74495363Y-99514759D01*
X74695241Y-99714637D01*
X74930273Y-99871680D01*
X75191426Y-99979853D01*
X75468665Y-100035000D01*
X75751335Y-100035000D01*
X76028574Y-99979853D01*
X76289727Y-99871680D01*
X76524759Y-99714637D01*
X76724637Y-99514759D01*
X76881680Y-99279727D01*
X76886067Y-99269135D01*
X76997615Y-99455131D01*
X77186586Y-99663519D01*
X77412580Y-99831037D01*
X77666913Y-99951246D01*
X77800961Y-99991904D01*
X78023000Y-99869915D01*
X78023000Y-98727000D01*
X78003000Y-98727000D01*
X78003000Y-98473000D01*
X78023000Y-98473000D01*
X78023000Y-97330085D01*
X77800961Y-97208096D01*
X77666913Y-97248754D01*
X77412580Y-97368963D01*
X77186586Y-97536481D01*
X76997615Y-97744869D01*
X76886067Y-97930865D01*
X76881680Y-97920273D01*
X76724637Y-97685241D01*
X76524759Y-97485363D01*
X76289727Y-97328320D01*
X76028574Y-97220147D01*
X75751335Y-97165000D01*
X75468665Y-97165000D01*
X75191426Y-97220147D01*
X74930273Y-97328320D01*
X74695241Y-97485363D01*
X74495363Y-97685241D01*
X74340000Y-97917759D01*
X74184637Y-97685241D01*
X73984759Y-97485363D01*
X73749727Y-97328320D01*
X73488574Y-97220147D01*
X73211335Y-97165000D01*
X73039802Y-97165000D01*
X73962100Y-96242702D01*
X77386903Y-96242702D01*
X77458486Y-96486671D01*
X77713996Y-96607571D01*
X77988184Y-96676300D01*
X78270512Y-96690217D01*
X78550130Y-96648787D01*
X78816292Y-96553603D01*
X78941514Y-96486671D01*
X79013097Y-96242702D01*
X78200000Y-95429605D01*
X77386903Y-96242702D01*
X73962100Y-96242702D01*
X74111004Y-96093798D01*
X74140001Y-96070001D01*
X74234974Y-95954276D01*
X74305546Y-95822247D01*
X74349003Y-95678986D01*
X74360000Y-95567333D01*
X74360000Y-95567325D01*
X74363676Y-95530000D01*
X74360000Y-95492675D01*
X74360000Y-95320512D01*
X76759783Y-95320512D01*
X76801213Y-95600130D01*
X76896397Y-95866292D01*
X76963329Y-95991514D01*
X77207298Y-96063097D01*
X78020395Y-95250000D01*
X78379605Y-95250000D01*
X79192702Y-96063097D01*
X79436671Y-95991514D01*
X79450324Y-95962659D01*
X79585363Y-96164759D01*
X79785241Y-96364637D01*
X80020273Y-96521680D01*
X80281426Y-96629853D01*
X80558665Y-96685000D01*
X80841335Y-96685000D01*
X81118574Y-96629853D01*
X81379727Y-96521680D01*
X81614759Y-96364637D01*
X81814637Y-96164759D01*
X81971680Y-95929727D01*
X82079853Y-95668574D01*
X82135000Y-95391335D01*
X82135000Y-95108665D01*
X82079853Y-94831426D01*
X81971680Y-94570273D01*
X81814637Y-94335241D01*
X81614759Y-94135363D01*
X81379727Y-93978320D01*
X81118574Y-93870147D01*
X80841335Y-93815000D01*
X80558665Y-93815000D01*
X80281426Y-93870147D01*
X80020273Y-93978320D01*
X79785241Y-94135363D01*
X79585363Y-94335241D01*
X79451308Y-94535869D01*
X79436671Y-94508486D01*
X79192702Y-94436903D01*
X78379605Y-95250000D01*
X78020395Y-95250000D01*
X77207298Y-94436903D01*
X76963329Y-94508486D01*
X76842429Y-94763996D01*
X76773700Y-95038184D01*
X76759783Y-95320512D01*
X74360000Y-95320512D01*
X74360000Y-94257298D01*
X77386903Y-94257298D01*
X78200000Y-95070395D01*
X79013097Y-94257298D01*
X78941514Y-94013329D01*
X78686004Y-93892429D01*
X78411816Y-93823700D01*
X78129488Y-93809783D01*
X77849870Y-93851213D01*
X77583708Y-93946397D01*
X77458486Y-94013329D01*
X77386903Y-94257298D01*
X74360000Y-94257298D01*
X74360000Y-90270512D01*
X74909783Y-90270512D01*
X74951213Y-90550130D01*
X75046397Y-90816292D01*
X75111616Y-90938309D01*
X75098815Y-90948815D01*
X75019463Y-91045506D01*
X74960498Y-91155820D01*
X74924188Y-91275518D01*
X74911928Y-91400000D01*
X74911928Y-93000000D01*
X74924188Y-93124482D01*
X74960498Y-93244180D01*
X75019463Y-93354494D01*
X75098815Y-93451185D01*
X75195506Y-93530537D01*
X75305820Y-93589502D01*
X75425518Y-93625812D01*
X75550000Y-93638072D01*
X77150000Y-93638072D01*
X77274482Y-93625812D01*
X77394180Y-93589502D01*
X77504494Y-93530537D01*
X77601185Y-93451185D01*
X77680537Y-93354494D01*
X77739502Y-93244180D01*
X77775812Y-93124482D01*
X77777369Y-93108665D01*
X82965000Y-93108665D01*
X82965000Y-93391335D01*
X83020147Y-93668574D01*
X83128320Y-93929727D01*
X83285363Y-94164759D01*
X83485241Y-94364637D01*
X83720273Y-94521680D01*
X83981426Y-94629853D01*
X84258665Y-94685000D01*
X84541335Y-94685000D01*
X84818574Y-94629853D01*
X85079727Y-94521680D01*
X85314759Y-94364637D01*
X85514637Y-94164759D01*
X85671680Y-93929727D01*
X85779853Y-93668574D01*
X85835000Y-93391335D01*
X85835000Y-93108665D01*
X85779853Y-92831426D01*
X85671680Y-92570273D01*
X85514637Y-92335241D01*
X85314759Y-92135363D01*
X85079727Y-91978320D01*
X84818574Y-91870147D01*
X84541335Y-91815000D01*
X84258665Y-91815000D01*
X83981426Y-91870147D01*
X83720273Y-91978320D01*
X83485241Y-92135363D01*
X83285363Y-92335241D01*
X83128320Y-92570273D01*
X83020147Y-92831426D01*
X82965000Y-93108665D01*
X77777369Y-93108665D01*
X77788072Y-93000000D01*
X77788072Y-91400000D01*
X77775812Y-91275518D01*
X77739502Y-91155820D01*
X77680537Y-91045506D01*
X77601185Y-90948815D01*
X77588242Y-90938193D01*
X77707571Y-90686004D01*
X77776300Y-90411816D01*
X77790217Y-90129488D01*
X77750091Y-89858665D01*
X83015000Y-89858665D01*
X83015000Y-90141335D01*
X83070147Y-90418574D01*
X83178320Y-90679727D01*
X83335363Y-90914759D01*
X83535241Y-91114637D01*
X83770273Y-91271680D01*
X84031426Y-91379853D01*
X84308665Y-91435000D01*
X84591335Y-91435000D01*
X84868574Y-91379853D01*
X85129727Y-91271680D01*
X85364759Y-91114637D01*
X85564637Y-90914759D01*
X85721680Y-90679727D01*
X85829853Y-90418574D01*
X85885000Y-90141335D01*
X85885000Y-89858665D01*
X85829853Y-89581426D01*
X85721680Y-89320273D01*
X85564637Y-89085241D01*
X85364759Y-88885363D01*
X85129727Y-88728320D01*
X84868574Y-88620147D01*
X84591335Y-88565000D01*
X84308665Y-88565000D01*
X84031426Y-88620147D01*
X83770273Y-88728320D01*
X83535241Y-88885363D01*
X83335363Y-89085241D01*
X83178320Y-89320273D01*
X83070147Y-89581426D01*
X83015000Y-89858665D01*
X77750091Y-89858665D01*
X77748787Y-89849870D01*
X77653603Y-89583708D01*
X77586671Y-89458486D01*
X77342702Y-89386903D01*
X76529605Y-90200000D01*
X76543748Y-90214143D01*
X76364143Y-90393748D01*
X76350000Y-90379605D01*
X76335858Y-90393748D01*
X76156253Y-90214143D01*
X76170395Y-90200000D01*
X75357298Y-89386903D01*
X75113329Y-89458486D01*
X74992429Y-89713996D01*
X74923700Y-89988184D01*
X74909783Y-90270512D01*
X74360000Y-90270512D01*
X74360000Y-89207298D01*
X75536903Y-89207298D01*
X76350000Y-90020395D01*
X77163097Y-89207298D01*
X77091514Y-88963329D01*
X76836004Y-88842429D01*
X76561816Y-88773700D01*
X76279488Y-88759783D01*
X75999870Y-88801213D01*
X75733708Y-88896397D01*
X75608486Y-88963329D01*
X75536903Y-89207298D01*
X74360000Y-89207298D01*
X74360000Y-88874801D01*
X75549388Y-87685413D01*
X83994192Y-87685413D01*
X84089956Y-87949814D01*
X84379571Y-88090704D01*
X84691108Y-88172384D01*
X85012595Y-88191718D01*
X85331675Y-88147961D01*
X85636088Y-88042795D01*
X85810044Y-87949814D01*
X85905808Y-87685413D01*
X90494192Y-87685413D01*
X90589956Y-87949814D01*
X90879571Y-88090704D01*
X91191108Y-88172384D01*
X91512595Y-88191718D01*
X91831675Y-88147961D01*
X92136088Y-88042795D01*
X92310044Y-87949814D01*
X92405808Y-87685413D01*
X93844192Y-87685413D01*
X93939956Y-87949814D01*
X94229571Y-88090704D01*
X94541108Y-88172384D01*
X94862595Y-88191718D01*
X95181675Y-88147961D01*
X95486088Y-88042795D01*
X95660044Y-87949814D01*
X95755808Y-87685413D01*
X94800000Y-86729605D01*
X93844192Y-87685413D01*
X92405808Y-87685413D01*
X91450000Y-86729605D01*
X90494192Y-87685413D01*
X85905808Y-87685413D01*
X84950000Y-86729605D01*
X83994192Y-87685413D01*
X75549388Y-87685413D01*
X76293592Y-86941210D01*
X76513740Y-86985000D01*
X76806260Y-86985000D01*
X77093158Y-86927932D01*
X77363411Y-86815990D01*
X77606632Y-86653475D01*
X77647512Y-86612595D01*
X83308282Y-86612595D01*
X83352039Y-86931675D01*
X83457205Y-87236088D01*
X83550186Y-87410044D01*
X83814587Y-87505808D01*
X84770395Y-86550000D01*
X85129605Y-86550000D01*
X86085413Y-87505808D01*
X86349814Y-87410044D01*
X86490704Y-87120429D01*
X86572384Y-86808892D01*
X86584189Y-86612595D01*
X89808282Y-86612595D01*
X89852039Y-86931675D01*
X89957205Y-87236088D01*
X90050186Y-87410044D01*
X90314587Y-87505808D01*
X91270395Y-86550000D01*
X91629605Y-86550000D01*
X92585413Y-87505808D01*
X92849814Y-87410044D01*
X92990704Y-87120429D01*
X93072384Y-86808892D01*
X93084189Y-86612595D01*
X93158282Y-86612595D01*
X93202039Y-86931675D01*
X93307205Y-87236088D01*
X93400186Y-87410044D01*
X93664587Y-87505808D01*
X94620395Y-86550000D01*
X94979605Y-86550000D01*
X95935413Y-87505808D01*
X96199814Y-87410044D01*
X96340704Y-87120429D01*
X96422384Y-86808892D01*
X96434189Y-86612595D01*
X99658282Y-86612595D01*
X99702039Y-86931675D01*
X99807205Y-87236088D01*
X99900186Y-87410044D01*
X100164587Y-87505808D01*
X101120395Y-86550000D01*
X100164587Y-85594192D01*
X99900186Y-85689956D01*
X99759296Y-85979571D01*
X99677616Y-86291108D01*
X99658282Y-86612595D01*
X96434189Y-86612595D01*
X96441718Y-86487405D01*
X96397961Y-86168325D01*
X96292795Y-85863912D01*
X96199814Y-85689956D01*
X95935413Y-85594192D01*
X94979605Y-86550000D01*
X94620395Y-86550000D01*
X93664587Y-85594192D01*
X93400186Y-85689956D01*
X93259296Y-85979571D01*
X93177616Y-86291108D01*
X93158282Y-86612595D01*
X93084189Y-86612595D01*
X93091718Y-86487405D01*
X93047961Y-86168325D01*
X92942795Y-85863912D01*
X92849814Y-85689956D01*
X92585413Y-85594192D01*
X91629605Y-86550000D01*
X91270395Y-86550000D01*
X90314587Y-85594192D01*
X90050186Y-85689956D01*
X89909296Y-85979571D01*
X89827616Y-86291108D01*
X89808282Y-86612595D01*
X86584189Y-86612595D01*
X86591718Y-86487405D01*
X86547961Y-86168325D01*
X86442795Y-85863912D01*
X86349814Y-85689956D01*
X86085413Y-85594192D01*
X85129605Y-86550000D01*
X84770395Y-86550000D01*
X83814587Y-85594192D01*
X83550186Y-85689956D01*
X83409296Y-85979571D01*
X83327616Y-86291108D01*
X83308282Y-86612595D01*
X77647512Y-86612595D01*
X77813475Y-86446632D01*
X77975990Y-86203411D01*
X78087932Y-85933158D01*
X78145000Y-85646260D01*
X78145000Y-85414587D01*
X83994192Y-85414587D01*
X84950000Y-86370395D01*
X85905808Y-85414587D01*
X90494192Y-85414587D01*
X91450000Y-86370395D01*
X92405808Y-85414587D01*
X93844192Y-85414587D01*
X94800000Y-86370395D01*
X95755808Y-85414587D01*
X95660044Y-85150186D01*
X95370429Y-85009296D01*
X95058892Y-84927616D01*
X94737405Y-84908282D01*
X94418325Y-84952039D01*
X94113912Y-85057205D01*
X93939956Y-85150186D01*
X93844192Y-85414587D01*
X92405808Y-85414587D01*
X92310044Y-85150186D01*
X92020429Y-85009296D01*
X91708892Y-84927616D01*
X91387405Y-84908282D01*
X91068325Y-84952039D01*
X90763912Y-85057205D01*
X90589956Y-85150186D01*
X90494192Y-85414587D01*
X85905808Y-85414587D01*
X85810044Y-85150186D01*
X85520429Y-85009296D01*
X85208892Y-84927616D01*
X84887405Y-84908282D01*
X84568325Y-84952039D01*
X84263912Y-85057205D01*
X84089956Y-85150186D01*
X83994192Y-85414587D01*
X78145000Y-85414587D01*
X78145000Y-85353740D01*
X78087932Y-85066842D01*
X77975990Y-84796589D01*
X77813475Y-84553368D01*
X77606632Y-84346525D01*
X77430594Y-84228900D01*
X77660269Y-84057588D01*
X77855178Y-83841355D01*
X78004157Y-83591252D01*
X78101481Y-83316891D01*
X77980814Y-83087000D01*
X76787000Y-83087000D01*
X76787000Y-83107000D01*
X76533000Y-83107000D01*
X76533000Y-83087000D01*
X76513000Y-83087000D01*
X76513000Y-82833000D01*
X76533000Y-82833000D01*
X76533000Y-81639845D01*
X76787000Y-81639845D01*
X76787000Y-82833000D01*
X77980814Y-82833000D01*
X78101481Y-82603109D01*
X78004157Y-82328748D01*
X77855178Y-82078645D01*
X77660269Y-81862412D01*
X77426920Y-81688359D01*
X77164099Y-81563175D01*
X77016890Y-81518524D01*
X76787000Y-81639845D01*
X76533000Y-81639845D01*
X76303110Y-81518524D01*
X76155901Y-81563175D01*
X75893080Y-81688359D01*
X75659731Y-81862412D01*
X75464822Y-82078645D01*
X75395195Y-82195534D01*
X75273475Y-82013368D01*
X75066632Y-81806525D01*
X74823411Y-81644010D01*
X74553158Y-81532068D01*
X74266260Y-81475000D01*
X73973740Y-81475000D01*
X73686842Y-81532068D01*
X73416589Y-81644010D01*
X73173368Y-81806525D01*
X72966525Y-82013368D01*
X72850000Y-82187760D01*
X72733475Y-82013368D01*
X72526632Y-81806525D01*
X72283411Y-81644010D01*
X72013158Y-81532068D01*
X71726260Y-81475000D01*
X71433740Y-81475000D01*
X71146842Y-81532068D01*
X70876589Y-81644010D01*
X70633368Y-81806525D01*
X70426525Y-82013368D01*
X70310000Y-82187760D01*
X70193475Y-82013368D01*
X69986632Y-81806525D01*
X69743411Y-81644010D01*
X69473158Y-81532068D01*
X69186260Y-81475000D01*
X68893740Y-81475000D01*
X68606842Y-81532068D01*
X68336589Y-81644010D01*
X68093368Y-81806525D01*
X67886525Y-82013368D01*
X67770000Y-82187760D01*
X67653475Y-82013368D01*
X67446632Y-81806525D01*
X67203411Y-81644010D01*
X66933158Y-81532068D01*
X66646260Y-81475000D01*
X66353740Y-81475000D01*
X66066842Y-81532068D01*
X65796589Y-81644010D01*
X65553368Y-81806525D01*
X65346525Y-82013368D01*
X65184010Y-82256589D01*
X65072068Y-82526842D01*
X65015000Y-82813740D01*
X65015000Y-83106260D01*
X65072068Y-83393158D01*
X65184010Y-83663411D01*
X65346525Y-83906632D01*
X65478380Y-84038487D01*
X65405820Y-84060498D01*
X65295506Y-84119463D01*
X65198815Y-84198815D01*
X65119463Y-84295506D01*
X65060498Y-84405820D01*
X65024188Y-84525518D01*
X65011928Y-84650000D01*
X65011928Y-86350000D01*
X65024188Y-86474482D01*
X65060498Y-86594180D01*
X65119463Y-86704494D01*
X65198815Y-86801185D01*
X65295506Y-86880537D01*
X65405820Y-86939502D01*
X65525518Y-86975812D01*
X65650000Y-86988072D01*
X67350000Y-86988072D01*
X67474482Y-86975812D01*
X67594180Y-86939502D01*
X67704494Y-86880537D01*
X67801185Y-86801185D01*
X67880537Y-86704494D01*
X67939502Y-86594180D01*
X67961513Y-86521620D01*
X68093368Y-86653475D01*
X68336589Y-86815990D01*
X68606842Y-86927932D01*
X68893740Y-86985000D01*
X69186260Y-86985000D01*
X69473158Y-86927932D01*
X69743411Y-86815990D01*
X69986632Y-86653475D01*
X70193475Y-86446632D01*
X70310000Y-86272240D01*
X70426525Y-86446632D01*
X70633368Y-86653475D01*
X70876589Y-86815990D01*
X71146842Y-86927932D01*
X71433740Y-86985000D01*
X71726260Y-86985000D01*
X72013158Y-86927932D01*
X72283411Y-86815990D01*
X72526632Y-86653475D01*
X72733475Y-86446632D01*
X72850000Y-86272240D01*
X72966525Y-86446632D01*
X73173368Y-86653475D01*
X73416589Y-86815990D01*
X73686842Y-86927932D01*
X73973740Y-86985000D01*
X74100199Y-86985000D01*
X73088998Y-87996201D01*
X73060000Y-88019999D01*
X73036202Y-88048997D01*
X73036201Y-88048998D01*
X72965026Y-88135724D01*
X72894454Y-88267754D01*
X72850998Y-88411015D01*
X72836324Y-88560000D01*
X72840001Y-88597332D01*
X72840000Y-95215198D01*
X70853886Y-97201312D01*
X70671335Y-97165000D01*
X70388665Y-97165000D01*
X70111426Y-97220147D01*
X69850273Y-97328320D01*
X69615241Y-97485363D01*
X69415363Y-97685241D01*
X69260000Y-97917759D01*
X69104637Y-97685241D01*
X68904759Y-97485363D01*
X68669727Y-97328320D01*
X68408574Y-97220147D01*
X68131335Y-97165000D01*
X67848665Y-97165000D01*
X67571426Y-97220147D01*
X67310273Y-97328320D01*
X67075241Y-97485363D01*
X66875363Y-97685241D01*
X66720000Y-97917759D01*
X66564637Y-97685241D01*
X66364759Y-97485363D01*
X66129727Y-97328320D01*
X65868574Y-97220147D01*
X65591335Y-97165000D01*
X65308665Y-97165000D01*
X65031426Y-97220147D01*
X64770273Y-97328320D01*
X64535241Y-97485363D01*
X64335363Y-97685241D01*
X64180000Y-97917759D01*
X64024637Y-97685241D01*
X63824759Y-97485363D01*
X63620154Y-97348651D01*
X63657420Y-97331037D01*
X63883414Y-97163519D01*
X64072385Y-96955131D01*
X64217070Y-96713881D01*
X64311909Y-96449040D01*
X64190624Y-96227000D01*
X63047000Y-96227000D01*
X63047000Y-96247000D01*
X62793000Y-96247000D01*
X62793000Y-96227000D01*
X62773000Y-96227000D01*
X62773000Y-95973000D01*
X62793000Y-95973000D01*
X62793000Y-94830085D01*
X63047000Y-94830085D01*
X63047000Y-95973000D01*
X64190624Y-95973000D01*
X64311909Y-95750960D01*
X64217070Y-95486119D01*
X64072385Y-95244869D01*
X63883414Y-95036481D01*
X63657420Y-94868963D01*
X63403087Y-94748754D01*
X63269039Y-94708096D01*
X63047000Y-94830085D01*
X62793000Y-94830085D01*
X62570961Y-94708096D01*
X62436913Y-94748754D01*
X62182580Y-94868963D01*
X61956586Y-95036481D01*
X61767615Y-95244869D01*
X61656067Y-95430865D01*
X61651680Y-95420273D01*
X61494637Y-95185241D01*
X61294759Y-94985363D01*
X61059727Y-94828320D01*
X60798574Y-94720147D01*
X60521335Y-94665000D01*
X60238665Y-94665000D01*
X59961426Y-94720147D01*
X59700273Y-94828320D01*
X59465241Y-94985363D01*
X59265363Y-95185241D01*
X59110000Y-95417759D01*
X58954637Y-95185241D01*
X58754759Y-94985363D01*
X58519727Y-94828320D01*
X58258574Y-94720147D01*
X57981335Y-94665000D01*
X57698665Y-94665000D01*
X57421426Y-94720147D01*
X57160273Y-94828320D01*
X56925241Y-94985363D01*
X56726643Y-95183961D01*
X56725812Y-95175518D01*
X56689502Y-95055820D01*
X56630537Y-94945506D01*
X56551185Y-94848815D01*
X56454494Y-94769463D01*
X56344180Y-94710498D01*
X56224482Y-94674188D01*
X56100000Y-94661928D01*
X54500000Y-94661928D01*
X54375518Y-94674188D01*
X54255820Y-94710498D01*
X54145506Y-94769463D01*
X54048815Y-94848815D01*
X53969463Y-94945506D01*
X53910498Y-95055820D01*
X53874188Y-95175518D01*
X53861928Y-95300000D01*
X53861928Y-96900000D01*
X53874188Y-97024482D01*
X53910498Y-97144180D01*
X53969463Y-97254494D01*
X54048815Y-97351185D01*
X54145506Y-97430537D01*
X54255820Y-97489502D01*
X54344271Y-97516333D01*
X54175363Y-97685241D01*
X54018320Y-97920273D01*
X53910147Y-98181426D01*
X53855000Y-98458665D01*
X49470417Y-98458665D01*
X49472896Y-98454028D01*
X49558999Y-98170186D01*
X49588072Y-97875000D01*
X49588072Y-96125000D01*
X49558999Y-95829814D01*
X49472896Y-95545972D01*
X49333073Y-95284382D01*
X49144903Y-95055097D01*
X48915618Y-94866927D01*
X48654028Y-94727104D01*
X48525357Y-94688072D01*
X51950000Y-94688072D01*
X52074482Y-94675812D01*
X52194180Y-94639502D01*
X52304494Y-94580537D01*
X52401185Y-94501185D01*
X52480537Y-94404494D01*
X52539502Y-94294180D01*
X52575812Y-94174482D01*
X52588072Y-94050000D01*
X52588072Y-91600000D01*
X68311928Y-91600000D01*
X68311928Y-93200000D01*
X68324188Y-93324482D01*
X68360498Y-93444180D01*
X68419463Y-93554494D01*
X68498815Y-93651185D01*
X68595506Y-93730537D01*
X68705820Y-93789502D01*
X68825518Y-93825812D01*
X68950000Y-93838072D01*
X70550000Y-93838072D01*
X70674482Y-93825812D01*
X70794180Y-93789502D01*
X70904494Y-93730537D01*
X71001185Y-93651185D01*
X71080537Y-93554494D01*
X71139502Y-93444180D01*
X71175812Y-93324482D01*
X71188072Y-93200000D01*
X71188072Y-91600000D01*
X71175812Y-91475518D01*
X71139502Y-91355820D01*
X71080537Y-91245506D01*
X71001185Y-91148815D01*
X70904494Y-91069463D01*
X70794180Y-91010498D01*
X70674482Y-90974188D01*
X70550000Y-90961928D01*
X70542785Y-90961928D01*
X70563097Y-90892702D01*
X69750000Y-90079605D01*
X68936903Y-90892702D01*
X68957215Y-90961928D01*
X68950000Y-90961928D01*
X68825518Y-90974188D01*
X68705820Y-91010498D01*
X68595506Y-91069463D01*
X68498815Y-91148815D01*
X68419463Y-91245506D01*
X68360498Y-91355820D01*
X68324188Y-91475518D01*
X68311928Y-91600000D01*
X52588072Y-91600000D01*
X52588072Y-90550000D01*
X52575812Y-90425518D01*
X52539502Y-90305820D01*
X52480537Y-90195506D01*
X52401185Y-90098815D01*
X52304494Y-90019463D01*
X52212915Y-89970512D01*
X68309783Y-89970512D01*
X68351213Y-90250130D01*
X68446397Y-90516292D01*
X68513329Y-90641514D01*
X68757298Y-90713097D01*
X69570395Y-89900000D01*
X69929605Y-89900000D01*
X70742702Y-90713097D01*
X70986671Y-90641514D01*
X71107571Y-90386004D01*
X71176300Y-90111816D01*
X71190217Y-89829488D01*
X71148787Y-89549870D01*
X71053603Y-89283708D01*
X70986671Y-89158486D01*
X70742702Y-89086903D01*
X69929605Y-89900000D01*
X69570395Y-89900000D01*
X68757298Y-89086903D01*
X68513329Y-89158486D01*
X68392429Y-89413996D01*
X68323700Y-89688184D01*
X68309783Y-89970512D01*
X52212915Y-89970512D01*
X52194180Y-89960498D01*
X52074482Y-89924188D01*
X51950000Y-89911928D01*
X48450000Y-89911928D01*
X48325518Y-89924188D01*
X48205820Y-89960498D01*
X48095506Y-90019463D01*
X47998815Y-90098815D01*
X47919463Y-90195506D01*
X47860498Y-90305820D01*
X47824188Y-90425518D01*
X47811928Y-90550000D01*
X47811928Y-94050000D01*
X47824188Y-94174482D01*
X47860498Y-94294180D01*
X47919463Y-94404494D01*
X47998815Y-94501185D01*
X48095506Y-94580537D01*
X48172131Y-94621494D01*
X48075000Y-94611928D01*
X46325000Y-94611928D01*
X46029814Y-94641001D01*
X45745972Y-94727104D01*
X45484382Y-94866927D01*
X45255097Y-95055097D01*
X45066927Y-95284382D01*
X44927104Y-95545972D01*
X44841001Y-95829814D01*
X44811928Y-96125000D01*
X40660000Y-96125000D01*
X40660000Y-94050000D01*
X42061928Y-94050000D01*
X42074188Y-94174482D01*
X42110498Y-94294180D01*
X42169463Y-94404494D01*
X42248815Y-94501185D01*
X42345506Y-94580537D01*
X42455820Y-94639502D01*
X42575518Y-94675812D01*
X42700000Y-94688072D01*
X43914250Y-94685000D01*
X44073000Y-94526250D01*
X44073000Y-92427000D01*
X44327000Y-92427000D01*
X44327000Y-94526250D01*
X44485750Y-94685000D01*
X45700000Y-94688072D01*
X45824482Y-94675812D01*
X45944180Y-94639502D01*
X46054494Y-94580537D01*
X46151185Y-94501185D01*
X46230537Y-94404494D01*
X46289502Y-94294180D01*
X46325812Y-94174482D01*
X46338072Y-94050000D01*
X46335000Y-92585750D01*
X46176250Y-92427000D01*
X44327000Y-92427000D01*
X44073000Y-92427000D01*
X42223750Y-92427000D01*
X42065000Y-92585750D01*
X42061928Y-94050000D01*
X40660000Y-94050000D01*
X40660000Y-90550000D01*
X42061928Y-90550000D01*
X42065000Y-92014250D01*
X42223750Y-92173000D01*
X44073000Y-92173000D01*
X44073000Y-90073750D01*
X44327000Y-90073750D01*
X44327000Y-92173000D01*
X46176250Y-92173000D01*
X46335000Y-92014250D01*
X46338072Y-90550000D01*
X46325812Y-90425518D01*
X46289502Y-90305820D01*
X46230537Y-90195506D01*
X46151185Y-90098815D01*
X46054494Y-90019463D01*
X45944180Y-89960498D01*
X45824482Y-89924188D01*
X45700000Y-89911928D01*
X44485750Y-89915000D01*
X44327000Y-90073750D01*
X44073000Y-90073750D01*
X43914250Y-89915000D01*
X42700000Y-89911928D01*
X42575518Y-89924188D01*
X42455820Y-89960498D01*
X42345506Y-90019463D01*
X42248815Y-90098815D01*
X42169463Y-90195506D01*
X42110498Y-90305820D01*
X42074188Y-90425518D01*
X42061928Y-90550000D01*
X40660000Y-90550000D01*
X40660000Y-88338665D01*
X53865000Y-88338665D01*
X53865000Y-88621335D01*
X53920147Y-88898574D01*
X54028320Y-89159727D01*
X54185363Y-89394759D01*
X54385241Y-89594637D01*
X54620273Y-89751680D01*
X54881426Y-89859853D01*
X55158665Y-89915000D01*
X55441335Y-89915000D01*
X55718574Y-89859853D01*
X55979727Y-89751680D01*
X56214759Y-89594637D01*
X56414637Y-89394759D01*
X56570000Y-89162241D01*
X56725363Y-89394759D01*
X56925241Y-89594637D01*
X57160273Y-89751680D01*
X57421426Y-89859853D01*
X57698665Y-89915000D01*
X57981335Y-89915000D01*
X58258574Y-89859853D01*
X58519727Y-89751680D01*
X58754759Y-89594637D01*
X58954637Y-89394759D01*
X59111680Y-89159727D01*
X59116067Y-89149135D01*
X59227615Y-89335131D01*
X59416586Y-89543519D01*
X59642580Y-89711037D01*
X59896913Y-89831246D01*
X60030961Y-89871904D01*
X60253000Y-89749915D01*
X60253000Y-88607000D01*
X60507000Y-88607000D01*
X60507000Y-89749915D01*
X60729039Y-89871904D01*
X60863087Y-89831246D01*
X61117420Y-89711037D01*
X61343414Y-89543519D01*
X61532385Y-89335131D01*
X61650000Y-89139018D01*
X61767615Y-89335131D01*
X61956586Y-89543519D01*
X62182580Y-89711037D01*
X62436913Y-89831246D01*
X62570961Y-89871904D01*
X62793000Y-89749915D01*
X62793000Y-88607000D01*
X63047000Y-88607000D01*
X63047000Y-89749915D01*
X63269039Y-89871904D01*
X63403087Y-89831246D01*
X63657420Y-89711037D01*
X63883414Y-89543519D01*
X64072385Y-89335131D01*
X64217070Y-89093881D01*
X64283884Y-88907298D01*
X68936903Y-88907298D01*
X69750000Y-89720395D01*
X70563097Y-88907298D01*
X70491514Y-88663329D01*
X70236004Y-88542429D01*
X69961816Y-88473700D01*
X69679488Y-88459783D01*
X69399870Y-88501213D01*
X69133708Y-88596397D01*
X69008486Y-88663329D01*
X68936903Y-88907298D01*
X64283884Y-88907298D01*
X64311909Y-88829040D01*
X64190624Y-88607000D01*
X63047000Y-88607000D01*
X62793000Y-88607000D01*
X60507000Y-88607000D01*
X60253000Y-88607000D01*
X60233000Y-88607000D01*
X60233000Y-88353000D01*
X60253000Y-88353000D01*
X60253000Y-87210085D01*
X60507000Y-87210085D01*
X60507000Y-88353000D01*
X62793000Y-88353000D01*
X62793000Y-87210085D01*
X63047000Y-87210085D01*
X63047000Y-88353000D01*
X64190624Y-88353000D01*
X64311909Y-88130960D01*
X64217070Y-87866119D01*
X64072385Y-87624869D01*
X63883414Y-87416481D01*
X63657420Y-87248963D01*
X63403087Y-87128754D01*
X63269039Y-87088096D01*
X63047000Y-87210085D01*
X62793000Y-87210085D01*
X62570961Y-87088096D01*
X62436913Y-87128754D01*
X62182580Y-87248963D01*
X61956586Y-87416481D01*
X61767615Y-87624869D01*
X61650000Y-87820982D01*
X61532385Y-87624869D01*
X61343414Y-87416481D01*
X61117420Y-87248963D01*
X60863087Y-87128754D01*
X60729039Y-87088096D01*
X60507000Y-87210085D01*
X60253000Y-87210085D01*
X60030961Y-87088096D01*
X59896913Y-87128754D01*
X59642580Y-87248963D01*
X59416586Y-87416481D01*
X59227615Y-87624869D01*
X59116067Y-87810865D01*
X59111680Y-87800273D01*
X58954637Y-87565241D01*
X58754759Y-87365363D01*
X58519727Y-87208320D01*
X58258574Y-87100147D01*
X57981335Y-87045000D01*
X57698665Y-87045000D01*
X57421426Y-87100147D01*
X57160273Y-87208320D01*
X56925241Y-87365363D01*
X56725363Y-87565241D01*
X56570000Y-87797759D01*
X56414637Y-87565241D01*
X56214759Y-87365363D01*
X55979727Y-87208320D01*
X55718574Y-87100147D01*
X55441335Y-87045000D01*
X55158665Y-87045000D01*
X54881426Y-87100147D01*
X54620273Y-87208320D01*
X54385241Y-87365363D01*
X54185363Y-87565241D01*
X54028320Y-87800273D01*
X53920147Y-88061426D01*
X53865000Y-88338665D01*
X40660000Y-88338665D01*
X40660000Y-84700000D01*
X47061928Y-84700000D01*
X47074188Y-84824482D01*
X47110498Y-84944180D01*
X47169463Y-85054494D01*
X47248815Y-85151185D01*
X47345506Y-85230537D01*
X47455820Y-85289502D01*
X47575518Y-85325812D01*
X47700000Y-85338072D01*
X48314250Y-85335000D01*
X48473000Y-85176250D01*
X48473000Y-83927000D01*
X47223750Y-83927000D01*
X47065000Y-84085750D01*
X47061928Y-84700000D01*
X40660000Y-84700000D01*
X40660000Y-80660000D01*
X42755097Y-80660000D01*
X42559750Y-80740915D01*
M02*
